<?xml version="1.0" encoding="utf-8"?>
<!-- Generator: Adobe Illustrator 25.4.1, SVG Export Plug-In . SVG Version: 6.00 Build 0)  -->
<svg version="1.1" id="Calque_1" xmlns:v="https://vecta.io/nano"
	 xmlns="http://www.w3.org/2000/svg" xmlns:xlink="http://www.w3.org/1999/xlink" x="0px" y="0px" viewBox="0 0 28 28"
	 style="enable-background:new 0 0 28 28;" xml:space="preserve">
<style type="text/css">
	.st0{fill:#EDEDED;}
</style>
<g>
	<g>
		<path class="st0" d="M22.1,14.1c-1.8,0-3.3,1.5-3.3,3.3s1.5,3.3,3.3,3.3h4.6l0.1,0l0.1,0c0.6,0,1.1-0.5,1.1-1.1v-8.6
			c0-1.4-0.7-2.7-1.8-3.5l-3.7-6.1c-0.2-0.2-0.4-0.4-0.7-0.5s-0.6,0-0.8,0.1l-2.7,1.7L17,0.5c-0.1-0.3-0.4-0.4-0.7-0.5
			s-0.6,0-0.8,0.1L4.9,6.6H3.3c-0.6,0-1.1-0.5-1.1-1.1c0-0.6,0.5-1.1,1.1-1.1h2c0.6,0,1.1-0.5,1.1-1.1S5.9,2.2,5.3,2.2h-2
			c-1.5,0-2.8,1.1-3.2,2.5C0,4.9,0,5,0,5.2v0.3v0.1v18.1C0,26,2,28,4.4,28h19.2c1.9,0,3.6-1.2,4.2-3c0.2-0.6-0.1-1.2-0.7-1.4
			s-1.2,0.1-1.4,0.7c-0.3,0.9-1.1,1.5-2.1,1.5H4.4c-1.2,0-2.2-1-2.2-2.2V8.6c0.3,0.1,0.7,0.2,1.1,0.2h20.3c1.2,0,2.2,1,2.2,2.2v3.1
			L22.1,14.1L22.1,14.1z M25.8,18.4h-3.7c-0.6,0-1.1-0.5-1.1-1.1s0.5-1.1,1.1-1.1h3.7V18.4z M9.1,6.6l6.5-4l1.2,2
			c0,0.1,0,0.1,0.1,0.2c0,0,0,0.1,0.1,0.1l1,1.7L9.1,6.6L9.1,6.6z M20.5,6.6l-1.2-2l1.8-1.1l1.9,3.2L20.5,6.6L20.5,6.6z"/>
	</g>
</g>
</svg>
