<?xml version="1.0" encoding="utf-8"?>
<!-- Generator: Adobe Illustrator 25.4.1, SVG Export Plug-In . SVG Version: 6.00 Build 0)  -->
<svg version="1.1" id="Calque_1" xmlns:v="https://vecta.io/nano"
	 xmlns="http://www.w3.org/2000/svg" xmlns:xlink="http://www.w3.org/1999/xlink" x="0px" y="0px" viewBox="0 0 28 28"
	 style="enable-background:new 0 0 28 28;" xml:space="preserve">
<style type="text/css">
	.st0{fill:#EDEDED;}
</style>
<path class="st0" d="M22.5,16.4c0.6,0,1.1,0.5,1.1,1.1v1.3c0,0.6-0.5,1.1-1.1,1.1H20c-0.6,0-1.1-0.5-1.1-1.1v-1.3
	c0-0.6,0.5-1.1,1.1-1.1L22.5,16.4L22.5,16.4z M25.8,14.4v-3.3H2.2v8.7c0,1.2,1,2.2,2.2,2.2h19.2c1.2,0,2.2-1,2.2-2.2
	c0-0.6,0.5-1.1,1.1-1.1s1.1,0.5,1.1,1.1c0,2.4-2,4.4-4.4,4.4H4.4c-2.4,0-4.4-2-4.4-4.4V8.1c0-2.4,2-4.4,4.4-4.4h19.2
	c2.4,0,4.4,2,4.4,4.4v6.4c0,0.6-0.5,1.1-1.1,1.1S25.8,15,25.8,14.4z M25.8,9V8.1c0-1.2-1-2.2-2.2-2.2H4.4c-1.2,0-2.2,1-2.2,2.2V9
	L25.8,9L25.8,9z M5.5,13.4c-0.6,0-1.1,0.5-1.1,1.1s0.5,1.1,1.1,1.1h9c0.6,0,1.1-0.5,1.1-1.1s-0.5-1.1-1.1-1.1H5.5z"/>
</svg>
