<?xml version="1.0" encoding="utf-8"?>
<!-- Generator: Adobe Illustrator 26.3.0, SVG Export Plug-In . SVG Version: 6.00 Build 0)  -->
<svg version="1.1" id="Layer_1" xmlns="http://www.w3.org/2000/svg" xmlns:xlink="http://www.w3.org/1999/xlink" x="0px" y="0px"
	 viewBox="0 0 750 500" style="enable-background:new 0 0 750 500;" xml:space="preserve">
<style type="text/css">
	.st0{fill:#EBEBEB;}
	.st1{fill:#E0E0E0;}
	.st2{fill:#F5F5F5;}
	.st3{fill:none;}
	.st4{fill:#FAFAFA;}
	.st5{fill:#FFFFFF;}
	.st6{fill:#263238;}
	.st7{fill:none;stroke:#009FE3;stroke-width:3;stroke-miterlimit:10;}
	.st8{fill:#009FE3;}
	.st9{fill:#455A64;}
	.st10{opacity:0.6;}
	.st11{opacity:0.3;}
	.st12{fill:#B55B52;}
</style>
<g id="freepik--background-complete--inject-29">
	<path class="st0" d="M560.4,241.9c0,0-8.1-0.6-7.4,17.6c0.7,18.2,2.6,27.8,2.6,27.8s-0.2,4-3.4,3.2c-3.1-0.7-9-4.7-11.9-1.8
		c-2.9,2.9-1.9,7.7,2,13.2c4,5.5,12.3,17.8,13,18.9c0.7,1.1,1,3.2-1.2,3c-2.2-0.2-17.1-5.2-19.1,2c-2,7.2,11.6,20.7,13.1,22.2
		c1.5,1.5,1.5,2.4,1,3.3c-0.5,0.9-5.4-1.3-9.7-2.5c-4.3-1.3-9.5-2-10.3,2.3c-0.8,4.3,5.2,16.7,27.6,29.9l10.8,5.4l10.2-6.5
		c21-15.3,25.7-28.3,24.5-32.4c-1.2-4.2-6.3-2.9-10.5-1.2c-4.2,1.7-8.8,4.3-9.4,3.5c-0.7-0.8-0.7-1.8,0.6-3.4
		c1.3-1.6,13.5-16.4,10.8-23.4c-2.7-7-17-0.5-19.2,0c-2.2,0.4-2.1-1.7-1.5-2.8s7.6-14.3,11.1-20.1c3.4-5.9,4-10.6,0.7-13.3
		s-8.6,1.9-11.6,3c-3,1.1-3.7-2.9-3.7-2.9s0.9-9.8-0.2-27.9s-9.3-16.7-9.3-16.7"/>
	<path class="st1" d="M561.1,258.2c0,0,0,0.1,0,0.4s0,0.6,0.1,1.1c0.1,1,0.2,2.4,0.3,4.3c0.2,3.7,0.6,9.1,0.9,15.8
		c0.7,13.3,1.6,31.7,2.5,52.1c0.9,20.3,1.7,38.8,2.4,52.1c0.3,6.6,0.6,12,0.8,15.8c0.1,1.9,0.2,3.3,0.2,4.3c0,0.5,0,0.8,0,1.1
		c0,0.1,0,0.3,0,0.4c0,0,0-0.1,0-0.4s0-0.6-0.1-1.1c-0.1-1-0.2-2.4-0.3-4.3c-0.2-3.7-0.6-9.1-0.9-15.8c-0.7-13.3-1.6-31.7-2.5-52.1
		c-0.9-20.3-1.7-38.7-2.4-52.1c-0.3-6.6-0.6-12-0.8-15.8c-0.1-1.8-0.2-3.3-0.2-4.3c0-0.5,0-0.8,0-1.1
		C561.1,258.4,561.1,258.3,561.1,258.2z"/>
	<path class="st1" d="M548.4,294.6c0.2,0.2,0.5,0.3,0.7,0.6c0.4,0.4,1,0.9,1.7,1.7c1.4,1.4,3.3,3.4,5.4,5.7l5.3,5.8l1.6,1.7
		c0.2,0.2,0.4,0.4,0.6,0.7c-0.2-0.2-0.5-0.3-0.7-0.5c-0.4-0.4-1-0.9-1.7-1.7c-1.4-1.4-3.3-3.5-5.4-5.7l-5.3-5.7l-1.6-1.7
		C548.8,295,548.6,294.8,548.4,294.6z"/>
	<path class="st1" d="M564.8,310.3c-0.1-0.1,3.9-4.2,8.8-9.2s9-9,9.1-9c0.1,0.1-3.9,4.2-8.8,9.2
		C568.9,306.3,564.8,310.3,564.8,310.3z"/>
	<path class="st1" d="M564.7,341.6c0.2-0.2,0.5-0.4,0.8-0.5l2.1-1.2c1.8-1,4.2-2.4,6.9-4c2.6-1.6,5-3.2,6.7-4.3l2-1.3
		c0.2-0.2,0.5-0.3,0.8-0.5c-0.2,0.2-0.4,0.4-0.7,0.6c-0.4,0.3-1.1,0.9-1.9,1.5c-1.7,1.2-4,2.8-6.7,4.4s-5.1,3-7,3.9
		c-0.9,0.5-1.7,0.8-2.2,1.1C565.3,341.4,565,341.5,564.7,341.6z"/>
	<path class="st1" d="M546.8,330.6c0.3,0.1,0.5,0.2,0.7,0.3c0.5,0.2,1.1,0.6,2,1.1c1.6,0.9,3.9,2.3,6.4,3.7s4.7,2.8,6.3,3.8l1.9,1.2
		c0.2,0.1,0.5,0.3,0.7,0.5c-0.3-0.1-0.5-0.2-0.7-0.3c-0.5-0.2-1.1-0.6-2-1.1c-1.6-0.9-3.9-2.3-6.4-3.7c-2.5-1.5-4.7-2.8-6.3-3.8
		c-0.8-0.5-1.5-0.9-1.9-1.2C547.2,330.9,547,330.8,546.8,330.6z"/>
	<path class="st1" d="M543.3,358.2c0.3,0.1,0.6,0.3,0.9,0.5l2.5,1.4c2.1,1.2,5,2.8,8.2,4.7s6.1,3.6,8.2,4.8l2.5,1.5
		c0.3,0.2,0.6,0.4,0.9,0.6c-0.3-0.1-0.7-0.3-1-0.5l-2.5-1.4c-2.1-1.2-5-2.8-8.2-4.7c-3.2-1.9-6.1-3.6-8.1-4.8l-2.5-1.5
		C543.8,358.6,543.6,358.4,543.3,358.2z"/>
	<path class="st1" d="M566,371.2c0.3-0.2,0.6-0.5,0.9-0.6l2.6-1.6c2.2-1.4,5.3-3.2,8.6-5.4s6.3-4.2,8.4-5.7l2.5-1.8
		c0.3-0.2,0.6-0.4,1-0.6c-0.3,0.3-0.6,0.5-0.9,0.7c-0.6,0.4-1.4,1.1-2.5,1.9c-2.1,1.5-5,3.6-8.3,5.8s-6.4,4-8.7,5.3
		c-1.1,0.6-2.1,1.2-2.7,1.5C566.7,370.9,566.3,371.1,566,371.2z"/>
	<polygon class="st1" points="582.2,389.8 552.3,389.8 562.1,463.7 572.4,463.7 	"/>
	<path class="st2" d="M553.9,398.9c0,0,0,0.1,0.2,0.3c0.2,0.2,0.4,0.4,0.7,0.5c1.1,0.4,2.2,0.2,3.2-0.4c1.2-0.7,2.3-2,3.9-2.5
		c1.8-0.6,3.7-0.5,5.5,0.1c1.8,0.6,3.5,1.5,5.1,2.5c1.3,0.8,2.7,1.6,4.2,2.2c1,0.4,2,0.7,3.1,0.9c0.3,0,0.6,0.1,0.9,0.1
		c0.2,0,0.3,0,0.3,0c-1.4-0.2-2.8-0.6-4.1-1.2c-1.4-0.7-2.8-1.5-4.1-2.3c-1.6-1.1-3.4-1.9-5.2-2.6c-1.9-0.7-3.9-0.7-5.8-0.1
		c-0.8,0.3-1.5,0.8-2.2,1.3c-0.5,0.5-1.1,0.9-1.7,1.3c-0.8,0.6-1.9,0.8-2.9,0.5C554.5,399.4,554.1,399.2,553.9,398.9z"/>
	<path class="st2" d="M554.9,412.6c0,0,0.2-0.3,0.7-0.8c0.7-0.7,1.5-1.2,2.4-1.5c1.3-0.5,2.8-0.7,4.2-0.7c1.7,0.1,3.5,0.4,5.2,0.7
		c1.8,0.3,3.5,0.4,5.3,0.2c1.4-0.2,2.9-0.6,4.2-1.2c0.9-0.4,1.7-0.9,2.5-1.5c0.3-0.2,0.6-0.4,0.8-0.7c-1.1,0.7-2.3,1.4-3.5,1.9
		c-1.3,0.5-2.7,0.9-4.1,1.1c-1.7,0.2-3.5,0.1-5.2-0.3c-1.7-0.3-3.5-0.6-5.3-0.7c-1.5,0-2.9,0.2-4.3,0.8c-0.9,0.4-1.7,1-2.4,1.7
		c-0.2,0.2-0.3,0.4-0.4,0.7C555,412.4,554.9,412.5,554.9,412.6z"/>
	<path class="st2" d="M578.8,419.8c-0.2-0.2-0.5-0.3-0.8-0.4c-0.8-0.3-1.6-0.5-2.5-0.5c-1.3-0.1-2.5,0-3.7,0.2
		c-1.4,0.2-2.9,0.6-4.5,0.9c-1.5,0.3-3,0.5-4.5,0.5c-1.2,0-2.4-0.3-3.5-0.8c-1-0.5-1.9-1.2-2.7-2c0.1,0.3,0.3,0.6,0.5,0.8
		c0.6,0.6,1.2,1.2,2,1.5c1.1,0.5,2.4,0.8,3.7,0.9c1.5,0,3.1-0.1,4.6-0.5c1.6-0.3,3.1-0.7,4.4-1c1.2-0.2,2.4-0.3,3.6-0.3
		C576.6,419.2,577.7,419.4,578.8,419.8z"/>
	<path class="st2" d="M557.6,430c0.9-0.4,1.9-0.5,2.9-0.3c1,0.3,2,0.6,3,1.1c3.6,1.7,7.7,1.5,11.1-0.6c0.6-0.4,1.2-0.8,1.8-1.4
		c0.4-0.4,0.5-0.6,0.5-0.6c-0.8,0.6-1.6,1.2-2.5,1.7c-2.1,1.2-4.6,1.7-7,1.5c-2.8-0.2-5-1.9-7-2.1c-0.8-0.1-1.5-0.1-2.3,0.2
		C558,429.7,557.8,429.8,557.6,430z"/>
	<path class="st2" d="M559.3,444.2c0.9,0,1.7-0.2,2.5-0.5c1.5-0.5,3.4-1.7,5.5-2.5c1-0.4,2.1-0.6,3.2-0.7c0.9,0,1.8,0.2,2.5,0.6
		c0.7,0.4,1.4,0.9,1.8,1.6c0,0,0-0.2-0.3-0.6c-0.4-0.5-0.8-1-1.4-1.3c-0.8-0.5-1.8-0.7-2.7-0.7c-1.1,0-2.3,0.2-3.3,0.7
		c-2.3,0.9-4.1,2.1-5.5,2.6C560.2,443.9,559.3,444.1,559.3,444.2z"/>
	<path class="st2" d="M560.7,450.8c0.6,0.3,1.2,0.5,1.9,0.6c3.1,0.7,6.3,1.1,9.5,0.9c0.7,0,1.3-0.1,2-0.2c0-0.1-3,0-6.7-0.4
		C563.7,451.3,560.8,450.6,560.7,450.8z"/>
	<line class="st3" x1="591.1" y1="110.7" x2="579.6" y2="100.4"/>
	<path class="st1" d="M579.6,100.4c2.1,1.6,4,3.3,5.9,5c2,1.7,3.9,3.5,5.7,5.4c-2.1-1.6-4.1-3.3-6-5.1
		C583.2,104,581.3,102.2,579.6,100.4z"/>
	<path class="st1" d="M488.5,110.8c1.7-1.8,3.5-3.5,5.4-5.1c1.8-1.7,3.7-3.3,5.6-4.8c-1.7,1.8-3.5,3.5-5.4,5.1
		C492.4,107.7,490.5,109.3,488.5,110.8z"/>
	<rect x="227.2" y="244.5" class="st1" width="110.4" height="208.7"/>
	<rect x="194.4" y="244.5" class="st2" width="110.4" height="208.7"/>
	<path class="st1" d="M296.7,287.5h-94.8v-33.1h94.8V287.5z M203.1,286.3h92.4v-30.8h-92.4L203.1,286.3z"/>
	<path class="st0" d="M232,255h36l0,0v1.7c0,2.7-2.2,4.9-4.9,4.9c0,0,0,0,0,0h-26.1c-2.7,0-4.9-2.2-4.9-4.9l0,0L232,255L232,255z"/>
	<path class="st1" d="M296.7,329.5h-94.8v-33.1h94.8V329.5z M203.1,328.3h92.4v-30.8h-92.4L203.1,328.3z"/>
	<path class="st0" d="M232,297h36l0,0v1.7c0,2.7-2.2,4.9-4.9,4.9c0,0,0,0,0,0h-26.1c-2.7,0-4.9-2.2-4.9-4.9l0,0L232,297L232,297z"/>
	<path class="st1" d="M296.7,371.5h-94.8v-33.1h94.8V371.5z M203.1,370.3h92.4v-30.8h-92.4L203.1,370.3z"/>
	<path class="st0" d="M232,339h36l0,0v1.7c0,2.7-2.2,4.9-4.9,4.9c0,0,0,0,0,0h-26.1c-2.7,0-4.9-2.2-4.9-4.9l0,0L232,339L232,339z"/>
	<path class="st1" d="M296.7,413.6h-94.8v-33.1h94.8V413.6z M203.1,412.4h92.4v-30.8h-92.4L203.1,412.4z"/>
	<path class="st0" d="M232,381h36l0,0v1.6c0,2.7-2.2,4.9-4.9,4.9c0,0,0,0,0,0h-26.1c-2.7,0-4.9-2.2-4.9-4.9l0,0V381L232,381z"/>
	<rect x="189.5" y="236.7" class="st0" width="119.9" height="10.4"/>
	<rect x="309.5" y="236.7" class="st1" width="36.1" height="10.4"/>
	<rect x="194.4" y="453.2" class="st1" width="5.8" height="10.7"/>
	<rect x="230.3" y="453.2" class="st1" width="5.8" height="10.7"/>
	<rect x="295.8" y="453.2" class="st1" width="5.8" height="10.7"/>
	<rect x="328.5" y="453.2" class="st1" width="5.8" height="10.7"/>
	<polygon class="st1" points="277.8,209.1 288.9,238.4 282,238.4 276.4,220.4 	"/>
	<polygon class="st0" points="239.6,182 235.8,238.2 275.4,239 279.9,182 	"/>
	<polygon class="st4" points="243.6,186.5 240.4,233.3 269.9,234.7 274,186.2 	"/>
	<polygon class="st1" points="250.1,193.1 247.7,226 263.9,226 266.8,193.1 	"/>
	<polygon class="st2" points="384.7,436.7 384.7,464.3 425,464.3 469.4,464.3 469.4,436.7 	"/>
	<polygon class="st1" points="381.1,429 381.1,436.7 472.4,436.7 472.4,429 425,429 	"/>
	<polygon class="st1" points="426.8,464.3 469.4,464.3 469.4,436.7 472.4,436.7 472.4,429 425,429 425,436 	"/>
	<rect x="396.5" y="441.2" class="st1" width="17.2" height="4.1"/>
	<rect x="394.3" y="450.5" class="st5" width="22.1" height="8.8"/>
	<polygon class="st2" points="397.7,401.5 397.7,429 438,429 482.5,429 482.5,401.5 	"/>
	<polygon class="st1" points="394.2,393.8 394.2,401.5 485.4,401.5 485.4,393.8 438,393.8 	"/>
	<polygon class="st1" points="439.8,429 482.5,429 482.5,401.5 485.4,401.5 485.4,393.8 438,393.8 438,400.8 	"/>
	<rect x="409.6" y="405.9" class="st1" width="17.2" height="4.1"/>
	<rect x="407.4" y="415.3" class="st5" width="22.1" height="8.8"/>
</g>
<g id="freepik--Floor--inject-29">
	<path class="st6" d="M598,463.9c0,0.1-97.3,0.3-217.2,0.3s-217.2-0.1-217.2-0.3s97.2-0.3,217.2-0.3S598,463.7,598,463.9z"/>
</g>
<g id="freepik--Screen--inject-29">
	<path class="st5" d="M442.9,58.2H418c-3.4,0.1-6.1,2.9-6,6.3V69c0.1,3.4-2.6,6.2-6,6.3c0,0,0,0,0,0h-48.5c-3.4-0.1-6.1-2.9-6-6.3
		v-4.5c0.1-3.4-2.6-6.2-6-6.3c0,0,0,0,0,0h-30.5c-10.8,0-19.5,8.8-19.5,19.6l-0.1,313.9c0,10.8,8.7,19.6,19.5,19.6c0,0,0,0,0,0
		l128,0.1c10.8,0,19.5-8.8,19.5-19.6l0.1-313.9C462.4,66.9,453.7,58.2,442.9,58.2z"/>
	<path class="st7" d="M442.9,58.2h0.7c0.7,0,1.3,0.1,2,0.1c2.6,0.3,5.1,1.2,7.3,2.5c1.7,1,3.2,2.2,4.5,3.6c1.6,1.7,2.8,3.7,3.7,5.8
		c1,2.5,1.5,5.2,1.5,8c0,2.9,0,6,0,9.2c0,26.1,0,63.8,0.1,110.4s0,102.1,0,163.8v29.3c0,2-0.2,4-0.7,6c-0.5,2-1.4,3.8-2.5,5.5
		c-1.1,1.7-2.5,3.2-4.1,4.5c-3.2,2.6-7.2,4.1-11.3,4.4c-4.1,0.1-8.2,0-12.3,0h-24.9h-51.2h-26.2h-13.2c-4.5,0.3-9-1-12.7-3.5
		c-3.7-2.6-6.5-6.4-7.8-10.7c-0.6-2.2-0.9-4.4-0.8-6.6v-6.6c0-8.8,0-17.5,0-26.2c0-17.3,0-34.4,0-51.2c0-33.5,0-65.9,0-96.7
		s0-60.1,0-87.5c0-13.7,0-26.9,0-39.7V78c0-0.8,0.1-1.6,0.1-2.4c0.1-0.8,0.2-1.6,0.4-2.3c0.7-3.1,2.2-5.9,4.2-8.3
		c3.9-4.7,9.8-7.3,15.9-7.1h17.1h12.2c1.4-0.1,2.7,0.3,3.9,1.1c1.1,0.8,1.9,1.9,2.4,3.1c0.4,1.3,0.5,2.6,0.4,3.9v2
		c0,0.6,0,1.2,0.1,1.9c0.2,1.2,0.7,2.3,1.4,3.2c0.8,0.9,1.8,1.6,3,1.9c0.6,0.1,1.2,0.2,1.8,0.2h8.9h25.8h11.4c0.9,0,1.8,0,2.7,0
		c0.9-0.1,1.7-0.4,2.4-0.8c1.4-0.9,2.4-2.3,2.7-4c0.1-0.8,0.2-1.5,0.1-2.3v-2.3c0-0.8,0-1.5,0.1-2.3c0.1-0.7,0.4-1.4,0.7-2.1
		c0.7-1.3,1.8-2.2,3.1-2.8c1.3-0.4,2.6-0.5,3.9-0.4h12.7h7.8L442.9,58.2l-2.7-0.1h-7.8h-12.7c-1.3-0.1-2.6,0-3.8,0.4
		c-1.3,0.5-2.3,1.5-3,2.7c-0.3,0.6-0.6,1.3-0.7,2c-0.1,0.7-0.1,1.5-0.1,2.3c0,0.8,0,1.5,0,2.3c0,0.8,0,1.6-0.2,2.4
		c-0.4,1.7-1.4,3.2-2.8,4.1c-0.8,0.5-1.6,0.8-2.5,0.9c-0.9,0.1-1.8,0-2.7,0h-46.1c-0.6,0-1.2,0-1.8-0.2c-1.2-0.3-2.3-1-3.2-2
		c-0.8-1-1.4-2.2-1.5-3.4c-0.1-0.6-0.1-1.3-0.1-1.9V66c0.1-1.3,0-2.5-0.4-3.8c-0.4-1.2-1.2-2.3-2.3-3c-1.1-0.7-2.4-1.1-3.7-1h-29.3
		c-2.9-0.1-5.8,0.5-8.5,1.6c-2.7,1.2-5.2,3-7.1,5.3c-1.9,2.4-3.3,5.1-4,8.1c-0.2,0.7-0.3,1.5-0.4,2.3c-0.1,0.8-0.1,1.5-0.1,2.3v4.7
		c0,12.7,0,26,0,39.7c0,27.4,0,56.7,0,87.5s0,63.2,0,96.7v51.2c0,8.7,0,17.4,0,26.2v6.6c-0.1,2.2,0.2,4.4,0.8,6.5
		c1.3,4.2,3.9,7.9,7.5,10.4c3.6,2.5,8,3.7,12.4,3.5h39.4h51.2h24.9c4.1,0,8.2,0.1,12.3,0c4-0.2,7.9-1.7,11-4.3
		c1.5-1.3,2.9-2.8,4-4.4c1.1-1.7,1.9-3.5,2.4-5.4c0.5-1.9,0.8-3.9,0.7-5.8v-6c0-7.9,0-15.7,0-23.4c0-61.6,0.1-117.1,0.1-163.8
		s0.1-84.3,0.1-110.4c0-3.3,0-6.3,0-9.2c0.1-2.7-0.4-5.4-1.4-7.9c-0.9-2.1-2.1-4.1-3.7-5.8c-3.1-3.4-7.2-5.6-11.7-6.2
		c-0.7-0.1-1.3-0.2-2-0.2L442.9,58.2z"/>
	<path class="st6" d="M446.6,94.1c0,0.1-3.2,0.2-7.2,0.2s-7.2,0-7.2-0.1c0-0.1,3.2-0.2,7.2-0.2C443.4,93.9,446.6,94,446.6,94.1z"/>
	<path class="st6" d="M446.7,97.8c0,0.1-3.2,0.2-7.2,0.2c-4,0-7.2,0-7.2-0.1c0-0.1,3.2-0.2,7.2-0.2S446.7,97.7,446.7,97.8z"/>
	<path class="st6" d="M446.7,101.5c0,0.1-3.2,0.2-7.2,0.2c-4,0-7.2,0-7.2-0.1c0-0.1,3.2-0.2,7.2-0.2
		C443.5,101.4,446.7,101.4,446.7,101.5z"/>
	<path class="st6" d="M315.2,105.8h0.3h0.8l3.1-0.1l-0.1,0.1c0-0.7,0-1.4,0-2.2c0-0.4,0-0.8,0-1.3c0.1-0.5,0.5-0.9,1-1
		c0.5,0,0.9,0,1.5,0c0.6,0.1,1,0.6,1,1.2c0,1,0,2.1,0,3.3l-0.1-0.1h3.9l-0.1,0.1c0-1.6,0-3.2,0-4.9c0-0.4,0-0.8,0-1.2
		c0-0.4-0.2-0.7-0.5-0.9l-1.7-1.7l-1.6-1.6l-0.8-0.8c-0.2-0.3-0.5-0.5-0.8-0.6c-0.3-0.1-0.6,0-0.9,0.2c-0.2,0.2-0.5,0.5-0.7,0.7
		l-1.4,1.4c-0.9,0.9-1.8,1.8-2.5,2.5c-0.2,0.5-0.3,1-0.2,1.5v1.4c0,0.8,0,1.6,0,2.2c0,0.6,0,1,0,1.4S315.3,105.8,315.2,105.8
		c0-0.1,0-0.3,0-0.5c0-0.4,0-0.8,0-1.4c0-0.6,0-1.4,0-2.2c0-0.4,0-0.9,0-1.4c0-0.2,0-0.5,0-0.8c0-0.3,0.1-0.6,0.2-0.8
		c0.7-0.9,1.6-1.7,2.5-2.6c0.4-0.5,0.9-0.9,1.4-1.4c0.2-0.2,0.4-0.5,0.7-0.7c0.3-0.2,0.7-0.3,1.1-0.2c0.4,0.1,0.7,0.4,0.9,0.7
		l0.8,0.8l1.7,1.6l1.7,1.7c0.2,0.1,0.3,0.3,0.4,0.5c0.1,0.2,0.2,0.4,0.2,0.7c0,0.4,0,0.8,0,1.2c0,1.7,0,3.3,0,4.9v0.1h-0.1h-3.9
		h-0.1v-0.1c0-1.1,0-2.2,0-3.3c0-0.5-0.3-0.9-0.8-1c-0.4,0-1,0-1.4,0c-0.4,0.1-0.7,0.4-0.8,0.8c0,0.4,0,0.8,0,1.2v2.3h-0.1h-3.1
		h-0.8C315.5,105.9,315.4,105.9,315.2,105.8z"/>
	<path class="st6" d="M353.2,136.7l1.5-1.9c0.6,1,1.7,1.6,2.9,1.7c1.5,0,2.3-0.9,2.3-2.7v-7.5h-5.2V124h7.9v9.7
		c0,3.4-1.7,5.1-4.9,5.1C355.9,138.9,354.3,138.1,353.2,136.7z"/>
	<path class="st6" d="M375.5,132.1v6.5H373v-1.4c-0.8,1.1-2.2,1.6-3.5,1.5c-2.5,0-4.2-1.4-4.2-3.3s1.3-3.3,4.6-3.3h2.9v-0.2
		c0-1.5-0.9-2.4-2.8-2.4c-1.2,0-2.4,0.4-3.4,1.1l-1-1.9c1.4-0.9,3-1.4,4.7-1.4C373.6,127.3,375.5,128.9,375.5,132.1z M372.8,135.1
		v-1.3h-2.7c-1.8,0-2.2,0.7-2.2,1.5s0.8,1.5,2.1,1.5C371.2,136.9,372.4,136.2,372.8,135.1z"/>
	<path class="st6" d="M389.7,132.2v6.4h-2.6v-6c0-2-1-2.9-2.6-2.9c-1.9,0-3.1,1.1-3.1,3.3v5.6h-2.6v-11.1h2.5v1.4
		c1-1.1,2.4-1.6,3.8-1.6C387.8,127.3,389.7,128.9,389.7,132.2z"/>
	<path class="st6" d="M403.6,133.9h-8.7c0.3,1.7,1.9,2.8,3.6,2.7c1.1,0,2.2-0.4,3-1.2l1.4,1.6c-1.1,1.2-2.8,1.9-4.5,1.8
		c-3.7,0-6.1-2.4-6.1-5.7c-0.1-3.1,2.3-5.6,5.4-5.7c0.1,0,0.3,0,0.4,0c3-0.1,5.5,2.2,5.6,5.2c0,0.2,0,0.4,0,0.5
		C403.6,133.3,403.6,133.6,403.6,133.9z M394.8,132.1h6.3c-0.1-1.6-1.5-2.8-3.1-2.7C396.4,129.4,395,130.5,394.8,132.1L394.8,132.1z
		"/>
	<path class="st6" d="M366.5,149.6c0-2.1,1.1-3.4,2.6-3.4c1.5,0,2.6,1.3,2.6,3.4s-1.1,3.4-2.6,3.4
		C367.6,152.9,366.5,151.6,366.5,149.6z M371.1,149.6c0-1.8-0.8-2.7-1.9-2.7s-2,1-2,2.7s0.8,2.7,2,2.7
		C370.3,152.3,371,151.3,371.1,149.6L371.1,149.6z"/>
	<path class="st6" d="M378.3,151.1H377v1.7h-0.7v-1.7h-3.7v-0.5l3.5-4.4h0.7l-3.4,4.3h2.9V149h0.7v1.5h1.3L378.3,151.1z"/>
	<path class="st6" d="M379,148.4c0-0.3,0.2-0.5,0.5-0.5c0,0,0,0,0,0c0.3,0,0.5,0.2,0.5,0.5c0,0,0,0,0,0c0,0.3-0.2,0.5-0.5,0.5
		C379.2,148.9,379,148.7,379,148.4C379,148.4,379,148.4,379,148.4z M379,152.3c0-0.3,0.2-0.5,0.5-0.5c0,0,0,0,0,0
		c0.3-0.1,0.6,0.1,0.6,0.4c0.1,0.3-0.1,0.6-0.4,0.6c-0.1,0-0.2,0-0.3,0C379.2,152.8,379,152.6,379,152.3L379,152.3z"/>
	<path class="st6" d="M385.5,150.9c0,1.1-0.8,2-2.4,2c-0.9,0-1.7-0.3-2.4-0.8l0.3-0.5c0.5,0.5,1.3,0.8,2,0.8c1.1,0,1.7-0.5,1.7-1.4
		c0-0.8-0.5-1.4-2.2-1.4h-1.4l0.3-3.3h3.6v0.6h-3l-0.2,2.1h0.8C384.7,149,385.5,149.8,385.5,150.9z"/>
	<path class="st6" d="M391.3,150.9c0,1.1-1,2-2.1,2c0,0-0.1,0-0.1,0c-1.8,0-2.7-1.2-2.7-3.3c0-2.3,1.2-3.4,3-3.4
		c0.5,0,1.1,0.1,1.6,0.3l-0.3,0.5c-0.4-0.2-0.8-0.3-1.3-0.3c-1.4,0-2.3,0.9-2.3,2.7c0,0.1,0,0.3,0,0.5c0.4-0.7,1.2-1.2,2-1.1
		c1.1-0.2,2.1,0.6,2.3,1.6C391.3,150.6,391.3,150.8,391.3,150.9z M390.6,150.9c0-0.9-0.6-1.4-1.7-1.4c-0.8-0.1-1.6,0.5-1.7,1.4
		c0,0,0,0.1,0,0.1c0,0.7,0.6,1.4,1.7,1.4c0.8,0.1,1.5-0.5,1.6-1.3C390.6,151,390.6,151,390.6,150.9L390.6,150.9z"/>
	
		<ellipse transform="matrix(0.1602 -0.9871 0.9871 0.1602 -3.8195 647.8015)" class="st8" cx="378.8" cy="326.1" rx="22.3" ry="22.3"/>
	<path class="st5" d="M369,329.8l4-0.9c0.5-0.1,0.8-0.6,0.8-1.1V327c0,0-0.2-1.4,1.1-1.5c0.9-0.1,7,0,7,0s1.6,0,1.5,1.2v1.2
		c0,0.4,0.3,0.8,0.7,0.9l4.3,1.3c0.5,0.1,0.9-0.1,1.1-0.5l0.5-1.3c0.1-0.2,0.1-0.5,0.1-0.8c-0.1-0.7-0.3-1.4-0.7-2
		c-0.9-1.1-4.9-3.7-12.6-3.3c-7.3,0.3-9,3.4-9.4,4.2c-0.3,0.7-0.3,1.4-0.1,2.1c0.1,0.2,0.2,0.5,0.3,0.8
		C368,329.7,368.5,329.9,369,329.8z"/>
	<circle class="st9" cx="337.8" cy="207.1" r="16.5"/>
	<path class="st5" d="M337.8,210.8c-1.7,0-3-1.3-3-3v-6.4c0-1.7,1.3-3,3-3s3,1.3,3,3v6.5C340.8,209.5,339.5,210.8,337.8,210.8z
		 M337.8,199c-1.3,0-2.4,1.1-2.4,2.4v6.5c0.1,1.3,1.2,2.3,2.5,2.2c1.2-0.1,2.1-1,2.2-2.2v-6.4C340.2,200.1,339.2,199,337.8,199
		C337.9,199,337.9,199,337.8,199z"/>
	<path class="st5" d="M337.8,212.9c-1.6,0.1-3.1-0.5-4.2-1.7c-1.9-2.1-1.6-5.4-1.6-5.5c0-0.2,0.2-0.3,0.3-0.3c0.2,0,0.3,0.2,0.3,0.3
		c0,0,0,0,0,0c0,0-0.3,3.2,1.4,5.1c1,1,2.3,1.5,3.7,1.4c1.4,0.1,2.8-0.5,3.8-1.4c1.2-1.4,1.8-3.2,1.7-5.1c0-0.2,0.1-0.3,0.3-0.3
		c0.2,0,0.3,0.1,0.3,0.3c0.1,2-0.6,4-1.9,5.5C341,212.4,339.4,213,337.8,212.9z"/>
	<path class="st5" d="M337.8,217.5c-0.2,0-0.3-0.1-0.3-0.3v-4.6c0-0.2,0.1-0.3,0.3-0.4c0.2,0,0.3,0.1,0.4,0.3c0,0,0,0.1,0,0.1v4.6
		C338.2,217.4,338,217.5,337.8,217.5C337.9,217.5,337.8,217.5,337.8,217.5z"/>
	<circle class="st9" cx="381.3" cy="207.1" r="16.5"/>
	<circle class="st5" cx="376.7" cy="207.1" r="1.9"/>
	<circle class="st5" cx="381.3" cy="207.1" r="1.9"/>
	<circle class="st5" cx="385.8" cy="207.1" r="1.9"/>
	<path class="st5" d="M378.7,202.6c0,1.1-0.9,1.9-1.9,1.9c-1.1,0-1.9-0.9-1.9-1.9c0-1.1,0.9-1.9,1.9-1.9c0,0,0,0,0,0
		C377.8,200.6,378.7,201.5,378.7,202.6z"/>
	<path class="st5" d="M383.2,202.6c0,1.1-0.9,1.9-1.9,1.9s-1.9-0.9-1.9-1.9c0-1.1,0.9-1.9,1.9-1.9S383.2,201.5,383.2,202.6
		L383.2,202.6z"/>
	<path class="st5" d="M387.7,202.6c0,1.1-0.9,1.9-1.9,1.9c-1.1,0-1.9-0.9-1.9-1.9c0-1.1,0.9-1.9,1.9-1.9
		C386.8,200.6,387.7,201.5,387.7,202.6C387.7,202.6,387.7,202.6,387.7,202.6z"/>
	<circle class="st5" cx="376.7" cy="211.7" r="1.9"/>
	<circle class="st5" cx="381.3" cy="211.7" r="1.9"/>
	<circle class="st5" cx="385.8" cy="211.7" r="1.9"/>
	<circle class="st9" cx="424.7" cy="207.1" r="16.5"/>
	<path class="st5" d="M416.9,205v3.9c0,0.2,0.1,0.3,0.3,0.3h2.2c0.1,0,0.1,0,0.2,0.1l3.4,2.6c0.1,0.1,0.3,0.1,0.4,0
		c0-0.1,0.1-0.1,0.1-0.2v-9.2c0-0.2-0.1-0.3-0.3-0.3c-0.1,0-0.1,0-0.2,0.1l-3.3,2.4c-0.1,0-0.1,0.1-0.2,0.1h-2.3
		C417,204.7,416.9,204.8,416.9,205z"/>
	<path class="st5" d="M429.7,213.7c-0.2,0-0.4-0.2-0.4-0.4c0-0.1,0-0.2,0.1-0.3c1.7-1.7,2.7-4,2.7-6.5c-0.2-2.1-1.1-4-2.6-5.5
		c-0.2-0.1-0.2-0.4-0.1-0.5c0.1-0.2,0.4-0.2,0.5-0.1c0,0,0,0,0,0c1.7,1.6,2.7,3.7,2.9,6c0,2.6-1,5.1-2.8,7
		C429.9,213.7,429.8,213.7,429.7,213.7z"/>
	<path class="st5" d="M427.6,211.9c-0.1,0-0.2,0-0.3-0.1c-0.1-0.1-0.1-0.4,0-0.5c0,0,0,0,0,0c1.2-1,1.9-2.5,2-4.1
		c-0.1-1.7-0.8-3.2-2-4.4c-0.2-0.1-0.2-0.4,0-0.5c0.1-0.2,0.4-0.2,0.5,0c1.4,1.3,2.2,3.1,2.3,5c-0.1,1.8-0.9,3.5-2.3,4.6
		C427.8,211.9,427.7,211.9,427.6,211.9z"/>
	<path class="st5" d="M425.8,210c-0.1,0-0.2,0-0.3-0.1c-0.1-0.1-0.1-0.4,0-0.5c0,0,0,0,0,0c2.3-2.3,0.1-4.9,0-5
		c-0.1-0.2-0.1-0.4,0-0.5s0.4-0.1,0.5,0c0,0,2.8,3.3,0,6.1C426,210,425.9,210,425.8,210z"/>
	<circle class="st9" cx="337.5" cy="260" r="16.5"/>
	<path class="st5" d="M337.6,265.7c-0.3,0-0.5-0.2-0.5-0.5c0,0,0,0,0,0v-10.4c0.1-0.3,0.3-0.5,0.6-0.4c0.2,0,0.4,0.2,0.4,0.4v10.4
		C338.1,265.4,337.9,265.7,337.6,265.7C337.7,265.7,337.6,265.7,337.6,265.7z"/>
	<path class="st5" d="M342.6,260.5h-10.1c-0.3-0.1-0.5-0.3-0.4-0.6c0-0.2,0.2-0.4,0.4-0.4h10.1c0.3-0.1,0.5,0.1,0.6,0.4
		c0.1,0.3-0.1,0.5-0.4,0.6C342.7,260.5,342.7,260.5,342.6,260.5z"/>
	<circle class="st9" cx="423.4" cy="260" r="16.5"/>
	<path class="st0" d="M424.5,260.2c1.2-0.5,1.9-1.7,1.9-3c0-1.7-1.3-3-3-3s-3,1.3-3,3c0,1.3,0.7,2.5,1.9,3c-4.6,0.7-4.4,5.7-4.4,5.7
		l11,0.1C428.9,266,429.1,260.9,424.5,260.2z"/>
	<ellipse transform="matrix(0.2801 -0.96 0.96 0.2801 24.3152 552.4114)" class="st9" cx="380.5" cy="260" rx="16.5" ry="16.5"/>
	<path class="st0" d="M377.1,256.2h3.3c1.1,0,2.1,0.9,2.1,2.1v3.3c0,1.1-0.9,2.1-2.1,2.1h-3.3c-1.1,0-2.1-0.9-2.1-2.1v-3.3
		C375.1,257.2,376,256.2,377.1,256.2z"/>
	<path class="st0" d="M383.3,261.3v-2.5l1.9-2c0.2-0.2,0.4-0.2,0.6,0c0.1,0.1,0.1,0.2,0.1,0.3v5.8c0,0.2-0.2,0.4-0.4,0.4
		c-0.1,0-0.2,0-0.3-0.1L383.3,261.3z"/>
</g>
<g id="freepik--Character--inject-29">
	<path class="st8" d="M551.1,431.6l11.7,20.8l13.9,13.8c1,0.9,1,2.5,0,3.5c0,0-0.1,0.1-0.1,0.1l0,0c-0.6,0.5-1.4,0.7-2.2,0.5
		c-4.9-1.2-22.9-5.5-23.7-7.1c-0.9-1.8-13.8-21.1-13.8-21.1L551.1,431.6z"/>
	<g class="st10">
		<path class="st5" d="M576.6,469.8l-26.7-7.9l0.5,0.9c0.5,0.8,1.2,1.3,2,1.6c2.2,0.8,8.4,2.7,22,6
			C575.2,470.6,576.1,470.4,576.6,469.8L576.6,469.8z"/>
	</g>
	<g class="st10">
		<path class="st5" d="M550.2,452.8c0.8,0.1,1.3,0.7,1.3,1.5c0,0.8-0.7,1.3-1.4,1.3c-0.8-0.1-1.4-0.8-1.4-1.6
			c0.1-0.8,0.9-1.3,1.6-1.2"/>
	</g>
	<path class="st6" d="M566.6,463.6c0.1-1.9,1.2-3.7,3-4.5c0-0.1-0.4-0.1-0.9,0.1c-1.4,0.6-2.3,2-2.3,3.5
		C566.4,463.4,566.6,463.6,566.6,463.6z"/>
	<path class="st6" d="M569.7,465.5c0.1,0,0.4-1,1.3-2c0.9-1,1.9-1.3,1.9-1.4C571.1,462.2,569.7,463.7,569.7,465.5L569.7,465.5z"/>
	<path class="st6" d="M561.8,461.7c0.5-1.1,1.1-2.1,1.8-3.2c0.8-0.9,1.7-1.7,2.6-2.5C563.8,456.9,562.1,459.1,561.8,461.7z"/>
	<path class="st6" d="M557.8,455.7c0.1,0.1,1-1.1,2.4-2c1.4-0.9,2.8-1.3,2.8-1.4c-1.1,0-2.2,0.3-3.1,1
		C558.9,453.8,558.2,454.7,557.8,455.7z"/>
	<path class="st6" d="M554.2,449.7c0.7-0.8,1.6-1.5,2.5-2.1c1-0.5,2-0.8,3.1-0.9c0-0.1-0.4-0.2-1-0.2c-1.7,0.1-3.2,0.9-4.2,2.3
		C554.3,449.2,554.1,449.6,554.2,449.7z"/>
	<path class="st6" d="M556,446.4c-0.1-0.3-0.2-0.6-0.4-0.8c-0.5-0.7-1.1-1.2-1.8-1.7c-0.5-0.4-1.1-0.6-1.7-0.5
		c-0.4,0.1-0.7,0.4-0.8,0.8c-0.1,0.4,0,0.8,0.2,1.1c0.9,1.4,2.7,1.9,4.2,1.2c1.5-0.7,2.4-2.2,2.3-3.8c0-0.4-0.2-0.7-0.5-1
		c-0.4-0.2-0.8-0.2-1.1,0.1c-0.4,0.4-0.8,0.9-0.9,1.5c-0.3,0.8-0.5,1.6-0.5,2.4c0,0.3,0,0.6,0.1,0.9c0.1-1.1,0.3-2.2,0.7-3.2
		c0.2-0.5,0.5-0.9,0.8-1.3c0.2-0.1,0.4-0.2,0.6,0c0.2,0.2,0.3,0.4,0.3,0.7c0,1.4-0.8,2.7-2.1,3.3c-1.3,0.6-2.8,0.1-3.6-1
		c-0.2-0.2-0.2-0.5-0.2-0.8c0-0.2,0.2-0.4,0.5-0.4c0.5,0,1,0.1,1.4,0.4C554.4,444.9,555.3,445.6,556,446.4z"/>
	<path class="st8" d="M526.1,440.8l-4.7,17.1c0,0,15.7,10.5,15.2,13.8l-33.4-8l6.3-26.9L526.1,440.8z"/>
	<g class="st10">
		<path class="st5" d="M511.4,453.9c-0.7,0-1.3,0.6-1.3,1.3c0,0.7,0.6,1.3,1.3,1.3c0.8,0,1.4-0.7,1.4-1.4c-0.1-0.7-0.8-1.3-1.5-1.2"
			/>
	</g>
	<g class="st10">
		<path class="st5" d="M503.1,463.6l0.7-2.7l31.8,8.7c0,0,1.3,1,0.9,2L503.1,463.6z"/>
	</g>
	<path class="st6" d="M521.9,457.8c0,0.2-0.9,0-1.8,0.4c-0.9,0.4-1.5,0.9-1.7,0.8c-0.1-0.1,0.3-1,1.5-1.4
		C521.1,457.3,522,457.7,521.9,457.8z"/>
	<path class="st6" d="M525.1,460.1c0,0.2-0.8,0.3-1.5,0.8s-1.1,1.3-1.2,1.2s0-1,0.9-1.7C524.1,459.8,525.1,459.9,525.1,460.1z"/>
	<path class="st6" d="M526.1,464.8c-0.2,0-0.2-0.9,0.4-1.7c0.6-0.8,1.5-1,1.5-0.8c0,0.2-0.5,0.5-1.1,1.2
		C526.5,464.1,526.3,464.8,526.1,464.8z"/>
	<path class="st6" d="M522.6,453.8c-0.1,0.1-0.8-0.3-1.7-0.4c-0.9-0.2-1.7,0-1.8-0.2c0-0.2,0.8-0.6,1.9-0.4
		C522,453,522.7,453.7,522.6,453.8z"/>
	<g class="st11">
		<polygon points="525.2,444.2 524.3,447.2 507.9,443.1 508.8,439.6 		"/>
	</g>
	<path class="st6" d="M523.5,450.3c-0.6,0-1.2-0.1-1.7-0.4c-0.6-0.3-1.1-0.6-1.6-1c-0.3-0.2-0.6-0.5-0.8-0.7
		c-0.2-0.1-0.3-0.3-0.4-0.5c-0.2-0.3-0.1-0.7,0.1-0.9c0.2-0.2,0.5-0.3,0.8-0.2c0.2,0,0.4,0.1,0.6,0.2c0.3,0.2,0.7,0.4,1,0.6
		c0.5,0.4,0.9,0.9,1.3,1.4C523.4,449.7,523.5,450.4,523.5,450.3c-0.1,0.1-0.4-0.5-1-1.3c-0.4-0.5-0.8-0.9-1.3-1.2
		c-0.3-0.2-0.6-0.4-0.9-0.5c-0.3-0.2-0.6-0.2-0.8-0.1c-0.1,0.1-0.1,0.1,0,0.2c0.1,0.1,0.2,0.3,0.3,0.4c0.2,0.3,0.5,0.5,0.8,0.7
		c0.5,0.4,0.9,0.7,1.5,1C522.5,449.8,523,450,523.5,450.3z"/>
	<path class="st6" d="M523.2,450.5c-0.2-0.6-0.2-1.2-0.1-1.7c0.1-0.6,0.3-1.2,0.7-1.8c0.2-0.3,0.4-0.6,0.7-0.9
		c0.3-0.4,0.8-0.6,1.3-0.6c0.3,0.1,0.5,0.3,0.6,0.6c0,0.2,0,0.4,0,0.7c0,0.4-0.1,0.8-0.3,1.1c-0.2,0.6-0.6,1.1-1.1,1.6
		c-0.9,0.7-1.6,0.7-1.6,0.7s0.6-0.3,1.3-1c0.4-0.4,0.7-0.9,0.9-1.4c0.1-0.3,0.2-0.7,0.2-1c0-0.4,0-0.7-0.2-0.7
		c-0.2,0-0.5,0.1-0.7,0.4c-0.2,0.2-0.5,0.5-0.6,0.8c-0.3,0.5-0.6,1-0.7,1.6C523.3,449.9,523.3,450.5,523.2,450.5z"/>
	<path class="st6" d="M531.1,250.5c4.5,13.1,7.3,26.6,8.3,40.4c1.6,22-11.9,159.8-11.9,159.8l-26.3-4.8c0,0,5.9-48.6,8.9-72.3
		c3-23.4-8.9-105.1-8.9-105.1l27.9-18"/>
	<path class="st6" d="M470.2,256.7c0,0-5.6,23.9,6.8,49.9c7.5,15.6,62.4,147,62.4,147l22.7-11.6l-55.6-174.8L470.2,256.7z"/>
	<path class="st9" d="M541.5,377c-0.1,0-7.2-21.1-15.7-47.1c-8.5-26.1-15.3-47.3-15.1-47.3c0.1,0,7.2,21,15.6,47.1
		C534.8,355.8,541.6,376.9,541.5,377z"/>
	<path class="st9" d="M539.4,453.6c-0.1,0-11.2-25.8-24.7-57.7c-13.5-31.9-24.4-57.8-24.2-57.9c0.1-0.1,11.2,25.8,24.7,57.7
		C528.7,427.6,539.6,453.5,539.4,453.6z"/>
	<path class="st9" d="M509.3,278.7c-0.7-0.4-1.3-0.8-2-1.2c-1.6-0.9-3.3-1.7-5-2.4l-2.9-1.1c-0.8-0.3-1.6-0.6-2.4-0.8
		c-0.8-0.2-1.5-0.2-2.3-0.2c0.7-0.3,1.6-0.4,2.4-0.1c0.8,0.2,1.7,0.4,2.5,0.7c0.9,0.3,1.9,0.6,2.9,1c1.8,0.7,3.5,1.5,5.1,2.5
		C508.1,277.6,508.7,278.1,509.3,278.7z"/>
	<path class="st9" d="M523,264.9c-1.1,1.6-2.4,3.2-3.7,4.7c-1.2,1.6-2.6,3.1-4,4.5c1-1.7,2.2-3.4,3.5-4.8
		C520.1,267.7,521.5,266.2,523,264.9z"/>
	<path class="st9" d="M481.5,265.5c0.2,0.8,0.2,1.6-0.1,2.4c-0.5,1.9-1.7,3.6-3.4,4.7c-1.7,1-3.7,1.4-5.7,1.2
		c-0.8,0-1.6-0.1-2.4-0.3c0.8-0.1,1.6-0.1,2.4-0.1c1.9,0.1,3.7-0.4,5.4-1.3c1.6-1,2.7-2.6,3.3-4.3
		C481.2,267,481.4,266.2,481.5,265.5z"/>
	<path class="st9" d="M532.7,261.3c-2.3-0.6-4.3-2.3-5.2-4.5c0.1-0.1,1,1.2,2.5,2.4C531.3,260.4,532.7,261.2,532.7,261.3z"/>
	<path class="st6" d="M516.7,146.2c2.1,0.2,4,1.4,5,3.2c0.5,1.2,0.9,2.5,1.2,3.9c0.3,1.3,1.1,2.5,2.3,3.2c1.1,0.5,2.3,0.4,3.5,0.6
		c2.9,0.7,4.8,3.3,4.5,6.3c-0.1,0.4-0.1,0.8,0,1.1c0.1,0.2,0.3,0.4,0.6,0.5c1.6,0.9,3.7,0.8,5.1,2c0.9,0.9,1.4,2,1.6,3.2
		c0.3,2.3-0.1,4.7-1.3,6.8c-0.4,0.8-1.1,1.5-1.8,2.1c-1.1,0.6-2.4,1-3.7,1c-4.4,0.3-9.1-0.7-12.4-3.6c-4.4-3.9-11.3-18.6-12.1-24.4
		L516.7,146.2z"/>
	<path class="st8" d="M484.2,161.9l-15.7,7.5l11.1,47c0,0-6.6,19.4-8.8,30l-2.2,10.7c22.4,15.3,45.6,13.3,64.6-6.2l-10-22.6
		l8.3-32.6l-22-36l-5.4-0.3L484.2,161.9z"/>
	<g class="st11">
		<path d="M472.3,243.7c0.5-0.9,9.5-8.7,10.4-9.2c13.6-6.6,21.9-0.4,37.1,0.8c0.4,0,0,0.3,0.4,0.3c1.7,0.1,4.4-0.8,6.1-0.5l0.9,3
			c-10.2,4.1-22.1,0.5-32.7,3.6c-3.1,0.9-6,2.4-9.2,2.9c-0.9,0-1.8,0.4-2.5,1c-0.3,0.4-0.6,0.8-0.8,1.3c-0.9,1.1-2.2,1.8-3.6,1.9
			c-1.4,0.3-3,0.1-4.3-0.6C472.9,247.3,471.6,245,472.3,243.7z"/>
	</g>
	<path class="st12" d="M470.6,239.8c-0.8,0.2-0.5,3,1.5,2.5c3.4-0.9,6.8-2,10.1-3.3l6.8-5.6l30.5,1.9l-4.7-14.3c0,0-31.6,3-36.1,4.8
		c-3.3,1.3-5.6,2.6-7.1,4.4"/>
	<path class="st12" d="M471.5,230.2c-0.4,0.5-0.8,1.1-1.2,1.7c-0.4,0.8,0.8,1.9,0.8,1.9s-2.7,0.8-1.8,2c0.9,1.1,1.3,1.2,1.3,1.2
		s-2.2,1.7-1.7,2.5c0.5,0.8,1.7,0.4,1.7,0.4"/>
	<path class="st12" d="M470.3,240c-0.1-0.1,0.7-0.9,2-1.4c0.7-0.4,1.6-0.5,2.4-0.3c-0.7,0.3-1.4,0.6-2.2,0.8
		C471.8,239.4,471.1,239.7,470.3,240z"/>
	<path class="st12" d="M473.3,235.8c0,0.1-0.6,0.3-1.3,0.7c-0.7,0.3-1.3,0.6-1.4,0.5s0.4-0.7,1.2-1
		C472.6,235.7,473.3,235.7,473.3,235.8z"/>
	<path class="st12" d="M473,233.6c0,0.1-0.1,0.1-0.3,0.1c-0.2,0.1-0.4,0.1-0.6,0.2c-0.5,0.1-0.9,0-1-0.1c0-0.1,0.4-0.3,0.9-0.4
		c0.2,0,0.5,0,0.7,0C473,233.4,473.1,233.5,473,233.6z"/>
	<path class="st8" d="M509.6,159.7c0,0,13.3,0.3,18.5,10.5c2.6,5.1,9.3,22.4,11.7,29.7c1.6,5,6.9,29.8,0.9,32.3
		c-7.7,3.2-21.2,3.7-21.2,3.7l0,0l-5-14.4c-0.7-2.3,0.6-4.8,2.9-5.6l0,0l4.1,0.9l4.7-1.4l-3.2-29.1l-4.5-5.6L509.6,159.7z"/>
	<g class="st11">
		<path d="M497,171.3c0.6,2.3,0,5.6,0.3,7.6c1.3,8.1,1.6,16.4,1,24.6c-0.1,0.4,0,0.9,0.1,1.3c0.2,0.4,0.4,0.7,0.6,1
			c1.5,2.3,2.1,5.1,1.6,7.8c-0.5,2.7-1.3,5.3-2.5,7.8c0-2.2,0.1-5.5,0.3-7.7c0-0.4,0.3-0.1,0.3-0.6c0.1-2.6-0.3-5.1-2.1-7
			c-0.4-0.3-0.7-0.7-1-1.2c-0.2-0.4-0.3-0.9-0.3-1.4c-1-9.2-1.6-18.4-1.9-27.7c-0.1-0.5,0-1.1,0.3-1.5c0.3-0.3,0.6-0.5,1-0.7
			c0.7-0.5,1.2-1.3,1.9-1.6"/>
	</g>
	<path class="st8" d="M468.5,169.4c0,0-9.5,3.8-7.5,19.9c1,7.9,5.7,29.2,10.7,41.5c2.4,5.8,7.8,9.8,14,9.1c2.7-0.3,5.4,0.1,7.2-0.9
		c2.8-1.6,4.1-7.2,4.7-13.2c0.4-4.1,0.3-8.4,0.9-11.9c1-5.7-1.6-8.4-5-9.2l-13.1-2.8l-0.9,7L468.5,169.4z"/>
	<path class="st6" d="M484.8,217.9c0,0,0.2,0.3,0.7,0.7c0.7,0.5,1.6,0.9,2.5,1c1.3,0.2,2.7,0,3.9-0.5c1.6-0.5,3-1.3,4.2-2.4
		c1.2-1.1,2-2.6,2.3-4.2c0.2-1.3,0.1-2.7-0.4-3.9c-0.5-1.1-1.2-2.2-2.1-3.1c0.3,0.1,0.6,0.4,0.8,0.6c0.7,0.7,1.2,1.4,1.6,2.3
		c0.6,1.3,0.8,2.7,0.5,4.1c-0.3,1.7-1.1,3.3-2.4,4.5c-1.3,1.1-2.8,1.9-4.4,2.4c-1.3,0.5-2.7,0.6-4.1,0.4c-0.9-0.2-1.8-0.6-2.5-1.2
		C485,218.2,484.8,217.9,484.8,217.9z"/>
	<path class="st6" d="M471,228.8c0,0,0.3,0.7,0.9,1.9c0.8,1.7,2,3.3,3.3,4.6c2,2,4.5,3.4,7.2,4.1c3.3,0.9,6.9,0.7,10.1-0.6
		c1.7-0.7,2.3-2.5,3-4.1c0.6-1.6,1-3.2,1.3-4.8c0.5-2.8,0.8-5.6,1-8.5c0.2-2.4,0.4-4.3,0.5-5.7c0.1-0.6,0.1-1.1,0.2-1.6
		c0-0.2,0-0.4,0.1-0.5c0,0.2,0,0.4,0,0.5c0,0.4,0,0.9-0.1,1.6c-0.1,1.4-0.2,3.4-0.3,5.8c-0.1,2.9-0.4,5.7-0.9,8.5
		c-0.3,1.7-0.7,3.3-1.3,4.9c-0.3,0.8-0.7,1.7-1.1,2.5c-0.5,0.9-1.2,1.5-2.1,1.9c-3.3,1.3-7,1.5-10.4,0.6c-4.7-1.3-8.6-4.6-10.6-9.1
		c-0.2-0.5-0.4-1-0.6-1.5C471,229.2,471,229,471,228.8z"/>
	<path class="st6" d="M476.1,219.2c-0.1-0.9,0-1.8,0.1-2.7c0.1-1.6,0.3-3.9,0.5-6.4c0.1-1.3,0.2-2.4,0.4-3.5c0.1-1,0.5-2,1.1-2.8
		c0.4-0.5,1-0.9,1.7-1.1c0.5-0.1,0.7,0,0.7,0c0,0-0.3,0-0.7,0.2c-0.6,0.2-1.1,0.6-1.5,1.1c-1,1.3-0.9,3.7-1.2,6.2s-0.5,4.8-0.7,6.4
		C476.5,217.4,476.3,218.3,476.1,219.2z"/>
	<path class="st6" d="M471.5,170.9c0.4,0.1,0.7,0.2,1.1,0.4c0.9,0.5,1.7,1.2,2.4,2c0.9,1.2,1.7,2.6,2.1,4c0.5,1.6,0.9,3.5,1.3,5.4
		c0.8,3.8,1.6,7.3,2.1,9.9c0.2,1.3,0.4,2.3,0.6,3c0.1,0.4,0.1,0.7,0.1,1.1c-0.2-0.3-0.3-0.7-0.3-1.1c-0.2-0.7-0.4-1.7-0.7-3
		c-0.6-2.5-1.4-6-2.2-9.8c-0.4-1.9-0.8-3.8-1.3-5.4c-0.4-1.4-1.1-2.8-2-4C473.8,172.4,472.8,171.5,471.5,170.9z"/>
	<path class="st6" d="M531.6,234.5c-0.3,0.1-0.6,0.2-0.9,0.2l-2.5,0.3l-8.8,1.1h-0.2l-0.1-0.2c-0.5-1.6-1.1-3.3-1.6-5.2
		s-1-3.8-1.7-5.8c-0.3-0.8-0.5-1.5-0.8-2.3l-0.4-1.1c-0.2-0.4-0.3-0.8-0.4-1.2c-0.1-0.8-0.1-1.6,0-2.3c0.1-0.8,0.6-1.5,1.3-1.9
		c0.6-0.4,1.3-0.6,2.1-0.6c0.7,0,1.4,0.2,2,0.4c0.6,0.2,1.1,0.4,1.7,0.5c0.5,0.1,1.1,0.1,1.6,0c0.9-0.1,1.9-0.3,2.8-0.7
		c0.7-0.2,1.4-0.4,2.2-0.4c0.5,0,0.9,0,1.4,0.1c0.2,0,0.3,0.1,0.5,0.1c-0.6,0-1.2,0-1.8,0c-0.7,0.1-1.4,0.3-2.1,0.5
		c-0.9,0.3-1.9,0.6-2.8,0.7c-0.6,0.1-1.2,0.1-1.7,0c-0.6-0.1-1.2-0.3-1.8-0.5c-0.6-0.2-1.2-0.3-1.8-0.4c-0.6,0-1.3,0.2-1.8,0.6
		c-0.6,0.3-1,0.9-1.1,1.6c-0.1,0.7-0.1,1.5,0,2.2c0.1,0.3,0.2,0.7,0.4,1c0.1,0.4,0.3,0.7,0.4,1.1c0.3,0.7,0.6,1.5,0.9,2.3
		c0.7,2,1.2,4,1.7,5.8c0.5,1.8,1,3.6,1.5,5.2l-0.2-0.1l8.8-0.9l2.5-0.2C531,234.4,531.3,234.4,531.6,234.5z"/>
	<path class="st6" d="M533.2,216.7c0-0.1,0.4,0,0.9,0.3c0.7,0.4,1.2,1,1.6,1.7c0.6,0.9,1,2,1.1,3.1c-0.2,0.1-0.7-1.3-1.5-2.8
		c-0.4-0.6-0.8-1.2-1.4-1.7C533.5,217,533.2,216.8,533.2,216.7z"/>
	<path class="st6" d="M522.6,216.7c-0.1-0.4-0.1-0.9-0.1-1.4c0-1.2,0.1-2.5,0.2-3.7c0.3-3.1,1.4-7.3,1.9-12c0.6-4,0.2-8-1-11.9
		c-0.6-1.6-1.4-3-2.3-4.4c0,0,0.1,0.1,0.3,0.2c0.2,0.2,0.4,0.5,0.6,0.8c0.7,1,1.3,2.1,1.8,3.2c1.2,2.9,1.7,7.3,1.2,12.1
		c-0.3,2.4-0.7,4.6-1.1,6.6s-0.8,3.8-1,5.3c-0.2,1.5-0.3,2.8-0.4,3.6C522.7,215.8,522.6,216.3,522.6,216.7z"/>
	<g class="st11">
		<path d="M524.1,188.6c0.5,1.8,1,3.7,1.5,5.5c0.6,1.9,1,3.9,1.2,6c0,1.7-0.1,3.4-0.5,5.1c-0.3,1.9-0.6,3.9-0.9,5.8
			c-0.3,1.9,0.3,3.6-0.9,5.2l-2,0.3c0.3-8.6,3.7-19.6,1.6-28"/>
	</g>
	<path class="st6" d="M516.2,170.7c0.8,1.6,1.4,3.2,1.9,4.9c0.7,1.6,1.2,3.3,1.7,5c-1-1.5-1.7-3.1-2.2-4.8
		C516.9,174.1,516.4,172.4,516.2,170.7z"/>
	<g class="st11">
		<path d="M481.1,200.4c-1.2,0-2.4,0.4-3.4,1.1c-2.2,1.5-3.8,3.7-4.5,6.2c-0.7,2.5-0.6,5.2,0.2,7.7c0.3,0.8,0.8,1.7,1.6,1.6
			c1,0,1.4-1.2,1.5-2.2c0.4-2.6,0.8-5.3,1.2-7.9c0.1-0.9,0.4-1.8,0.8-2.6c0.4-0.8,1.3-1.3,2.2-1.3L481.1,200.4"/>
	</g>
	<path class="st4" d="M479.2,189.2c0,0-1,0.2-2.6,0.7c-2.1,0.7-4.1,1.5-6,2.5c-2.3,1.1-4.3,2.3-5.7,3.2l-1.7,1
		c-0.2,0.1-0.4,0.3-0.6,0.3c0.2-0.2,0.4-0.3,0.6-0.4c0.4-0.3,0.9-0.7,1.6-1.1c1.8-1.2,3.7-2.3,5.6-3.3c1.9-1,4-1.8,6.1-2.4
		c0.6-0.2,1.3-0.3,1.9-0.4C478.7,189.1,479,189.1,479.2,189.2z"/>
	<path class="st4" d="M480.6,195c-0.2,0.1-0.4,0.2-0.7,0.2c-0.4,0.1-1.1,0.3-1.9,0.6c-2.1,0.7-4.1,1.6-6.1,2.5c-2,0.9-3.9,2-5.7,3.2
		c-0.7,0.5-1.3,0.9-1.6,1.1c-0.2,0.2-0.4,0.3-0.6,0.4c0,0,0.2-0.2,0.5-0.5c0.4-0.3,0.9-0.7,1.6-1.2c1.8-1.3,3.7-2.4,5.7-3.3
		c2-1,4-1.8,6.2-2.4c0.8-0.2,1.5-0.4,1.9-0.5C480.1,195.1,480.3,195,480.6,195z"/>
	<path class="st4" d="M532.8,182c-0.5,0.2-1,0.3-1.5,0.4c-1.2,0.3-2.3,0.7-3.5,1.1c-1.1,0.4-2.2,1-3.3,1.5c-0.4,0.3-0.9,0.5-1.3,0.7
		c0.4-0.4,0.8-0.7,1.2-0.9c1.1-0.6,2.2-1.2,3.3-1.6c1.1-0.4,2.3-0.8,3.5-1C531.8,182.1,532.3,182,532.8,182z"/>
	<path class="st4" d="M535.9,189.3c-0.6,0.1-1.1,0.1-1.7,0.1c-1.3,0.1-2.6,0.4-3.9,0.8c-1.8,0.7-3.5,1.4-5.2,2.3
		c0.4-0.4,0.9-0.7,1.4-0.9c1.2-0.7,2.4-1.2,3.7-1.7c1.3-0.4,2.6-0.7,4-0.7c0.4,0,0.8,0,1.2,0C535.6,189.1,535.8,189.2,535.9,189.3z"
		/>
	<path class="st6" d="M513.1,112.7c3.3,1.9,5.2,5.5,4.9,9.3c-0.2,1.4-0.7,2.8-0.4,4.2c0.5,1.1,1.1,2.2,2,3.1
		c3.2,4.3,2.3,10.4-2,13.6c-2.6,1.9-6,2.4-9,1.4"/>
	<path class="st6" d="M516.5,130.6c7.1-19.3-13.8-27.1-24.5-23.1c-10.1,3.7-14.1,9.2-15.3,16.2s-0.5,14.5,2.7,20.9
		c1.6,3.1,4.2,6.3,7.7,6.4"/>
	<path class="st12" d="M488.3,168.5l-5-46.4l0,0c-0.2-1.8,1.1-3.5,2.9-3.8l18.3-6.1c5.9-1.1,10.4,6,11.3,12
		c0.9,6.6,1.8,14.7,1.4,19.7c-0.8,10.1-8.4,12-8.4,12s0.6,8.8,1.1,17c0,1.1-0.8,2-1.9,2.1c-0.2,0-0.4,0-0.7-0.1L488.3,168.5z"/>
	<path class="st6" d="M513.9,130.8c0.1,0.7-0.4,1.3-1.1,1.4c-0.7,0.1-1.3-0.3-1.4-1c0,0,0,0,0,0c-0.1-0.7,0.4-1.3,1.1-1.4
		C513.2,129.7,513.8,130.2,513.9,130.8C513.9,130.8,513.9,130.8,513.9,130.8z"/>
	<path class="st6" d="M500.9,131.8c0.1,0.7-0.4,1.3-1.1,1.4c-0.7,0.1-1.3-0.3-1.4-1c-0.1-0.7,0.4-1.3,1.1-1.4c0,0,0,0,0,0
		C500.2,130.7,500.8,131.1,500.9,131.8C500.9,131.8,500.9,131.8,500.9,131.8z"/>
	<path class="st6" d="M514,128.1c-0.1,0.2-1.2-0.4-2.5-0.3c-1.4,0.1-2.3,1-2.5,0.8c-0.2-0.2,0-0.4,0.4-0.8c0.6-0.5,1.3-0.8,2-0.8
		c0.7-0.1,1.4,0.1,2.1,0.4C513.9,127.7,514.1,128,514,128.1z"/>
	<path class="st6" d="M501,129.4c-0.1,0.2-1.2-0.5-2.5-0.4c-1.4,0.1-2.3,0.9-2.5,0.7c-0.2-0.2,0.1-0.4,0.5-0.7
		c0.6-0.5,1.3-0.7,2-0.8c0.7,0,1.4,0.1,2,0.5C500.9,129,501.1,129.3,501,129.4z"/>
	<path class="st6" d="M506.5,139.6c0.7-0.3,1.4-0.5,2.2-0.6c0.3-0.1,0.7-0.2,0.7-0.4c0-0.4-0.1-0.7-0.3-1l-1.2-2.6
		c-1.7-3.7-3-6.8-2.9-6.8c0.1-0.1,1.7,2.9,3.4,6.6l1.2,2.6c0.2,0.4,0.3,0.9,0.3,1.4c-0.1,0.3-0.3,0.5-0.5,0.6
		c-0.2,0.1-0.4,0.1-0.6,0.1C508,139.6,507.2,139.7,506.5,139.6z"/>
	<path class="st12" d="M508.7,155.8c-4.7,0.4-9.4-0.5-13.6-2.5c0,0,3.9,6.7,13.8,5L508.7,155.8z"/>
	<path class="st12" d="M506.2,143c-0.6-0.6-1.4-0.9-2.3-0.8c-0.6,0.1-1.2,0.5-1.5,1c-0.3,0.5-0.3,1.2,0,1.7c0.5,0.5,1.2,0.6,1.8,0.3
		c0.6-0.3,1.2-0.7,1.7-1.2c0.1-0.1,0.3-0.3,0.4-0.4C506.4,143.4,506.4,143.2,506.2,143"/>
	<path class="st6" d="M502.5,140.9c0.2,0,0.3,1.5,1.7,2.4c1.4,1,2.9,0.7,3,0.9c0,0.2-0.3,0.3-1,0.4c-0.9,0.1-1.7-0.2-2.5-0.7
		c-0.7-0.5-1.2-1.2-1.3-2C502.3,141.3,502.4,140.9,502.5,140.9z"/>
	<path class="st6" d="M501.2,127.3c-0.1,0.4-1.5,0.3-3.1,0.6c-1.6,0.3-2.9,0.9-3.1,0.5c-0.1-0.1,0.1-0.5,0.6-0.9
		c1.4-1,3.1-1.3,4.7-0.9C500.9,126.9,501.2,127.2,501.2,127.3z"/>
	<path class="st6" d="M513.4,124.6c-0.2,0.3-1.2,0.1-2.3,0.1s-2.1,0.4-2.3,0.1c-0.1-0.1,0-0.5,0.4-0.8c0.5-0.4,1.2-0.6,1.9-0.7
		c0.7,0,1.3,0.1,1.9,0.5C513.4,124.1,513.5,124.4,513.4,124.6z"/>
	<path class="st12" d="M486,135.1c-0.1-0.1-5.5-2-5.1,4s6.3,4.3,6.3,4.2S486,135.1,486,135.1z"/>
	<path class="st12" d="M485.2,141.1c0,0-0.1,0.1-0.3,0.2c-0.2,0.1-0.5,0.1-0.8,0.1c-0.8-0.4-1.3-1.3-1.3-2.2c0-0.5,0-1,0.2-1.5
		c0.1-0.4,0.4-0.7,0.7-0.8c0.2-0.1,0.5,0,0.6,0.2c0.1,0.2,0.1,0.3,0.1,0.3s0.1-0.1,0.1-0.4c0-0.1-0.1-0.3-0.3-0.4
		c-0.2-0.1-0.4-0.2-0.6-0.1c-0.5,0.1-0.9,0.5-1,1c-0.2,0.5-0.3,1.1-0.2,1.7c0,1.1,0.7,2.1,1.7,2.5c0.3,0.1,0.7,0,1-0.2
		C485.2,141.3,485.2,141.1,485.2,141.1z"/>
	<path class="st6" d="M506.2,109.1c3.5,1.5,5.3,8.2,4.2,11.7c-1.1,3.6-4.7,5.6-8.3,6.6c-3.5,1.1-7.2,1.4-10.8,0.7
		c-0.1,2.5-1.3,5-3.6,5.9c-3,1.1-6.4-1.5-7.3-4.6c-0.9-3.1-0.1-6.4,0.7-9.6"/>
	<path class="st6" d="M481.5,132.7c0,0,0.2,0.2,0.5,0.4c0.3,0.2,0.8,0.6,1.5,0.9c0.7,0.5,1.6,0.8,2.4,1c1.1,0.2,2.2,0.1,3.2-0.3
		c1-0.5,1.8-1.3,2.2-2.3c0.4-0.8,0.6-1.6,0.7-2.5c0.1-0.6,0.1-1.2,0-1.7c0-0.2-0.1-0.4-0.1-0.6c-0.1,0,0.1,0.9-0.1,2.3
		c-0.1,0.8-0.3,1.6-0.7,2.4c-0.5,0.9-1.2,1.6-2.1,2.1c-0.9,0.4-2,0.5-3,0.3c-0.8-0.2-1.6-0.5-2.4-0.8
		C482.3,133.2,481.5,132.7,481.5,132.7z"/>
	<path class="st9" d="M479.8,118.1c0,0,0.1-0.3,0.3-0.9c0.3-0.8,0.8-1.5,1.4-2.1c0.9-0.9,2-1.6,3.2-2c1.5-0.5,3-0.9,4.6-1.1
		c2.8-0.4,5.6-1.2,8.3-2.3c1-0.4,1.8-0.8,2.4-1.1l0.6-0.3c0.1,0,0.2-0.1,0.2-0.1l-0.2,0.1l-0.6,0.3c-0.6,0.3-1.4,0.6-2.4,1
		c-2.7,1-5.5,1.7-8.3,2.2c-1.6,0.2-3.1,0.6-4.6,1.1c-1.2,0.5-2.3,1.2-3.2,2.1c-0.6,0.6-1.1,1.4-1.4,2.2c-0.1,0.2-0.1,0.5-0.2,0.7
		L479.8,118.1z"/>
	<path class="st9" d="M478.6,140.9c0,0-0.1-0.1-0.3-0.2c-0.3-0.2-0.5-0.5-0.7-0.7c-0.8-1-1.3-2.2-1.5-3.5c-0.3-1.9,0-3.9,0.9-5.7
		c0.5-1.1,1.2-2,2-2.9c0.8-1,2-1.7,3.3-2l-0.2,0.3c-0.9-2.7,0-5.7,2.1-7.6c1.4-1.1,3.2-1.8,5-1.9c1.7-0.2,3.3-0.4,4.8-0.7
		c2.7-0.5,5.2-1.7,7.3-3.6c1.3-1.3,2.3-2.9,2.8-4.7c0.1-0.7,0.3-1.3,0.3-2c0,0.2,0.1,0.4,0,0.5c0,0.5-0.1,1-0.2,1.5
		c-0.4,1.9-1.4,3.5-2.8,4.9c-2.1,1.9-4.6,3.2-7.4,3.8c-1.5,0.4-3.2,0.5-4.9,0.8c-1.7,0.2-3.3,0.8-4.7,1.8c-2,1.7-2.7,4.5-2,7
		l0.1,0.3h-0.3c-1.2,0.3-2.3,0.9-3.1,1.8c-0.8,0.8-1.5,1.8-2,2.8c-0.9,1.7-1.2,3.6-1,5.4c0.2,1.2,0.6,2.4,1.3,3.4
		C478.2,140.6,478.6,140.9,478.6,140.9z"/>
	<path class="st6" d="M508.6,155.8c0,0,1.1,15,1.9,22.7c0.3,2.6,0.6,5.3,2.2,7.5c2.7,3.5,7.8,4.3,11.5,1.8c3.5-2.8,4.4-7.7,2.2-11.5
		c-0.8-1.3-2-2.8-1.3-4.1c0.3-0.5,0.7-0.9,1.1-1.3c2.1-2.2,1.4-5.8,0.1-8.5c-0.3-0.7-0.8-1.3-1.4-1.6c-0.7-0.3-1.6,0-2.4-0.2
		c-1.7-0.5-1.8-2.8-2.2-4.5c-0.6-2.5-2.5-5.2-5.1-5.6C515.2,150.4,512.7,154.5,508.6,155.8z"/>
	<path class="st9" d="M526.2,169.9c0.5-1.1,0.7-2.3,0.8-3.5c0.1-1.3-0.2-2.6-0.7-3.8c-0.7-1.5-1.7-2.7-3.1-3.6
		c-0.7-0.5-1.5-0.7-2.2-1.3c-0.4-0.3-0.6-0.6-0.8-1c-0.2-0.4-0.3-0.8-0.3-1.2c0-0.7,0-1.4-0.2-2.1c-0.2-0.6-0.5-1.1-1-1.5
		c-0.8-0.8-1.6-1.3-2-1.8c-0.2-0.2-0.4-0.5-0.5-0.9c0,0,0.2,0.3,0.7,0.7c0.4,0.4,1.2,0.9,2.1,1.7c0.5,0.4,0.9,1,1.1,1.6
		c0.2,0.7,0.2,1.4,0.2,2.2c0,0.7,0.3,1.4,0.9,1.9c0.6,0.5,1.4,0.8,2.2,1.3c1.4,0.9,2.6,2.2,3.2,3.8c0.5,1.3,0.8,2.6,0.6,4
		c-0.1,0.9-0.3,1.8-0.7,2.6C526.5,169.4,526.4,169.7,526.2,169.9z"/>
	<path class="st9" d="M520.1,189.2c0,0,0.5-0.3,1.2-1c1-1,1.8-2.3,2.3-3.6c0.7-2,0.6-4.2-0.3-6.2c-1-2.2-3-4-4.9-6.1
		c-0.9-1-1.7-2.2-2.3-3.5c-0.6-1.2-0.8-2.5-0.7-3.9c0.1-1.3,0.5-2.4,0.7-3.4c0.2-1,0.2-2,0-2.9c-0.3-1.4-0.9-2.7-1.8-3.9
		c-0.7-0.8-1.1-1.1-1.1-1.2c0,0,0.1,0.1,0.4,0.2c0.3,0.2,0.6,0.5,0.9,0.8c1.7,1.9,2.5,4.5,2.1,7c-0.2,1.1-0.5,2.2-0.6,3.4
		c-0.1,1.2,0.1,2.5,0.7,3.6c0.6,1.2,1.3,2.3,2.3,3.3c1.8,2.1,3.9,4,4.9,6.3c0.9,2.1,1,4.4,0.2,6.5c-0.5,1.4-1.3,2.7-2.5,3.6
		c-0.3,0.3-0.6,0.5-1,0.7C520.3,189.1,520.2,189.1,520.1,189.2z"/>
	<path class="st12" d="M480.3,204.6l3.8-36.6l11,4.5l0.9,37.3c0,0-3.6,5.3-9.5,3C483,211.5,480.6,208.3,480.3,204.6z"/>
	<polygon class="st6" points="483.4,136 503.6,154.3 499.7,167.7 498.2,168.1 480.6,149.5 481.9,136.4 	"/>
	<polygon class="st9" points="481.9,136.4 502.1,154.7 498.2,168.1 479.1,150 	"/>
	<path class="st12" d="M495.4,173.7c1.3-1.4,2-3.1,2.1-5c0-2.8-0.7-9.4-0.7-9.4s3.7-7.4,3.6-8.4c-0.1-1-0.2-1-1.5-0.6
		c-1.3,0.4-5.3,7.2-5.3,7.2l-1.2-5.1c0,0,3.4-5.3,3.6-6c0.3-0.7,0.7-1.3-0.1-1.4s-7.1,5.8-7.1,5.8l0.4,5.6c0,0-0.1,0.4-1-0.3
		c-0.9-0.8-0.6-7.4-0.6-7.4s2.2-3.9,2.1-4.5c0-0.6,0.4-1.2,0-2.2c-0.4-1-1.6,0.1-1.6,0.1l-4.2,5.3l-1.4-5.4c0,0,0.1-1.1-1.4-1.2
		l0.3,17.3l3.6,13.3L495.4,173.7z"/>
	<path class="st12" d="M495.9,209.8c0,0,0-0.2,0-0.7c0-0.4,0-1.1-0.1-1.9c0-1.7-0.1-4.2-0.2-7.3c-0.2-6.3-0.4-15.3-0.7-26.2v-0.1
		l0.1-0.1c0.9-0.8,1.6-1.7,2-2.8c0.4-1.1,0.6-2.4,0.5-3.6c-0.1-2.5-0.4-5.2-0.7-7.9v-0.1v-0.1c0.7-1.4,1.4-2.9,2.1-4.4
		c0.3-0.7,0.7-1.5,1-2.3c0.1-0.4,0.3-0.8,0.4-1.2l0.1-0.3c0-0.1,0-0.1,0-0.2c0-0.2,0-0.4-0.1-0.5c0-0.1-0.5,0-0.9,0.1
		c-0.2,0-0.3,0.1-0.5,0.2c-0.2,0.1-0.3,0.3-0.4,0.4c-0.6,0.6-1.1,1.3-1.6,2c-1,1.4-2,2.9-2.9,4.4l-0.3,0.5l-0.1-0.6
		c-0.4-1.6-0.8-3.3-1.2-5.1v-0.1l0.1-0.1l1.7-2.7c0.6-1.1,1.4-2.2,1.9-3.2c0.1-0.3,0.3-0.6,0.3-0.9c0.1-0.2,0-0.2,0-0.2
		c-0.1,0-0.2,0-0.2,0c-0.1,0-0.2,0.1-0.3,0.1c-0.1,0.1-0.2,0.2-0.4,0.2c-0.1,0.1-0.5,0.3-0.7,0.5c-1.9,1.5-3.7,3.2-5.5,4.8l0.1-0.2
		c0.1,1.9,0.3,3.7,0.4,5.6l0,0l0,0c-0.1,0.2-0.3,0.3-0.5,0.3c-0.1,0-0.2-0.1-0.4-0.1c-0.2-0.1-0.3-0.2-0.5-0.4
		c-0.3-0.3-0.5-0.7-0.5-1.1c-0.1-0.7-0.2-1.5-0.2-2.2c0-1.5,0-2.9,0-4.3l0,0v0c0.8-1.3,1.5-2.7,2.1-4.1c0-0.1,0-0.1,0-0.2
		c0-0.1,0-0.2,0-0.3s0.1-0.4,0.1-0.6c0.1-0.3,0.1-0.7,0-1c-0.1-0.4-0.2-0.5-0.5-0.5c-0.3,0.1-0.6,0.2-0.8,0.5l0,0l-4.2,5.3l-0.3,0.3
		l-0.1-0.4c-0.5-1.9-0.9-3.6-1.4-5.4V142c0-0.3-0.1-0.6-0.4-0.7c-0.3-0.2-0.5-0.2-0.8-0.2l0.2-0.2c0.1,7.1,0.2,12.9,0.3,17.3l0,0
		c0.8,3.2,1.4,5.7,1.8,7.4c0.2,0.8,0.3,1.5,0.4,1.9s0.1,0.7,0.1,0.7s-0.1-0.2-0.2-0.6l-0.5-1.9c-0.4-1.7-1.1-4.2-1.9-7.3l0,0l0,0
		c-0.1-4.4-0.2-10.3-0.4-17.3v-0.3h0.2c0.4,0,0.7,0.1,1.1,0.3c0.4,0.2,0.6,0.7,0.5,1.1V142l1.4,5.4l-0.4-0.1l4.2-5.3l0,0l0,0
		c0.3-0.3,0.7-0.5,1.1-0.6c0.3,0,0.5,0,0.7,0.2c0.2,0.2,0.3,0.4,0.3,0.6c0.1,0.4,0.1,0.8,0,1.2c0,0.2-0.1,0.4-0.1,0.5
		c0,0.1,0,0.2,0,0.2c0,0.1,0,0.2-0.1,0.3c-0.6,1.4-1.3,2.8-2.1,4.2v-0.1c0,1.4-0.1,2.8,0,4.3c0,0.7,0.1,1.4,0.2,2.1
		c0,0.3,0.2,0.6,0.4,0.9c0.1,0.1,0.3,0.2,0.4,0.3c0.1,0,0.1,0,0.2,0.1l0,0c0,0,0,0,0,0.1l0,0l0,0l0,0h-0.1l0,0v0.1
		c-0.1-1.8-0.3-3.7-0.4-5.6v-0.2l0.1-0.1c1.8-1.6,3.6-3.3,5.5-4.9l0.8-0.6c0.1-0.1,0.3-0.2,0.4-0.3c0.2-0.1,0.4-0.2,0.6-0.2
		c0.2,0,0.4,0.1,0.6,0.2c0.2,0.2,0.2,0.5,0.1,0.7c-0.1,0.3-0.2,0.6-0.3,0.9c-0.6,1.2-1.3,2.2-1.9,3.3l-1.7,2.7v-0.2l1.2,5.1
		l-0.5-0.1c0.9-1.5,1.9-3,2.9-4.5c0.5-0.7,1.1-1.4,1.6-2.1c0.2-0.2,0.3-0.3,0.5-0.5c0.2-0.1,0.4-0.3,0.7-0.3
		c0.2-0.1,0.4-0.1,0.7-0.2c0.1,0,0.3,0,0.4,0c0.2,0,0.3,0.2,0.4,0.3c0.1,0.2,0.1,0.5,0.1,0.7c0,0.1,0,0.3,0,0.4l-0.1,0.3
		c-0.1,0.4-0.3,0.8-0.4,1.2c-0.3,0.8-0.6,1.5-1,2.3c-0.7,1.5-1.4,3-2.1,4.4v-0.1c0.3,2.7,0.6,5.4,0.7,8c0.1,1.3-0.1,2.6-0.5,3.8
		c-0.5,1.2-1.2,2.2-2.2,3l0.1-0.2c0.2,11,0.4,19.9,0.5,26.2c0,3.1,0.1,5.6,0.1,7.3c0,0.8,0,1.5,0,1.9S495.9,209.8,495.9,209.8z"/>
	<path class="st12" d="M484.7,156.8c-0.4-1.6-0.6-3.1-0.6-4.7c-0.2-1.6-0.2-3.2,0-4.8c0.4,1.6,0.5,3.2,0.6,4.8
		C484.9,153.6,484.9,155.2,484.7,156.8z"/>
</g>
<g id="freepik--Plant--inject-29">
	<path class="st8" d="M250.4,360.8c13.5-13.5,33.2-18.9,51.8-14.2c-15.5,10.5-33.7,16.2-52.4,16.4"/>
	<path class="st8" d="M268,298.6c-2.2-15.3,3.8-32.4,15.2-43.5C283.5,270.2,277.2,287.2,268,298.6"/>
	<path class="st8" d="M258.8,327.4c8.3-15.7,21.4-28.2,37.4-35.8c-5.1,17.9-19.5,31.6-37.6,35.9"/>
	<path class="st8" d="M256.9,333c9.2,0.3,18.5-0.1,27.5-2.4c8.9-2.4,17.4-6.9,23.4-13.9c-18.1,0.1-35.7,5.4-50.7,15.5"/>
	<path class="st8" d="M261.6,314.7c-4.7-17.5-12.4-29.7-26.2-39.5C233.3,293,244.4,309.7,261.6,314.7"/>
	<path class="st8" d="M226.8,344.8c-0.1-10.5,6.1-19.9,15.8-24C241.8,329.9,234.7,340.3,226.8,344.8"/>
	<path class="st8" d="M222.4,330.1c-1.3-15-11.2-27.8-25.3-33C200.3,311.8,208.8,324,222.4,330.1"/>
	<path class="st8" d="M229.1,356.3c-3.2-4.7-8.6-7.5-14-9s-11.2-1.6-16.9-1.7c7.8,8.5,19,13.1,30.5,12.7"/>
	<path class="st8" d="M235.7,393.7c-21.4-6.6-44.3,4.3-52.8,25C202.1,415.1,221,406.6,235.7,393.7"/>
	<path class="st8" d="M256.7,380.7c-3.2,9.4-2.6,20.8,4.5,28.9C264.1,399.8,262.4,389.2,256.7,380.7"/>
	<path class="st8" d="M269.2,375.5c1.1,12.4,8.5,23.3,19.6,28.8c0.5,0.3,1.1,0.4,1.7,0.3c0.9-0.3,0.9-1.5,0.8-2.5
		C289.9,390,281,378.3,269.2,375.5"/>
	<path class="st8" d="M277.3,374.3c10.9,11.8,29.3,12.5,41.1,1.6c0.5-0.4,0.9-0.9,1.4-1.4C306.3,373,290.7,372,277.3,374.3"/>
	<path class="st6" d="M279.3,266.3c0,0.1-0.1,0.3-0.1,0.4c-0.1,0.3-0.2,0.7-0.4,1.1c-0.4,1-0.9,2.5-1.6,4.4s-1.6,4.2-2.5,7
		c-0.5,1.4-1,2.8-1.6,4.3l-1.7,4.9c-2.4,6.8-5,15-7.9,24.2c-2.9,9.1-5.8,19.3-8.7,29.9s-5.4,20.9-7.6,30.2
		c-2.2,9.3-3.9,17.8-5.2,24.9c-0.3,1.8-0.7,3.5-1,5.1s-0.5,3.1-0.8,4.5c-0.5,2.8-0.9,5.3-1.2,7.3c-0.3,2-0.5,3.5-0.7,4.6
		c-0.1,0.5-0.1,0.9-0.2,1.2c0,0.1,0,0.3-0.1,0.4c0-0.1,0-0.3,0-0.4c0-0.3,0.1-0.7,0.1-1.2c0.1-1.1,0.3-2.6,0.6-4.6
		c0.3-2,0.6-4.5,1.1-7.3c0.2-1.4,0.5-2.9,0.7-4.6c0.3-1.6,0.6-3.3,0.9-5.1c1.3-7.1,3-15.6,5.1-24.9c2.1-9.3,4.7-19.6,7.5-30.2
		s5.9-20.8,8.7-29.9c2.8-9.2,5.6-17.3,8-24.2l1.7-4.9l1.6-4.3c1-2.7,1.9-5,2.6-6.9c0.8-1.9,1.3-3.3,1.7-4.3c0.2-0.5,0.3-0.8,0.5-1.1
		L279.3,266.3z"/>
	<path class="st6" d="M205.2,304.9l0.2,0.2l0.6,0.7c0.6,0.6,1.4,1.5,2.4,2.7c2.9,3.3,5.6,6.9,8,10.6c3.6,5.5,6.4,11.5,8.3,17.7
		c2.2,7.1,3.6,15.1,5,23.5c2.7,16.8,6.1,31.9,8.6,42.8l2.9,12.9c0.3,1.5,0.6,2.7,0.8,3.5c0.1,0.4,0.1,0.7,0.2,0.9c0,0.1,0,0.2,0,0.3
		c0-0.1-0.1-0.2-0.1-0.3c-0.1-0.2-0.1-0.5-0.2-0.9l-0.9-3.5c-0.7-3.1-1.8-7.5-3.1-12.9c-2.5-10.9-6-26-8.7-42.8
		c-1.4-8.4-2.7-16.4-5-23.5c-1.9-6.3-4.7-12.2-8.2-17.7c-2.4-3.7-5-7.3-7.8-10.7c-1-1.2-1.8-2.1-2.3-2.7l-0.6-0.7
		C205.2,305.1,205.2,305,205.2,304.9z"/>
	<path class="st6" d="M281.3,373.7c-0.2,0.1-0.3,0.1-0.5,0.1l-1.4,0.2l-1,0.1l-1.2,0.2c-0.9,0.1-1.8,0.2-2.9,0.5l-1.7,0.3l-1.8,0.5
		c-1.2,0.3-2.5,0.7-3.9,1.2c-2.9,1-5.8,2.3-8.5,3.8c-2.7,1.5-5.3,3.3-7.7,5.3c-1,0.9-2,1.8-3,2.8c-0.8,0.9-1.6,1.8-2.3,2.7
		c-0.6,0.8-1.2,1.6-1.7,2.4c-0.4,0.6-0.8,1.2-1.2,1.9l-0.7,1.2c-0.1,0.1-0.2,0.3-0.3,0.4c0-0.2,0.1-0.3,0.2-0.5l0.6-1.3
		c0.4-0.7,0.7-1.4,1.2-2c0.5-0.8,1.1-1.7,1.7-2.4c0.7-1,1.5-1.9,2.3-2.7c0.9-1,1.9-2,3-2.9c2.4-2.1,5-3.9,7.7-5.4
		c2.8-1.5,5.7-2.8,8.6-3.8c1.4-0.4,2.7-0.9,4-1.1l1.8-0.4l1.7-0.3c1.1-0.2,2.1-0.3,2.9-0.4l1.2-0.1l1,0l1.4-0.1
		C281,373.7,281.2,373.7,281.3,373.7z"/>
	<path class="st6" d="M285.2,305.3c-0.3,0.3-0.6,0.7-1,0.9l-2.8,2.4c-2.4,2-5.6,4.8-9.3,7.8s-7,5.7-9.4,7.7l-2.9,2.3
		c-0.3,0.3-0.7,0.6-1.1,0.8c0.3-0.4,0.6-0.7,1-0.9l2.8-2.4c2.4-2,5.6-4.8,9.3-7.8c3.7-3,7-5.7,9.4-7.7l2.9-2.3
		C284.4,305.8,284.8,305.5,285.2,305.3z"/>
	<path class="st6" d="M288.5,323.1c0,0.1-7.1,2.4-15.8,5s-15.9,4.6-15.9,4.5c0-0.1,7-2.4,15.8-5S288.5,323,288.5,323.1z"/>
	<path class="st6" d="M262.3,316c-0.3-0.3-0.5-0.6-0.7-1l-1.9-2.8c-1.6-2.4-3.8-5.7-6.5-9.2c-2.7-3.5-5.2-6.5-7.1-8.7
		c-0.9-1-1.6-1.9-2.3-2.6c-0.3-0.3-0.6-0.6-0.8-1c0.3,0.3,0.6,0.5,0.9,0.8c0.6,0.6,1.4,1.4,2.4,2.5c2,2.1,4.6,5.1,7.3,8.6
		c2.3,3,4.4,6.1,6.4,9.3c0.8,1.2,1.4,2.2,1.7,2.9C262,315.3,262.2,315.6,262.3,316z"/>
	<path class="st6" d="M237.7,325.9c-0.5,0.9-1.1,1.9-1.7,2.7c-1.1,1.7-2.5,4-4,6.6c-1.5,2.6-2.7,5-3.6,6.8c-0.4,1-0.9,1.9-1.5,2.8
		c0.3-1,0.7-2,1.2-3c0.8-1.8,2-4.3,3.5-6.9s3-4.9,4.1-6.5C236.3,327.5,237,326.7,237.7,325.9z"/>
	<path class="st6" d="M229.3,356.8c0,0.1-1.4-0.6-3.6-1.6c-2.2-1-5.3-2.3-8.8-3.5c-3.5-1.2-6.7-2.1-9.1-2.7s-3.8-0.9-3.8-1
		c0.4,0,0.7,0,1.1,0.1c0.7,0.1,1.6,0.3,2.8,0.5c3.1,0.7,6.2,1.5,9.2,2.6c3,1,5.9,2.3,8.8,3.7c1.1,0.5,2,1,2.5,1.3
		C228.7,356.4,229,356.6,229.3,356.8z"/>
	<path class="st6" d="M235.9,393.8c-0.1,0.1-0.3,0.1-0.4,0.1l-1.3,0.3l-4.7,1.1c-5.2,1.1-10.3,2.4-15.4,4.1c-5,1.7-9.9,3.9-14.4,6.7
		c-1.7,1.1-3.1,2.1-4,2.8c-0.5,0.4-0.9,0.7-1.4,1.1c0.1-0.1,0.2-0.2,0.3-0.3c0.2-0.2,0.5-0.5,1-0.9c1.2-1,2.5-2,3.9-2.9
		c4.5-2.9,9.3-5.3,14.4-7c5.1-1.6,10.2-2.9,15.5-3.9l4.8-0.9C234.7,393.9,235.3,393.8,235.9,393.8z"/>
	<path class="st6" d="M259.9,402.9c-0.1,0-1-5-1.9-11.1c-0.9-6.1-1.5-11.2-1.4-11.2s1,5,1.9,11.1C259.4,397.8,260,402.8,259.9,402.9
		z"/>
	<path class="st6" d="M284.9,393.8c-0.8-0.8-1.6-1.7-2.3-2.7c-1.3-1.7-3.2-4-5.3-6.5s-4.1-4.8-5.5-6.4c-0.8-0.8-1.6-1.7-2.2-2.7
		c0.3,0.2,0.5,0.4,0.7,0.6c0.4,0.4,1,1,1.8,1.8c1.5,1.6,3.5,3.8,5.6,6.3s4,4.9,5.2,6.6c0.6,0.9,1.1,1.6,1.5,2.1
		C284.6,393.2,284.7,393.5,284.9,393.8z"/>
	<polygon class="st9" points="218.8,416.9 218.8,429.3 221.9,429.3 232.8,463.9 257.2,463.9 267.8,429.6 271.9,429.3 271.9,416.9 	
		"/>
	<path class="st6" d="M269.8,429.6c0,0.1-10.7,0.2-24,0.2c-13.2,0-24-0.1-24-0.2c0-0.1,10.7-0.3,24-0.3
		C259.1,429.4,269.8,429.5,269.8,429.6z"/>
	<path class="st6" d="M287.4,350.3c-0.5,0.2-1,0.3-1.6,0.4l-4.3,1c-3.6,0.9-8.5,2.3-13.9,4c-5.4,1.8-10.1,3.7-13.5,5.2l-4,1.8
		c-0.5,0.2-1,0.4-1.5,0.6c0.5-0.3,0.9-0.6,1.4-0.8c0.9-0.5,2.3-1.1,4-1.9c4.4-2,8.9-3.8,13.4-5.3c4.6-1.5,9.2-2.8,13.9-3.9
		c1.8-0.4,3.3-0.7,4.3-0.9C286.2,350.4,286.8,350.3,287.4,350.3z"/>
	<path class="st4" d="M261.8,448.8c0,0.1-7.5,0.3-16.8,0.3s-16.8-0.1-16.8-0.3c0-0.1,7.5-0.3,16.8-0.3S261.8,448.7,261.8,448.8z"/>
	<path class="st4" d="M262.7,446c0,0.1-8,0.3-17.8,0.3c-9.9,0-17.8-0.1-17.8-0.3c0-0.1,8-0.3,17.8-0.3
		C254.7,445.7,262.7,445.8,262.7,446z"/>
</g>
<g id="freepik--speech-bubble--inject-29">
	<path class="st5" d="M530.4,137.2l6.1-10.8c-8.4-13.6-4.2-31.4,9.4-39.8s31.4-4.2,39.8,9.4s4.2,31.4-9.4,39.8
		c-10.2,6.3-23.3,5.7-32.8-1.6l0,0L530.4,137.2z"/>
	<path class="st6" d="M530.4,137.2l13-3.2l-0.1,0.2l0,0c0-0.1,0-0.1,0-0.2c0.1,0,0.1,0,0.2,0c4,3.1,8.8,5,13.8,5.7
		c1.5,0.2,3,0.3,4.5,0.2c0.8,0,1.6-0.1,2.4-0.1l2.4-0.4c7.2-1.4,13.5-5.5,17.8-11.5c2.4-3.3,4-7,4.8-11c0.8-4.2,0.7-8.5-0.3-12.7
		c-1.1-4.3-3.2-8.3-6.1-11.7c-3-3.4-6.7-6.1-11-7.8c-4.1-1.6-8.4-2.3-12.8-2c-4.1,0.3-8.1,1.5-11.7,3.5c-6.5,3.6-11.3,9.6-13.6,16.7
		c-0.9,3-1.3,6.1-1.3,9.3c0.1,5,1.6,9.9,4.2,14.2c0,0,0,0.1,0,0.1L530.4,137.2c0.4-0.8,2.2-4,6-10.9v0.1c-2.7-4.3-4.2-9.3-4.3-14.4
		c-0.1-3.2,0.4-6.4,1.3-9.4c1.1-3.4,2.7-6.6,4.9-9.4c2.4-3.1,5.4-5.6,8.8-7.5c3.7-2,7.8-3.3,12-3.5c4.4-0.3,8.8,0.4,12.9,2
		c4.3,1.7,8.1,4.5,11.2,8c3,3.4,5.1,7.5,6.2,12c1.1,4.2,1.2,8.6,0.3,12.9c-0.8,4-2.5,7.9-4.9,11.2c-4.3,6-10.8,10.2-18.1,11.6
		l-2.5,0.4c-0.8,0.1-1.6,0.1-2.4,0.1c-1.5,0.1-3.1,0-4.6-0.2c-5.1-0.7-9.9-2.7-13.9-5.9l0.2-0.2l0,0c0,0.1,0,0.1,0,0.2h0
		L530.4,137.2z"/>
	<path class="st6" d="M553.4,110.7c0,1.4-1.1,2.5-2.5,2.5c-1.4,0-2.5-1.1-2.5-2.5c0-1.4,1.1-2.5,2.5-2.5S553.4,109.3,553.4,110.7
		C553.4,110.7,553.4,110.7,553.4,110.7z"/>
	<path class="st6" d="M563.4,110.7c0,1.4-1.1,2.5-2.5,2.5c-1.4,0-2.5-1.1-2.5-2.5c0-1.4,1.1-2.5,2.5-2.5
		C562.3,108.2,563.4,109.3,563.4,110.7C563.4,110.6,563.4,110.7,563.4,110.7z"/>
	<path class="st6" d="M573.4,109.4c0.7,1.2,0.3,2.7-0.9,3.4c-1.2,0.7-2.7,0.3-3.4-0.9c-0.7-1.2-0.3-2.7,0.9-3.4c0,0,0,0,0,0
		C571.1,107.8,572.7,108.2,573.4,109.4z"/>
</g>
</svg>
