<?xml version="1.0" encoding="utf-8"?>
<!-- Generator: Adobe Illustrator 26.3.0, SVG Export Plug-In . SVG Version: 6.00 Build 0)  -->
<svg version="1.1" id="Layer_1" xmlns="http://www.w3.org/2000/svg" xmlns:xlink="http://www.w3.org/1999/xlink" x="0px" y="0px"
	 viewBox="0 0 750 500" style="enable-background:new 0 0 750 500;" xml:space="preserve">
<style type="text/css">
	.st0{fill:#EBEBEB;}
	.st1{fill:#FFFFFF;}
	.st2{fill:#E0E0E0;}
	.st3{fill:#F5F5F5;}
	.st4{fill:#FAFAFA;}
	.st5{fill:#263238;}
	.st6{fill:#009FE3;}
	.st7{fill:#455A64;}
	.st8{fill:#A36957;}
	.st9{fill:#7C3B29;}
	.st10{opacity:0.3;}
	.st11{opacity:0.2;}
	.st12{fill:#CC8F75;}
	.st13{opacity:0.78;}
	.st14{fill:#FFD1BD;}
</style>
<g id="freepik--background-complete--inject-47">
	<path class="st0" d="M138.2,277.7l54.9-11.8c3.8-0.8,7.6,1.6,8.4,5.5l11.8,54.9c0.8,3.8-1.6,7.6-5.5,8.4L153,346.5
		c-3.8,0.8-7.6-1.6-8.4-5.5l-11.8-54.9C131.9,282.3,134.4,278.5,138.2,277.7z"/>
	<path class="st1" d="M198,312.9c-0.1-0.5-0.2-1-0.4-1.5l-0.2-0.5c-1.2-2.2-3.1-3.9-5.4-5c-2-1.1-4.2-1.9-6.4-2.5l-0.3-0.1
		c-0.2,0-0.4,0-0.5,0.2l-4.4,7.5l-16-10.3l4.4-8.1c0-0.1,0-0.2,0-0.3c0-0.1-0.1-0.2-0.2-0.2l-3.7-1.8c-0.6-0.3-1-0.5-1.2-0.5
		c-0.1-0.1-0.2-0.1-0.4-0.2l-0.2-0.1c-0.3-0.1-0.5-0.3-0.8-0.4c-1.4-0.5-2.9-0.7-4.4-0.7c-2.4,0.1-4.7,1-6.5,2.5
		c-2.5,2-4,5.1-3.9,8.3c0.1,1.9,0.9,3.8,2.4,5.1c0.7,0.6,1.5,1.2,2.3,1.7l24.4,15.6c0.3,0.2,0.6,0.4,0.9,0.6
		c0.7,0.5,1.5,0.9,2.2,1.3c1.2,0.6,2.4,1,3.7,1.3c0.9,0.2,1.8,0.3,2.6,0.3c1.8,0,3.5-0.4,5.1-1.1c2.5-1.1,4.5-3,5.7-5.4
		c0.3-0.6,0.6-1.2,0.8-1.8l0.1-0.3c0.2-0.5,0.3-1.1,0.3-1.6l0.1-1L198,312.9z M167.4,292.8l-4.6,8.1c-0.1,0.2-0.1,0.4,0.1,0.6
		l17.6,11.6c0.1,0.1,0.2,0.1,0.3,0.1c0.1,0,0.2-0.1,0.3-0.2l4.5-7.7c1.9,0.5,3.7,1.3,5.4,2.2c1.9,1,3.5,2.4,4.6,4.3
		c0.1,0.2,0.1,0.3,0.2,0.5c0.2,0.3,0.3,0.7,0.3,1l0.1,0.7l-0.1,0.9c0,0.4-0.1,0.8-0.3,1.2l-0.1,0.3c-0.2,0.5-0.4,1.1-0.6,1.5
		c-1.1,2-2.8,3.7-4.9,4.6c-2.1,0.9-4.5,1.2-6.8,0.7c-1.1-0.2-2.2-0.6-3.2-1.1c-0.7-0.4-1.4-0.8-2.1-1.3l-0.9-0.6L153,304.8
		c-0.8-0.4-1.5-1-2.1-1.5c-1.2-1-1.9-2.5-2-4c0-2.8,1.2-5.5,3.3-7.3c1.6-1.4,3.7-2.2,5.8-2.3h0.7c1.5,0,2.9,0.3,4.3,0.8l0.4,0.1
		c0.2,0.1,0.6,0.3,1.1,0.6L167.4,292.8z"/>
	<path class="st1" d="M174.9,295.2c1.7-0.1,3.3-0.4,4.9-0.8c0.9,4.7,1.3,5.2,1.6,5.2h0.1l0,0c0.4-0.1,0.7-0.1-0.3-5.5
		c5.4-1.2,5.4-1.5,5.3-1.9l0,0c0-0.1-0.1-0.2-0.2-0.3c-0.3-0.2-2.1,0-5.4,0.7c-0.6-3.2-1.1-4.9-1.4-5.1c-0.2-0.1-0.5-0.1-0.6,0.1
		c-0.2,0.3,0,2.1,0.6,5.3c-5,1.1-5.2,1.5-5.3,1.6c-0.1,0.1-0.1,0.3,0,0.4C174.3,295.1,174.3,295.2,174.9,295.2z"/>
	<path class="st2" d="M364.8,117.1c-0.5,0.7-1,1.4-1.7,2c-1.1,1.1-2.6,2.7-4.4,4.5c-1.7,1.7-3.3,3.2-4.5,4.3c-0.6,0.6-1.3,1.2-2,1.7
		c0.5-0.7,1-1.4,1.7-2c1.1-1.1,2.6-2.7,4.4-4.5c1.7-1.7,3.3-3.2,4.5-4.3C363.4,118.1,364.1,117.6,364.8,117.1z"/>
	<path class="st2" d="M364.6,45.5c-0.7-0.5-1.4-1.1-2-1.7c-1.1-1.1-2.7-2.6-4.5-4.4c-1.8-1.7-3.2-3.3-4.3-4.5
		c-0.6-0.6-1.2-1.3-1.6-2c0.7,0.5,1.4,1.1,2,1.7c1.1,1.1,2.7,2.6,4.5,4.4s3.2,3.3,4.3,4.5C363.6,44.1,364.2,44.8,364.6,45.5z"/>
	<polygon class="st2" points="606.9,443.6 603.3,480.7 584.1,480.7 580.4,443.6 	"/>
	<rect x="578.1" y="440.8" class="st0" width="31.7" height="2.7"/>
	<polygon class="st0" points="603.8,436.2 606.9,441.5 581.7,441.5 582.9,436.2 	"/>
	<polygon class="st3" points="605.7,456.1 604.4,469.3 583,469.3 581.6,456.1 	"/>
	<path class="st4" d="M590.9,466.4c0-1.2,0.4-2.3,1-3.3c0.5-0.8,1.2-1.5,1.7-2.2c0.5-0.6,0.9-1.3,1.1-2.1c0.1-0.3,0.1-0.6,0.2-0.9
		l0.1,0.1c0.8,0.5,1.3,1.3,1.4,2.2c0.1,0.9,0.1,1.8-0.1,2.6c-0.2,1-0.7,2-1.4,2.8c-0.9,0.9-2.1,1.3-3.3,1
		C591.4,466.6,591.1,466.6,590.9,466.4z"/>
	<path class="st4" d="M589.3,463.5c0-1.2,0.3-2.4,0.7-3.5c0.4-1.1,1.4-2,2.5-2.3c0.6-0.2,1.3-0.1,1.8,0.1c0,0.3-0.1,0.6-0.2,0.9
		c-0.3,0.7-0.6,1.4-1.1,2c-0.5,0.7-1.2,1.4-1.7,2.2c-0.5,0.8-0.9,1.8-1,2.7c0,0.2,0,0.4,0,0.6c-0.3-0.2-0.6-0.4-0.7-0.7
		C589.3,464.9,589.2,464.2,589.3,463.5z"/>
	<path class="st3" d="M434,423.4c17.3-17.3,17.2-43.8,12.3-66.7c-0.8-3.8-1.1-7.9-3.5-11s-7.1-4.6-10.3-2.4
		c-2.6,1.9-3.3,5.4-4.4,8.4c-1.5,4-4.1,7.6-7.5,10.2c-2.2,1.7-5.1,3-7.8,2.1c-3.7-1.3-4.9-5.8-5.5-9.6c-1.2-7.1-2.5-14.3-3.7-21.4
		c-0.7-3.8-1.4-7.7-3.2-11.2c-1.8-3.4-5.1-6.3-8.9-6.7c-3.9-0.4-7.9,2.5-8,6.4c0.1,1.6,0.4,3.2,0.7,4.8c0.2,1.6-0.2,3.5-1.7,4.2
		c-1.4,0.7-3.2-0.1-4.5-1c-4.6-3.2-8.2-7.7-11.6-12.2c-3.4-4.5-6.7-9.1-11.1-12.7c-4.4-3.6-9.9-6-15.4-5.4s-10.8,5.1-11.2,10.7
		s3.7,10.6,7.9,14.3c6.2,5.6,13.2,10.2,20.8,13.8c1.4,0.5,2.7,1.4,3.5,2.7c1.3,2.4-0.7,5.4-3,6.7c-2.7,1.5-5.8,1.7-8.8,2.6
		c-2.9,0.9-5.9,2.8-6.5,5.8c-0.9,4.2,3.1,7.7,6.8,9.8c7.4,4.2,15.5,7.2,23.9,8.7c3,0.5,6.1,0.9,8.7,2.5c2.6,1.6,4.6,4.8,3.7,7.7
		c-0.9,2.9-4.3,4.5-7.3,4.4c-3-0.1-6-1.1-8.9-1.7c-5.6-1-12.3,0.5-14.9,5.7c-1.7,3.3-1.1,7.6,0.6,10.9c1.9,3.3,4.4,6.1,7.5,8.4
		c10.1,8.5,22.3,14.2,35.4,16.5C411.2,430.9,422.7,430.1,434,423.4"/>
	<path class="st2" d="M425.5,410.1c-6.1-11.9-12.8-23.4-20.2-34.5l-5.7-8.8c-1.9-2.9-3.8-5.7-5.8-8.4c-3.9-5.1-8-10-12.4-14.7
		c-4.2-4.5-8.3-8.6-12.2-12.4c-3.9-3.8-7.6-7.3-11.2-10.3c-5.5-4.8-11.4-9.1-17.6-13c-2.2-1.4-3.9-2.4-5.1-3l-1.4-0.8
		c-0.1-0.1-0.3-0.2-0.5-0.2c0.1,0.1,0.3,0.2,0.4,0.3l1.3,0.8c1.1,0.7,2.9,1.8,5,3.1c6.1,3.9,12,8.3,17.4,13.2c3.5,3,7.2,6.5,11,10.3
		c3.9,3.8,8,7.9,12.1,12.4c4.4,4.7,8.5,9.6,12.4,14.7c2,2.7,3.9,5.5,5.8,8.4l5.7,8.8c7.4,11.1,14.1,22.6,20.2,34.4"/>
	<path class="st2" d="M393.5,358.4c0.1-0.6,0.1-1.1,0.1-1.7c0-1.1,0-2.7-0.1-4.6c-0.1-3.9-0.5-9.3-0.9-15.2
		c-0.4-5.9-0.7-11.3-0.8-15.2c0-2,0-3.5,0-4.6c0-0.6,0-1.1-0.1-1.7c-0.1,0.6-0.2,1.1-0.2,1.7c-0.1,1.1-0.1,2.7-0.2,4.6
		c0,3.9,0.2,9.3,0.6,15.3c0.4,5.9,0.8,11.2,1.1,15.2c0.1,1.8,0.2,3.3,0.3,4.6C393.3,357.3,393.4,357.8,393.5,358.4z"/>
	<path class="st2" d="M342.7,358c0.7,0,1.3,0,2-0.1c1.3-0.1,3.1-0.3,5.4-0.4c4.6-0.3,11-0.5,18-0.5c7,0.1,13.4,0.4,18,0.8
		c2.3,0.2,4.2,0.4,5.4,0.5c0.7,0.1,1.3,0.1,2,0.1c-0.6-0.2-1.3-0.3-2-0.4c-1.3-0.2-3.1-0.5-5.4-0.7c-4.6-0.5-11-0.9-18-1
		c-6-0.1-12,0.1-18,0.7c-2.3,0.2-4.2,0.5-5.4,0.7C344,357.6,343.3,357.8,342.7,358z"/>
	<path class="st2" d="M424.7,409.3c0.1-0.2,0.2-0.4,0.2-0.7c0.1-0.5,0.3-1.1,0.5-1.9c0.4-1.7,1-4.1,1.7-7.2c1.4-6.1,3-14.5,4.7-23.8
		c1.7-9.3,3.2-17.8,4.5-23.8c0.6-3,1.1-5.4,1.5-7.2c0.2-0.8,0.3-1.4,0.4-2c0.1-0.2,0.1-0.5,0.1-0.7c-0.1,0.2-0.2,0.4-0.2,0.7
		l-0.5,1.9c-0.4,1.7-1,4.1-1.7,7.2c-1.4,6.1-3,14.5-4.7,23.8c-1.7,9.3-3.2,17.8-4.5,23.8c-0.6,3-1.1,5.4-1.5,7.2
		c-0.2,0.8-0.3,1.4-0.4,2C424.7,408.8,424.7,409,424.7,409.3z"/>
	<path class="st2" d="M355.6,399.8c0.2,0.1,0.5,0.1,0.7,0.1l2,0.3l7.4,1c6.3,0.9,14.9,2.2,24.4,3.6c9.5,1.4,18.2,2.7,24.4,3.3
		c3.1,0.4,5.7,0.6,7.4,0.8l2,0.2c0.2,0,0.5,0,0.7,0c-0.2-0.1-0.5-0.1-0.7-0.2l-2-0.3l-7.4-1c-6.3-0.9-14.9-2.2-24.4-3.6
		c-9.5-1.4-18.2-2.7-24.4-3.3c-3.1-0.4-5.7-0.6-7.4-0.8l-2-0.2C356,399.8,355.8,399.8,355.6,399.8z"/>
	<path class="st2" d="M207.4,85c0.6,0.4,1.2,0.9,1.7,1.4c1,0.9,2.2,2.2,3.7,3.7c1.5,1.5,2.7,2.8,3.6,3.8c0.5,0.5,1,1.1,1.4,1.7
		c-0.6-0.4-1.2-0.9-1.7-1.4c-1-0.9-2.2-2.2-3.7-3.7c-1.5-1.5-2.7-2.8-3.6-3.8C208.3,86.1,207.8,85.6,207.4,85z"/>
</g>
<g id="freepik--Floor--inject-47_00000054262088171706340140000008924918800303729846_">
	<path class="st5" d="M622.4,480.7c0,0.2-112.7,0.3-251.7,0.3s-251.7-0.1-251.7-0.3c0-0.2,112.7-0.3,251.7-0.3
		S622.4,480.6,622.4,480.7z"/>
</g>
<g id="freepik--Plant--inject-47_00000022556798344793891810000001939316780748560061_">
	<path class="st6" d="M255.8,381.9c5.3-2.7,11.4-3.1,17.3-2.1c3.1,0.5,6.4,1.5,8.5,3.8c2.1,2.4,2.5,6.5,0.1,8.5
		c-1.6,1.1-3.5,1.6-5.4,1.4c-4.6,0-9.6-0.9-13.3,1.9c-2.1,1.6-3.5,4.2-6,4.9c-2.6,0.6-5.2-0.6-6.5-2.9c-1.2-2.3-1.5-4.9-0.7-7.4
		C250.5,386.6,252.7,383.6,255.8,381.9z"/>
	<path class="st6" d="M243.8,358.7c3.2,4.6,9.5,3.1,12.4,0.3c2.9-2.8,4.1-6.9,5.2-10.7c2.5-8.9,5.1-18.1,3.2-27.1
		c-0.5-2.7-1.7-5.3-3.5-7.4c-1.9-2.1-4.7-3-7.5-2.5c-3.1,0.8-5.1,3.9-6.5,6.9c-4.2,8.7-6.3,18.2-6.4,27.8
		C240.7,350.3,241.3,355,243.8,358.7"/>
	<path class="st6" d="M235,365.3c3.5-4.1,4.2-10.2,2.6-15.4c-1.6-5.2-5.1-9.6-9.1-13.2c-4.8-4.2-10.3-7.5-16.3-9.6
		c-2.3-0.9-4.8-1.3-7.3-1.2c-2.5,0.1-4.8,1.5-6.2,3.7c-1.7,3.3-0.1,7.2,1.7,10.5c3.1,5.7,6.7,11.2,10.7,16.3
		c3.2,4.1,6.9,8.2,11.8,10s10,1.7,12.6-1.7"/>
	<path class="st5" d="M243.6,428c0.2-0.7,0.3-1.4,0.3-2.1c0.1-1.5,0.3-3.4,0.6-5.7c0.3-2.8,0.7-5.6,1.2-8.4c0.8-3.4,1.8-6.7,3-9.9
		c1.2-3.2,2.9-6.2,5-8.9c1.7-2.2,3.9-4,6.4-5.3c1.7-0.8,3.5-1.4,5.4-1.7c0.7,0,1.4-0.1,2.1-0.3c-0.7-0.1-1.4-0.1-2.1,0
		c-1.9,0.2-3.8,0.6-5.6,1.5c-2.6,1.2-4.9,3.1-6.7,5.3c-2.2,2.8-3.9,5.8-5.2,9.1c-1.3,3.3-2.3,6.6-3,10c-0.5,2.8-0.9,5.6-1.1,8.4
		c-0.2,2.4-0.2,4.4-0.3,5.7C243.4,426.6,243.5,427.3,243.6,428z"/>
	<path class="st5" d="M244,423.6c0-0.3,0-0.6,0-1c0-0.7,0-1.6,0-2.8c0-2.4,0-5.9,0.1-10.2c0.2-8.6,0.9-17.9,2.4-30.9
		c1.4-12.3,3.2-26.5,5.1-35.8c0.4-2.1,0.8-4,1.2-5.7c0.4-1.7,0.7-3.1,1-4.3c0.3-1.2,0.5-2,0.6-2.7c0.1-0.3,0.1-0.6,0.2-0.9
		c-0.1,0.3-0.3,0.6-0.3,0.9c-0.2,0.7-0.5,1.6-0.8,2.7s-0.7,2.6-1.1,4.2c-0.4,1.7-0.9,3.5-1.3,5.6c-2.4,11-4.2,22-5.3,33.2
		c-1.4,13-2.1,24.9-2.1,33.6c0,4.3,0,7.8,0.1,10.2c0.1,1.1,0.1,2,0.2,2.8C243.8,422.9,243.9,423.3,244,423.6z"/>
	<path class="st5" d="M244,400.6c0.1-1,0.1-1.9,0-2.9c-0.2-2.6-0.5-5.2-0.9-7.8c-0.6-3.9-1.5-7.7-2.5-11.4
		c-1.2-4.6-2.8-9.1-4.8-13.5c-3.3-8.1-8.1-15.5-14-21.8c-1.1-1.1-2.2-2.1-3.3-3.1c-0.5-0.4-1-0.8-1.4-1.2l-1.3-0.9
		c-0.8-0.6-1.6-1.1-2.4-1.6c-0.1,0.2,3.4,2.3,8,7.1c5.8,6.4,10.4,13.8,13.7,21.7c1.9,4.4,3.5,8.8,4.8,13.4c1.1,3.7,2,7.5,2.7,11.3
		c0.6,3.3,0.9,5.9,1.1,7.8C243.7,398.8,243.8,399.7,244,400.6z"/>
	<polygon class="st5" points="221.9,441.1 224.2,472.6 264.6,472.6 266.9,441.1 	"/>
	<rect x="217.9" y="428.7" class="st5" width="53.8" height="12.4"/>
	<polygon class="st7" points="217.9,471.4 217.9,474.8 220.5,474.8 270.8,474.8 270.8,471.4 	"/>
	<polygon class="st7" points="222.9,480.9 220.5,474.8 268.9,474.8 266,480.9 	"/>
	<path class="st2" d="M266.1,451.4c-0.1,0.1-0.1,0.2-0.2,0.3l-0.6,0.8l-2.4,3l-0.1,0.1l-0.1-0.1c-1.5-2-3.4-4.8-5.8-8h0.3
		c-1.7,2.4-3.6,5.2-5.7,8.1l-0.2,0.2l-0.2-0.2l-6.7-8h0.4l-0.4,0.5l-6,7.6l-0.2,0.2l-0.2-0.3l-5.7-8h0.3l-7,8l-0.1,0.1l-0.1-0.2
		l-2.2-3.7c-0.2-0.4-0.4-0.7-0.6-1c-0.1-0.1-0.1-0.2-0.2-0.4c0.1,0.1,0.2,0.2,0.2,0.3l0.6,0.9l2.3,3.6h-0.2l6.9-8.1l0.2-0.2l0.2,0.2
		l5.7,8H238l6-7.6l0.4-0.5l0.2-0.2l0.2,0.2l6.7,8h-0.4l5.8-8l0.2-0.2l0.2,0.2l5.7,8.1h-0.2l2.4-2.9l0.7-0.8
		C266,451.5,266.1,451.4,266.1,451.4z"/>
	<path class="st7" d="M267.4,440.9c0,0.1-10.1,0.2-22.6,0.2c-12.5,0-22.6-0.1-22.6-0.2s10.1-0.3,22.6-0.3
		C257.3,440.6,267.4,440.7,267.4,440.9z"/>
	<path class="st5" d="M269.5,475.2c0,0.1-11,0.2-24.6,0.2c-13.5,0-24.6-0.1-24.6-0.2s11-0.3,24.6-0.3
		C258.5,474.9,269.5,475,269.5,475.2z"/>
</g>
<g id="freepik--character-2--inject-47">
	<path class="st8" d="M567.9,235.3c-0.9-3.8,3.6-16.9,0.7-17.2c-3.7-0.4-4.3,14.5-4.5,15.8c-0.2,1.3-2.1,1.1-1.9,0
		c0.3-1.7,2.7-18.5-1-18.6c-2.1,0-2.1,3.7-2.1,3.7s-1.4,16.6-3.1,16.5c-1.8-0.1-0.5-9.5-0.3-13c0.2-3.5-1.5-5.3-2.8-3.9
		c-1.8,2.1-1.8,10.7-2,14c-0.2,3.4-1.1,13-4.6,8.2c-3.5-4.8-7.9-7.3-9.6-7.1c-1.6,0.2-1.9,2.5-0.4,3.5c1.6,1.2,3.1,2.6,4.3,4.1
		c1,1.3,1.8,2.7,2.5,4.1c0.9,1.8,1.5,3.8,1.8,5.9c0.5,3.3,2.3,6.2,5.1,8l-0.2,26.6l-0.8,13.1l20.7,7.2l-2.7-46.9
		c1-9,5-20.4,6.4-25.7c2.3-8.4,1.2-8.8,0.2-8.8C571.4,224.8,568.7,239,567.9,235.3z"/>
	<path class="st9" d="M565.2,246.7c-0.9,0.1-1.7,0.2-2.5,0.4c-2,0.6-3.8,1.8-5.1,3.4c-0.4,0.5-0.7,1.1-1,1.6l-0.1,0.3l-0.2-0.2
		c-1.1-1.2-2.5-2.1-3.9-2.9c-1.1-0.5-1.8-0.8-1.8-0.8c0.7,0.1,1.3,0.3,1.9,0.6c1.5,0.7,2.9,1.6,4.1,2.8l-0.3,0.1
		c0.3-0.6,0.6-1.2,1-1.7c0.7-1,1.6-1.8,2.7-2.4c0.8-0.5,1.7-0.9,2.7-1.1c0.6-0.1,1.3-0.2,1.9-0.2C564.8,246.6,565,246.7,565.2,246.7
		z"/>
	<path class="st9" d="M564.2,259.2c-2.9,1-6,1.1-8.9,0.3c0-0.1,2,0.2,4.5,0.1C562.2,259.5,564.2,259.1,564.2,259.2z"/>
	<path class="st5" d="M439.2,189.9c0.6-7,5.8-12.7,12.7-14c1.8-0.1,3.5-0.4,5.2-1c1.3-0.7,2.5-1.5,3.6-2.4c4.2-2.5,9.5-1.8,12.8,1.7
		c3,3.3,3.7-1.6,10.4,1.7c5.6,2.8,3.1,7.4,3.1,7.4c5.7-0.5,10.9,3.1,12.5,8.6c0.9,3.3,0.5,7.6,3.3,9.6c1.4,1,3.2,1.1,4.6,2.1
		c2.6,1.7,3,5.4,2.6,8.6c-0.3,3.1-1.1,6.5,0.3,9.3c2.2,4.7,9.2,6.1,10.4,11.1c0.6,2.4-0.2,5.3,1.6,7c0.8,0.6,1.7,1,2.6,1.3
		c5.6,2.3,8.2,8.6,6,14.2c-0.8,2.1-2.3,3.8-4.2,5.1c-0.9,0.6-2,1.1-2.3,2.2s0.5,2.3,1.1,3.3c2.9,5,1.3,11.4-3.7,14.3
		c-3.1,1.8-7,1.9-10.2,0.3c-1.8,3.8-5.1,6.8-9,8.3c-1.8,0.7-3.8,0.9-5.7,0.6c-1.5-0.4-2.9-1.2-4.1-2.1c-5.9-4.5-14.2-11.3-15.2-18.6
		"/>
	<path class="st8" d="M439.1,201.3l-0.3-5.2l31.2-6.9c9.7-1.3,20.4,8,21.3,17.7c1,10.8,1.8,24,0.8,32.1
		c-2.1,16.3-14.4,18.7-14.4,18.7l0.4,16.1l-35.8,1.6L439.1,201.3z"/>
	<path class="st5" d="M485.5,218.6c0,1.1-0.8,2.1-1.9,2.2c-1.1,0.1-2.1-0.6-2.2-1.7c0,0,0,0,0-0.1c0-1.1,0.8-2.1,1.9-2.2
		C484.3,216.7,485.3,217.4,485.5,218.6C485.5,218.5,485.5,218.6,485.5,218.6z"/>
	<path class="st5" d="M488.1,213.8c-0.3,0.3-1.9-0.8-4.1-0.8c-2.2,0.1-3.8,1.2-4.1,1s0.1-0.6,0.8-1.1c0.9-0.7,2.1-1.1,3.3-1.1
		c1.2,0,2.3,0.3,3.3,0.9C488,213.2,488.3,213.7,488.1,213.8z"/>
	<path class="st5" d="M464.6,219.6c0,1.1-0.8,2.1-1.9,2.2c-1.1,0.1-2.1-0.6-2.2-1.7c0,0,0-0.1,0-0.1c0-1.1,0.8-2.1,1.9-2.2
		C463.5,217.7,464.5,218.5,464.6,219.6C464.6,219.6,464.6,219.6,464.6,219.6z"/>
	<path class="st5" d="M466.2,214.9c-0.2,0.3-1.9-0.8-4.1-0.8s-3.8,1.3-4.1,1c-0.2-0.3,0.1-0.6,0.8-1.1c0.9-0.7,2.1-1.1,3.3-1.1
		c1.2,0,2.3,0.3,3.3,0.9C466.1,214.3,466.3,214.8,466.2,214.9z"/>
	<path class="st5" d="M474.8,231.2c1.2-0.4,2.4-0.7,3.6-0.8c0.6-0.1,1.1-0.2,1.2-0.6c0-0.6-0.1-1.2-0.4-1.7
		c-0.6-1.4-1.2-2.8-1.8-4.3c-2.5-6.1-4.4-11.2-4.1-11.2c0.2-0.1,2.5,4.8,5,10.9c0.6,1.5,1.2,2.9,1.7,4.3c0.4,0.7,0.5,1.5,0.4,2.2
		c-0.2,0.4-0.5,0.7-0.9,0.9c-0.3,0.1-0.6,0.2-1,0.2C477.3,231.3,476,231.4,474.8,231.2z"/>
	<path class="st9" d="M477.7,257.7c-7.8,0.4-15.6-1.4-22.4-5.1c0,0,5.8,11.2,22.5,9.2L477.7,257.7z"/>
	<path class="st9" d="M474,236.7c-0.9-1.1-2.3-1.6-3.7-1.4c-1,0.1-1.9,0.6-2.5,1.4c-0.6,0.8-0.6,1.8-0.1,2.7c0.8,0.8,1.9,1.1,3,0.6
		c1-0.4,2-1,2.8-1.8c0.2-0.2,0.5-0.4,0.6-0.7c0.2-0.3,0.2-0.6,0-0.8"/>
	<path class="st5" d="M468.3,233c0.4,0,0.4,2.4,2.6,4.1c2.1,1.7,4.7,1.3,4.7,1.7c0,0.2-0.6,0.5-1.7,0.6c-1.4,0.1-2.8-0.4-3.9-1.2
		c-1.1-0.8-1.8-2.1-2-3.4C467.9,233.6,468.1,233,468.3,233z"/>
	<path class="st5" d="M466.5,206.1c-0.2,0.6-2.4,0.4-5,0.8c-2.6,0.4-4.7,1.2-5.1,0.6c-0.2-0.3,0.2-0.8,1-1.5c2.3-1.5,5.1-2,7.7-1.1
		C466.1,205.4,466.6,205.9,466.5,206.1z"/>
	<path class="st5" d="M487.1,207.4c-0.4,0.5-1.9,0-3.8,0.1s-3.4,0.4-3.8-0.1c-0.2-0.2,0.1-0.8,0.7-1.3c1.8-1.2,4.3-1.2,6.1,0
		C487,206.6,487.3,207.1,487.1,207.4z"/>
	<path class="st5" d="M494.1,187c-2.2,5.8-7.4,14.7-13.6,15.7c-6.3,1-12.6-1.3-16.7-6.2c-0.7,4.7-5.7,7.3-10.3,8.3
		c-3.2,0.8-6.7,0.8-9.9-0.2c-3.2-1-5.7-3.6-6.6-6.9c-0.7-3.3,3.6-11.6,6.9-12.3"/>
	<path class="st5" d="M449.6,273.1c0,5.4-3.4,10.2-8.5,12c0.5,5-3.1,9.4-8,10c-3.9,0.4-7.6-1.7-9.2-5.2c-0.4-1.1-0.9-2.1-1.5-3
		c-1.7-1.9-4.8-1.3-7.3-1.9c-4.5-1.1-6.8-6.3-6.6-10.9c0.1-0.9,0.1-1.8-0.1-2.7c-0.4-1.8-1.9-3.1-3.1-4.6
		c-4.8-5.9-3.7-15.1,0.8-21.3c1.5-2.1,3.3-4.3,3.1-6.8c-0.4-1.4-0.9-2.7-1.7-3.9c-1.9-4.3-1.1-9.4,2.2-12.8c1.1-0.6,1.5-1.9,1.1-3
		c-1.1-7,3.5-13.6,10.4-15.2c0.4,0,0.8-0.2,1.2-0.4c1-0.6,0.9-2,1-3.2c0.1-3.1,2.1-9,4.3-11.2c6.1-6,12.8-2,15.2,0
		c0,0,6,21.8,5.5,26c-0.6,4.2-2.9,14.7-1.3,19.2c1.5,4.6,4.2,14,2.6,18.3C448.1,256.9,449.6,273.1,449.6,273.1z"/>
	<path class="st6" d="M488.9,454.7c0,0,47.3,13.1,49.1,13.8c2.8,1,2.4,11.4-2.1,11.3c-2.1-0.1-36.3,1.3-40.6,1
		c-4.3-0.3-17.4-5.4-17.4-5.4L488.9,454.7z"/>
	<path class="st5" d="M508.6,472.7c0.2,0,0.6-2.5,2.1-5.1c1.5-2.6,3.5-4.2,3.3-4.4c-0.1-0.2-2.4,1.1-4,4S508.4,472.7,508.6,472.7z"
		/>
	<path class="st5" d="M503.6,470.5c0.2,0,0.7-2.2,2-4.7c1.3-2.4,2.7-4.2,2.6-4.4c-0.2-0.2-2,1.4-3.3,4
		C503.6,468.1,503.5,470.5,503.6,470.5z"/>
	<path class="st5" d="M499,469.2c0.2,0,0.1-2.4,1.1-5c1.1-2.6,2.7-4.2,2.6-4.5c-0.2-0.2-2.2,1.3-3.3,4.1
		C498.2,466.7,498.8,469.3,499,469.2z"/>
	<path class="st5" d="M499.9,463.2c0.4-1.1,0.6-2.3,0.5-3.5c0-1.3-0.2-2.6-0.5-3.9c-0.2-0.8-0.4-1.5-0.7-2.2
		c-0.1-0.4-0.4-0.8-0.8-1.1c-0.5-0.4-1.2-0.3-1.6,0.1c-0.4,0.4-0.6,0.8-0.6,1.3c0,0.4-0.1,0.8-0.1,1.3c0,0.8,0.1,1.6,0.3,2.3
		c0.3,1.3,0.8,2.5,1.5,3.6c0.5,1.1,1.2,2,2.1,2.8c0.1-0.1-0.7-1.2-1.6-3.1c-0.6-1.1-1-2.3-1.2-3.5c-0.2-0.7-0.2-1.4-0.2-2.2
		c0-0.7,0-1.6,0.4-2c0.2-0.2,0.4-0.2,0.6-0.1c0.2,0.2,0.4,0.5,0.5,0.8c0.3,0.7,0.5,1.4,0.7,2.1c0.3,1.2,0.5,2.4,0.6,3.7
		C499.9,461.8,499.7,463.2,499.9,463.2z"/>
	<path class="st5" d="M499.8,462.6c-1-0.4-2-0.6-3-0.5c-1.1,0-2.3,0.1-3.3,0.4c-0.7,0.1-1.3,0.4-1.9,0.7c-0.8,0.4-1.3,1.3-1.1,2.2
		c0.2,0.8,0.9,1.5,1.7,1.7c0.7,0.2,1.4,0.2,2.1,0c1.1-0.3,2.2-0.8,3.1-1.5c0.9-0.6,1.6-1.3,2.2-2.2c-0.9,0.5-1.7,1.1-2.5,1.7
		c-0.9,0.6-1.9,1-2.9,1.3c-0.6,0.1-1.2,0.1-1.8,0c-0.5-0.2-1-0.6-1.1-1.1c-0.1-0.5,0.2-1.1,0.7-1.3c0.5-0.3,1.1-0.5,1.7-0.7
		c1-0.3,2.1-0.5,3.2-0.6C498.6,462.6,499.8,462.8,499.8,462.6z"/>
	<path class="st5" d="M515.8,473.2c0.2,0,0-2.1,0.9-4.3c0.9-2.2,2.5-3.5,2.3-3.7c-0.2-0.2-2.1,0.9-3,3.4
		C515,471.1,515.6,473.3,515.8,473.2z"/>
	<path class="st5" d="M482.9,475.4c0.6,0.4,1.2,0.6,1.8,0.9c1.7,0.7,3.5,1.2,5.3,1.6c5.9,1.3,12,1.8,18,1.7
		c7.1-0.1,13.5-0.4,18.1-0.6l5.5-0.3c0.7,0,1.3-0.1,2-0.2c-0.7-0.1-1.3-0.1-2-0.1H526l-18.1,0.4c-6,0.1-12-0.4-17.9-1.5
		C485.5,476.4,482.9,475.2,482.9,475.4z"/>
	<path class="st5" d="M481.5,476.5c0.1,0.1,1.4-0.6,3.5-1.6c2.8-1.3,5.9-1.8,8.9-1.5c3.6,0.5,6.1,2.9,7.7,4.6c0.8,1,1.7,1.9,2.7,2.8
		c-0.6-1.1-1.4-2.2-2.3-3.2c-0.9-1.1-2-2.1-3.1-2.9c-1.4-1.1-3.1-1.8-4.9-2.1c-3.2-0.4-6.5,0.2-9.3,1.8
		C483.6,474.9,482.4,475.6,481.5,476.5z"/>
	<g class="st10">
		<path d="M488.9,454.7c0,0,47.3,13.1,49.1,13.8c2.8,1,2.4,11.4-2.1,11.3c-2.1-0.1-36.3,1.3-40.6,1c-4.3-0.3-17.4-5.4-17.4-5.4
			L488.9,454.7z"/>
	</g>
	<path class="st5" d="M436.4,400.4l-10.2,21c0,0-54.5-16.6-68.3-15.8c-13.7,0.8-25,6.3-27.7,17.4c-2.7,11.2-3,26.6,13,37.3
		c16,10.7,95.7,16.6,95.7,16.6h31.5l51.5-68l-8.3-6.7L436.4,400.4z"/>
	<path class="st7" d="M453.5,446.4c-0.3,0-0.7,0-1,0c-0.7,0-1.7,0-3-0.2c-3.6-0.4-7.2-1.2-10.7-2.2c-5.2-1.6-10.2-3.5-15.1-5.9
		c-5.5-2.6-11.4-5.8-17.6-9.1c-5.8-3.2-11.8-6-17.9-8.5c-5-2.1-10.1-3.6-15.4-4.6c-3.6-0.7-7.2-1-10.8-0.9c-1.3,0-2.2,0.1-3,0.1
		c-0.3,0-0.7,0-1,0c0.3-0.1,0.7-0.1,1-0.1c0.7-0.1,1.7-0.2,3-0.2c3.6-0.2,7.3,0.1,10.9,0.7c5.3,0.9,10.5,2.4,15.5,4.5
		c6.1,2.5,12.1,5.3,17.9,8.5c6.2,3.3,12,6.5,17.5,9.2c4.8,2.4,9.8,4.4,14.9,6c3.5,1.1,7,1.9,10.6,2.4c1.3,0.2,2.2,0.3,2.9,0.4
		C452.8,446.2,453.2,446.3,453.5,446.4z"/>
	<path class="st5" d="M490.8,471.3c10.1-4,65.9-21.7,85.6-44.5c4.7-5.1,6.7-12.1,5.4-18.9c-2.7-15.2-16.7-25.3-31.3-19.6
		c-2.1,0.8-6.8,2.7-8.8,3.7c-5.4,2.9-93.1,58.5-93.1,58.5s15.3,29.8,14.9,30.9L490.8,471.3z"/>
	<path class="st7" d="M518.3,405.2c-0.1,0.1-0.1,0.1-0.2,0.2l-0.7,0.5l-2.9,1.9l-10.6,6.7l-35,22l-19,11.9l0.1-0.4
		c4.1,9.8,7.5,18.1,10,24c1.2,2.9,2.1,5.2,2.8,6.9c0.3,0.8,0.5,1.4,0.7,1.8c0.1,0.2,0.2,0.4,0.2,0.6c-0.1-0.2-0.2-0.4-0.3-0.6
		c-0.2-0.5-0.5-1.1-0.8-1.8l-3-6.8c-2.5-5.9-6.1-14.2-10.2-23.9l-0.1-0.2l0.2-0.1l19-11.9l35.1-21.8l10.7-6.6l2.9-1.8l0.8-0.4
		C518.2,405.2,518.2,405.2,518.3,405.2z"/>
	<path class="st7" d="M441.3,431.5c-0.9-0.2-1.8-0.5-2.6-1c-2-1-3.9-2.1-5.7-3.4c-1.8-1.3-3.5-2.8-5-4.5c-0.7-0.6-1.3-1.4-1.7-2.2
		c0.2-0.1,2.9,3,7.1,6C437.5,429.5,441.4,431.3,441.3,431.5z"/>
	<path class="st7" d="M471.6,406.8c0.1,1.2,0.2,2.3,0.1,3.5c0,2.2,0.1,5.1,0.4,8.4c0.3,3.3,0.7,6.2,1.1,8.3c0.3,1.1,0.4,2.3,0.5,3.5
		c-0.5-1.1-0.8-2.2-1-3.3c-1.2-5.5-1.7-11.1-1.5-16.7C471.2,409.1,471.4,407.9,471.6,406.8z"/>
	<path class="st7" d="M478.1,406c0,0,0.3-0.1,0.7,0.1c0.6,0.2,1.1,0.7,1.4,1.2c0.6,0.8,0.7,1.9,0.4,2.8c-0.4,1.2-1.6,2-2.9,2
		c-1.3,0.1-2.5-0.6-3-1.7c-0.3-0.9-0.2-2,0.4-2.8c0.4-0.5,0.9-0.9,1.5-1.1c0.2-0.1,0.5-0.1,0.7,0c-0.7,0.2-1.4,0.7-1.8,1.4
		c-0.4,0.7-0.5,1.6-0.2,2.3c0.4,0.9,1.4,1.4,2.4,1.3c1,0,1.9-0.6,2.2-1.5c0.3-0.8,0.2-1.6-0.2-2.3
		C479.4,406.9,478.8,406.4,478.1,406z"/>
	<path class="st7" d="M451.2,403.8c0.2,0.3,0.4,0.7,0.5,1c0.3,1,0.5,2,0.5,3.1c0,1.5-0.4,3.1-1,4.5c-1.6,3.6-5.1,6-9.1,6.1
		c-1.6,0.1-3.1-0.2-4.6-0.8c-1-0.4-1.9-0.9-2.7-1.6c-0.3-0.2-0.6-0.5-0.8-0.8c1.1,0.8,2.3,1.5,3.6,2.1c1.4,0.5,2.9,0.7,4.4,0.6
		c3.7-0.2,7-2.4,8.5-5.7c0.7-1.3,1-2.8,1.1-4.3C451.7,406.6,451.5,405.2,451.2,403.8z"/>
	<path class="st7" d="M503.2,414.2c-0.7,0.1-1.4,0-2.1-0.3c-3.4-1.2-5.5-4.5-5.2-8c0-0.7,0.2-1.4,0.6-2c0.1,0-0.1,0.8-0.1,2
		c0,3.3,1.9,6.2,4.9,7.5C502.4,414,503.2,414.1,503.2,414.2z"/>
	<path class="st7" d="M530.4,455.9c0,0,0.1-0.1,0.3-0.2l1-0.5l3.9-1.9c3.3-1.6,8.2-4,14.1-7.1c6.9-3.6,13.4-7.9,19.4-12.9
		c3.5-3,6.6-6.4,9.3-10.1c2.6-4.2,3.8-9.1,3.3-14c-0.2-2.5-0.8-4.9-1.8-7.2c-0.5-1.1-1.1-2.2-1.8-3.1c-0.7-1-1.5-1.9-2.3-2.8
		c-1.6-1.7-3.4-3.2-5.2-4.7c-1.6-1.5-3.6-2.6-5.7-3.3c-2.1-0.6-4.2-0.8-6.3-0.7c-2,0-4,0.3-6,0.7c-3.5,0.8-6.9,2.1-10.1,3.8
		l-13.8,7.6l-3.8,2.1l-1,0.5l-0.3,0.2c0.1-0.1,0.2-0.1,0.3-0.2l1-0.6l3.7-2.1c3.2-1.8,7.9-4.5,13.7-7.8c3.2-1.8,6.6-3.1,10.2-3.9
		c2-0.4,4-0.6,6.1-0.7c2.2-0.1,4.3,0.1,6.4,0.7c2.2,0.7,4.2,1.9,5.8,3.5c1.8,1.5,3.6,3.1,5.3,4.7c0.8,0.9,1.6,1.8,2.3,2.8
		c0.7,1,1.3,2.1,1.8,3.2c3.1,7,2.5,15.1-1.6,21.6c-2.7,3.8-5.8,7.2-9.4,10.2c-6,5-12.6,9.3-19.5,12.9c-5.9,3.1-10.8,5.4-14.1,7
		l-3.9,1.8l-1,0.4L530.4,455.9z"/>
	<path class="st6" d="M452.4,455c0,0-47.4,12.5-49.3,13.1c-2.9,1-2.5,11.4,1.9,11.3c2.1,0,36.3,1.7,40.6,1.5c4.3-0.2,16-4.7,16-4.7
		L452.4,455z"/>
	<path class="st5" d="M432.5,472.8c-0.2,0-0.5-2.5-2-5.1c-1.5-2.6-3.4-4.2-3.3-4.4c0.2-0.2,2.4,1.1,4,4
		C432.7,470.2,432.7,472.8,432.5,472.8z"/>
	<path class="st5" d="M437.4,470.6c-0.2,0-0.7-2.2-1.9-4.7c-1.2-2.5-2.7-4.2-2.5-4.4c0.2-0.2,2,1.4,3.2,4
		C437.5,468.2,437.6,470.6,437.4,470.6z"/>
	<path class="st5" d="M442.1,469.4c-0.2,0,0-2.4-1-5c-1-2.6-2.7-4.3-2.5-4.5c0.2-0.2,2.2,1.3,3.3,4.2
		C442.8,467,442.3,469.5,442.1,469.4z"/>
	<path class="st5" d="M441.3,463.3c-0.4-1.1-0.6-2.3-0.5-3.5c0-1.3,0.2-2.6,0.5-3.9c0.2-0.7,0.4-1.5,0.7-2.2
		c0.2-0.4,0.4-0.8,0.8-1.1c0.5-0.4,1.2-0.3,1.6,0.1c0.4,0.4,0.6,0.8,0.6,1.3c0,0.4,0.1,0.8,0.1,1.3c0,0.8-0.1,1.6-0.3,2.3
		c-0.3,1.3-0.8,2.5-1.5,3.6c-0.5,1.1-1.3,2-2.2,2.8c-0.1-0.1,0.7-1.2,1.7-3.1c0.6-1.1,1-2.3,1.3-3.5c0.2-0.7,0.2-1.4,0.3-2.2
		c0-0.7,0-1.6-0.4-2c-0.2-0.2-0.4-0.2-0.6-0.1c-0.2,0.2-0.4,0.5-0.5,0.8c-0.3,0.7-0.5,1.4-0.7,2.1c-0.3,1.2-0.6,2.4-0.7,3.7
		C441.2,461.9,441.4,463.3,441.3,463.3z"/>
	<path class="st5" d="M441.4,462.8c1-0.4,2-0.6,3.1-0.5c1.1,0,2.3,0.2,3.3,0.5c0.7,0.1,1.3,0.4,1.9,0.7c0.8,0.4,1.2,1.3,1,2.2
		c-0.2,0.8-0.9,1.5-1.7,1.7c-0.7,0.2-1.4,0.2-2.1,0c-1.1-0.3-2.2-0.8-3.1-1.5c-0.9-0.6-1.6-1.4-2.2-2.2c0.9,0.5,1.7,1.1,2.5,1.7
		c0.9,0.6,1.9,1,2.9,1.3c0.6,0.1,1.2,0.1,1.8,0c0.5-0.1,1-0.6,1.1-1.1c0.1-0.5-0.2-1.1-0.7-1.3c-0.5-0.3-1.1-0.5-1.7-0.7
		c-1-0.3-2.1-0.5-3.2-0.6C442.5,462.7,441.4,462.9,441.4,462.8z"/>
	<path class="st5" d="M425.2,473.2c-0.2,0,0-2-0.9-4.3c-0.9-2.2-2.4-3.5-2.2-3.7c0.2-0.2,2,1,3,3.4
		C426.1,471.1,425.3,473.3,425.2,473.2z"/>
	<path class="st5" d="M458.2,475.8c-0.6,0.3-1.2,0.6-1.8,0.8c-1.7,0.6-3.5,1.2-5.3,1.6c-5.9,1.2-12,1.7-18.1,1.5
		c-7.1-0.2-13.5-0.6-18.1-0.8l-5.5-0.4c-0.7,0-1.3-0.1-2-0.2c0.7-0.1,1.3-0.1,2-0.1l5.5,0.1l18.1,0.6c6,0.2,12-0.2,17.9-1.2
		C455.5,476.7,458.1,475.6,458.2,475.8z"/>
	<path class="st5" d="M459.5,476.8c-0.1,0.1-1.4-0.7-3.5-1.6c-2.8-1.4-5.9-1.9-8.9-1.6c-3.6,0.5-6.1,2.9-7.8,4.5
		c-0.9,1-1.8,1.9-2.8,2.7c0.6-1.1,1.4-2.2,2.4-3.1c0.9-1.1,2-2,3.2-2.9c1.5-1,3.1-1.7,4.9-2c3.2-0.3,6.5,0.3,9.3,1.9
		C457.4,475.2,458.6,475.9,459.5,476.8z"/>
	<path class="st5" d="M412.1,478.3c-0.1-0.1,0.3-0.7,0.7-1.8c1.1-2.9,0.5-6.1-1.5-8.5c-0.7-0.9-1.3-1.4-1.3-1.4
		c0.1-0.1,0.7,0.3,1.6,1.1c2.3,2.4,2.9,5.9,1.5,8.9C412.7,477.8,412.2,478.4,412.1,478.3z"/>
	<path class="st6" d="M450.2,270.8l-24.4,6.8l7.9,75.8c0,0-4.6,27.1-4.6,34.2c-0.1,5.2,2.6,10.1,7.2,12.7l77.9,2.3l4-3.4
		c2.1-2.4,3-5.6,2.6-8.7l-14.5-115.7l-27.1-5.9L450.2,270.8z"/>
	<path class="st5" d="M433.8,353.4c-0.1-0.2-0.1-0.4-0.1-0.6l-0.3-1.7c-0.3-1.5-0.7-3.6-1.1-6.1c-0.9-5.2-2.2-12.3-3.5-20.2
		c-1.4-7.9-2.5-15-3.4-20.2c-0.4-2.6-0.7-4.6-1-6.2c-0.1-0.7-0.2-1.3-0.2-1.7c0-0.2,0-0.4,0-0.6c0.1,0.2,0.1,0.4,0.1,0.6
		c0.1,0.4,0.2,1,0.3,1.7c0.3,1.5,0.7,3.6,1.1,6.1c0.9,5.2,2.2,12.3,3.5,20.2l3.4,20.2c0.4,2.6,0.7,4.6,1,6.2
		c0.1,0.7,0.2,1.2,0.2,1.7C433.9,353,433.9,353.2,433.8,353.4z"/>
	<path class="st5" d="M482.7,270.4c-0.3,0.3-0.7,0.6-1.1,0.9c-0.4,0.3-0.9,0.5-1.4,0.9c-0.5,0.3-1.2,0.7-2,1
		c-1.8,0.8-3.7,1.4-5.6,1.7c-2.3,0.4-4.7,0.7-7,0.7c-2.4,0.1-4.7,0-7.1-0.2c-1.9-0.1-3.8-0.4-5.7-0.8c-1.3-0.3-2.5-0.7-3.7-1.2
		c-0.4-0.2-0.7-0.4-0.9-0.5l-0.3-0.2c0.4,0.2,0.9,0.3,1.3,0.6c1.2,0.5,2.4,0.9,3.7,1.1c1.9,0.3,3.8,0.6,5.7,0.6
		c2.2,0.1,4.5,0.2,7,0.2c2.3,0,4.7-0.3,7-0.7c1.9-0.3,3.7-0.9,5.5-1.6C479.6,272.2,481.2,271.3,482.7,270.4z"/>
	<path class="st5" d="M507.9,387.3c-0.2,0.1-0.3,0.1-0.5,0.1l-1.5,0.2c-0.7,0.1-1.5,0.2-2.4,0.3c-0.9,0.1-2,0.2-3.2,0.3
		c-2.4,0.2-5.3,0.2-8.4,0.2c-3.2,0-6.7-0.3-10.3-0.7c-3.6-0.4-7.1-1.1-10.2-1.8c-3.1-0.6-5.9-1.5-8.2-2.2c-1.1-0.3-2.2-0.7-3.1-1
		s-1.7-0.6-2.2-0.8l-1.4-0.6c-0.2-0.1-0.3-0.1-0.5-0.2c0.2,0,0.4,0.1,0.5,0.1l1.5,0.5c0.6,0.2,1.4,0.5,2.3,0.8
		c0.9,0.3,1.9,0.6,3.1,1c2.3,0.7,5.1,1.4,8.2,2.1s6.5,1.3,10.2,1.7c3.6,0.4,7.1,0.6,10.3,0.7c3.2,0.1,6,0,8.4-0.1
		c1.2,0,2.2-0.1,3.2-0.2c1-0.1,1.8-0.1,2.4-0.2l1.5-0.1L507.9,387.3z"/>
	<path class="st5" d="M516.9,322.3c-0.2-0.3-0.3-0.7-0.4-1.1c-0.2-0.7-0.5-1.7-0.8-2.9c-0.7-2.5-1.5-5.9-2.4-9.7
		c-0.9-3.8-1.5-7.3-2-9.8c-0.2-1.3-0.4-2.3-0.5-3c-0.1-0.4-0.1-0.7-0.1-1.1c0.1,0.4,0.2,0.7,0.3,1.1c0.2,0.8,0.4,1.8,0.6,3
		c0.5,2.5,1.2,6,2.1,9.8c0.8,3.8,1.7,7.3,2.2,9.8c0.3,1.2,0.5,2.2,0.7,3C516.8,321.6,516.8,322,516.9,322.3z"/>
	<g class="st10">
		<path d="M458.7,274.2c1,3.3,0.1,8.3,0.5,11.4c2,12.1,2.7,24.5,2,36.8c-0.1,0.7-0.1,1.3,0.1,2c0.3,0.6,0.6,1.1,1,1.5
			c2.5,3.3,3.1,7.6,2.6,11.7c-0.7,4-1.8,8-3.5,11.7c-0.1-3.3,0.1-8.2,0.3-11.4c0-0.7,0.4-0.2,0.4-0.9c0.1-3.9-0.5-7.6-3.3-10.4
			c-0.6-0.5-1.1-1.1-1.6-1.8c-0.3-0.7-0.5-1.4-0.5-2.1c-1.7-13.7-2.9-27.5-3.5-41.3c-0.1-0.8,0-1.6,0.4-2.2c0.4-0.4,1-0.8,1.5-1
			c1.1-0.7,1.7-1.9,2.9-2.5"/>
	</g>
	<path class="st6" d="M425.8,277.6c0,0-22.3,5.2-16.9,38.6c2.5,16.3,7,32.2,13.3,47.4c3.7,8.6,11.9,14.5,21.2,13.3
		c4-0.5,8,0.1,10.7-1.5c4.1-2.5,5.9-10.8,6.7-19.8c0.5-6.1,0.3-12.5,1.1-17.8c1.3-8.6-2.6-12.6-7.6-13.6l-19.7-3.9l-1.1,10.4
		L425.8,277.6z"/>
	<path class="st5" d="M441.5,344c0.1,0,0.4,0.4,1.1,1c1.1,0.8,2.3,1.3,3.7,1.5c2,0.2,4-0.1,5.8-0.8c2.3-0.8,4.5-2,6.3-3.6
		c1.7-1.7,2.9-3.9,3.3-6.3c0.3-2,0.1-4-0.7-5.8c-0.8-1.7-1.8-3.2-3.1-4.5c0.5,0.2,0.9,0.5,1.2,0.9c1,0.9,1.8,2.1,2.4,3.3
		c0.9,1.9,1.2,4,0.9,6.1c-0.4,2.6-1.6,5-3.4,6.8c-1.9,1.7-4.2,3-6.6,3.7c-2,0.8-4.1,1-6.2,0.7c-1.4-0.2-2.7-0.8-3.8-1.8
		C442,344.9,441.7,344.5,441.5,344z"/>
	<path class="st5" d="M421,360.7c0.1,0,0.4,1,1.3,2.9c1.3,2.5,3,4.8,5.1,6.8c3,2.9,6.8,5,10.9,6c5,1.2,10.3,0.9,15.1-1.1
		c2.5-1,3.4-3.8,4.4-6.2c0.8-2.3,1.5-4.8,1.9-7.2c0.6-4.2,1.1-8.4,1.3-12.6c0.3-3.5,0.5-6.4,0.6-8.6c0.1-0.9,0.2-1.7,0.2-2.3
		c0-0.3,0.1-0.5,0.1-0.8c0,0.3,0,0.5,0,0.8c0,0.6,0,1.4,0,2.3c-0.1,2.1-0.2,5-0.4,8.6c-0.1,4.3-0.5,8.5-1.1,12.7
		c-0.4,2.5-1,5-1.9,7.4c-0.5,1.3-1,2.5-1.7,3.7c-0.7,1.3-1.8,2.3-3.1,2.9c-5,2-10.4,2.4-15.6,1c-7.1-1.8-13-6.8-16.1-13.4
		c-0.3-0.7-0.6-1.5-0.9-2.2C421.1,361.2,421.1,360.9,421,360.7z"/>
	<path class="st5" d="M428.5,346.2c-0.1-1.3-0.1-2.7,0-4c0.1-2.5,0.4-5.9,0.7-9.6c0.2-1.9,0.3-3.7,0.5-5.3c0.1-1.5,0.6-3,1.5-4.2
		c0.6-0.8,1.5-1.4,2.5-1.7c0.4-0.1,0.8-0.1,1.1,0c0,0.1-0.4,0-1,0.3c-0.9,0.3-1.6,0.9-2.2,1.7c-1.5,1.9-1.3,5.5-1.7,9.2
		c-0.4,3.7-0.6,7.2-0.9,9.6C429,343.6,428.8,344.9,428.5,346.2z"/>
	<path class="st5" d="M435.4,310.8c-0.2-1-0.5-2.6-0.9-4.5c-0.8-3.8-2-8.9-3.3-14.7c-0.6-2.7-1.3-5.4-2.1-8c-0.7-2.2-1.8-4.2-3.3-6
		l-0.4,0.3c1.3,1.8,2.4,3.8,3,5.9c0.8,2.4,1.4,5.1,2,8c1.3,5.7,2.6,10.9,3.5,14.6c0.5,1.9,0.9,3.3,1.1,4.4c0.1,0.5,0.3,1.1,0.5,1.6
		C435.6,311.9,435.5,311.3,435.4,310.8z"/>
	<g class="st10">
		<path d="M435.6,317.9c-1.8,0-3.6,0.6-5,1.7c-3.3,2.2-5.6,5.6-6.6,9.4c-1,3.8-0.8,7.8,0.5,11.5c0.4,1.1,1.2,2.5,2.4,2.4
			c1.4-0.1,2-1.8,2.2-3.3c0.6-3.9,1.1-7.9,1.7-11.8c0.1-1.3,0.5-2.7,1-3.9c0.6-1.2,1.9-2,3.2-2.1l0.4-4.2"/>
	</g>
	<path class="st6" d="M568.1,335.9c2.8-4.7,4.4-10,4.6-15.4c0.2-5.7-0.6-11.4-2.2-16.9l-23.6-7.3l-0.1,7.9L568.1,335.9z"/>
	<path class="st6" d="M546.7,304l-40.3-29.2v2l4.4,45.4c0,0,33.4,14.9,42.2,17.1c5.3,1.2,10.9-0.1,15.2-3.5L546.7,304z"/>
	<path class="st5" d="M558.7,326.1c-0.3-0.1-0.6-0.3-0.9-0.5c-0.8-0.5-1.5-1.1-2.2-1.7c-2.2-2.1-4.1-4.7-5.4-7.5
		c-1.3-2.8-2.3-5.7-3.1-8.7c-0.3-1.1-0.5-2.1-0.7-2.7c-0.1-0.3-0.1-0.7-0.2-1c0.5,1.2,0.9,2.4,1.2,3.6c0.9,2.9,1.9,5.8,3.2,8.6
		c1.3,2.8,3,5.3,5.1,7.5C557.5,325.2,558.7,326,558.7,326.1z"/>
	<path class="st5" d="M570.4,309.2c-0.3,0.1-0.7,0.1-1,0c-0.9,0-1.9-0.1-2.8-0.3c-6.2-1-12.1-3.7-16.9-7.8c-0.7-0.6-1.4-1.3-2.1-2
		c-0.5-0.5-0.7-0.8-0.7-0.8s1.1,1,3,2.5c2.4,1.9,5.1,3.5,7.9,4.9c2.8,1.3,5.8,2.3,8.8,2.9C568.9,309,570.4,309.1,570.4,309.2z"/>
	<path class="st5" d="M548.5,322.3c-0.6-0.8-1-1.6-1.3-2.5c-0.7-2.1-1.2-4.4-1.3-6.6c-0.1-2.2-0.1-4.5,0.1-6.7
		c0-0.9,0.1-1.9,0.3-2.8c0.1,0.9,0.1,1.9,0.1,2.8c0,1.7-0.1,4.1,0.1,6.7c0.1,2.2,0.5,4.4,1.1,6.5
		C548.1,321.3,548.6,322.3,548.5,322.3z"/>
	<path class="st5" d="M505.8,292.4c0.2,0.4,0.3,0.8,0.4,1.2c0.2,0.8,0.5,2,0.9,3.4c0.7,2.9,1.7,6.9,2.6,11.4s1.7,8.6,2.2,11.5
		c0.2,1.5,0.4,2.7,0.5,3.5c0.1,0.4,0.1,0.9,0.1,1.3c-0.2-0.4-0.3-0.8-0.3-1.3l-0.7-3.5c-0.6-3.1-1.4-7-2.3-11.5
		c-0.9-4.4-1.8-8.4-2.5-11.4c-0.3-1.4-0.5-2.5-0.7-3.5C505.8,293.2,505.8,292.8,505.8,292.4z"/>
	<path class="st8" d="M434.4,324.4l4.9-54.7l16.4,6.5l2.1,55.6c0,0-5.2,7.9-14.1,4.7C438.6,334.6,434.9,329.9,434.4,324.4z"/>
	<polygon class="st5" points="437.6,221.8 468.2,248.7 462.7,268.9 460.4,269.5 433.7,242.1 435.4,222.5 	"/>
	<polygon class="st7" points="435.4,222.5 466,249.4 460.4,269.5 431.4,242.8 	"/>
	<path class="st8" d="M456.4,277.9c1.9-2.1,3-4.7,3.1-7.5c-0.1-4.1-1.2-14-1.2-14s5.3-11.2,5.2-12.7c-0.1-1.5-0.4-1.5-2.2-0.9
		c-1.9,0.6-7.8,10.8-7.8,10.8l-1.9-7.6c0,0,4.9-7.9,5.3-9.1c0.4-1.1,1-2-0.2-2.1c-1.2-0.1-10.5,8.9-10.5,8.9l0.7,8.3
		c0,0-0.2,0.7-1.5-0.5c-1.3-1.2-1-11.1-1-11.1s3.2-5.9,3.1-6.7c-0.1-0.8,0.6-1.8,0-3.2s-2.4,0.2-2.4,0.2l-6.2,8l-2.2-8
		c0,0,0.1-1.7-2.1-1.7l0.9,25.9l5.6,19.9L456.4,277.9z"/>
	<path class="st9" d="M457.8,331.8c0,0,0-0.3-0.1-1c-0.1-0.6-0.1-1.6-0.2-2.9c-0.1-2.5-0.3-6.2-0.5-10.8c-0.4-9.4-0.9-22.9-1.6-39.1
		v-0.1l0.1-0.1c1.3-1.1,2.3-2.6,3-4.2c0.6-1.7,0.8-3.6,0.6-5.4c-0.2-3.8-0.7-7.7-1.2-11.8v-0.1v-0.1c1-2.1,2-4.3,3-6.6
		c0.5-1.1,1-2.2,1.4-3.4c0.2-0.6,0.4-1.2,0.6-1.8l0.1-0.4c0-0.1,0-0.2,0-0.4c0-0.3-0.1-0.5-0.2-0.8c0.1-0.2-0.8,0-1.3,0.2
		c-0.3,0.1-0.5,0.2-0.7,0.4c-0.2,0.2-0.4,0.4-0.6,0.6c-0.8,1-1.6,2-2.3,3c-1.5,2.1-2.9,4.4-4.2,6.7l-0.5,0.8l-0.2-0.9
		c-0.6-2.4-1.3-5-1.9-7.6V246l0.1-0.1l2.5-4.1c0.9-1.6,2-3.3,2.8-4.8c0.2-0.4,0.4-0.9,0.5-1.3c0.1-0.2,0-0.3,0-0.3
		c-0.1-0.1-0.2-0.1-0.4-0.1c-0.2,0.1-0.3,0.1-0.4,0.2c-0.2,0.1-0.4,0.3-0.5,0.4c-0.4,0.3-0.7,0.5-1.1,0.8c-2.8,2.3-5.5,4.8-8.1,7.3
		l0.1-0.3c0.3,2.8,0.5,5.6,0.7,8.3v0.1c-0.1,0.3-0.4,0.5-0.7,0.5c-0.2,0-0.4-0.1-0.5-0.2c-0.3-0.1-0.5-0.3-0.8-0.5
		c-0.4-0.5-0.7-1.1-0.8-1.7c-0.2-1.1-0.3-2.2-0.4-3.3c-0.1-2.2-0.1-4.3,0-6.4v-0.1v-0.1c1.1-2,2.1-4,3-6.2c0-0.1,0.1-0.2,0.1-0.3
		c0-0.1,0-0.3,0-0.5c0-0.3,0.1-0.6,0.2-0.9c0.1-0.5,0.1-1-0.1-1.5c-0.2-0.5-0.3-0.8-0.7-0.7c-0.5,0.1-0.9,0.4-1.3,0.7l0,0l-6.2,8
		l-0.4,0.5l-0.2-0.6c-0.7-2.8-1.5-5.4-2.2-8v-0.1c0-0.4-0.2-0.9-0.6-1.1c-0.4-0.2-0.8-0.3-1.3-0.3l0.3-0.3
		c0.3,10.5,0.6,19.2,0.7,25.9l0,0c1.2,4.7,2.2,8.4,2.8,11l0.7,2.8c0.2,0.6,0.2,1,0.2,1s-0.1-0.3-0.3-0.9c-0.2-0.6-0.5-1.6-0.8-2.8
		c-0.7-2.5-1.7-6.2-3-10.9l0,0l0,0l-0.9-26v-0.3h0.3c0.6,0,1.1,0.1,1.6,0.4c0.5,0.4,0.8,1,0.8,1.6v-0.1c0.7,2.6,1.5,5.2,2.2,8
		l-0.6-0.1l6.1-8.1l0,0l0,0c0.4-0.4,1-0.7,1.6-0.9c0.4-0.1,0.8,0,1.1,0.3c0.2,0.2,0.4,0.6,0.5,0.9c0.2,0.6,0.2,1.2,0.1,1.8
		c0,0.3-0.1,0.6-0.1,0.8c0,0.1,0,0.3,0,0.4c0,0.2,0,0.3-0.1,0.5c-0.9,2.2-1.9,4.3-3,6.3v-0.2c-0.1,2.1,0,4.2,0.1,6.4
		c0,1.1,0.2,2.1,0.4,3.2c0.1,0.5,0.2,0.9,0.5,1.3c0.2,0.2,0.4,0.3,0.6,0.4c0.1,0,0.2,0.1,0.3,0.1l0,0c0,0,0,0.1,0,0.1l0,0l0,0l0,0
		l0,0c0.2,0.1-0.2-0.1-0.2-0.1v0.2c-0.2-2.7-0.5-5.5-0.8-8.3v-0.2l0.1-0.1c2.6-2.5,5.2-5,8.1-7.4c0.4-0.3,0.7-0.6,1.1-0.9
		c0.2-0.1,0.4-0.3,0.6-0.4c0.2-0.2,0.5-0.3,0.8-0.3c0.3,0,0.7,0.1,0.9,0.3c0.3,0.3,0.3,0.7,0.2,1c-0.1,0.5-0.3,0.9-0.5,1.4
		c-0.9,1.8-1.9,3.3-2.8,5l-2.5,4.1v-0.3l1.9,7.6l-0.7-0.1c1.4-2.3,2.8-4.6,4.3-6.7c0.7-1.1,1.5-2.1,2.4-3.1c0.2-0.3,0.5-0.5,0.7-0.7
		c0.3-0.2,0.6-0.4,1-0.5c0.3-0.1,0.6-0.2,1-0.3c0.2,0,0.4,0,0.6,0c0.3,0,0.5,0.2,0.6,0.5c0.1,0.4,0.2,0.7,0.2,1.1c0,0.2,0,0.4,0,0.6
		l-0.1,0.5c-0.2,0.6-0.4,1.2-0.6,1.8c-0.5,1.1-0.9,2.3-1.4,3.4c-1,2.2-2,4.5-3,6.6v-0.2c0.5,4.1,1,8,1.2,11.8c0.2,1.9,0,3.8-0.7,5.7
		c-0.7,1.7-1.8,3.3-3.2,4.5l0.1-0.3c0.5,16.3,1,29.7,1.3,39.1c0.1,4.7,0.2,8.3,0.3,10.9c0,1.2,0,2.2,0.1,2.8
		C457.8,331.6,457.8,331.8,457.8,331.8z"/>
	<path class="st9" d="M440,252.8c-0.2,0-0.6-3.1-0.9-7.1c-0.3-3.9-0.4-7.1-0.2-7.1c0.2,0,0.6,3.1,0.9,7.1
		C440.1,249.6,440.2,252.8,440,252.8z"/>
</g>
<g id="freepik--character-1--inject-47">
	<path class="st4" d="M398.6,262l-17.5-35.4c30.1-65.1,1.7-142.3-63.5-172.4s-142.3-1.7-172.4,63.5s-1.7,142.3,63.5,172.4
		c49.1,22.7,107.1,12.6,145.6-25.4v0.1L398.6,262z"/>
	<path class="st5" d="M398.6,262l-44.3,2.9h-0.2l0.1-0.2v-0.1l0.2,0.2c-3.2,3.2-6.6,6.2-10.2,9.1c-1.9,1.6-3.9,3-5.9,4.5
		c-2,1.5-4.3,3-6.6,4.4c-10.1,6.3-21,11.2-32.5,14.5c-13.4,3.8-27.3,5.5-41.2,5c-15.7-0.6-31.2-4.1-45.6-10.2
		c-15.9-6.8-30.3-16.6-42.4-29c-27.2-28-40.4-66.7-35.9-105.4c0.2-2.5,0.7-5,1.1-7.5c0.4-2.5,1-5,1.5-7.5c2.4-10.1,6-19.8,10.7-29
		c4.9-9.4,10.8-18.3,17.8-26.3l2.7-3l1.3-1.5l1.4-1.4l2.8-2.8l2.9-2.8c7.8-7,16.4-13.1,25.7-18c2.2-1.3,4.6-2.3,6.9-3.4s4.7-2,7.1-3
		c2.4-0.8,4.8-1.8,7.2-2.5c2.4-0.7,4.8-1.6,7.3-2.1c9.6-2.5,19.5-3.9,29.5-4.2c54-1.4,103.2,30.8,123.6,80.9
		c2.7,6.7,4.9,13.7,6.5,20.7c0.3,1.7,0.7,3.4,1,5.1c0.3,1.7,0.5,3.3,0.8,5l0.4,2.5c0.1,0.8,0.2,1.7,0.3,2.5c0.2,1.6,0.3,3.3,0.4,4.9
		c0.8,11.9-0.1,23.8-2.6,35.4c-1.1,4.9-2.5,9.8-4.1,14.6c-1.6,4.5-3.3,8.7-5,12.4v-0.1C392.4,249.5,398.2,261.2,398.6,262
		c-0.4-0.8-6.2-12.5-17.6-35.4l0,0l0,0c1.7-3.8,3.3-7.9,4.9-12.4c5.4-16.1,7.7-33.1,6.6-50c-0.1-1.6-0.2-3.2-0.4-4.9l-0.3-2.5
		l-0.4-2.5c-0.3-1.7-0.4-3.3-0.8-5c-0.4-1.7-0.7-3.3-1-5.1c-1.6-7-3.8-14-6.5-20.7C362.8,73.8,313.8,41.8,260,43.2
		c-9.9,0.3-19.8,1.7-29.4,4.2c-2.4,0.6-4.8,1.4-7.3,2.1s-4.8,1.7-7.2,2.5c-2.3,1-4.7,1.9-7,3c-2.3,1.1-4.6,2.2-6.9,3.4
		c-9.2,4.9-17.8,10.9-25.5,17.9l-2.9,2.7l-2.8,2.8l-1.4,1.4l-1.3,1.5l-2.7,2.9c-6.9,8-12.8,16.8-17.7,26.2
		c-4.6,9.2-8.2,18.9-10.6,28.9c-0.5,2.5-1.1,5-1.5,7.5c-0.4,2.5-0.9,5-1.1,7.5c-2.2,19.6,0,39.5,6.6,58.1
		c6.2,17.5,16.1,33.5,29.1,46.9c12,12.4,26.4,22.2,42.2,29c14.4,6.1,29.8,9.6,45.5,10.2c13.9,0.5,27.7-1.1,41.1-5
		c11.4-3.3,22.3-8.1,32.4-14.4c2.3-1.4,4.5-2.9,6.6-4.3c2.1-1.4,4.1-2.9,5.9-4.5c3.5-2.8,6.9-5.8,10.2-9l0.7-0.6l-0.5,0.8v0.1
		l-0.1-0.2L398.6,262z"/>
	<path class="st7" d="M196.5,284l133.7-0.2c0,0-32,21.2-70.3,18.7C226.5,300.3,196.5,284,196.5,284z"/>
	<path class="st4" d="M255.1,194.4l7.6,27.9l27.8-37.6l-6.6,98.6h-39.8l-11.6,0.6c0,0,1.7-15.5,2.4-24.3c0.4-7,1.6-14,3.5-20.7
		C244.5,219.5,255.1,194.4,255.1,194.4z"/>
	<path class="st5" d="M264,238c0.1,0.1-4.4,3.7-10,8.1c-5.6,4.3-10.3,7.7-10.4,7.6c-0.1-0.1,4.4-3.8,10-8.1
		C259.3,241.3,263.9,237.9,264,238z"/>
	<polygon class="st6" points="333.3,180.8 311.6,170.4 303.1,160.3 291.1,172.7 259.2,283 313.9,283 320.9,264.1 333.3,191 	"/>
	<path class="st6" d="M235.8,284.6l-1.5-23.4l66-11.2c0,0,11.3-54.4,18.2-63.4c6.4-8.2,14.8-5.4,14.8-5.4s7.5,5.2,5.7,24.9
		c-0.9,10.3-4.7,46.2-6.1,59.2c-0.3,3.1-1.4,6.1-3,8.7l0,0c-3.8,6.1-10.4,9.8-17.6,9.8L235.8,284.6z"/>
	<path class="st5" d="M311.1,263.6c-0.1,0-0.2-1-0.7-2.6c-1.2-4.2-4.2-7.7-8.1-9.7c-1.5-0.7-2.5-1-2.5-1.1c0.9,0.1,1.8,0.3,2.7,0.7
		c4.2,1.8,7.3,5.5,8.4,9.9C311.1,261.7,311.2,262.7,311.1,263.6z"/>
	<g class="st11">
		<path d="M309.9,171.9c-0.6,6.9-1.9,13.7-3.9,20.3l-5-1.5c1.9,3.1,2.4,6.8,1.5,10.3c-1,3.4-2.4,6.7-4.3,9.7
			c-8.2,14.7-16.4,29.5-24.6,44.2l24.8-56.4l-0.6-10.4l4.8-1L309.9,171.9z"/>
	</g>
	<g class="st11">
		<path d="M300.1,249.4c6.2-0.4,11.9,3.7,13.5,9.8c0.2,0.7,0.2,1.4,0,2.1c-0.3,0.7-1,1.1-1.7,0.9c-0.5-0.3-0.8-0.8-1-1.3
			c-2.2-5-6.4-8.8-11.5-10.7"/>
	</g>
	<path class="st5" d="M273.8,254.5c0.1-0.3,0.2-0.6,0.3-0.9l1.1-2.6l4-9.3l13.5-30.7c1.9-4.4,3.8-8.6,5.5-12.5v0.1
		c-0.2-3.7-0.4-7.2-0.6-10.4v-0.2h0.2l4.8-1l-0.2,0.1l5.9-12l1.7-3.3l0.5-0.8c0-0.1,0.1-0.2,0.2-0.3c0,0.1-0.1,0.2-0.1,0.3l-0.4,0.9
		c-0.4,0.8-0.9,1.9-1.6,3.3l-5.8,12.1v0.1h-0.1l-4.8,1l0.2-0.3c0.2,3.2,0.4,6.7,0.7,10.4v0.1v0.1c-1.7,3.9-3.6,8.1-5.5,12.5
		l-13.6,30.6c-1.8,3.9-3.2,7-4.2,9.3l-1.1,2.5C274.2,254,274,254.3,273.8,254.5z"/>
	<path class="st5" d="M235.8,283.8c0-0.1,0-0.3-0.1-0.4c0-0.3,0-0.7-0.1-1.1c-0.1-1-0.2-2.5-0.3-4.5c-0.3-3.9-0.6-9.4-1.1-16.2v-0.2
		h0.2l47.7-8.8l17.6-3.2l-0.2,0.2c3.9-14.7,7.2-27.5,9.6-36.6c1.2-4.5,2.2-8.1,2.8-10.6c0.3-1.2,0.6-2.2,0.8-2.8l0.2-0.7l0.1-0.2
		c0,0.1,0,0.2,0,0.3l-0.2,0.7c-0.2,0.7-0.4,1.7-0.7,2.9l-2.7,10.7c-2.4,9.1-5.6,21.9-9.4,36.6v0.2h-0.2l-17.6,3.3l-47.8,8.6l0.2-0.2
		c0.4,6.8,0.7,12.3,0.9,16.2c0.1,1.9,0.2,3.3,0.2,4.4c0,0.5,0,0.9,0,1.1C235.8,283.5,235.8,283.7,235.8,283.8z"/>
	<path class="st5" d="M329.9,179c0,0.1-1.1,0.3-2.8,0.9c-4.4,1.7-8,5-10,9.3c-0.7,1.6-1,2.8-1.1,2.7c-0.1,0,0-0.3,0.1-0.8
		c0.1-0.7,0.3-1.4,0.6-2.1c1.8-4.6,5.6-8.1,10.2-9.6c0.7-0.2,1.4-0.4,2.1-0.5C329.6,178.9,329.9,178.9,329.9,179z"/>
	<path class="st8" d="M205.2,154.1c2-3.6,1.1-18.2,4.1-17.6c3.9,0.7,0.3,16,0,17.4c-0.3,1.4,1.8,1.7,1.9,0.5
		c0.2-1.8,2.5-19.6,6.2-18.6c2.1,0.5,1.1,4.4,1.1,4.4s-3.3,17.3-1.5,17.7c1.8,0.4,3.2-9.5,4-13.1s3-5,3.9-3.1
		c1.3,2.7-1.1,11.4-1.9,14.9s-2.5,13.6,2.4,9.6s10-5.2,11.7-4.5c1.7,0.6,1.3,3.1-0.6,3.6c-2,0.7-3.9,1.7-5.6,3
		c-1.4,1-2.6,2.2-3.7,3.5c-1.5,1.6-2.6,3.4-3.5,5.4c-1.4,3.2-4.1,5.6-7.4,6.7l0,0l-2.9,13.6l-18.5-4l4.1-14.4
		c1.5-9.5,0.7-22.2,0.7-27.9c0-9.2,1.2-9.3,2.2-9C204.5,142.4,203.3,157.7,205.2,154.1z"/>
	<path class="st12" d="M204.7,166.5c0.8,0.3,1.7,0.7,2.5,1.1c1.9,1.2,3.3,2.9,4.2,4.9c0.2,0.6,0.4,1.3,0.6,1.9l0.1,0.3l0.3-0.1
		c1.5-0.9,3.1-1.5,4.8-1.8c1.3-0.2,2-0.3,2-0.3c-0.7-0.1-1.4-0.1-2.1,0c-1.7,0.3-3.4,0.8-5,1.7l0.3,0.2c-0.1-0.7-0.3-1.4-0.6-2.1
		c-0.5-1.2-1.2-2.2-2-3.2c-0.7-0.7-1.5-1.4-2.4-1.9c-0.6-0.3-1.2-0.6-1.9-0.7C205.2,166.5,204.9,166.5,204.7,166.5z"/>
	<path class="st12" d="M202.2,179.5c2.7,1.8,5.8,2.8,9.1,2.8c0-0.1-2.1-0.4-4.6-1.2C204.1,180.3,202.3,179.3,202.2,179.5z"/>
	<polygon class="st8" points="269.2,166.1 255.1,194.4 262.7,222.3 283,200.8 303,163.6 	"/>
	<path class="st6" d="M255.9,168.7c0,0-20.1,7.1-20.1,8.5l0,0c-3.5,2.8-15.4,31.4-19.1,36.8l-10.8,15.9l0,0l9-35.2l-19.8-5.8
		c0,0-16.9,40.9-19,50c-1.2,5.4-1.1,11,0.3,16.4l0.1-0.1c1.3,4.1,3.9,7.6,7.4,10c8.4,5.4,16.3,6.4,24.3,0.5
		c4.6-3.3,9.8-7.4,14.5-11.2l1.3,29.6h11c0-1.7-0.3-21.9-0.3-21.9c1.4-4.8,2.6-9.7,3.3-14.6c1-7,17.3-52.7,17.3-52.7l12.6-24.4
		l0.3-9L255.9,168.7z"/>
	<path class="st5" d="M223.8,283.6c-0.1-0.3-0.1-0.6-0.1-0.9c0-0.7-0.1-1.5-0.2-2.6c-0.1-2.4-0.3-5.7-0.5-9.8
		c-0.4-8.4-0.9-19.9-1.5-32.8v-0.1c0.2-1.2,0.5-2.5,0.7-3.8c2.6-13.6,5.1-25.8,6.8-34.8l2.1-10.5c0.2-1.2,0.5-2.2,0.6-2.9l0.2-0.7
		c0-0.1,0-0.2,0.1-0.2c0,0.1,0,0.2,0,0.3l-0.1,0.7l-0.5,2.9l-1.9,10.6c-1.7,8.9-4.1,21.2-6.7,34.8c-0.2,1.3-0.5,2.6-0.7,3.8v-0.1
		c0.5,12.9,1,24.4,1.3,32.8c0.1,4.1,0.2,7.4,0.3,9.8c0,1.1,0,2,0.1,2.7C223.8,283,223.8,283.3,223.8,283.6z"/>
	<path class="st5" d="M235,257.4c0-0.3,0-0.6,0.1-0.9c0.1-0.6,0.2-1.5,0.4-2.6c0.4-2.3,0.9-5.6,1.6-9.7c1.4-8.2,3.3-19.5,5.4-31.9
		c1.4-8.1,2.7-15.8,3.9-22.3v-0.1c2.8-6.3,5.1-11.6,6.8-15.4c0.8-1.8,1.5-3.2,1.9-4.3l0.5-1.1c0.1-0.1,0.1-0.3,0.2-0.4
		c0,0.1-0.1,0.3-0.1,0.4c-0.1,0.3-0.3,0.7-0.5,1.1c-0.4,1-1,2.5-1.8,4.3c-1.6,3.8-3.9,9.1-6.6,15.4l0,0c-1.1,6.5-2.4,14.2-3.8,22.3
		c-2.2,12.4-4.2,23.7-5.6,31.9c-0.7,4-1.3,7.3-1.8,9.6l-0.5,2.6C235.2,256.8,235.1,257.1,235,257.4z"/>
	<path class="st5" d="M196.5,254.1c-0.1-0.1,0.8-1.3,2-3.3c1.6-2.8,2.9-5.6,4-8.6c1.1-2.9,2-5.9,2.8-8.9c0.6-2.4,0.8-3.8,0.9-3.8
		c0.1,0.4,0.1,0.7,0,1.1c-0.1,0.7-0.2,1.7-0.4,2.8c-0.6,3.1-1.5,6.2-2.6,9.1c-1.1,3-2.5,5.8-4.2,8.5c-0.7,1-1.2,1.8-1.6,2.4
		C196.9,253.9,196.5,254.1,196.5,254.1z"/>
	<g class="st11">
		<path d="M198.1,252.5c-0.7,0.1-1.1,0.8-0.9,1.5c0,0.1,0.1,0.2,0.1,0.3c0.4,0.7,1.2,1,1.9,0.9c0.7-0.2,1.4-0.5,2-1.1
			c1.6-1.7,2.8-3.7,3.3-6c1.7-5.4,1.8-11.2,1.9-16.7c-1.6,7.4-4.3,14.4-8.2,20.9"/>
	</g>
	<g class="st11">
		<path d="M222.5,255.1c-3.2-5.4-4.7-11.8-4.1-18.1c0.6-8.6,4.8-16.5,7.9-24.5c-1.8,8.4-2.8,16.8-4.5,24.9c0,0,0.9,12.1,0.9,17.4"/>
	</g>
	<g class="st11">
		<path d="M236.3,249.7c0.9-12.9,1.8-25.7,4-38.4c2.3-13,6.7-25.5,12.9-37.1c-1.6,5.1-6.6,15.8-6.6,15.8s-7.2,38-10.3,57.1"/>
	</g>
	<path class="st8" d="M234.7,264.5l1.8,19.9h-9.4l-8.3-0.1c-3.2,0.3-6.4,0.4-9.6,0.2c-0.2,0-0.3,0-0.4-0.1c-0.5-0.1-1-0.2-1.5-0.4
		l0,0c-0.8-0.3-1.7-0.9-1.6-1.8c0.4-2.9,2.1-3.1,2.1-3.1h0.8l0.1-0.2c-1.3,0-2.4,0-2.9-0.1c-0.3,0-0.4-0.1-0.4-0.1
		c0,0-3.3-0.4-3.1-2.2c0.4-2.9,2.1-3.2,2.1-3.2l2.7-0.2c-1.3,0-2.5,0-3-0.1c-0.3,0-0.4-0.1-0.4-0.1c0,0-3.3-0.4-3.1-2.2
		c0.4-2.9,2.1-3.1,2.1-3.1l2.2-0.2c-1.1,0-2,0-2.5-0.1c-0.3,0-0.4-0.1-0.4-0.1c0,0-3.3-0.4-3.1-2.2c0.5-2.9,2.1-3,2.1-3
		s5.2-0.4,8.9-0.5c0,0,4.1-3.7,5.7-3.5c2.4,0.3,16.4,5.4,16.4,5.4L234.7,264.5z"/>
	<path class="st12" d="M217,278.6c-1.5,0.3-3.1,0.5-4.7,0.4c-1.5,0.1-3.1,0.1-4.6-0.1c1.5-0.3,3.1-0.5,4.7-0.5
		C214,278.3,215.5,278.3,217,278.6z"/>
	<path class="st12" d="M217.1,272.9c-2.2,0.4-4.4,0.6-6.6,0.5c-2.2,0.2-4.5,0.2-6.7-0.1c2.2-0.4,4.4-0.6,6.6-0.5
		C212.6,272.7,214.8,272.7,217.1,272.9z"/>
	<g class="st13">
		<path class="st12" d="M216.6,267.2c-2.2,0.4-4.5,0.6-6.7,0.5c-2.2,0.2-4.5,0.2-6.7-0.1c2.2-0.4,4.4-0.6,6.6-0.5
			C212.1,266.9,214.4,266.9,216.6,267.2z"/>
	</g>
	<path class="st12" d="M208.4,261.8c0.7,0.1,1.4,0.2,2.1,0.2l5.1,0.2l5.1,0.2c0.7,0.1,1.4,0.1,2.1,0c-0.7-0.2-1.4-0.3-2.1-0.3
		c-1.3-0.1-3.1-0.3-5.1-0.3c-2-0.1-3.8-0.1-5.1,0C209.8,261.6,209.1,261.6,208.4,261.8z"/>
	<path class="st5" d="M312.3,99.4c2.4-5.7,9.8-8.4,15.7-6.2c5.8,2.1,9.7,8.1,10.4,14.3c0.5,3.1-0.2,6.2-1.8,8.8
		c-2,2.6-4.9,4.3-8.2,4.6c-8.9,1.2-17.1-5-18.4-13.9c-0.4-3,0-6,1.2-8.7"/>
	<path class="st7" d="M336.1,100.1c0,0-0.1,0.3-0.4,0.8c-0.4,0.7-0.9,1.3-1.5,1.8c-3.7,3.8-9,5.7-14.3,4.9c-0.8-0.1-1.6-0.3-2.3-0.5
		c-0.3-0.1-0.6-0.2-0.8-0.3c0-0.1,1.2,0.3,3.2,0.5c5.1,0.5,10.2-1.3,14-4.8C335.2,101.1,335.9,100.1,336.1,100.1z"/>
	<path class="st7" d="M338.5,106.7c0,0-0.2,0.2-0.6,0.6c-0.6,0.5-1.3,1-1.9,1.4c-2.2,1.4-4.7,2.5-7.3,3.1c-1.4,0.3-2.9,0.4-4.4,0.3
		c-1.2-0.1-2.4-0.3-3.5-0.6c-0.8-0.2-1.5-0.5-2.2-0.8c-0.5-0.2-0.8-0.4-0.8-0.4s1.2,0.4,3.1,0.9c1.1,0.3,2.3,0.4,3.4,0.4
		c1.4,0,2.8-0.1,4.2-0.4c2.5-0.6,4.9-1.5,7.2-2.8C337.4,107.4,338.4,106.6,338.5,106.7z"/>
	<path class="st5" d="M251.9,116.6c-13.8-30.4,19.1-45.7,37-40.6c16.9,4.8,24,13.1,26.8,24.4c2.7,11.3,2.6,23.4-1.8,34.2
		c-2.2,5.3-6.1,10.7-11.8,11.3"/>
	<path class="st8" d="M268.4,191.7c-0.2-14.5-0.4-34.5-0.4-34.4c0,0.1-12.5-2.1-15.1-18.4c-1.3-8.1-0.9-21.4-0.2-32.2
		c0.6-9.8,7.1-21.8,16.8-20.7l30.4,7.7c3,0.3,5.2,2.8,5.1,5.8l0,0l-2,62.9"/>
	<path class="st5" d="M260.1,118.2c0,1.1,0.9,2.1,2,2.1c1.1,0.1,2.1-0.7,2.2-1.8c0,0,0,0,0,0c0-1.1-0.9-2.1-2-2.1
		C261.2,116.3,260.3,117.1,260.1,118.2C260.2,118.2,260.1,118.2,260.1,118.2z"/>
	<path class="st5" d="M282.7,118.2c0,1.1,0.9,2.1,2,2.1c1.1,0.1,2.1-0.7,2.2-1.8c0,0,0,0,0,0c0-1.1-0.9-2.1-2-2.1
		C283.8,116.3,282.8,117.1,282.7,118.2C282.7,118.2,282.7,118.2,282.7,118.2z"/>
	<path class="st5" d="M269.2,129.8c-1.2-0.4-2.4-0.6-3.7-0.7c-0.6-0.1-1.1-0.2-1.2-0.6c-0.1-0.6,0.1-1.2,0.4-1.7l1.7-4.4
		c2.4-6.2,4.1-11.3,3.8-11.4c-0.2-0.1-2.4,4.9-4.7,11.1c-0.6,1.5-1.1,3-1.6,4.4c-0.4,0.7-0.5,1.5-0.3,2.2c0.2,0.4,0.5,0.7,0.9,0.8
		c0.3,0.1,0.6,0.1,1,0.1C266.7,130,268,130,269.2,129.8z"/>
	<path class="st9" d="M268,157.4c7.7,0.1,15.2-1.9,21.8-5.8c0,0-5.5,11.4-21.8,9.8V157.4z"/>
	<path class="st14" d="M302,120c0.2-0.1,8.7-3.9,8.8,5.9c0.1,9.7-9.7,7.8-9.7,7.6C301,133.2,302,120,302,120z"/>
	<path class="st12" d="M304,129.7c0,0,0.2,0.1,0.5,0.2c0.4,0.2,0.9,0.2,1.3,0c1-0.4,1.9-2,1.9-3.8c0-0.8-0.2-1.7-0.5-2.4
		c-0.2-0.6-0.7-1.1-1.3-1.3c-0.4-0.1-0.8,0.1-1,0.5c-0.1,0.3-0.1,0.5-0.1,0.5s-0.2-0.2-0.1-0.6c0.1-0.2,0.2-0.5,0.4-0.6
		c0.3-0.2,0.6-0.3,0.9-0.3c0.8,0.2,1.5,0.7,1.8,1.5c0.4,0.8,0.6,1.8,0.6,2.7c0,2-1,3.8-2.4,4.2c-0.5,0.2-1.1,0.1-1.6-0.2
		C304,130,303.9,129.8,304,129.7z"/>
	<path class="st12" d="M269.9,136.1c0.3,0.8,0.7,1.7,1.2,2.4c0.5,0.7,1.3,1.2,2.2,1.3c1,0,1.9-0.5,2.4-1.3c0.5-0.8,0.7-1.8,0.7-2.7
		c0-0.9-0.4-1.9-1.3-2c-0.4,0-0.7,0.1-1,0.2l-4.5,1.8"/>
	<path class="st5" d="M271.7,139.8c0.8,0.1,1.6,0,2.4-0.3c0.8-0.3,1.4-0.9,1.8-1.6c0.4-0.9,0.4-2,0-2.9c-0.1-0.2-0.2-0.5-0.4-0.7
		c-0.2-0.2-0.1-0.2-0.3-0.1c-0.2,0-0.5,0.2-0.7,0.3l-0.7,0.3c-1,0.4-1.8,0.7-2.6,1c-0.8,0.4-1.6,0.6-2.4,0.7c0.7-0.5,1.4-1,2.2-1.3
		c0.7-0.3,1.6-0.7,2.5-1.1l0.7-0.3c0.3-0.1,0.5-0.2,0.8-0.3c0.2-0.1,0.4-0.1,0.7,0c0.2,0.1,0.4,0.2,0.5,0.4c0.2,0.3,0.4,0.6,0.5,0.9
		c0.5,1.2,0.4,2.5-0.1,3.6c-0.5,0.9-1.3,1.5-2.2,1.8c-0.6,0.2-1.3,0.2-1.9,0.1C271.9,140,271.7,139.8,271.7,139.8z"/>
	<path class="st7" d="M312.9,113.3c-1-0.1-9.1,1-8.4,15.9c0.6,14,10.4,10.9,13.5,5.6C321,129.9,322.7,114,312.9,113.3z"/>
	<path class="st7" d="M317.9,115.1c0-0.1,0-0.3,0-0.4c0-0.3,0-0.7,0-1.1c0-1-0.1-2.5-0.1-4.3c-0.1-3.7-0.2-8.8-0.3-14.7l0.2,0.2
		h-4.2l0.2-0.2c0,1.1,0.1,2.3,0.1,3.5c0.1,5.6,0.3,10.8,0.4,15.2v0.1h-0.1c-1.7,0.4-3.2,1.4-4.3,2.7c-0.8,1.1-1.4,2.3-1.7,3.6
		c-0.2,0.8-0.4,1.7-0.4,2.6c0,0.3,0,0.5,0,0.7s0,0.2,0,0.2c0-0.1,0-0.2,0-0.2c0-0.2,0-0.4,0-0.7c0-0.9,0.2-1.7,0.4-2.6
		c0.3-1.3,0.9-2.6,1.7-3.7c1.1-1.5,2.7-2.5,4.5-2.9l-0.1,0.2c-0.1-4.4-0.3-9.6-0.4-15.2c0-1.2-0.1-2.4-0.1-3.5v-0.2h4.5v0.2
		c0.1,5.9,0.1,11,0.2,14.7c0,1.8,0,3.2,0,4.3v1.1C318,114.8,317.9,115,317.9,115.1z"/>
	<path class="st7" d="M312.9,94.6c-3-6.3-8-11.5-14.3-14.7c-3.8-1.9-7.9-3.4-12-4.5c0,0,5.9-1.4,15.3,2.8c4.3,1.9,8.6,4.5,11.5,8.1
		c1.8,2.4,4.1,7,4.1,8.2L312.9,94.6z"/>
	<path class="st5" d="M311.8,139.1c-0.1,0-0.2,0-0.3-0.1c-0.3-0.1-0.5-0.2-0.7-0.4c-0.9-0.6-1.6-1.3-2.1-2.2
		c-0.7-1.4-1.2-2.8-1.3-4.4c-0.2-1.9-0.2-3.7,0-5.6c0.2-1.9,0.5-3.7,0.9-5.5c0.3-1.5,0.9-2.9,1.6-4.3c0.5-0.9,1.2-1.7,2.1-2.2
		c0.2-0.2,0.5-0.3,0.7-0.4c0.1,0,0.2-0.1,0.3-0.1c0,0-0.4,0.2-1,0.6c-0.8,0.6-1.5,1.4-2,2.2c-0.7,1.3-1.2,2.8-1.5,4.2
		c-0.4,1.8-0.7,3.6-0.9,5.5c-0.2,1.8-0.2,3.7,0,5.5c0.1,1.5,0.5,3,1.2,4.3c0.5,0.9,1.2,1.6,2,2.2
		C311.5,138.9,311.8,139.1,311.8,139.1z"/>
	<path class="st7" d="M271.8,138.4l7.7-1.5c1-0.2,2,0.5,2.2,1.5l0.1,0.6c0.2,1-0.5,2-1.5,2.2l-7.7,1.5c-1,0.2-2-0.5-2.2-1.5
		l-0.1-0.6C270.1,139.6,270.8,138.6,271.8,138.4z"/>
	<path class="st7" d="M280.8,138l34.2-10.7c0.9-0.3,1.8,0.2,2.1,1c0,0,0,0,0,0l0,0c0.3,0.9-0.2,1.8-1,2c0,0,0,0-0.1,0l-35,9.5
		L280.8,138z"/>
	<path class="st5" d="M306.1,133.3c0.4-0.2,0.7-0.3,1.1-0.4l3.1-1c1.3-0.4,2.9-0.8,4.6-1.4c0.4-0.2,0.8-0.4,1.1-0.7
		c0.3-0.3,0.5-0.7,0.5-1.2c0-0.4-0.3-0.8-0.7-1c-0.5-0.1-1-0.1-1.4,0l-10.3,3.3l-3.1,1c-0.4,0.1-0.7,0.2-1.1,0.3
		c0.4-0.2,0.7-0.3,1.1-0.4l3.1-1.1c2.6-0.9,6.2-2.1,10.2-3.3c0.5-0.2,1.1-0.2,1.6,0c0.6,0.2,0.9,0.7,0.9,1.3c0,0.5-0.2,1.1-0.6,1.5
		c-0.4,0.3-0.8,0.6-1.3,0.8c-1.8,0.6-3.3,0.9-4.7,1.3l-3.2,0.8C306.9,133.2,306.5,133.2,306.1,133.3z"/>
	<path class="st12" d="M288.1,113.5c-0.3,0.4-2.6-0.9-5.5-0.3c-2.9,0.5-4.7,2.5-5.1,2.2c-0.2-0.1,0-0.8,0.8-1.7
		c1.1-1.1,2.5-1.9,4-2.2c1.5-0.3,3.1,0,4.5,0.7C287.8,112.7,288.3,113.3,288.1,113.5z"/>
	<path class="st5" d="M287.8,113.9c-0.5-0.1-1.1-0.2-1.6-0.4c-1.3-0.3-2.6-0.3-3.9,0c-1.3,0.3-2.4,0.9-3.5,1.7
		c-0.8,0.6-1.2,1.1-1.3,1c-0.1-0.1,0.2-0.6,1-1.4c2.1-1.9,5-2.6,7.7-1.7C287.3,113.4,287.8,113.8,287.8,113.9z"/>
	<path class="st5" d="M289.3,107.3c-0.2,0.8-2.7,0.7-5.7,0.9c-3,0.1-5.5,0.3-5.7-0.4c-0.1-0.4,0.4-0.9,1.4-1.5
		c2.7-1.2,5.8-1.3,8.5-0.3C288.9,106.4,289.4,106.9,289.3,107.3z"/>
	<path class="st12" d="M264.8,115.2c-0.2,0.1-0.7-0.3-1.4-0.8c-0.9-0.6-1.9-1-3-1.2c-2.5-0.4-4.6,0.7-4.8,0.3
		c-0.1-0.2,0.2-0.7,1.1-1.3c1.2-0.7,2.6-1,4-0.8c1.4,0.2,2.7,0.9,3.6,2.1C264.9,114.4,264.9,115.1,264.8,115.2z"/>
	<path class="st5" d="M265,116.4c-0.1,0-0.5-0.5-1.3-1.2c-2.1-1.9-5-2.5-7.6-1.7c-1,0.3-1.6,0.7-1.6,0.6c0-0.1,0.5-0.5,1.5-1
		c1.4-0.5,2.9-0.7,4.3-0.4c1.4,0.3,2.7,1,3.8,2.1C264.5,115.3,264.9,115.8,265,116.4z"/>
	<path class="st5" d="M266,108.3c-0.1,0.8-2.5,1-5.3,1.1c-2.8,0-5.2-0.2-5.4-1c-0.2-0.8,2.2-1.9,5.3-1.9
		C263.8,106.4,266.2,107.5,266,108.3z"/>
	<path class="st5" d="M292.3,85.2c-1.9,2.6-3.4,5.4-4.5,8.4c-1.1,3.1-0.7,6.4,0.9,9.2c1.7,2.5,4.7,3.8,7.3,5.3
		c2.7,1.5,5.4,3.5,6.1,6.4c0.2,0.9-0.2,4.2,0.5,4.8c1,0.9,2.6,0.3,3.3-0.7c0.7-1.1,1.2-4.7,1.2-6l0.2-12.2c0-3.4,0-7-1.5-10
		c-2.1-4.3-6.4-5.7-12.7-5.4"/>
	<path class="st5" d="M252.3,109.6c0.5-4.1,2.1-8.1,4.6-11.4c2.6-3.3,6.3-5.5,10.4-6.2c4.1-0.6,8.3,0.5,12.4,0.7s8.9-0.8,11-4.3
		c0.7-1.1,1-2.7,0.1-3.6c-0.3-0.3-0.8-0.6-1.2-0.8c-5.5-2.7-11.7-3.7-17.7-2.9c-6.1,0.8-11.6,3.9-15.5,8.7
		c-3.9,4.8-5.3,11.2-3.9,17.2"/>
	<path class="st7" d="M249.9,103.5c-0.1-0.2-0.2-0.3-0.2-0.5c-0.2-0.5-0.3-1-0.3-1.6c-0.2-2-0.1-4,0.6-5.9c0.9-2.9,2.6-5.4,4.9-7.3
		c2.8-2.3,6.2-3.9,9.8-4.5c3.6-0.6,7.3-0.4,10.8,0.5c1.5,0.4,3,0.8,4.5,1.4c1.4,0.5,2.6,1.1,3.8,1.4c1.9,0.5,3.8,0.7,5.8,0.5
		c0.7-0.1,1.4-0.5,1.9-0.9c-0.1,0.2-0.2,0.3-0.4,0.4c-0.4,0.4-0.9,0.6-1.5,0.7c-2,0.3-4,0.2-5.9-0.3c-1.2-0.3-2.5-0.8-3.9-1.3
		c-1.5-0.5-3-1-4.5-1.3c-3.5-0.8-7.1-1-10.6-0.4c-3.5,0.5-6.8,2-9.6,4.3c-2.2,1.8-3.9,4.3-4.9,7c-0.6,1.8-0.9,3.8-0.7,5.8
		C249.7,102.7,249.9,103.5,249.9,103.5z"/>
	<path class="st7" d="M267.9,77.9c0.3-0.1,0.7-0.2,1-0.2c0.9-0.1,1.9-0.1,2.8,0c3.2,0.3,6.2,1.5,8.7,3.5c1.4,1.1,2.6,2.4,3.9,3.3
		c1.1,0.8,2.4,1.3,3.8,1.5c0.9,0.2,1.8,0.3,2.7,0.2c0.6-0.1,1-0.3,1-0.2c-0.3,0.2-0.6,0.4-1,0.4c-0.9,0.2-1.9,0.2-2.9,0
		c-1.4-0.2-2.8-0.7-4-1.5c-1.4-0.9-2.6-2.1-4-3.2c-2.4-1.9-5.3-3.1-8.3-3.5C269.4,77.8,267.9,78.1,267.9,77.9z"/>
	<path class="st7" d="M317.2,107.8c0,0-0.2-0.4-0.7-1c-0.7-0.9-1.6-1.5-2.6-2c-1.5-0.7-3.1-1-4.8-0.9c-2,0.1-4,0.4-6,0.8
		c-2,0.4-4.1,0.6-6.2,0.5c-1.7-0.1-3.3-0.5-4.9-1.2c-1.1-0.4-2.1-1-3-1.6c-0.4-0.2-0.7-0.5-1-0.8c1.3,0.8,2.7,1.5,4.1,2
		c1.5,0.6,3.2,0.9,4.8,1c2,0.1,4-0.1,6-0.5c2-0.4,4.1-0.7,6.1-0.8c1.7,0,3.4,0.4,4.9,1.1c1,0.5,1.9,1.3,2.6,2.2
		c0.2,0.3,0.3,0.5,0.4,0.8C317.2,107.7,317.2,107.8,317.2,107.8z"/>
	<path class="st7" d="M315.4,100c0,0-0.2-0.4-0.7-1c-0.7-0.8-1.6-1.4-2.6-1.8c-1.5-0.6-3.1-0.7-4.7-0.5c-1.8,0.2-3.8,0.7-5.9,1.1
		c-2,0.5-4.1,0.4-6.1-0.1c-1.6-0.5-3.1-1.4-4.2-2.6c-0.8-0.8-1.4-1.7-1.9-2.8c-0.1-0.3-0.2-0.6-0.2-0.8c0-0.1,0-0.2,0-0.3
		c0.6,1.4,1.5,2.6,2.5,3.7c1.1,1.1,2.5,1.9,4.1,2.4c1.9,0.5,3.9,0.5,5.8,0c2.1-0.4,4-0.9,5.9-1.1c1.7-0.2,3.4,0,4.9,0.7
		c1,0.4,2,1.2,2.6,2.1C315.2,99.2,315.4,99.6,315.4,100z"/>
	<path class="st5" d="M273.5,211.6l0.2-0.2l0.6-0.5c0.8-0.6,1.5-1.3,2.2-2.1c1.1-1.2,2.2-2.4,3.2-3.7c1.1-1.5,2.4-3.3,3.8-5.4
		c2.7-4.1,6-9,9.4-14.7c1.7-2.9,3.5-5.9,5.2-9.1c0.4-0.8,0.9-1.6,1.3-2.4c0.4-0.9,0.9-1.7,1.5-2.4c0.6-0.8,1.4-1.4,2.4-1.7
		c0.5-0.2,1-0.2,1.5-0.2c0.3,0.1,0.5,0.2,0.7,0.4c0.2,0.2,0.3,0.5,0.4,0.7l0,0v0.1c-0.1,0.3-0.3,0.7-0.5,0.9c-0.3,0.3-0.6,0.4-1,0.5
		c-0.7,0-1.4-0.2-1.9-0.7c-1.2-0.8-1.7-2.4-1.2-3.7c0.2-0.7,0.8-1.3,1.4-1.6c0.6-0.3,1.4-0.4,2.1-0.3c0.8,0.1,1.4,0.6,1.7,1.3
		c0.2,0.4,0.1,0.9-0.2,1.2c-0.3,0.3-0.6,0.5-1,0.5c-1.3,0.3-2.6-0.3-3.3-1.5c-0.3-0.6-0.4-1.3-0.2-1.9c0.2-0.6,0.5-1.2,1-1.6
		c0.5-0.4,1.1-0.7,1.7-0.7c0.7,0,1.3,0.3,1.7,0.9c0.2,0.3,0.3,0.6,0.2,1c-0.1,0.3-0.3,0.6-0.5,0.8c-0.5,0.4-1.2,0.4-1.8,0.2
		c-0.6-0.3-1-0.7-1.2-1.3c-0.2-0.6-0.3-1.2-0.3-1.8c0-1.2,0.3-2.3,0.9-3.3c0.3-0.5,0.8-0.9,1.4-1c0.6-0.1,1.2,0,1.7,0.3
		c0.5,0.3,0.9,0.9,0.8,1.5c-0.1,0.6-0.5,1.1-1.1,1.3c-0.6,0.2-1.2,0.1-1.6-0.3c-0.4-0.4-0.7-0.9-0.8-1.4c-0.1-0.5,0-1.1,0.1-1.6
		c0.1-0.5,0.3-1,0.5-1.5c0.2-0.5,0.6-0.9,1.1-1.1c0.4-0.3,0.9-0.4,1.4-0.5c0.3,0,0.5,0,0.8,0.1c0.2,0.1,0.4,0.3,0.6,0.5
		c0.2,0.2,0.3,0.5,0.3,0.7c0.1,0.3,0,0.6-0.1,0.8c-0.3,0.5-0.9,0.7-1.4,0.5c-0.5-0.1-0.9-0.3-1.3-0.7c-0.7-0.7-1.1-1.6-1.1-2.5
		c-0.1-0.9,0.2-1.8,0.7-2.6c0.3-0.4,0.6-0.7,0.9-0.9c0.4-0.2,0.8-0.3,1.2-0.3c0.4,0,0.9,0.1,1.2,0.4c0.3,0.3,0.5,0.7,0.5,1.1
		c-0.1,0.8-0.8,1.5-1.6,1.6c-0.8,0-1.5-0.4-1.8-1c-0.4-0.6-0.5-1.3-0.5-2c0.2-1.2,0.6-2.3,1.2-3.3l1.2-2.8c0.7-1.7,1.3-2.9,1.7-3.8
		l0.4-1c0-0.1,0.1-0.2,0.2-0.3c0,0.1-0.1,0.2-0.1,0.3l-0.4,1l-1.6,3.9l-1.1,2.7c-0.5,1.1-0.9,2.2-1.1,3.3c-0.1,0.6,0.1,1.3,0.4,1.8
		c0.3,0.6,0.9,0.9,1.6,0.9c0.7-0.1,1.3-0.6,1.4-1.3c0-0.4-0.1-0.7-0.4-0.9c-0.3-0.2-0.7-0.3-1-0.3c-0.4,0-0.8,0.1-1.1,0.3
		c-0.3,0.2-0.6,0.5-0.9,0.8c-0.5,0.7-0.7,1.5-0.6,2.4c0,0.9,0.4,1.7,1,2.3c0.3,0.3,0.7,0.5,1.1,0.6c0.4,0.1,0.9,0,1.1-0.4
		c0.1-0.4,0-0.8-0.2-1.1c-0.1-0.2-0.3-0.3-0.5-0.4c-0.2-0.1-0.4-0.1-0.6-0.1c-1,0.1-1.8,0.6-2.2,1.5c-0.2,0.4-0.4,0.9-0.5,1.4
		c-0.2,0.5-0.2,1-0.1,1.5c0.1,0.5,0.3,0.9,0.7,1.2c0.4,0.3,0.9,0.4,1.3,0.2c0.5-0.1,0.8-0.5,0.9-1c0-0.5-0.3-0.9-0.7-1.2
		c-0.4-0.3-0.9-0.4-1.4-0.3c-0.5,0.2-0.9,0.5-1.2,0.9c-0.6,1-0.8,2-0.8,3.1c0,0.6,0.1,1.1,0.3,1.6c0.2,0.5,0.5,0.9,1,1.1
		c0.5,0.2,1,0.1,1.5-0.2c0.4-0.3,0.5-0.9,0.2-1.3c0,0,0,0,0,0c-0.3-0.4-0.8-0.7-1.4-0.7c-0.5,0-1.1,0.2-1.5,0.6
		c-1.1,0.8-1.3,2.4-0.5,3.5c0.6,0.8,1.6,1.2,2.6,0.9c0.3-0.1,0.6-0.2,0.8-0.4c0.2-0.2,0.3-0.5,0.2-0.8c-0.3-0.6-0.8-1-1.4-1.1
		c-1.3-0.3-2.6,0.4-3.1,1.7c-0.4,1.2,0,2.6,1.1,3.3c0.5,0.4,1.1,0.6,1.7,0.6c0.6-0.1,1.1-0.5,1.2-1.1v0.1c-0.1-0.4-0.4-0.7-0.8-0.8
		c-0.4-0.1-0.9,0-1.3,0.2c-0.9,0.3-1.7,0.9-2.2,1.6c-0.6,0.7-1.1,1.5-1.5,2.4c-0.4,0.8-0.9,1.6-1.3,2.4c-1.8,3.2-3.6,6.3-5.3,9.1
		c-3.4,5.7-6.7,10.6-9.4,14.7c-1.4,2-2.7,3.8-3.9,5.4c-1,1.3-2.1,2.5-3.3,3.7C275.8,210,274.7,210.9,273.5,211.6z"/>
</g>
</svg>
