<?xml version="1.0" encoding="utf-8"?>
<!-- Generator: Adobe Illustrator 26.3.0, SVG Export Plug-In . SVG Version: 6.00 Build 0)  -->
<svg version="1.1" id="Layer_1" xmlns="http://www.w3.org/2000/svg" xmlns:xlink="http://www.w3.org/1999/xlink" x="0px" y="0px"
	 viewBox="0 0 750 500" style="enable-background:new 0 0 750 500;" xml:space="preserve">
<style type="text/css">
	.st0{fill:#EBEBEB;}
	.st1{fill:#F5F5F5;}
	.st2{fill:#E6E6E6;}
	.st3{fill:#E0E0E0;}
	.st4{fill:#F0F0F0;}
	.st5{fill:#FAFAFA;}
	.st6{fill:#009FE3;}
	.st7{opacity:0.4;fill:#FFFFFF;enable-background:new    ;}
	.st8{fill:#263238;}
	.st9{opacity:0.3;fill:#FFFFFF;enable-background:new    ;}
	.st10{opacity:0.6;fill:#FFFFFF;enable-background:new    ;}
	.st11{fill:#FFFFFF;}
	.st12{fill:none;stroke:#FFFFFF;stroke-linecap:round;stroke-linejoin:round;}
	.st13{fill:none;stroke:#263238;stroke-linecap:round;stroke-linejoin:round;}
	.st14{opacity:0.3;enable-background:new    ;}
	.st15{fill:none;stroke:#FFFFFF;stroke-miterlimit:10;}
	.st16{opacity:0.6;enable-background:new    ;}
	.st17{opacity:0.2;fill:#FFFFFF;enable-background:new    ;}
	.st18{opacity:0.1;}
	.st19{opacity:0.5;fill:#FFFFFF;enable-background:new    ;}
	.st20{fill:#B55B52;}
	.st21{fill:#EEC1BB;}
	.st22{opacity:0.2;enable-background:new    ;}
	.st23{opacity:0.5;}
	.st24{fill:#D4827D;}
	.st25{fill:none;stroke:#263238;stroke-width:0.7247;stroke-linecap:round;stroke-linejoin:round;}
	.st26{fill:#DE5753;}
	.st27{fill:none;stroke:#263238;stroke-width:0.5;stroke-linecap:round;stroke-linejoin:round;}
</style>
<g id="freepik--background-complete--inject-50">
	<rect x="461.6" y="425.9" class="st0" width="11" height="0.3"/>
	<rect x="186.2" y="412.8" class="st0" width="8" height="0.3"/>
	<rect x="220.2" y="418.1" class="st0" width="118.4" height="0.3"/>
	<path class="st1" d="M460.9,274.7h151.8c0,5.6-4.4,10.2-10,10.4c-16.3,0.7-41.4,3.3-49.4,12.3c-14.8,16.8-13.4,75.9,4.4,89.6
		c5.6,4.3,21.8,12.8,21.8,12.8h-85.5c0,0,15.2-8.7,20.4-12.8c17.7-13.8,18.2-72.9,3.3-89.6c-7.6-8.6-31.2-11.4-47-12.2
		C465.3,284.9,460.9,280.3,460.9,274.7z"/>
	<path class="st2" d="M593.9,285.6c-15.4,1.3-33.9,4.3-40.5,11.8c-2.2,2.6-3.9,5.5-5.1,8.7h-25.5c-1.2-3.2-2.9-6.1-5.1-8.7
		c-6.6-7.5-25.3-10.5-40.4-11.8H593.9z"/>
	<polygon class="st0" points="525.6,274.8 527.7,251.2 497.7,251.2 495.7,274.8 	"/>
	<polygon class="st3" points="525.6,274.8 527.7,251.2 529.3,251.2 527.2,274.8 	"/>
	<polygon class="st4" points="522.8,272.4 524.4,253.6 500.6,253.6 498.9,272.4 	"/>
	<polygon class="st5" points="520.9,270.8 522.3,255.1 502.4,255.1 501,270.8 	"/>
	<polygon class="st2" points="535.3,274.7 565.4,274.7 562,236.6 532,236.6 	"/>
	<polygon class="st3" points="535.3,274.7 533.9,274.7 530.5,236.6 532,236.6 	"/>
	<polygon class="st4" points="538,270.8 562,270.8 559.3,240.5 535.4,240.5 	"/>
	<polygon class="st5" points="539.8,268.3 559.8,268.3 557.6,243 537.6,243 	"/>
	<path class="st0" d="M549.9,254.4L549.9,254.4c-1.3,1.4-3.5,1.4-4.9,0c0,0,0,0,0,0l0,0c-1.4-1.4-1.4-3.6,0-4.9l0,0
		c1.4-1.4,3.6-1.4,4.9,0l0,0C551.2,250.8,551.2,253,549.9,254.4C549.9,254.3,549.9,254.3,549.9,254.4z"/>
	<path class="st4" d="M548.4,258.6L548.4,258.6c1-1,2.6-1,3.6,0c0,0,0,0,0,0l0,0c1,1,1,2.6,0.1,3.6c-0.5,0.5-1.2,0.8-1.9,0.8l0,0
		c-1.4,0-2.5-1.1-2.6-2.5C547.6,259.8,547.9,259.1,548.4,258.6z"/>
	<path class="st1" d="M293.7,392.1h29.3l-15.4-125.3c-0.8-5.4-5.3-9.5-10.8-9.6H169.1l18.7,135L293.7,392.1z"/>
	<path class="st4" d="M200.8,392.1h-29.2l-15.4-125.3c-0.7-4.5,2.4-8.8,6.9-9.5c0.5-0.1,1-0.1,1.5-0.1h10.1c5.5,0.1,10,4.2,10.8,9.6
		L200.8,392.1z"/>
	<path class="st2" d="M211.6,391.9l-5.3-60.6c-0.2-2.7-2.3-4.9-5.1-5.2l-2.2-0.3c-3.6-0.5-6.4-3.4-6.7-7l-1-11.1
		c-0.4-4.3,2.8-8,7-8.4c0.2,0,0.5,0,0.7,0h-48.9c-4.3,0-7.8,3.5-7.8,7.8c0,0.2,0,0.4,0,0.6l1,11.1c0.3,3.6,3.1,6.5,6.7,7l2.2,0.3
		c2.7,0.3,4.8,2.5,5.1,5.2l5.3,60.6c0.4,4.4,4.1,7.8,8.5,7.8h48.9C215.7,399.7,212,396.3,211.6,391.9z"/>
	<path class="st2" d="M346.2,316.1c0.8-9.5,8.8-16.9,18.4-16.9H322c-9.6,0-17.5,7.3-18.4,16.8l-4.2,48H342L346.2,316.1z"/>
	<path class="st4" d="M383.5,299.2h-19c-9.6,0-17.5,7.3-18.4,16.8l-4.2,48H240.6l-4.2-48c-0.8-9.5-8.8-16.8-18.4-16.8h-19
		c-4.3,0-7.7,3.5-7.8,7.7c0,0.2,0,0.5,0,0.7l1,11.1c0.3,3.6,3.1,6.6,6.7,7l2.2,0.3c2.7,0.3,4.8,2.5,5.1,5.2l5.3,60.6
		c0.4,4.4,4.1,7.8,8.5,7.8h142.4c4.4,0,8.1-3.4,8.5-7.8l5.3-60.6c0.2-2.7,2.3-4.9,5.1-5.2l2.2-0.3c3.6-0.5,6.4-3.4,6.7-7l1-11.1
		c0.4-4.3-2.8-8-7-8.4C384,299.2,383.8,299.2,383.5,299.2z"/>
	<rect x="428.7" y="65.9" class="st0" width="7.3" height="31.2"/>
	<rect x="463.8" y="65.9" class="st0" width="7.3" height="31.2"/>
	
		<rect x="506.4" y="65.5" transform="matrix(0.9855 -0.1699 0.1699 0.9855 -6.3644 87.8191)" class="st0" width="7.3" height="31.2"/>
	<rect x="437.7" y="70" class="st0" width="7.3" height="27.1"/>
	<rect x="454.4" y="70" class="st0" width="7.3" height="27.1"/>
	<rect x="496.5" y="70" class="st0" width="7.3" height="27.1"/>
	
		<rect x="476.4" y="69.5" transform="matrix(0.9762 -0.217 0.217 0.9762 -6.5917 106.1253)" class="st0" width="7.3" height="27.1"/>
	<rect x="447.6" y="64.4" class="st0" width="3.6" height="32.8"/>
	<rect x="490.8" y="64.4" class="st0" width="3.6" height="32.8"/>
	<rect x="421.2" y="160.3" class="st3" width="164.8" height="8.5"/>
	<rect x="571.1" y="129.1" class="st0" width="7.3" height="31.2"/>
	<rect x="536" y="129.1" class="st0" width="7.3" height="31.2"/>
	
		<rect x="481.5" y="140.7" transform="matrix(0.1699 -0.9855 0.9855 0.1699 270.4007 609.6891)" class="st0" width="31.2" height="7.3"/>
	<rect x="562.1" y="133.2" class="st0" width="7.3" height="27.1"/>
	<rect x="545.4" y="133.2" class="st0" width="7.3" height="27.1"/>
	<rect x="503.3" y="133.2" class="st0" width="7.3" height="27.1"/>
	
		<rect x="513.5" y="142.7" transform="matrix(0.217 -0.9762 0.9762 0.217 269.9245 629.1087)" class="st0" width="27.1" height="7.3"/>
	<rect x="555.8" y="127.6" class="st0" width="3.6" height="32.8"/>
	<rect x="512.7" y="127.6" class="st0" width="3.6" height="32.8"/>
	<rect x="437" y="135.6" class="st0" width="35.4" height="24.4"/>
</g>
<g id="freepik--Shadow--inject-50">
	<ellipse id="freepik--path--inject-50" class="st1" cx="370" cy="444.8" rx="245" ry="14.3"/>
</g>
<g id="freepik--Device--inject-50">
	<path class="st6" d="M338.8,51.7h193.1c7.3,0,13.1,5.9,13.1,13.1v368.3c0,7.3-5.9,13.1-13.1,13.1H338.8c-7.3,0-13.1-5.9-13.1-13.1
		V64.8C325.6,57.6,331.5,51.7,338.8,51.7z"/>
	<path class="st7" d="M338.8,51.7h193.1c7.3,0,13.1,5.9,13.1,13.1v368.3c0,7.3-5.9,13.1-13.1,13.1H338.8c-7.3,0-13.1-5.9-13.1-13.1
		V64.8C325.6,57.6,331.5,51.7,338.8,51.7z"/>
	<path class="st8" d="M537.6,64.9v367.4c0,3-2.4,5.4-5.4,5.4c0,0-0.1,0-0.1,0H337.9c-2.7,0-4.8-2.1-4.9-4.7c0-0.1,0-0.1,0-0.2V64.5
		c-0.1-2.4,1.8-4.4,4.2-4.5c0,0,0,0,0,0h48.5c1.4,0,2.6,0.9,3.1,2.2l2,4.9c0.5,1.3,1.7,2.1,3.1,2.2h82.7c1.4,0,2.7-0.8,3.2-2.1l2-5
		c0.5-1.3,1.7-2.2,3.1-2.2h47.8C535.5,60,537.6,62.2,537.6,64.9z"/>
	<rect x="333" y="82.9" class="st9" width="204.6" height="330.4"/>
	<rect x="355.6" y="71.4" class="st10" width="2.5" height="3.4"/>
	<rect x="351.5" y="70.3" class="st10" width="2.5" height="4.5"/>
	<rect x="347.4" y="69.1" class="st10" width="2.5" height="5.6"/>
	<rect x="343.2" y="68" class="st10" width="2.5" height="6.7"/>
	<rect x="512.9" y="70.2" class="st10" width="1.5" height="3.4"/>
	<rect x="515.5" y="68.9" class="st10" width="11.9" height="5.8"/>
	<rect x="338.1" y="89.4" class="st6" width="194.5" height="33.3"/>
	<circle class="st11" cx="521.7" cy="100.4" r="1.5"/>
	<circle class="st11" cx="521.7" cy="106" r="1.5"/>
	<circle class="st11" cx="521.7" cy="111.7" r="1.5"/>
	<circle class="st12" cx="500.2" cy="104.2" r="4.8"/>
	<line class="st12" x1="503.6" y1="107.6" x2="508.8" y2="112.7"/>
	<rect x="475.5" y="98.8" class="st12" width="10.2" height="14.5"/>
	<line class="st12" x1="489.5" y1="99.2" x2="482.6" y2="105.8"/>
	<rect x="349.2" y="98.8" class="st12" width="19.2" height="14.5"/>
	<polyline class="st12" points="349.2,98.8 358.8,106 368.4,98.8 	"/>
	<rect x="338.1" y="125.6" class="st10" width="194.5" height="283.1"/>
	<line class="st13" x1="343.2" y1="164.1" x2="527.4" y2="164.1"/>
	<path class="st14" d="M370.2,145.7c0,6.2-5,11.3-11.3,11.3c-6.2,0-11.3-5-11.3-11.3c0-6.2,5-11.3,11.3-11.3
		C365.1,134.4,370.2,139.5,370.2,145.7C370.2,145.7,370.2,145.7,370.2,145.7z"/>
	<path class="st11" d="M361.1,148.5L361.1,148.5c2-1.2,2.7-3.8,1.5-5.8c-1.2-2-3.8-2.7-5.8-1.5c-2,1.2-2.7,3.8-1.5,5.8
		c0.4,0.6,0.9,1.1,1.5,1.5l0,0c-2.4,0.9-3.9,3.2-3.9,5.7c0,0.3,0,0.7,0.1,1c3.7,2.3,8.3,2.3,12,0c0.1-0.3,0.1-0.7,0.1-1
		C365.1,151.7,363.5,149.4,361.1,148.5z"/>
	<path class="st14" d="M412.7,143.3h-32.3c-0.8,0-1.5-0.7-1.5-1.5c0,0,0,0,0,0l0,0c0-0.8,0.7-1.5,1.5-1.5h32.3
		c0.8,0,1.5,0.7,1.5,1.5l0,0C414.2,142.6,413.6,143.2,412.7,143.3C412.7,143.3,412.7,143.3,412.7,143.3z"/>
	<path class="st14" d="M450.6,149.7h-70.2c-0.8,0-1.5-0.7-1.5-1.5l0,0c0-0.8,0.7-1.5,1.5-1.5c0,0,0,0,0,0h70.2
		c0.8,0,1.5,0.7,1.5,1.5l0,0C452.1,149.1,451.4,149.7,450.6,149.7z"/>
	<line class="st13" x1="343.2" y1="201" x2="527.4" y2="201"/>
	<path class="st14" d="M370.2,182.6c0,6.2-5,11.3-11.3,11.3c-6.2,0-11.3-5-11.3-11.3c0-6.2,5-11.3,11.3-11.3
		C365.1,171.4,370.2,176.4,370.2,182.6C370.2,182.6,370.2,182.6,370.2,182.6z"/>
	<path class="st11" d="M361.1,185.4L361.1,185.4c2-1.2,2.7-3.8,1.5-5.8c-1.2-2-3.8-2.7-5.8-1.5c-2,1.2-2.7,3.8-1.5,5.8
		c0.4,0.6,0.9,1.1,1.5,1.5l0,0c-2.4,0.9-3.9,3.2-3.9,5.7c0,0.3,0,0.7,0.1,1c3.7,2.3,8.3,2.3,12,0c0.1-0.3,0.1-0.7,0.1-1
		C365.1,188.6,363.5,186.3,361.1,185.4z"/>
	<path class="st14" d="M412.7,180.1h-32.3c-0.8,0-1.5-0.7-1.5-1.5l0,0c0-0.8,0.7-1.5,1.5-1.5c0,0,0,0,0,0h32.3
		c0.8,0,1.5,0.7,1.5,1.5c0,0,0,0,0,0l0,0C414.2,179.5,413.5,180.1,412.7,180.1z"/>
	<path class="st14" d="M450.6,186.6h-70.2c-0.8,0-1.5-0.7-1.5-1.5c0,0,0,0,0,0l0,0c0-0.8,0.7-1.5,1.5-1.5h70.2
		c0.8,0,1.5,0.7,1.5,1.5l0,0C452.1,186,451.5,186.6,450.6,186.6z"/>
	<line class="st13" x1="343.2" y1="237.9" x2="527.4" y2="237.9"/>
	<path class="st14" d="M370.2,219.5c0,6.2-5,11.3-11.3,11.3c-6.2,0-11.3-5-11.3-11.3s5-11.3,11.3-11.3
		C365.1,208.3,370.2,213.3,370.2,219.5C370.2,219.5,370.2,219.5,370.2,219.5z"/>
	<path class="st11" d="M361.1,222.3L361.1,222.3c2-1.2,2.7-3.8,1.5-5.8c-1.2-2-3.8-2.7-5.8-1.5c-2,1.2-2.7,3.8-1.5,5.8
		c0.4,0.6,0.9,1.1,1.5,1.5l0,0c-2.4,0.9-3.9,3.2-3.9,5.7c0,0.3,0,0.7,0.1,1c3.7,2.3,8.3,2.3,12,0c0.1-0.3,0.1-0.7,0.1-1
		C365.1,225.5,363.5,223.2,361.1,222.3z"/>
	<path class="st14" d="M412.7,217.1h-32.3c-0.8,0-1.5-0.7-1.5-1.5c0,0,0,0,0,0l0,0c0-0.8,0.7-1.5,1.5-1.5h32.3
		c0.8,0,1.5,0.7,1.5,1.5l0,0C414.2,216.4,413.6,217.1,412.7,217.1C412.7,217.1,412.7,217.1,412.7,217.1z"/>
	<path class="st14" d="M450.6,223.5h-70.2c-0.8,0-1.5-0.7-1.5-1.5l0,0c0-0.8,0.7-1.5,1.5-1.5c0,0,0,0,0,0h70.2
		c0.8,0,1.5,0.7,1.5,1.5c0,0,0,0,0,0l0,0C452.1,222.9,451.5,223.5,450.6,223.5z"/>
	<line class="st13" x1="343.2" y1="274.8" x2="527.4" y2="274.8"/>
	<path class="st14" d="M370.2,256.4c0,6.2-5,11.3-11.3,11.3c-6.2,0-11.3-5-11.3-11.3c0-6.2,5-11.3,11.3-11.3
		C365.1,245.2,370.2,250.2,370.2,256.4C370.2,256.4,370.2,256.4,370.2,256.4z"/>
	<path class="st11" d="M361.1,259.2L361.1,259.2c2-1.2,2.7-3.8,1.5-5.8c-1.2-2-3.8-2.7-5.8-1.5c-2,1.2-2.7,3.8-1.5,5.8
		c0.4,0.6,0.9,1.1,1.5,1.5l0,0c-2.4,0.9-3.9,3.2-3.9,5.7c0,0.3,0,0.7,0.1,1c3.7,2.3,8.3,2.3,12,0c0.1-0.3,0.1-0.7,0.1-1
		C365.1,262.4,363.5,260.1,361.1,259.2z"/>
	<path class="st14" d="M412.7,253.9h-32.3c-0.8,0-1.5-0.7-1.5-1.5c0,0,0,0,0,0l0,0c0-0.8,0.7-1.5,1.5-1.5h32.3
		c0.8,0,1.5,0.7,1.5,1.5c0,0,0,0,0,0l0,0C414.2,253.3,413.5,253.9,412.7,253.9z"/>
	<path class="st14" d="M450.6,260.4h-70.2c-0.8,0-1.5-0.7-1.5-1.5c0,0,0,0,0,0l0,0c0-0.8,0.7-1.5,1.5-1.5h70.2
		c0.8,0,1.5,0.7,1.5,1.5l0,0C452.1,259.8,451.5,260.4,450.6,260.4C450.6,260.4,450.6,260.4,450.6,260.4z"/>
	<line class="st13" x1="343.2" y1="311.7" x2="527.4" y2="311.7"/>
	<path class="st14" d="M370.2,293.3c0,6.2-5,11.3-11.3,11.3c-6.2,0-11.3-5-11.3-11.3c0-6.2,5-11.3,11.3-11.3
		C365.1,282.1,370.2,287.1,370.2,293.3C370.2,293.3,370.2,293.3,370.2,293.3z"/>
	<path class="st11" d="M361.1,296.1L361.1,296.1c2-1.2,2.7-3.8,1.5-5.8c-1.2-2-3.8-2.7-5.8-1.5c-2,1.2-2.7,3.8-1.5,5.8
		c0.4,0.6,0.9,1.1,1.5,1.5l0,0c-2.4,0.9-3.9,3.2-3.9,5.7c0,0.3,0,0.7,0.1,1c3.7,2.3,8.3,2.3,12,0c0.1-0.3,0.1-0.7,0.1-1
		C365.1,299.3,363.5,297,361.1,296.1z"/>
	<path class="st14" d="M412.7,290.9h-32.3c-0.8,0-1.5-0.7-1.5-1.5l0,0c0-0.8,0.7-1.5,1.5-1.5c0,0,0,0,0,0h32.3
		c0.8,0,1.5,0.7,1.5,1.5c0,0,0,0,0,0l0,0C414.2,290.2,413.6,290.8,412.7,290.9z"/>
	<path class="st14" d="M450.6,297.3h-70.2c-0.8,0-1.5-0.7-1.5-1.5l0,0c0-0.8,0.7-1.5,1.5-1.5c0,0,0,0,0,0h70.2
		c0.8,0,1.5,0.7,1.5,1.5c0,0,0,0,0,0l0,0C452.1,296.7,451.5,297.3,450.6,297.3z"/>
	<line class="st13" x1="343.2" y1="348.6" x2="527.4" y2="348.6"/>
	<path class="st14" d="M370.2,330.2c0,6.2-5,11.3-11.3,11.3c-6.2,0-11.3-5-11.3-11.3c0-6.2,5-11.3,11.3-11.3
		C365.1,318.9,370.2,324,370.2,330.2C370.2,330.2,370.2,330.2,370.2,330.2z"/>
	<path class="st11" d="M361.1,333L361.1,333c2-1.2,2.7-3.8,1.5-5.8c-1.2-2-3.8-2.7-5.8-1.5c-2,1.2-2.7,3.8-1.5,5.8
		c0.4,0.6,0.9,1.1,1.5,1.5l0,0c-2.4,0.9-3.9,3.2-3.9,5.7c0,0.3,0,0.7,0.1,1c3.7,2.3,8.3,2.3,12,0c0.1-0.3,0.1-0.7,0.1-1
		C365.1,336.2,363.5,333.9,361.1,333z"/>
	<path class="st14" d="M412.7,327.8h-32.3c-0.8,0-1.5-0.7-1.5-1.5c0,0,0,0,0,0l0,0c0-0.8,0.7-1.5,1.5-1.5h32.3
		c0.8,0,1.5,0.7,1.5,1.5l0,0C414.2,327.1,413.6,327.7,412.7,327.8C412.7,327.8,412.7,327.8,412.7,327.8z"/>
	<path class="st14" d="M450.6,334.2h-70.2c-0.8,0-1.5-0.7-1.5-1.5l0,0c0-0.8,0.7-1.5,1.5-1.5c0,0,0,0,0,0h70.2
		c0.8,0,1.5,0.7,1.5,1.5c0,0,0,0,0,0l0,0C452.1,333.6,451.5,334.2,450.6,334.2z"/>
	<line class="st13" x1="343.2" y1="385.5" x2="527.4" y2="385.5"/>
	<path class="st14" d="M370.2,367.1c0,6.2-5,11.3-11.3,11.3c-6.2,0-11.3-5-11.3-11.3c0-6.2,5-11.3,11.3-11.3
		C365.1,355.9,370.2,360.9,370.2,367.1C370.2,367.1,370.2,367.1,370.2,367.1z"/>
	<path class="st11" d="M361.1,370L361.1,370c2-1.2,2.7-3.8,1.5-5.8c-1.2-2-3.8-2.7-5.8-1.5c-2,1.2-2.7,3.8-1.5,5.8
		c0.4,0.6,0.9,1.1,1.5,1.5l0,0c-2.4,0.9-3.9,3.2-3.9,5.7c0,0.3,0,0.7,0.1,1c3.7,2.3,8.3,2.3,12,0c0.1-0.3,0.1-0.7,0.1-1
		C365.1,373.1,363.5,370.9,361.1,370z"/>
	<path class="st14" d="M412.7,364.6h-32.3c-0.8,0-1.5-0.7-1.5-1.5l0,0c0-0.8,0.7-1.5,1.5-1.5c0,0,0,0,0,0h32.3
		c0.8,0,1.5,0.7,1.5,1.5c0,0,0,0,0,0l0,0C414.2,364,413.5,364.6,412.7,364.6z"/>
	<path class="st14" d="M450.6,371.1h-70.2c-0.8,0-1.5-0.7-1.5-1.5c0,0,0,0,0,0l0,0c0-0.8,0.7-1.5,1.5-1.5h70.2
		c0.8,0,1.5,0.7,1.5,1.5l0,0C452.1,370.5,451.5,371.1,450.6,371.1C450.6,371.1,450.6,371.1,450.6,371.1z"/>
	<circle class="st6" cx="510.5" cy="146.5" r="5.8"/>
	<path class="st11" d="M511.5,144v5.6h-1.3v-4.6h-1.1v-1L511.5,144z"/>
	<circle class="st6" cx="510.5" cy="182.6" r="5.8"/>
	<path class="st11" d="M513.3,184.6h-0.9v1.2h-1.3v-1.2h-3v-0.9l2.7-3.6h1.4l-2.5,3.4h1.5v-1h1.3v1h0.9L513.3,184.6z"/>
	<circle class="st6" cx="510.5" cy="218.7" r="5.8"/>
	<path class="st11" d="M512.7,220.8v1.1h-4.3V221l2.2-2.1c0.5-0.5,0.6-0.8,0.6-1s-0.3-0.7-0.9-0.7c-0.5,0-0.9,0.2-1.2,0.6l-0.9-0.6
		c0.5-0.7,1.4-1.1,2.2-1c1.3,0,2.1,0.6,2.1,1.7c0,0.7-0.4,1.4-0.9,1.8l-1.3,1.3L512.7,220.8z"/>
	<circle class="st6" cx="510.5" cy="254.8" r="5.8"/>
	<path class="st11" d="M511.5,252.3v5.6h-1.3v-4.6h-1.1v-1H511.5z"/>
	<circle class="st6" cx="510.5" cy="290.9" r="5.8"/>
	<path class="st11" d="M511.5,288.4v5.6h-1.3v-4.6h-1.1v-1L511.5,288.4z"/>
	<circle class="st11" cx="368.4" cy="110.2" r="5.8"/>
	<path class="st8" d="M370.7,110.4c0.2,1.5-0.9,2.9-2.4,3c-0.1,0-0.3,0-0.4,0c-0.5,0-1.1-0.1-1.6-0.4l0.5-1c0.3,0.2,0.7,0.3,1,0.3
		c0.8,0.1,1.5-0.6,1.6-1.4c0-0.1,0-0.2,0-0.2c-0.4,0.4-0.9,0.5-1.4,0.5c-1,0.1-1.9-0.6-1.9-1.6c0,0,0-0.1,0-0.1c0-1.1,0.9-1.9,2-1.9
		c0,0,0.1,0,0.1,0C369.7,107.6,370.7,108.6,370.7,110.4z M369.2,109.5c0-0.5-0.4-0.8-1-0.8c-0.5,0-0.8,0.4-0.8,0.8s0.4,0.8,0.8,0.8
		c0,0,0,0,0,0C368.7,110.4,369.1,110,369.2,109.5C369.2,109.5,369.2,109.5,369.2,109.5z"/>
	<path class="st15" d="M433.7,420h3.2c1.4,0,2.5,1.1,2.5,2.5v3.2c0,1.4-1.1,2.5-2.5,2.5h-3.2c-1.4,0-2.5-1.1-2.5-2.5v-3.2
		C431.3,421,432.4,420,433.7,420z"/>
	<path class="st16" d="M435.3,60.4c0,1.5-1.3,2.8-2.8,2.8c-1.5,0-2.8-1.3-2.8-2.8c0-1.5,1.3-2.8,2.8-2.8
		C434,57.6,435.3,58.9,435.3,60.4L435.3,60.4z"/>
	<path class="st16" d="M441,60.4c0,1-0.8,1.8-1.8,1.8c-1,0-1.8-0.8-1.8-1.8s0.8-1.8,1.8-1.8c0,0,0,0,0,0
		C440.2,58.6,441,59.4,441,60.4C441,60.4,441,60.4,441,60.4z"/>
	<path class="st17" d="M529.2,60L333,256.1V64.5c-0.1-2.4,1.8-4.4,4.2-4.5c0,0,0,0,0,0h48.6c1.4,0,2.6,0.9,3.1,2.2l2,4.9
		c0.5,1.3,1.7,2.1,3.1,2.2h82.7c1.4,0,2.7-0.8,3.2-2.1l2-5c0.5-1.3,1.7-2.2,3.1-2.2H529.2z"/>
	<polygon class="st17" points="537.6,76.4 537.6,103.7 333,308.2 333,280.9 	"/>
</g>
<g id="freepik--Character--inject-50">
	<polygon class="st8" points="180.7,446.2 182.8,446.2 196.1,327.3 191.7,328 	"/>
	<polygon class="st8" points="256,328 251.6,327.3 264.9,446.2 266.9,446.2 	"/>
	<g class="st18">
		<polygon class="st11" points="190.2,344.4 180.7,446.2 182.8,446.2 194.2,344.4 		"/>
		<polygon class="st11" points="253.5,344.4 264.9,446.2 266.9,446.2 257.5,344.4 		"/>
	</g>
	<path class="st8" d="M266.9,446.2l-23.6-70.1l12.6-48.2l-4.4-0.6l-10.3,42.7l-14.4-42.7l-3,0.4l-3-0.4l-14.4,42.7L196,327.3
		l-4.4,0.6l12.6,48.2l-23.6,70.1h2.1l23.1-64.3l16.9,64.3h2.1l16.9-64.3l23.1,64.3H266.9z M223.8,442.1l-15.9-65.8l15.9-44.3
		l15.9,44.3L223.8,442.1z"/>
	<path class="st8" d="M192.8,316.3h62.1c2.6,0,4.6,2.1,4.6,4.6l0,0v8.4l0,0h-71.3l0,0V321C188.2,318.4,190.2,316.3,192.8,316.3z"/>
	<path class="st8" d="M187.2,324.3h73.3c0.7,0,1.3,0.6,1.3,1.3v4.7c0,0.7-0.6,1.3-1.3,1.3h-73.3c-0.7,0-1.3-0.6-1.3-1.3v-4.7
		C185.9,324.9,186.5,324.3,187.2,324.3z"/>
	<path class="st19" d="M187.2,324.3h73.3c0.7,0,1.3,0.6,1.3,1.3v4.7c0,0.7-0.6,1.3-1.3,1.3h-73.3c-0.7,0-1.3-0.6-1.3-1.3v-4.7
		C185.9,324.9,186.5,324.3,187.2,324.3z"/>
	<path class="st9" d="M253.8,336.1l-4.4,0.1l-8.2,33.9l-11.4-33.7h-4.4l14.3,39.8l-15.9,65.8l-15.9-65.8l14.3-39.8h-4.4l-11.4,33.7
		l-8.3-34.2c-1.6-0.1-3-0.2-4.5-0.3l10.7,40.6l-23.6,70.1h2.1l23.1-64.3l16.9,64.3h2.1l16.9-64.3l23.1,64.3h2.1l-23.6-70.1
		L253.8,336.1z"/>
	<path class="st20" d="M320.3,151.9c-1.3-0.6-11.5,2.9-12.9,3.9c-1.4,1-1.7,4.2-1.7,4.2l-11,13.2c-11.2,14.7-47.9,17.2-47.9,17.2
		l1.3,12c0,0,39.4-5.8,50.2-21.7l12-16.8c1,0.1,10.3-1.9,12-3.2C323.9,159.2,321.6,152.5,320.3,151.9z"/>
	<path class="st20" d="M210.8,206c0,0-9.6,25.6-16.9,29.2c-9.7,4.8-26.5-21.1-26.5-21.1l5-2.8c0,0,13.8,14.5,17.8,12.9
		s8.7-20.5,8.7-20.5L210.8,206z"/>
	<path class="st8" d="M199.1,200.3c0,0,10.8,2.9,12.9,12.2l-7.9,12.5l-13.1-4C191,220.9,196,201.4,199.1,200.3z"/>
	<path class="st8" d="M252.3,187.4c3.8-1.1,12-0.9,12-0.3c0,0.6-3.7,14.7-3.7,14.7l-10.5,7.5L252.3,187.4z"/>
	<path class="st8" d="M200.5,165c0,0-1.9,17.5,4.6,21.8c6.5,4.3,38.3-0.7,41.9-7.8c3.6-7-10-26.1-10-26.1L200.5,165z"/>
	<polygon class="st21" points="336.1,394.8 327.8,396.8 323.6,385.4 319.8,374.9 329.3,370.9 332.9,383.5 	"/>
	<polygon class="st22" points="332.9,383.5 323.6,385.4 319.8,374.9 329.3,370.9 	"/>
	<path class="st6" d="M332.1,377.5l-11.5,4.3c0,0-30.7-76.9-37.1-77.1c-6.3-0.2-70.6,29.3-86.8,12.9s7.2-55.9,7.2-55.9
		s38.8-5.5,41.7,3.2c0.7,2.6,1.3,5.2,1.6,7.9c0.4,2.7,0.7,4.9,0.7,4.9l0,0c1.2-0.3,40.1-10.3,55.5,0
		C319.1,288.2,332.1,377.5,332.1,377.5z"/>
	<polygon class="st21" points="265.8,427.6 257.5,425.5 259.1,413.6 260.6,402.7 270.8,403.6 268.2,416.3 	"/>
	<polygon class="st22" points="268.1,416.6 259,413.8 260.6,402.8 270.8,403.7 	"/>
	<polygon class="st8" points="315.8,377.5 332.6,371.8 333.3,378.7 320.6,383.2 	"/>
	<path class="st6" d="M224.6,321.5c0,0,2.6,0.1,43.3-1.8c0,0-6.1,50.8-9.4,88.9l12.2,2.1c0,0,29.1-81.5,28.7-94.5
		c-0.3-13-15.2-16.7-15.2-16.7S255.2,316.2,224.6,321.5z"/>
	<path class="st22" d="M224.6,321.5c0,0,2.6,0.1,43.3-1.8c0,0-6.1,50.8-9.4,88.9l12.2,2.1c0,0,29.1-81.5,28.7-94.5
		c-0.3-13-15.2-16.7-15.2-16.7S255.2,316.2,224.6,321.5z"/>
	<polygon class="st8" points="256.7,404.9 273.4,406.8 270.2,413.3 256.7,411.6 	"/>
	<path class="st22" d="M248,277.7l-22.7,4.7c0,0,12.5-6.9,21.9-9.7C247.7,275.4,248,277.7,248,277.7z"/>
	<polygon points="204.9,255.6 203.9,261.7 245.6,264.9 246.7,257.7 	"/>
	
		<rect x="212.2" y="259.3" transform="matrix(0.1023 -0.9948 0.9948 0.1023 -63.761 450.0934)" class="st6" width="10.6" height="2.1"/>
	
		<rect x="228.7" y="256.3" transform="matrix(6.418397e-02 -0.9979 0.9979 6.418397e-02 -43.1252 475.84)" class="st11" width="6.9" height="9.1"/>
	
		<rect x="237.9" y="260.4" transform="matrix(0.1023 -0.9948 0.9948 0.1023 -41.8469 476.5957)" class="st6" width="10.6" height="2.1"/>
	<path class="st6" d="M349.9,411c-1.3-0.6-2.6-0.9-4-1l0,0c0,0-4.8-2.8-9.6-13.8H331c-1.9,0-3.5,1.2-4.1,2.9
		c-0.1,0.2-0.1,0.5-0.2,0.7c0.1,1.3,0.2,2.6,0.4,3.9c0.8,4.3,1.8,8.5,3.1,12.6l0.9-0.2l-1.6-8.1c-0.5-2.7,2.3-0.1,3.6,2.6
		c1.3,2.7,3.3,5.5,9.3,4.1C349.3,413.2,352.1,412.2,349.9,411z"/>
	<path class="st21" d="M335.4,393.3c0,0,6.7,14,10.5,16.7c0,0-5.2,3.1-10.5-3.8c-6.9-8.8-8.6-6.4-8.6-6.4c0.1-1.5,0.4-3,0.8-4.5
		C328.6,392.4,335.4,393.3,335.4,393.3z"/>
	<path class="st6" d="M276.3,444.3c-1.1-0.9-2.3-1.5-3.7-1.9l0,0c0,0-4-3.9-6-15.7l-5.2-1.3c-1.8-0.4-3.7,0.3-4.7,1.9
		c-0.1,0.2-0.2,0.4-0.3,0.7c-0.3,1.3-0.4,2.5-0.5,3.8c-0.3,4.3-0.3,8.6,0,13h0.9l0.3-8.1c0.1-2.8,2.3,0.5,2.9,3.4c0.6,3,2,6.1,8,6.2
		C275.2,446.3,278.1,446,276.3,444.3z"/>
	<path class="st21" d="M266.4,423.6c0,0,3.2,15.2,6.3,18.7c0,0-5.7,1.8-9.3-6.2c-4.6-10.2-6.9-8.2-6.9-8.2c0.5-1.5,1.1-2.9,1.9-4.2
		C260,421.2,266.4,423.6,266.4,423.6z"/>
	<path class="st8" d="M238.1,157.6c0,0-2.4-27.7-25.5-17.7c-29.1,12.6-6,46.4,8.3,39.5C235,172.5,238.1,157.6,238.1,157.6z"/>
	<path class="st8" d="M204.3,203.1c1.7,9.3,3.4,26.9,0.5,52.9l42.1,2.4c0,0,7.7-49.8,5.4-70.9c-1.6,0.1-3.2,0.4-4.8,0.8
		c-12.2,2.9-24.5,5-36.9,6.3c-4,0.4-6.8,4-6.4,7.9C204.2,202.7,204.2,202.9,204.3,203.1z"/>
	<path class="st20" d="M234.8,193.1c-0.4-0.2-0.8-0.4-1.3-0.5c-1-0.7-2.2-2.5-2.3-7c0-1.8,0.1-3.5,0.3-5.3l-12.5-1.9
		c0,0,4.5,8.3,1.1,14.6c-1.3,0.6-2,1.4-1.7,2.4c1.3,4.4,14.6,9.3,14.6,9.3S242.4,197,234.8,193.1z"/>
	<path class="st22" d="M231.5,180.3c-0.2,1.7-0.3,3.5-0.3,5.3c-8.4,0.3-12.2-7.2-12.2-7.2L231.5,180.3z"/>
	<path class="st6" d="M240,178.2c-1.1,0-2.1-0.3-3-0.9c-1.2-0.8-2-2-2.3-3.4c-0.4-2.1,0.4-4.2,2.2-5.4c0.2-0.1,0.5-0.1,0.7,0.1
		c0.2,0.2,0.1,0.5-0.1,0.7c0,0,0,0,0,0c-2,1.4-2.5,4.1-1.1,6.1c1.4,2,4.1,2.5,6.1,1.1c2-1.4,2.5-4.1,1.1-6.1c-1-1.4-2.7-2.1-4.5-1.8
		c-0.3,0.1-0.5-0.1-0.6-0.4c0,0,0,0,0,0c-0.1-0.3,0.1-0.5,0.4-0.6c2.9-0.6,5.7,1.3,6.3,4.2c0.6,2.9-1.3,5.7-4.2,6.3l0,0
		C240.7,178.2,240.4,178.2,240,178.2z"/>
	<g class="st23">
		<path class="st11" d="M240,178.2c-1.1,0-2.1-0.3-3-0.9c-1.2-0.8-2-2-2.3-3.4c-0.4-2.1,0.4-4.2,2.2-5.4c0.2-0.1,0.5-0.1,0.7,0.1
			c0.2,0.2,0.1,0.5-0.1,0.7c0,0,0,0,0,0c-2,1.4-2.5,4.1-1.1,6.1c1.4,2,4.1,2.5,6.1,1.1c2-1.4,2.5-4.1,1.1-6.1
			c-1-1.4-2.7-2.1-4.5-1.8c-0.3,0.1-0.5-0.1-0.6-0.4c0,0,0,0,0,0c-0.1-0.3,0.1-0.5,0.4-0.6c2.9-0.6,5.7,1.3,6.3,4.2
			c0.6,2.9-1.3,5.7-4.2,6.3l0,0C240.7,178.2,240.4,178.2,240,178.2z"/>
	</g>
	<path class="st20" d="M221.1,146.1c10.5-2.3,15.2,2.5,18.3,13.2c4,13.3,3.1,23.6-10.7,23.6C210,183,203.6,150,221.1,146.1z"/>
	<path class="st24" d="M232.5,160.2c1.2,1.4,2.5,2.6,4,3.7c-0.4,1-1.4,1.7-2.5,1.8L232.5,160.2z"/>
	<path class="st8" d="M225.8,160.8c0.2,0.9-0.1,1.7-0.7,1.8c-0.6,0.1-1.2-0.4-1.4-1.3c-0.2-0.8,0.1-1.7,0.7-1.8
		C225,159.4,225.6,160,225.8,160.8z"/>
	<path class="st8" d="M224.2,159.6l1.7-1.2C225.9,158.4,225.3,160.2,224.2,159.6z"/>
	<path class="st8" d="M236.5,158c0.2,0.9-0.1,1.7-0.7,1.8c-0.6,0.2-1.3-0.4-1.4-1.3c-0.2-0.8,0.1-1.7,0.7-1.8S236.3,157.2,236.5,158
		z"/>
	<path class="st8" d="M234.8,156.8l1.7-1.2C236.5,155.6,236,157.4,234.8,156.8z"/>
	<path class="st25" d="M224.1,153.6c-1.7,0.1-3.3,1.1-4.2,2.5"/>
	<path class="st25" d="M231.7,151.5c1.4-0.7,3-0.7,4.4-0.1"/>
	<path class="st8" d="M213.5,166.4c0,0,3-9.7,0.8-16.2c0,0,19-13.1,24.7,7.8c0,0-2.1-19.2-20.3-15.6c-18.2,3.6-12.2,30-1.1,35.8
		C217.5,178.1,211.7,172.5,213.5,166.4z"/>
	<path class="st20" d="M215.7,168.2c-0.8-2.5-3.4-3.9-5.9-3.1c-3.2,1.1-3.2,8.1,5.2,7.9C216.2,173,216.7,171.7,215.7,168.2z"/>
	<path class="st8" d="M235.9,169.7c-0.3,1.3-0.5,2.6-0.5,3.9h-0.7c-3.1,0.3-4.7-0.7-5.4-1.7c-0.4-0.5-0.6-1.2-0.7-1.8
		c-0.1-0.4-0.1-0.7,0-1.1c2,0.7,4.2,1,6.3,0.7C235.5,169.8,235.9,169.7,235.9,169.7z"/>
	<path class="st11" d="M234.8,169.8l-0.2,1.1c-3,0.2-5.1,0-6.1-0.8c-0.1-0.4-0.1-0.7,0-1.1C230.5,169.8,232.7,170,234.8,169.8z"/>
	<path class="st26" d="M234.6,173.7c-3.1,0.3-4.7-0.7-5.4-1.7c1.2-0.1,2.4,0.1,3.5,0.4C233.5,172.6,234.2,173.1,234.6,173.7z"/>
	<path class="st8" d="M221,147c0,0-0.4,18.2-11.4,20.4c-11,2.2,1-23.4,1-23.4s16.3-10.6,27.2-3.1c10.9,7.5,1.1,17.1,1.1,17.1
		S236.7,144.4,221,147z"/>
	<path class="st27" d="M220.7,145.8c0,0,3.9,11.5-3.8,17.6"/>
	<path class="st6" d="M213.6,182.4c-2.5,0-4.7-1.8-5.2-4.3c-0.4-2.1,0.5-4.2,2.2-5.4c0.2-0.1,0.5,0,0.6,0.2c0.1,0.2,0.1,0.4-0.1,0.6
		c-2,1.4-2.5,4.1-1.1,6.1c1.4,2,4.1,2.5,6.1,1.1c2-1.4,2.5-4.1,1.1-6.1c-1-1.4-2.8-2.1-4.5-1.8c-0.3,0.1-0.5-0.1-0.6-0.3
		c-0.1-0.3,0.1-0.5,0.3-0.6c0,0,0.1,0,0.1,0c2.9-0.7,5.8,1,6.5,3.9c0.7,2.9-1,5.8-3.9,6.5c-0.2,0-0.3,0.1-0.5,0.1
		C214.3,182.4,213.9,182.4,213.6,182.4z"/>
	<g class="st23">
		<path class="st11" d="M213.6,182.4c-2.5,0-4.7-1.8-5.2-4.3c-0.4-2.1,0.5-4.2,2.2-5.4c0.2-0.1,0.5,0,0.6,0.2
			c0.1,0.2,0.1,0.4-0.1,0.6c-2,1.4-2.5,4.1-1.1,6.1c1.4,2,4.1,2.5,6.1,1.1c2-1.4,2.5-4.1,1.1-6.1c-1-1.4-2.8-2.1-4.5-1.8
			c-0.3,0.1-0.5-0.1-0.6-0.3c-0.1-0.3,0.1-0.5,0.3-0.6c0,0,0.1,0,0.1,0c2.9-0.7,5.8,1,6.5,3.9c0.7,2.9-1,5.8-3.9,6.5
			c-0.2,0-0.3,0.1-0.5,0.1C214.3,182.4,213.9,182.4,213.6,182.4z"/>
	</g>
	<path class="st20" d="M229.2,191.2c3.7-0.6,11.2-2.7,14.8,0s0.1,12.2-12.6,15c-12.8,2.8-33-5.2-33-5.2c2-3,5-5.1,8.5-6.2
		C212.6,193.4,223,192.3,229.2,191.2z"/>
	<path class="st6" d="M236.6,219.8c-0.1,0-0.2,0-0.2-0.1c-0.8-0.7-19.9-17.7-19.9-24.9c0-0.8,0.3-1.7,0.9-2.2c0.1-0.1,0.3-0.1,0.4,0
		c0,0,0,0,0,0c0.1,0.1,0.1,0.3,0,0.4c-0.5,0.4-0.8,1.1-0.7,1.7c0,6.4,16.8,21.9,19.3,24.2c1.1-2.5,7.2-16.2,4-23.9
		c-0.9-2.2-2.7-3.8-4.9-4.5c-0.2-0.1-0.3-0.2-0.2-0.4c0.1-0.2,0.2-0.3,0.4-0.2c0,0,0,0,0,0c2.4,0.8,4.3,2.5,5.3,4.9
		c3.6,8.6-3.9,24.1-4.2,24.8C236.8,219.6,236.7,219.7,236.6,219.8L236.6,219.8z"/>
	<g class="st23">
		<path class="st11" d="M236.6,219.8c-0.1,0-0.2,0-0.2-0.1c-0.8-0.7-19.9-17.7-19.9-24.9c0-0.8,0.3-1.7,0.9-2.2
			c0.1-0.1,0.3-0.1,0.4,0c0,0,0,0,0,0c0.1,0.1,0.1,0.3,0,0.4c-0.5,0.4-0.8,1.1-0.7,1.7c0,6.4,16.8,21.9,19.3,24.2
			c1.1-2.5,7.2-16.2,4-23.9c-0.9-2.2-2.7-3.8-4.9-4.5c-0.2-0.1-0.3-0.2-0.2-0.4c0.1-0.2,0.2-0.3,0.4-0.2c0,0,0,0,0,0
			c2.4,0.8,4.3,2.5,5.3,4.9c3.6,8.6-3.9,24.1-4.2,24.8C236.8,219.6,236.7,219.7,236.6,219.8L236.6,219.8z"/>
	</g>
	<polygon class="st6" points="235.2,218.7 237.5,218.5 238.5,224.9 237.5,227.3 235.7,225.9 	"/>
	<path class="st20" d="M172.2,212.9c0,0-3.8,3.1-7,1.5s-8-7.7-7.6-9.3c0.4-1.6,4.4-6.7,5.2-6.3s7.7,8.5,9.3,9.8
		C173.8,209.9,172.2,212.9,172.2,212.9z"/>
	<path class="st8" d="M173.2,210.6H173l-7.5-1.9c-0.7-0.2-1.3-0.7-1.6-1.4l-7.2-16.5v-0.1c-0.1-0.3,0.1-0.7,0.5-0.7
		c0.1,0,0.1,0,0.2,0l6.9,0.9c0.8,0.1,1.5,0.6,1.9,1.4l7.5,17.4c0.1,0.3,0,0.7-0.3,0.8C173.4,210.6,173.3,210.6,173.2,210.6z"/>
	<path class="st17" d="M173.2,210.6H173l-7.5-1.9c-0.7-0.2-1.3-0.7-1.6-1.4l-7.2-16.5v-0.1h0.1l6.9,0.9c0.8,0.1,1.5,0.6,1.9,1.4
		l7.5,17.4C173.2,210.5,173.2,210.5,173.2,210.6z"/>
</g>
</svg>
