<?xml version="1.0" encoding="utf-8"?>
<!-- Generator: Adobe Illustrator 26.3.0, SVG Export Plug-In . SVG Version: 6.00 Build 0)  -->
<svg version="1.1" id="Layer_1" xmlns="http://www.w3.org/2000/svg" xmlns:xlink="http://www.w3.org/1999/xlink" x="0px" y="0px"
	 viewBox="0 0 750 500" style="enable-background:new 0 0 750 500;" xml:space="preserve">
<style type="text/css">
	.st0{fill:#EBEBEB;}
	.st1{fill:#F0F0F0;}
	.st2{fill:#E6E6E6;}
	.st3{fill:#FAFAFA;}
	.st4{fill:#F5F5F5;}
	.st5{fill:#E0E0E0;}
	.st6{fill:#009FE3;}
	.st7{fill:#FFFFFF;}
	.st8{clip-path:url(#SVGID_00000029745839925248182630000014172630768941136041_);}
	.st9{opacity:0.2;fill:#FFFFFF;enable-background:new    ;}
	.st10{opacity:0.2;}
	.st11{opacity:0.8;fill:#FFFFFF;enable-background:new    ;}
	.st12{fill:#263238;}
	.st13{opacity:0.1;}
	.st14{fill:#7F3E3B;}
	.st15{opacity:0.1;enable-background:new    ;}
	.st16{opacity:0.3;enable-background:new    ;}
	.st17{opacity:0.4;enable-background:new    ;}
	.st18{opacity:0.2;enable-background:new    ;}
	.st19{fill:#BA4D3C;}
	.st20{opacity:0.5;fill:#FFFFFF;enable-background:new    ;}
	.st21{opacity:0.1;fill:#FFFFFF;enable-background:new    ;}
	.st22{fill:#2E353A;}
	.st23{fill:#DE5753;}
	.st24{opacity:0.9;fill:#FFFFFF;enable-background:new    ;}
	.st25{fill:#A02724;}
	.st26{fill:#FF5652;}
	.st27{font-family:'Montserrat-ExtraBold';}
	.st28{font-size:58.494px;}
</style>
<g id="freepik--background-complete--inject-22">
	<rect x="585.9" y="445.3" class="st0" width="41.2" height="0.3"/>
	<rect x="468.6" y="448.7" class="st0" width="10.8" height="0.3"/>
	<rect x="560.8" y="433.8" class="st0" width="23.9" height="0.3"/>
	<rect x="132.3" y="435.9" class="st0" width="53.8" height="0.3"/>
	<rect x="197.2" y="435.9" class="st0" width="7.9" height="0.3"/>
	<rect x="230.7" y="441.1" class="st0" width="116.6" height="0.3"/>
	<rect x="67" y="425.3" class="st0" width="622.6" height="0.3"/>
	<polygon class="st1" points="590.4,230.5 590.4,425.3 550.4,425.3 550.4,256 	"/>
	<polygon class="st2" points="556.5,290.4 556.8,425.1 566.6,425.1 623.4,425.1 633.1,425.1 633.6,290.4 	"/>
	<polygon class="st2" points="571.4,273.2 571.4,303.3 577.5,303.3 612.6,303.3 618.7,303.3 618.7,273.2 	"/>
	<polygon class="st3" points="571.3,303.3 561.4,303.3 561.3,294.3 571.3,294.3 	"/>
	<rect x="580.5" y="294.3" class="st3" width="10" height="9"/>
	<rect x="599.7" y="294.3" class="st3" width="10" height="9"/>
	<polygon class="st1" points="628.8,303.3 618.8,303.3 618.8,294.3 628.8,294.3 	"/>
	<polygon class="st1" points="571.2,319.7 561.5,319.7 561.4,310.9 571.2,310.9 	"/>
	<rect x="580.6" y="310.9" class="st1" width="9.8" height="8.8"/>
	<rect x="599.7" y="310.9" class="st3" width="9.8" height="8.8"/>
	<polygon class="st3" points="628.6,319.7 618.8,319.7 618.8,310.9 628.6,310.9 	"/>
	<polygon class="st1" points="571.1,335.7 561.6,335.7 561.6,327.1 571.1,327.1 	"/>
	<rect x="580.7" y="327.1" class="st3" width="9.5" height="8.6"/>
	<rect x="599.8" y="327.1" class="st3" width="9.5" height="8.6"/>
	<rect x="580.3" y="281.2" class="st3" width="10.2" height="9.2"/>
	<rect x="599.4" y="281.2" class="st1" width="10.2" height="9.2"/>
	<polygon class="st1" points="628.4,335.7 618.9,335.7 618.9,327.1 628.5,327.1 	"/>
	<polygon class="st3" points="571.1,351.3 561.8,351.3 561.8,342.9 571.1,342.9 	"/>
	<rect x="580.9" y="342.9" class="st1" width="9.3" height="8.4"/>
	<rect x="600" y="342.9" class="st1" width="9.3" height="8.4"/>
	<polygon class="st3" points="628.4,351.3 619,351.3 619.1,342.9 628.4,342.9 	"/>
	<polygon class="st1" points="571.5,368.8 561.1,368.8 561.1,359.5 571.5,359.5 	"/>
	<polygon class="st3" points="590.5,368.8 580.2,368.8 580.2,359.5 590.6,359.5 	"/>
	<polygon class="st3" points="609.6,368.8 599.2,368.8 599.2,359.5 609.6,359.5 	"/>
	<polygon class="st1" points="628.7,368.8 618.3,368.8 618.3,359.5 628.7,359.5 	"/>
	<polygon class="st1" points="571.6,383.7 561.4,383.7 561.4,374.6 571.5,374.6 	"/>
	<rect x="580.5" y="374.6" class="st3" width="10.1" height="9.1"/>
	<rect x="599.5" y="374.6" class="st1" width="10.1" height="9.1"/>
	<polygon class="st3" points="628.7,383.7 618.6,383.7 618.6,374.6 628.7,374.6 	"/>
	<polygon class="st3" points="571.3,400.3 561.5,400.3 561.5,391.5 571.3,391.5 	"/>
	<rect x="580.5" y="391.5" class="st3" width="9.9" height="8.8"/>
	<rect x="599.5" y="391.5" class="st1" width="9.9" height="8.8"/>
	<polygon class="st1" points="628.4,400.3 618.5,400.3 618.5,391.5 628.4,391.5 	"/>
	<polygon class="st1" points="571.3,415.5 561.7,415.5 561.7,406.9 571.3,406.9 	"/>
	<polygon class="st3" points="628.3,415.5 618.7,415.5 618.7,406.9 628.4,406.9 	"/>
	<polygon class="st4" points="609.4,406.9 580.6,406.9 580.7,409 581.5,409 581.5,425.1 584.3,425.1 584.3,409 605.7,409 
		605.7,425.1 608.6,425.1 608.6,409 609.5,409 	"/>
	<polygon class="st2" points="595.2,425.1 584.5,425.1 584.5,409 595.2,409 	"/>
	<polygon class="st0" points="605.6,425.1 594.9,425.1 594.9,409 605.6,409 	"/>
	<polygon class="st4" points="406.2,290.4 408.4,425.1 418.2,425.1 475,425.1 484.8,425.1 483.3,290.4 	"/>
	<polygon class="st2" points="411.1,294.3 411.3,310.7 411.4,315.2 411.5,319.7 421.5,319.7 421.4,315.2 421.3,310.7 421.1,294.3 	
		"/>
	<polygon class="st2" points="430.2,294.3 430.5,310.7 430.5,315.2 430.6,319.7 440.6,319.7 440.5,315.2 440.5,310.7 440.2,294.3 	
		"/>
	<polygon class="st2" points="449.4,294.3 449.6,310.7 449.7,315.2 449.7,319.7 459.7,319.7 459.7,315.2 459.6,310.7 459.4,294.3 	
		"/>
	<polygon class="st2" points="468.5,294.3 468.7,310.7 468.8,317.6 468.8,319.7 478.9,319.7 478.8,317.6 478.8,310.7 478.6,294.3 	
		"/>
	<polygon class="st2" points="411.7,327.1 411.9,343.5 412,348 412.1,352.5 422.1,352.5 422,348 422,343.5 421.7,327.1 	"/>
	<polygon class="st2" points="430.8,327.1 431,343.5 431.1,349.8 431.1,352.5 441.2,352.5 441.1,349.8 441,343.5 440.8,327.1 	"/>
	<polygon class="st2" points="449.9,327.1 450.1,343.5 450.2,348 450.2,352.5 460.2,352.5 460.2,348 460.1,343.5 459.9,327.1 	"/>
	<polygon class="st2" points="469,327.1 469.2,343.5 469.2,348 469.3,352.5 479.3,352.5 479.3,348 479.2,343.5 479,327.1 	"/>
	<polygon class="st2" points="412.2,359.5 412.5,375.8 412.6,380.3 412.6,384.8 422.6,384.8 422.6,380.3 422.5,375.8 422.3,359.5 	
		"/>
	<polygon class="st2" points="431.3,359.5 431.5,375.8 431.6,380.3 431.7,384.8 441.7,384.8 441.6,380.3 441.5,375.8 441.3,359.5 	
		"/>
	<polygon class="st2" points="450.4,359.5 450.6,375.8 450.6,380.3 450.7,384.8 460.7,384.8 460.6,380.3 460.6,375.8 460.4,359.5 	
		"/>
	<polygon class="st2" points="469.4,359.5 469.6,375.8 469.7,382 469.7,384.8 479.7,384.8 479.7,382 479.6,375.8 479.4,359.5 	"/>
	<polygon class="st2" points="475,391.5 470,391.5 460.8,391.5 450.9,391.5 441.6,391.5 431.7,391.5 412.5,391.5 412.7,400.3 
		431.8,400.3 441.7,400.3 451,400.3 460.9,400.3 470.1,400.3 475.1,400.3 480,400.3 479.9,391.5 	"/>
	<polygon class="st3" points="460.8,406.9 431.9,406.9 431.9,409 432.8,409 433,425.1 435.9,425.1 435.7,409 457,409 457.3,425.1 
		460.1,425.1 459.9,409 460.7,409 	"/>
	<polygon class="st2" points="446.7,425.1 436,425.1 435.8,409 446.5,409 	"/>
	<polygon class="st2" points="457.1,425.1 446.4,425.1 446.2,409 456.9,409 	"/>
	<polygon class="st2" points="556.1,298.2 556.9,425.1 547.7,425.1 494.2,425.1 485,425.1 483.4,298.2 	"/>
	<polygon class="st1" points="530.4,393.7 534.3,393.7 551.9,393.7 552,397.8 552,401.8 552.1,416.6 543,416.6 542.9,401.4 
		534,401.4 530.5,401.4 525.3,401.4 525.3,393.7 	"/>
	<polygon class="st1" points="495.7,393.7 499.2,393.7 515.9,393.7 516,401.4 498.7,401.4 498.8,416.6 489.7,416.6 489.6,401.8 
		489.5,396 489.5,393.7 	"/>
	<polygon class="st4" points="508.4,408 533.2,408 533.2,410.1 533.5,410.1 533.6,425.1 530.9,425.1 530.8,410.1 510.8,410.1 
		511,425.1 508.3,425.1 508.2,410.1 508.4,410.1 	"/>
	<polygon class="st0" points="520.8,425.1 530.8,425.1 530.7,410.1 520.7,410.1 	"/>
	<polygon class="st5" points="511.1,425.1 521.1,425.1 520.9,410.1 510.9,410.1 	"/>
	<polygon class="st1" points="524,303.3 551.6,303.3 551.8,327.1 524.2,327.1 	"/>
	<polygon class="st1" points="488.1,303.3 515.8,303.3 516,327.1 488.4,327.1 	"/>
	<polygon class="st1" points="524.7,333.2 551.2,333.2 551.4,356 524.9,356 	"/>
	<polygon class="st1" points="488.9,333.2 515.4,333.2 515.6,356 489.2,356 	"/>
	<polygon class="st1" points="525,364.2 551.6,364.2 551.8,387 525.2,387 	"/>
	<polygon class="st1" points="489.3,364.2 515.9,364.2 516.2,387 489.6,387 	"/>
	<polygon class="st2" points="371.8,241.3 371.8,229.5 384.4,229.5 384.4,196.5 388.5,196.5 388.5,229.5 401.1,229.5 401.1,241.3 
		407,241.3 407,425.6 365.9,425.6 365.9,241.3 	"/>
	<path class="st1" d="M123,281.6v144.1h49.3V292.5l-8.9-10.9H123z M159.8,385h8.4v8.4h-8.4V385z M159.8,368.1h8.4v8.4h-8.4V368.1z
		 M159.8,334.5h8.4v8.4h-8.4V334.5z M159.8,317.7h8.4v8.4h-8.4V317.7z M159.8,300.9h8.4v8.4h-8.4V300.9z M143,368.1h8.4v8.4H143
		V368.1z M143,351.3h8.4v8.4H143V351.3z M143,334.5h8.4v8.4H143V334.5z M126.2,385h8.4v8.4h-8.4V385z M126.2,351.3h8.4v8.4h-8.4
		V351.3z M126.2,334.5h8.4v8.4h-8.4V334.5z M126.2,300.9h8.4v8.4h-8.4V300.9z"/>
	<rect x="221.7" y="329.6" class="st2" width="5.3" height="31.8"/>
	<polygon class="st1" points="266,361.5 245.3,361.5 227,361.5 227,329.6 227.8,329.6 231.2,329.6 235.7,329.6 263.6,329.6 
		271.5,329.6 271.5,361.5 	"/>
	<rect x="303.2" y="329.6" class="st1" width="8.4" height="1.5"/>
	<rect x="284.9" y="329.6" class="st1" width="8.2" height="1.5"/>
	<path class="st1" d="M332.9,341.5h-2.1c-0.4,0.1-0.6,0.4-0.6,0.8c0,0.3,0.3,0.5,0.6,0.6h2.1v6.2h-2.1c-0.4,0.1-0.6,0.4-0.6,0.8
		c0,0.3,0.3,0.5,0.6,0.6h2.1v11h-7.9v-31.8h12v2.7C334.5,334.8,333,338.1,332.9,341.5z"/>
	<rect x="172.2" y="361.8" class="st2" width="14.3" height="64.7"/>
	<rect x="225.2" y="425.7" class="st1" width="7.4" height="0.5"/>
	<rect x="295.9" y="425.7" class="st1" width="7.4" height="0.5"/>
	<rect x="253.5" y="425.7" class="st1" width="7.4" height="0.5"/>
	<rect x="281.8" y="425.7" class="st1" width="7.4" height="0.5"/>
	<rect x="267.6" y="425.7" class="st1" width="7.4" height="0.5"/>
	<rect x="239.4" y="425.7" class="st1" width="7.4" height="0.5"/>
	<rect x="338.3" y="425.7" class="st1" width="7.4" height="0.5"/>
	<rect x="324.2" y="425.7" class="st1" width="7.4" height="0.5"/>
	<rect x="310" y="425.7" class="st1" width="7.4" height="0.5"/>
	<rect x="352.4" y="425.7" class="st1" width="7.4" height="0.5"/>
	<path class="st0" d="M186.5,361.5v64.7h32v-0.5h-15.1v-48.8h-5.3c-0.7,0-1.3-0.6-1.3-1.3s0.6-1.3,1.3-1.3h5.3v-8.1h159.6v-4.6h-2.6
		v0.3h-27.6v-0.3h-7.9v1.4h-53.4v-1.4L186.5,361.5z"/>
	<path class="st2" d="M203.4,374.2v-8.1h7.9v8.1H203.4z"/>
	<path class="st2" d="M211.3,425.7h-7.9v-48.8h7.9V425.7z"/>
	<path class="st1" d="M211.3,376.8v48.8h7.2v-10.5c0.1-1.8,1.7-3.3,3.5-3.1c1.7,0.1,3,1.5,3.1,3.1v10.5h7.5v-10.5
		c0.1-1.8,1.7-3.3,3.5-3.1c1.7,0.1,3,1.4,3.1,3.1v10.5h7.5v-10.5c0-1.8,1.5-3.3,3.3-3.3c1.8,0,3.3,1.5,3.3,3.3v10.5h7.5v-10.5
		c0.1-1.8,1.7-3.3,3.5-3.1c1.7,0.1,3,1.4,3.1,3.1v10.5h7.5v-10.5c0.1-1.8,1.7-3.3,3.5-3.1c1.7,0.1,3,1.4,3.1,3.1v10.5h7.5v-10.5
		c0.1-1.8,1.7-3.3,3.5-3.1c1.7,0.1,3,1.4,3.1,3.1v10.5h7.5v-10.5c0-1.8,1.5-3.3,3.3-3.3c1.8,0,3.3,1.5,3.3,3.3v10.5h7.5v-10.5
		c0-1.8,1.5-3.3,3.3-3.3s3.3,1.5,3.3,3.3v10.5h7.5v-10.5c0-1.8,1.5-3.3,3.3-3.3s3.3,1.5,3.3,3.3v10.5h7.5v-10.5
		c0.1-1.8,1.7-3.3,3.5-3.1c1.7,0.1,3,1.4,3.1,3.1v10.5h7.5v-10.5c0.1-1.8,1.7-3.3,3.5-3.1c1.7,0.1,3,1.4,3.1,3.1v10.5h7.2v-48.8
		H211.3z M359.9,401c-0.1-1.8,1.3-3.4,3.1-3.5c1.8-0.1,3.4,1.3,3.5,3.1c0,0.1,0,0.3,0,0.4v4.7h-6.7V401z M345.7,401
		c-0.1-1.8,1.3-3.4,3.1-3.5c1.8-0.1,3.4,1.3,3.5,3.1c0,0.1,0,0.3,0,0.4v4.7h-6.7V401z M331.6,401c0-1.8,1.5-3.3,3.3-3.3
		s3.3,1.5,3.3,3.3v4.7h-6.7V401z M317.5,401c0-1.8,1.5-3.3,3.3-3.3c1.8,0,3.3,1.5,3.3,3.3v4.7h-6.7V401z M303.3,401
		c0-1.8,1.5-3.3,3.3-3.3c1.8,0,3.3,1.5,3.3,3.3v4.7h-6.7V401z M289.2,401c-0.1-1.8,1.3-3.4,3.1-3.5c1.8-0.1,3.4,1.3,3.5,3.1
		c0,0.1,0,0.3,0,0.4v4.7h-6.7V401z M275.1,401c-0.1-1.8,1.3-3.4,3.1-3.5c1.8-0.1,3.4,1.3,3.5,3.1c0,0.1,0,0.3,0,0.4v4.7h-6.7V401z
		 M260.9,401c-0.1-1.8,1.3-3.4,3.1-3.5c1.8-0.1,3.4,1.3,3.5,3.1c0,0.1,0,0.3,0,0.4v4.7h-6.7V401z M246.8,401c0-1.8,1.5-3.3,3.3-3.3
		c1.8,0,3.3,1.5,3.3,3.3v4.7h-6.7V401z M232.7,401c-0.1-1.8,1.3-3.4,3.1-3.5c1.8-0.1,3.4,1.3,3.5,3.1c0,0.1,0,0.3,0,0.4v4.7h-6.7
		V401z M218.5,401c-0.1-1.8,1.3-3.4,3.1-3.5c1.8-0.1,3.4,1.3,3.5,3.1c0,0.1,0,0.3,0,0.4v4.7h-6.7V401z"/>
	<path class="st1" d="M355.5,374.2H211.3v-8.1h162.5v8.1H355.5z"/>
	<path class="st5" d="M220.5,376.8h-22.3c-0.7,0-1.3-0.6-1.3-1.3c0-0.7,0.6-1.3,1.3-1.3h179.7c0.7,0,1.3,0.6,1.3,1.3
		c0,0.7-0.6,1.3-1.3,1.3H220.5z"/>
	<path class="st1" d="M257.1,255v-4.7c0.1-0.6,0.6-1,1.2-1c0.5,0.1,0.9,0.5,1,1v4.7c-0.4,0-0.7,0-1.1,0
		C257.8,255,257.4,255,257.1,255z"/>
	<path class="st1" d="M248.9,265.5v12.1c5.9-2.7,12.6-2.7,18.4,0v-12.1H248.9z M255.3,269.4c0-1.6,1.3-2.9,2.9-2.9
		c1.6,0,2.9,1.3,2.9,2.9c0,0,0,0,0,0v4.1h-5.8V269.4z"/>
	<path class="st1" d="M257.1,255c0.4,0,0.7,0,1.1,0c0.4,0,0.7,0,1.1,0c4.3,0.5,7.7,4,8.1,8.3H249C249.4,259,252.7,255.5,257.1,255z"
		/>
	<path class="st1" d="M235.8,296.8c0.6-12.3,11-21.8,23.4-21.2c6.3,0.3,12.1,3.2,16.1,8.1l-3.8,13.2H235.8z"/>
	<path class="st5" d="M245.9,265.5c-0.6-0.1-1-0.6-1-1.2c0.1-0.5,0.5-0.9,1-1h24.6c0.6,0.1,1,0.6,1,1.2c-0.1,0.5-0.5,0.9-1,1H245.9z
		"/>
	<path class="st1" d="M235.8,299v10.1h35.7v-1.6h-1.6v-4.1c0-1.1,0.6-2.1,1.6-2.6V299H235.8z M260.1,303.5c0-1.6,1.3-2.9,2.9-2.9
		c1.6,0,2.9,1.3,2.9,2.9v4.1h-5.8V303.5z M250.4,303.5c0.1-1.6,1.5-2.8,3.1-2.7c1.5,0.1,2.6,1.3,2.7,2.7v4.1h-5.8V303.5z
		 M240.6,303.5c0.1-1.6,1.5-2.8,3.1-2.7c1.5,0.1,2.6,1.3,2.7,2.7v4.1h-5.8V303.5z"/>
	<path class="st1" d="M235.8,311.3v18.2h4.8v-12.9c-0.1-1.6,1.1-3,2.7-3.1c1.6-0.1,3,1.1,3.1,2.7c0,0.1,0,0.3,0,0.4v12.9h4v-12.9
		c-0.1-1.6,1.1-3,2.7-3.1c1.6-0.1,3,1.1,3.1,2.7c0,0.1,0,0.3,0,0.4v12.9h4v-12.9c0-1.6,1.3-2.9,2.9-2.9c1.6,0,2.9,1.3,2.9,2.9
		c0,0,0,0,0,0v12.9h4v-11h-0.2c-0.7,0-1.3-0.6-1.3-1.3s0.6-1.3,1.3-1.3l0,0h0.3c0.2-0.8,0.8-1.4,1.5-1.8v-2.7L235.8,311.3z"/>
	<path class="st1" d="M284.9,298L284.9,298z"/>
	<path class="st5" d="M271.5,296.9v2.2h-39c-0.6-0.1-1-0.6-1-1.2c0.1-0.5,0.5-0.9,1-1L271.5,296.9L271.5,296.9z"/>
	<path class="st1" d="M284.9,310.2L284.9,310.2z"/>
	<path class="st5" d="M271.5,311.3h-39c-0.6,0-1.1-0.5-1.1-1.1c0-0.6,0.5-1.1,1.1-1.1h39V311.3z"/>
	<path class="st1" d="M284.9,331.1v31.8h26.7v-31.8h-8.4v-3.8c0-2.8-2.3-5.1-5.1-5.1c-2.8,0-5.1,2.3-5.1,5.1c0,0,0,0,0,0v3.8H284.9z
		 M295.5,328.3c-0.1-1.5,1-2.8,2.5-2.9c1.5-0.1,2.8,1,2.9,2.5c0,0.1,0,0.2,0,0.4v8.8h-5.3V328.3z"/>
	<path class="st1" d="M311.6,296.9v18.9h13.4v-18.9l-6.7-23.2L311.6,296.9z M315.4,306.4c0-1.6,1.3-2.8,2.8-2.8
		c1.6,0,2.8,1.3,2.8,2.8v9.4h-5.7V306.4z"/>
	<path class="st1" d="M311.6,318.5v44.4h13.4v-44.4H311.6z M315.4,349.9c0-1.6,1.3-2.8,2.8-2.8c1.6,0,2.8,1.3,2.8,2.8v9.4h-5.7
		V349.9z M315.4,331.1c0-1.6,1.3-2.8,2.8-2.8c1.6,0,2.8,1.3,2.8,2.8v9.4h-5.7V331.1z"/>
	<path class="st5" d="M309.8,318.5c-0.7,0-1.3-0.6-1.3-1.3s0.6-1.3,1.3-1.3l0,0h16.9c0.7,0,1.3,0.6,1.3,1.3s-0.6,1.3-1.3,1.3H309.8z
		"/>
	<path class="st1" d="M271.5,296.9v18.9h13.4v-18.9l-6.7-23.2l-2.9,10L271.5,296.9L271.5,296.9z M275.3,306.4c0-1.6,1.3-2.8,2.8-2.8
		c1.6,0,2.8,1.3,2.8,2.8v9.4h-5.7V306.4z"/>
	<path class="st1" d="M271.5,318.5v44.4h13.4v-44.4H271.5z M275.3,349.9c0-1.6,1.3-2.8,2.8-2.8c1.6,0,2.8,1.3,2.8,2.8v9.4h-5.7
		V349.9z M275.3,331.1c0-1.6,1.3-2.8,2.8-2.8c1.6,0,2.8,1.3,2.8,2.8v9.4h-5.7V331.1z"/>
	<path class="st5" d="M269.7,318.5h16.9c0.7,0,1.3-0.6,1.3-1.3s-0.6-1.3-1.3-1.3h-16.9c-0.7,0-1.3,0.6-1.3,1.3
		S269,318.5,269.7,318.5z"/>
	<path class="st1" d="M346,315.7v0.3c0,0.4,0.3,0.7,0.7,0.7c0.4,0,0.7-0.3,0.7-0.7v-0.3c2.7,0.3,4.7,2.5,5,5.1h-11.4
		C341.2,318.1,343.3,316,346,315.7z"/>
	<path class="st1" d="M340.9,322.2v7.5c3.6-1.6,7.8-1.6,11.4,0v-7.5H340.9z M344.8,324.6c-0.1-1,0.7-1.9,1.6-1.9
		c1-0.1,1.9,0.7,1.9,1.6c0,0.1,0,0.2,0,0.3v2.5h-3.6V324.6z"/>
	<path class="st1" d="M332.9,341.5c0.3-7.6,6.8-13.5,14.4-13.2c7.2,0.3,12.9,6,13.2,13.2H332.9z"/>
	<path class="st5" d="M339.1,322.1c-0.4-0.1-0.6-0.4-0.6-0.8c0-0.3,0.3-0.5,0.6-0.6h15.2c0.4,0.1,0.6,0.4,0.6,0.8
		c0,0.3-0.3,0.5-0.6,0.6H339.1z"/>
	<path class="st1" d="M332.8,342.9v6.2h27.6v-6.2H332.8z M353.9,345.6c0-1,0.8-1.8,1.8-1.8c1,0,1.8,0.8,1.8,1.8v2.5h-3.6V345.6z
		 M347.9,345.6c-0.1-1,0.7-1.9,1.6-1.9c1-0.1,1.9,0.7,1.9,1.6c0,0.1,0,0.2,0,0.3v2.5h-3.6L347.9,345.6z M341.8,345.6
		c-0.1-1,0.7-1.9,1.6-1.9c1-0.1,1.9,0.7,1.9,1.6c0,0.1,0,0.2,0,0.3v2.5h-3.6V345.6z M335.8,345.6c0-1,0.8-1.8,1.8-1.8
		s1.8,0.8,1.8,1.8v2.5h-3.6V345.6z"/>
	<path class="st1" d="M332.8,361.7v-11.2h27.6v11.2H332.8z"/>
	<path class="st1" d="M346,316v-4.8c0-0.4,0.3-0.7,0.7-0.7c0.4,0,0.7,0.3,0.7,0.7v4.8c0,0.4-0.3,0.7-0.7,0.7
		C346.3,316.6,346,316.3,346,316z"/>
	<path class="st5" d="M332.8,342.9h-2.1c-0.4-0.1-0.6-0.4-0.6-0.8c0-0.3,0.3-0.5,0.6-0.6h31.8c0.4,0.1,0.6,0.4,0.6,0.8
		c0,0.3-0.3,0.5-0.6,0.6H332.8z"/>
	<path class="st5" d="M332.8,350.5h-2.1c-0.4-0.1-0.6-0.4-0.6-0.8c0-0.3,0.3-0.5,0.6-0.6h31.8c0.4,0.1,0.6,0.4,0.6,0.8
		c0,0.3-0.3,0.5-0.6,0.6H332.8z"/>
	<path class="st0" d="M183.5,425.2l15.1-0.2l-1.1-54.3l-0.2-12.6v-0.8l-0.2-11.2v-0.7l-0.2-10.6v-0.7l-0.2-10.2v-0.6l-0.2-9.7V313
		l-0.2-9.2v-0.6l-0.1-8.9v-0.6l-0.1-7.7c-0.4,0.3-0.8,0.5-1.2,0.7l0.1,5.6l-5.2-4.8c-0.7,0-1.3-0.1-2-0.2l6.3,5.8h-7.8v-6.2
		c-0.4-0.1-0.9-0.3-1.2-0.6v7.3v0.6l-0.1,8.9v0.6l-0.1,9.3v0.6l-0.1,9.7v0.7l-0.1,10.2v0.7l-0.1,10.7v0.7l-0.1,11.2v0.8l-0.1,12.6
		L183.5,425.2z M185.9,358.5h9.1l-9.1,9.8L185.9,358.5z M186.1,348l9,9.4h-9L186.1,348z M186,334.6h8.6l-8.7,8.9L186,334.6z
		 M186.1,324.9l8.5,8.6H186L186.1,324.9z M186.1,313.5h8.2l-8.3,8.1L186.1,313.5z M186.1,304.5l8.1,7.8h-8.2L186.1,304.5z
		 M194.1,294.4l-7.9,7.3v-7.4L194.1,294.4z M195.2,303.4h-8l7.9-7.4L195.2,303.4z M195.4,312.4l-8.1-7.8h8L195.4,312.4z
		 M195.5,323.6h-8.4l8.3-8.1L195.5,323.6z M195.6,333.3l-8.5-8.5h8.4L195.6,333.3z M195.8,345.5h-8.8l8.7-8.9L195.8,345.5z
		 M195.9,356.1l-9-9.4h8.8L195.9,356.1z M196,369h-9.2l9.1-9.9L196,369z"/>
	<path class="st0" d="M185.2,286.7c0.4,0.2,0.8,0.4,1.2,0.6v-0.9l1.5,1.4c0.7,0.1,1.3,0.2,2,0.2l-3.6-3.3l-0.4,0.4h-0.6L185.2,286.7
		z M194.9,285.1v2c0.4-0.2,0.9-0.4,1.2-0.7v-1.3H194.9z"/>
	<path class="st0" d="M183.4,284.1c-0.1,0.7,0.1,1.3,0.6,1.8l0.4,0.4c0.2,0.2,0.5,0.3,0.7,0.5c0.4,0.2,0.8,0.4,1.2,0.6
		c0.5,0.2,1,0.3,1.5,0.4c0.7,0.1,1.3,0.2,2,0.2h0.9c1.5,0,2.9-0.3,4.2-0.9c0.4-0.2,0.9-0.4,1.2-0.7l0.1-0.1l0.4-0.4
		c0.5-0.4,0.7-1.1,0.6-1.7l-0.9-5.1h2.4l-8.3-4.2l-8.6,3.9h2.5L183.4,284.1z"/>
	<path class="st5" d="M519.1,86.2c0.2-2.3-1.8-3.7-4.7-3.7c-3.1,0-5.9,1.6-7.5,4.1l-8.1-4.6c3.5-5.1,9.3-8.5,17.8-8.5
		c8.8,0,14.8,3.7,14.2,10.8c-0.8,8.9-10.3,10.3-10.8,15.5h-10.2C510.3,92.5,518.7,90.6,519.1,86.2z M507.5,109.1
		c0.4-3.5,3.5-6.1,7-5.9c3.8,0,6.3,2.5,6,5.9c-0.4,3.5-3.5,6.2-7.1,6C509.6,115.1,507.2,112.4,507.5,109.1z"/>
	<path class="st5" d="M260.8,56.9c0.1-1.6-1.2-2.6-3.4-2.6c-2.2,0-4.2,1.1-5.4,2.9l-5.8-3.3c2.5-3.6,6.6-6,12.6-6
		c6.2,0,10.5,2.7,10.1,7.7c-0.5,6.4-7.3,7.3-7.6,11.1h-7.3C254.6,61.3,260.6,60,260.8,56.9z M252.6,73.1c0.3-2.5,2.5-4.4,5-4.2
		c2.7,0,4.5,1.8,4.3,4.2c-0.3,2.5-2.5,4.4-5,4.3c-2.1,0.2-4.1-1.4-4.3-3.5C252.6,73.6,252.6,73.3,252.6,73.1L252.6,73.1z"/>
	<g id="freepik--freepik--speech-bubbles--inject-120--inject-22">
		<path class="st2" d="M354.7,64.4l51.3-0.3c1.5-0.1,2.7,1.1,2.8,2.5c0,0,0,0,0,0c0,0.1,0,0.3,0,0.4l-2.5,23.6
			c-0.2,1.7-1.7,3-3.4,3.1L373.6,94c-3.5,4.1-8.2,6.9-13.5,7.9c0,0,4.9-4.5,6.1-7.9h-14.5c-1.5,0-2.7-1.1-2.8-2.6c0-0.1,0-0.3,0-0.4
			l2.5-23.6C351.5,65.7,353,64.5,354.7,64.4z"/>
	</g>
	<path class="st3" d="M369.8,79.8c0,1.4-1.1,2.5-2.5,2.5s-2.5-1.1-2.5-2.5s1.1-2.5,2.5-2.5S369.8,78.4,369.8,79.8z"/>
	<path class="st3" d="M381.3,79.8c0,1.4-1.1,2.5-2.5,2.5s-2.5-1.1-2.5-2.5s1.1-2.5,2.5-2.5S381.3,78.4,381.3,79.8z"/>
	<path class="st3" d="M392.8,79.8c0,1.4-1.1,2.5-2.5,2.5c-1.4,0-2.5-1.1-2.5-2.5s1.1-2.5,2.5-2.5C391.7,77.3,392.8,78.4,392.8,79.8z
		"/>
</g>
<g id="freepik--Letters--inject-22">
	<path class="st6" d="M185.8,214.8v42.6h74.6v42.3h-74.6v66.5H138V172.4h132.5v42.3L185.8,214.8z"/>
	<path class="st6" d="M378.5,329.4h-71.5l-13.3,37.7H245l74.6-193.8h47.1l74.8,193.8h-49.7L378.5,329.4z M364.6,289l-21.7-62
		l-21.7,62H364.6z"/>
	<path class="st6" d="M618.1,387c-10.7,15.5-28.5,24.6-47.3,24.4c-27.5,0-45.6-10.8-73.9-44.6c-44.4-8.6-75.3-47.9-75.3-99.1
		c0-58.1,39.8-100.8,93.9-100.8c54.1,0,93.9,42.6,93.9,100.8c0,44-22.9,79.2-57.5,93.6c6.8,8.3,12.6,11.1,19.8,11.1
		c9.2,0,18.1-4.7,25.6-13.6L618.1,387z M515.5,323c25.6,0,45.6-21.9,45.6-55.4s-20-55.4-45.6-55.4c-25.6,0-45.6,21.9-45.6,55.4
		S490,323,515.5,323z"/>
	<path class="st7" d="M505.5,173.5c-0.3,0-0.6-0.2-0.7-0.6c0-0.3,0.2-0.6,0.6-0.7c5.2-0.7,10.4-0.9,15.7-0.5c0.3,0,0.6,0.3,0.6,0.7
		c0,0,0,0,0,0c0,0.3-0.3,0.6-0.7,0.6C515.8,172.6,510.7,172.8,505.5,173.5L505.5,173.5z"/>
	<path class="st7" d="M446.1,209.4c-0.1,0-0.3,0-0.4-0.1c-0.3-0.2-0.3-0.6-0.1-0.9c11.9-15.7,27.3-26.9,44.8-32.6
		c0.3-0.1,0.7,0.1,0.8,0.4c0,0,0,0,0,0c0.1,0.3-0.1,0.7-0.4,0.8c-17.2,5.6-32.4,16.7-44.2,32.2C446.5,209.3,446.3,209.4,446.1,209.4
		z"/>
	<path class="st7" d="M183.8,179.2h-9.4c-0.3,0-0.6-0.3-0.6-0.6s0.3-0.6,0.6-0.6h9.4c0.3,0,0.6,0.3,0.6,0.6S184.1,179.2,183.8,179.2
		z"/>
	<path class="st7" d="M144.4,209.4c-0.3,0-0.6-0.3-0.6-0.6v-30.2c0-0.3,0.3-0.6,0.6-0.6h21.9c0.3,0,0.6,0.3,0.6,0.6
		c0,0.3-0.3,0.6-0.6,0.6H145v29.5C145,209.1,144.8,209.4,144.4,209.4C144.4,209.4,144.4,209.4,144.4,209.4z"/>
	<path class="st7" d="M362.5,179.2h-10.9c-0.3,0-0.6-0.3-0.6-0.6c0-0.3,0.3-0.6,0.6-0.6h10.9c0.3,0,0.6,0.3,0.6,0.6
		C363.1,178.9,362.8,179.2,362.5,179.2z"/>
	<path class="st7" d="M310.5,212.9c-0.1,0-0.2,0-0.2,0c-0.3-0.1-0.5-0.5-0.4-0.8c0,0,0,0,0,0l12.6-33.7c0.1-0.2,0.3-0.4,0.6-0.4
		h17.6c0.3,0,0.6,0.3,0.6,0.6s-0.3,0.6-0.6,0.6h-17.1l-12.5,33.3C311,212.8,310.8,212.9,310.5,212.9z"/>
</g>
<g id="freepik--Plant--inject-22">
	<path class="st6" d="M349.3,441c0,0,1.5-7.3,7.2-8.9c5.7-1.6,7.9-3.3,7.9-3.3S362.7,440.1,349.3,441z"/>
	<g>
		<defs>
			<path id="SVGID_1_" d="M349.3,441c0,0,1.5-7.3,7.2-8.9c5.7-1.6,7.9-3.3,7.9-3.3S362.7,440.1,349.3,441z"/>
		</defs>
		<clipPath id="SVGID_00000088812699453103709360000006384030153506780559_">
			<use xlink:href="#SVGID_1_"  style="overflow:visible;"/>
		</clipPath>
		<g style="clip-path:url(#SVGID_00000088812699453103709360000006384030153506780559_);">
			<path class="st9" d="M349.3,441c0,0,1.5-7.3,7.2-8.9c5.7-1.6,7.9-3.3,7.9-3.3S362.7,440.1,349.3,441z"/>
		</g>
	</g>
	<path class="st6" d="M349.5,441c-0.1,0-0.2,0-0.3-0.1c-0.2-0.2-0.2-0.4,0-0.6c0,0,0,0,0,0c2.9-3.2,6.5-5.7,10.5-7.3
		c0.2-0.1,0.4,0,0.5,0.2c0.1,0.2,0,0.4-0.2,0.5c-3.9,1.6-7.4,4-10.2,7.1C349.8,440.9,349.7,441,349.5,441z"/>
	<path class="st6" d="M349.9,446.3c0,0,0.4-11.7-7.7-16.2c-8.1-4.5-10.8-7.9-10.8-7.9S329.9,440.1,349.9,446.3z"/>
	<g class="st10">
		<path class="st7" d="M349.9,446.3c0,0,0.4-11.7-7.7-16.2c-8.1-4.5-10.8-7.9-10.8-7.9S329.9,440.1,349.9,446.3z"/>
	</g>
	<path class="st6" d="M349.2,446c-0.1,0-0.3-0.1-0.3-0.2c-3.7-6.5-8.9-12.1-15.1-16.4c-0.2-0.1-0.2-0.4-0.1-0.6
		c0.1-0.2,0.4-0.2,0.6-0.1c6.3,4.3,11.5,10,15.3,16.6c0.1,0.2,0,0.4-0.2,0.6c0,0,0,0,0,0C349.3,445.9,349.2,446,349.2,446z"/>
	<path class="st6" d="M349.2,450.7l-1.2-0.2c1.8-9.7,1.8-19.6-0.1-29.3l1.2-0.2C351.1,430.7,351.1,440.8,349.2,450.7z"/>
	<path class="st6" d="M345.2,411.8c0.2,1.4,2.3,6.3,3.7,6.1c1.4-0.2,1.7-5.5,1.4-7c-0.3-1.4-1.6-2.4-3-2.1
		C345.9,409.1,344.9,410.4,345.2,411.8z"/>
	<path class="st6" d="M353.2,427.1c-0.2-1.4-2.3-6.3-3.7-6.1c-1.4,0.2-1.7,5.5-1.4,7c0.3,1.4,1.6,2.4,3,2.1
		C352.5,429.9,353.4,428.6,353.2,427.1L353.2,427.1z"/>
	<path class="st6" d="M341.5,423.6c1.4-0.2,6.3-2.3,6.1-3.7s-5.5-1.7-7-1.4c-1.4,0.3-2.4,1.6-2.1,3
		C338.7,422.8,340.1,423.8,341.5,423.6L341.5,423.6z"/>
	<path class="st6" d="M356.8,415.5c-1.4,0.2-6.3,2.3-6.1,3.7c0.2,1.4,5.5,1.7,7,1.4c1.4-0.3,2.4-1.6,2.1-3
		C359.6,416.2,358.3,415.2,356.8,415.5L356.8,415.5z"/>
	<path class="st6" d="M340.9,416.9c1.2,0.8,6.1,2.8,6.9,1.7c0.8-1.2-2.7-5.1-3.9-6c-1.2-0.8-2.8-0.6-3.7,0.6
		C339.4,414.4,339.7,416,340.9,416.9C340.9,416.9,340.9,416.9,340.9,416.9z"/>
	<path class="st6" d="M357.4,422.1c-1.2-0.8-6.1-2.8-6.9-1.7s2.7,5.1,3.9,6c1.2,0.8,2.8,0.5,3.7-0.7
		C358.9,424.5,358.6,422.9,357.4,422.1z"/>
	<path class="st6" d="M346.6,427.7c0.8-1.2,2.8-6.1,1.7-6.9c-1.2-0.8-5.1,2.7-6,3.9c-0.8,1.2-0.5,2.8,0.7,3.7
		C344.2,429.2,345.8,428.9,346.6,427.7z"/>
	<path class="st6" d="M351.8,411.2c-0.8,1.2-2.8,6.1-1.7,6.9c1.2,0.8,5.1-2.7,6-3.9c0.8-1.2,0.6-2.8-0.6-3.7S352.6,410,351.8,411.2
		C351.8,411.2,351.8,411.2,351.8,411.2z"/>
	<path class="st6" d="M346.1,420c0.3,1.7,1.9,2.8,3.6,2.5c1.7-0.3,2.8-1.9,2.5-3.6c-0.3-1.7-1.9-2.8-3.6-2.5c0,0,0,0,0,0
		C346.9,416.7,345.8,418.3,346.1,420z"/>
	<path class="st11" d="M346.1,420c0.3,1.7,1.9,2.8,3.6,2.5c1.7-0.3,2.8-1.9,2.5-3.6c-0.3-1.7-1.9-2.8-3.6-2.5c0,0,0,0,0,0
		C346.9,416.7,345.8,418.3,346.1,420z"/>
	<polygon class="st12" points="356.3,465.8 339.1,465.8 335.1,449.4 360.4,449.4 	"/>
	<polygon class="st12" points="356.9,463.2 356.9,467.7 353.5,467.7 353.5,466.9 350.3,466.9 350.3,467.7 344.6,467.7 344.6,466.9 
		341.4,466.9 341.4,467.7 338.5,467.7 338.5,463.2 	"/>
</g>
<g id="freepik--character-4--inject-22">
	<path class="st12" d="M528.7,311.5h6.3c1.1-8.9,1.4-17.9,0.9-26.9c-0.9-14.1,1.5-14.9-3.6-23.5c-0.6-1.1-1.4-2-2.4-2.8
		c-1-0.7-2.4-0.8-3.5-0.2C525.4,258.8,528.8,292.5,528.7,311.5z"/>
	<g class="st13">
		<path d="M528.7,311.5h6.3c1.1-8.9,1.4-17.9,0.9-26.9c-0.9-14.1,1.5-14.9-3.6-23.5c-0.6-1.1-1.4-2-2.4-2.8c-1-0.7-2.4-0.8-3.5-0.2
			C525.4,258.8,528.8,292.5,528.7,311.5z"/>
	</g>
	<polygon class="st14" points="572,378.6 574.9,393.4 582,393.2 580.7,377.6 	"/>
	<path class="st6" d="M582.6,393.2c-0.1,0-0.1-0.1-0.1-0.1c0-0.1,0-0.1,0.1-0.2c0.1,0,2.7-1.2,3.8-0.8c0.2,0.1,0.4,0.2,0.5,0.4
		c0.2,0.2,0.2,0.5,0,0.7c-0.6,0.4-1.4,0.5-2.1,0.3C584.1,393.5,583.4,393.4,582.6,393.2z M583.2,393c1.2,0.3,3.1,0.4,3.4,0
		c0-0.1,0.1-0.1,0-0.4c-0.1-0.1-0.2-0.2-0.3-0.3c-0.1,0-0.2-0.1-0.3-0.1C585,392.4,584.1,392.6,583.2,393L583.2,393z"/>
	<path class="st6" d="M582.6,393.2c0,0-0.1-0.1-0.1-0.2c0.2-1,0.6-1.9,1.3-2.6c0.3-0.2,0.6-0.3,0.9-0.2c0.4,0.1,0.6,0.3,0.6,0.5
		c0.1,0.8-1.7,2.2-2.6,2.5h-0.1C582.6,393.2,582.6,393.2,582.6,393.2z M584.6,390.5c-0.2,0-0.4,0-0.6,0.1c-0.6,0.6-1,1.3-1.1,2.1
		c0.9-0.4,2.1-1.5,2.1-2C585,390.7,585,390.6,584.6,390.5L584.6,390.5z"/>
	<path class="st12" d="M582,392.2l-7.6-0.7c-0.3,0-0.6,0.2-0.6,0.4l-1.9,6.1c-0.1,0.5,0.1,1.1,0.6,1.2h0.2c2.8,0.2,5.2,0.3,8.6,0.6
		c4,0.4,3,0.8,7.7,1.2c2.9,0.3,3.7-2.9,2.5-3.2c-5.5-1.2-5.9-2.9-7.9-5.1C583.2,392.4,582.6,392.2,582,392.2z"/>
	<polygon class="st15" points="573.8,388.1 581.5,387 580.7,377.6 572,378.6 	"/>
	<path class="st6" d="M530.3,302.8c0,0,45.1,0.1,47.2,12.5c2.2,12.4,5.3,68.5,5.3,68.5l-10.4,1.5c0,0-7.4-31.1-12-62.8
		c0,0-47.8,4.2-50.3-2.4c-2.5-6.6-0.5-16.7-0.5-16.7L530.3,302.8z"/>
	<path class="st16" d="M530.3,302.8c0,0,45.1,0.1,47.2,12.5c2.2,12.4,5.3,68.5,5.3,68.5l-10.4,1.5c0,0-7.4-31.1-12-62.8
		c0,0-47.8,4.2-50.3-2.4c-2.5-6.6-0.5-16.7-0.5-16.7L530.3,302.8z"/>
	<polygon class="st6" points="571.4,386.7 584.2,384.8 584,380.2 570.3,381.9 	"/>
	<path class="st17" d="M550.2,319.4c0,0.1,0,0.2,0,0.3c0-1.5-0.1-3-0.3-4.5c-1.4-8.3-23-11.3-31.9-12.3l-10.8,0.3
		c0,0-1.7,8.5,0.4,14.1C509.7,322.9,550.2,319.4,550.2,319.4z"/>
	<path class="st12" d="M531.9,275.9l-2.5,20.3c0.9,1.9,3.1,6.7,1.7,6.7c-1.8,0-12.7,7.5-12.7,7.5l-19.7-7.9l1.4-5.6
		c-0.4-1.8-2.2-12.1-3.7-21.3l-0.1-0.8l-1.5-9.8l-0.5-3.5l0,0l0,0c-0.2-1.5-0.6-2.7-0.7-3.6c0-0.2,0-0.4,0-0.6
		c0.1-0.4,0.3-0.8,0.6-1.1l0.1-0.1l0.4-0.3c7.2-5.2,25.8-0.4,31.3,1c0.8,0.2,2.3,1.1,2.2,1.9l1,2.8l2,6c0.2,0.6,0.4,1.2,0.5,1.8
		C532,271.5,532.2,273.7,531.9,275.9z"/>
	<polygon class="st14" points="546.9,379.7 547.4,394.5 554.5,394.3 555.5,378.7 	"/>
	<path class="st6" d="M555,394.5c-0.1,0-0.1-0.1-0.1-0.2c0-0.1,0.1-0.1,0.1-0.1c0.1,0,2.9-0.6,3.9,0.1c0.2,0.1,0.3,0.3,0.4,0.5
		c0.1,0.3,0,0.5-0.2,0.7c-0.7,0.2-1.5,0.2-2.1-0.1C556.3,395.1,555.6,394.8,555,394.5z M555.5,394.5c1.2,0.6,2.9,1.1,3.3,0.7
		c0.1,0,0.1-0.1,0.1-0.3c0-0.1-0.1-0.3-0.2-0.3c-0.1-0.1-0.2-0.1-0.3-0.1C557.5,394.2,556.5,394.2,555.5,394.5L555.5,394.5z"/>
	<path class="st6" d="M554.9,394.4c0,0,0-0.1,0-0.2c0-0.1,0.8-1.8,1.9-2.3c0.3-0.1,0.7-0.1,1,0c0.4,0.2,0.5,0.4,0.4,0.6
		c-0.1,0.8-2.2,1.7-3.1,1.8H555C555,394.5,554.9,394.5,554.9,394.4z M557.5,392.3c-0.2-0.1-0.4-0.1-0.6,0c-0.7,0.4-1.2,1-1.5,1.8
		c1-0.2,2.4-1,2.5-1.5C557.8,392.6,557.8,392.4,557.5,392.3L557.5,392.3z"/>
	<path class="st12" d="M554.6,393.3l-7.3-2.3c-0.3-0.1-0.6,0-0.7,0.3l-3.2,5.5c-0.3,0.5-0.1,1.1,0.3,1.4c0,0,0,0,0,0l0.2,0.1
		c2.7,0.8,5,1.4,8.3,2.5c3.9,1.2,2.7,1.4,7.3,2.9c2.7,0.9,4.2-2,3.1-2.6c-5.1-2.4-5.1-4.2-6.6-6.7
		C555.7,393.9,555.2,393.5,554.6,393.3z"/>
	<path class="st12" d="M518.6,304c0,0,40.1,2.5,42.2,14.9s-4.7,66.7-4.7,66.7l-10.4,0.7c0,0-2.3-36.8-2-60.2c0,0-42.8,2.6-45.3-4
		s-0.5-17.5-0.5-17.5L518.6,304z"/>
	<path class="st6" d="M518.6,304c0,0,40.1,2.5,42.2,14.9s-4.7,66.7-4.7,66.7l-10.4,0.7c0,0-2.3-36.8-2-60.2c0,0-36.9,3.9-45.6-2.1
		c-9.6-6.6,0.4-21.7,0.4-21.7L518.6,304z"/>
	<path class="st18" d="M518.6,304c0,0,40.1,2.5,42.2,14.9s-4.7,66.7-4.7,66.7l-10.4,0.7c0,0-2.3-36.8-2-60.2c0,0-36.9,3.9-45.6-2.1
		c-9.6-6.6,0.4-21.7,0.4-21.7L518.6,304z"/>
	<polygon class="st6" points="544.5,387.7 557.3,386.9 557.7,381.9 543.6,382.8 	"/>
	<path class="st14" d="M509,241c0.5,4.1,0.9,10-2.1,12.5c3.6,2.5,2.8,5.9,5.4,9.4c0.4,0.5,5.2,0.2,5.7-0.2c0.1-0.1,0.9,0.1,1,0
		c3.5-5.4,0.4-8.4,0.4-8.4c-2.3,1.2-2.3-2.9-1.2-6L509,241z"/>
	<path class="st18" d="M517.5,252.6c0-1.4,0.2-2.9,0.6-4.3l-1.6-1.3l-5-2.8C510.3,247,514.1,251.5,517.5,252.6z"/>
	<path class="st12" d="M522.6,223.8c7.3,6,7.6,11.2,7.7,14.8c-0.1,3.6-0.7,7.1-1.8,10.5c-4.1-2.8-7.4-6.8-8.3-11.7
		C519.1,232.8,519.9,227.9,522.6,223.8z"/>
	<path class="st14" d="M509.3,231.5c-1.1,6.6-1.8,9.5,0.7,13.5c3.7,6.2,12.2,6.2,15.3,0c2.8-5.6,4.2-15.5-1.6-19.6
		c-4.1-3-9.9-2-12.8,2.1C510,228.7,509.5,230.1,509.3,231.5L509.3,231.5z"/>
	<path class="st19" d="M523.2,237.7c0.2,1.3,0.6,2.6,1.1,3.9c-0.6,0.3-1.4,0.2-2-0.1L523.2,237.7z"/>
	<path class="st12" d="M521.6,243.8c0.3,0.1,0.5,0.1,0.8,0.1c0.1,0,0.1-0.1,0.1-0.2c0-0.1-0.1-0.1-0.1-0.1c-1.4,0-2.7-0.7-3.5-1.9
		c0-0.1-0.1-0.1-0.2-0.1s-0.1,0.1-0.1,0.2l0,0C519.4,242.9,520.4,243.6,521.6,243.8z"/>
	<path class="st12" d="M518.6,232c0.1,0.1,0.3,0.1,0.4,0c1-0.5,2.1-0.5,3.1-0.2c0.2,0.1,0.4,0,0.4-0.1c0.1-0.2,0-0.4-0.1-0.4
		c0,0-0.1,0-0.1,0c-1.2-0.4-2.5-0.4-3.6,0.2C518.5,231.6,518.4,231.8,518.6,232C518.5,232,518.6,232,518.6,232z"/>
	<path class="st12" d="M527.7,234.5c0.1,0.1,0.3,0.1,0.5,0c0.1-0.1,0.1-0.2,0.1-0.3c-0.3-1-1.1-1.8-2-2.1c-0.2,0-0.3,0.1-0.4,0.2
		c0,0,0,0,0,0c0,0.2,0.1,0.4,0.2,0.4c0.8,0.3,1.4,0.9,1.6,1.7C527.6,234.4,527.6,234.5,527.7,234.5z"/>
	<path class="st12" d="M509.2,257c0,0,7.6,5.3,10.6,0.1v5l-0.1,6l-1,1.4l-1.9-0.6l-2.2-4.1l-0.9-1.5L509.2,257z"/>
	<path class="st6" d="M507.3,253c0,0,8.4,11.6,10.5,15.2s0.7-13.7,0.7-13.7s1.2-1.3,3.4,0.7c0,0,2.4,7.7,2.1,8.3
		c-0.3,0.6-3.1,0.9-3.1,0.9s1.6,1.9,1.3,3c-0.7,1.4-1.9,2.5-3.4,3.1c-1,0.1-7.7-3.2-8-4.1s1.7-2.3,1.7-2.3s-4.8,0.2-5.4-1.6
		s-3.2-9.6-3.2-9.6c0.8-0.9,2.1-1,3.1-0.2C507.1,252.7,507.2,252.9,507.3,253z"/>
	<path class="st20" d="M507.3,253c0,0,8.4,11.6,10.5,15.2s0.7-13.7,0.7-13.7s1.2-1.3,3.4,0.7c0,0,2.4,7.7,2.1,8.3
		c-0.3,0.6-3.1,0.9-3.1,0.9s1.6,1.9,1.3,3c-0.7,1.4-1.9,2.5-3.4,3.1c-1,0.1-7.7-3.2-8-4.1s1.7-2.3,1.7-2.3s-4.8,0.2-5.4-1.6
		s-3.2-9.6-3.2-9.6c0.8-0.9,2.1-1,3.1-0.2C507.1,252.7,507.2,252.9,507.3,253z"/>
	<path class="st14" d="M506.3,236.3c0.2,1.3,0.9,2.5,1.9,3.2c1.4,1,2.7-0.1,2.8-1.7c0.1-1.6-0.5-3.7-2.1-4.2
		c-1.2-0.2-2.4,0.5-2.6,1.7C506.3,235.7,506.3,236,506.3,236.3L506.3,236.3z"/>
	<path class="st12" d="M548.3,238.4l4.6,0.7c1.2,0.2,2,1.3,1.8,2.5l-2.5,16.6c-0.2,1.2-1.3,2-2.5,1.8l-4.6-0.7
		c-1.2-0.2-2-1.3-1.8-2.5l2.5-16.6C546,239,547.1,238.2,548.3,238.4z"/>
	<path class="st14" d="M538.6,258.5l3.3-2c0,0,1.3-4.2,2.7-4.6c1-0.7,2.1-1.4,3.2-2.1c1.7-0.8,2.6,0.4,2.6,3s0.9,4.2-1.6,5.4
		c-2.6,1.2-3.7,1.7-3.7,1.7l-4.3,3.3L538.6,258.5z"/>
	<path class="st18" d="M510.2,266.9c-1.9,1.5-4,2.9-6,4.3c-2.4,1.6-5.1,2.8-8,3.5l-1.5-9.8c-0.2-0.2-0.4-0.5-0.5-0.8v-2.7v-0.9
		L510.2,266.9z"/>
	<path class="st12" d="M541.4,263.3l-1.5,1c-3,1.9-5.6,3.5-8.3,5c-4.3,2.4-8.9,4.4-13.5,6c-4.7-1.4-9.4-2.3-13.8-4.1
		c-0.2-0.1-0.5-0.2-0.8-0.3c-2.1-0.9-4.1-1.9-6-3.2c-1-0.7-2-1.6-2.7-2.7c-0.2-0.2-0.4-0.5-0.5-0.8c-0.4-0.6-0.7-1.2-0.9-1.8
		c-0.6-1.7-0.5-3.5,0.2-5.1c0.2-0.4,0.4-0.9,0.7-1.2c0-0.1,0.1-0.1,0.1-0.2l0.2-0.1c5.5-2.5,8.9-0.6,11.8,3.4
		c3.8,1.1,7.5,3.9,13.2,3.9c3.2,0,6.4-0.5,9.5-1.5c2-0.7,4.3-1.6,7.2-2.8l2.1-0.9l0.5,0.6c1,1.3,1.8,2.8,2.4,4.4
		C541.3,262.9,541.4,263.1,541.4,263.3z"/>
	<path class="st21" d="M541.4,263.3l-1.5,1c-3,1.9-5.6,3.5-8.3,5c-4.3,2.4-8.9,4.4-13.5,6c-4.7-1.4-9.4-2.3-13.8-4.1
		c-0.2-0.1-0.5-0.2-0.8-0.3c-2.1-0.9-4.1-1.9-6-3.2c-1-0.7-2-1.6-2.7-2.7c-0.2-0.2-0.4-0.5-0.5-0.8c-0.4-0.6-0.7-1.2-0.9-1.8
		c-0.6-1.7-0.5-3.5,0.2-5.1c0.2-0.4,0.4-0.9,0.7-1.2c0-0.1,0.1-0.1,0.1-0.2l0.2-0.1c5.5-2.5,8.9-0.6,11.8,3.4
		c3.8,1.1,7.5,3.9,13.2,3.9c3.2,0,6.4-0.5,9.5-1.5c2-0.7,4.3-1.6,7.2-2.8l2.1-0.9l0.5,0.6c1,1.3,1.8,2.8,2.4,4.4
		C541.3,262.9,541.4,263.1,541.4,263.3z"/>
	<polygon class="st6" points="542.7,263.5 540.8,265.9 536,258.3 538.4,256.5 	"/>
	<polygon class="st20" points="542.7,263.5 540.8,265.9 536,258.3 538.4,256.5 	"/>
	<path class="st12" d="M519.5,222.2c-4.5-3.5-11.8,0.1-15,4.8c-3.2,4.9-2.9,11.3,0.8,15.8c2.1,2.4,5.3,3.4,8.2,4.7
		c-0.7-4-0.1-8.2,1.7-11.8c1.9-3.6,5-6.6,8.7-8.3C522.7,225.5,521.2,223.8,519.5,222.2z"/>
	<path class="st12" d="M519.5,222.2c2.9,3.1,4.6,4.2,5.3,5.5c2.5,1.8,4.5,7.6,5.4,10.5C531.1,232.8,526.3,222.8,519.5,222.2z"/>
	<path class="st12" d="M525.3,237.1c-0.1,0.5,0.1,1,0.4,1.1c0.3,0.1,0.7-0.3,0.9-0.8s-0.1-1-0.4-1.1
		C525.9,236.3,525.5,236.6,525.3,237.1z"/>
	<path class="st12" d="M527.2,236.5l-1.2-0.2l0,0c0,0,0,0.4,0,0.6C526.4,237,526.9,236.9,527.2,236.5z"/>
	<path class="st12" d="M519.3,235.7c-0.1,0.5,0.1,1,0.4,1.1s0.7-0.3,0.9-0.8c0.1-0.5,0-1-0.4-1.1
		C519.7,234.8,519.4,235.2,519.3,235.7z"/>
	<path class="st12" d="M521.3,235.1l-1.2-0.2l0,0v0.6C520.5,235.6,521,235.5,521.3,235.1z"/>
</g>
<g id="freepik--character-3--inject-22">
	<path class="st14" d="M451,380.6c-13.7,16.7-46.2,46.8-46.2,46.8l-6.2-4.1c0,0,23.7-40.1,35.2-47.7c-9.7-15.4-41.2-70.1-41.2-70.1
		l22.4-8.1c0,0,25.4,48.7,37.1,71.6C454.1,372.8,453.6,377.3,451,380.6z"/>
	<path class="st14" d="M381,309.8c0,0,20,54.9,27.6,77.9c6.7,20.4,26.8,70.3,26.8,70.3l7.2-2.5c0,0-12.7-56.2-18.5-77.2
		c-5.3-19.3-18.4-77.4-18.4-77.4L381,309.8z"/>
	<path class="st12" d="M406.1,429.5c1.1,5.8,1.9,6.6,4.8,11.8c0.6,1.1-2.2,2.6-4.3,0.3c-3.4-3.7-3.4-3.9-6.3-7
		c-2.5-2.7-5.4-5.8-7.5-7.9c-0.1-0.1-0.1-0.1-0.2-0.2c-0.3-0.5-0.1-1.2,0.4-1.5l5.9-3.4c0.3-0.1,0.6-0.1,0.8,0.1l5.5,6
		C405.7,428.2,406,428.8,406.1,429.5z"/>
	<path class="st6" d="M405,429L405,429c0.6,1,1.9,2.8,2.9,2.9c0.3,0.1,0.7-0.1,0.9-0.3c0.1-0.1,0.2-0.3,0.1-0.5
		c-0.2-1-3.4-2.2-3.7-2.3c-0.1,0-0.1,0-0.2,0C405,428.8,404.9,428.9,405,429C405,429,405,429,405,429z M408.6,431.1L408.6,431.1
		c0,0.1,0,0.2-0.1,0.2c-0.1,0.2-0.3,0.2-0.6,0.2c-0.6-0.1-1.5-0.9-2.4-2.3C406.8,429.8,408.4,430.5,408.6,431.1z"/>
	<path class="st6" d="M405,429C405,429,405.1,429.1,405,429c1,0.5,3.4,0.7,3.9,0.1c0.2-0.3,0.1-0.6-0.1-0.8
		c-0.2-0.3-0.5-0.5-0.9-0.5c-1.1,0-2.1,0.4-2.9,1.1C405,428.8,405,428.9,405,429L405,429z M408.7,428.6c0,0.1,0,0.1,0,0.2
		c-0.3,0.4-2.1,0.4-3.1,0c0.7-0.5,1.5-0.8,2.4-0.8c0.3,0,0.5,0.2,0.6,0.4C408.6,428.5,408.6,428.5,408.7,428.6z"/>
	<path class="st14" d="M424.1,260.8c-2.4-3.9-16.5-10.8-17.6-11.4l-3.9,9.1c5.6,3.3,13.9,7.8,13.4,10.9L424.1,260.8z"/>
	<path class="st6" d="M413.1,250.2c-4.9-2.8-16.6-11.2-22.1-5.7c0,0-3.3,7.4,5,12.3c3.4,2,9,5.6,11.2,6.9L413.1,250.2z"/>
	<g class="st10">
		<path d="M413.1,250.2c-4.9-2.8-16.6-11.2-22.1-5.7c0,0-3.3,7.4,5,12.3c3.4,2,9,5.6,11.2,6.9L413.1,250.2z"/>
	</g>
	<g id="freepik--freepik--Character--inject-452--inject-22">
		<path class="st12" d="M443.1,454.9c2,0.9,6.2,1.3,11.6,0.9c1.2-0.1,1.7,2.7-1.1,3.5c-2.7,0.8-8.7,2.5-10.7,3.1
			c-3.2,1-5,1.8-7.6,2.5c-0.1,0-0.1,0-0.2,0c-0.5,0-1-0.3-1.1-0.9c0,0,0,0,0,0l-0.5-6.2c0-0.3,0.2-0.5,0.4-0.6l7.9-2.5
			C442.3,454.6,442.8,454.7,443.1,454.9z"/>
		<path class="st6" d="M367.1,250.7c0.9-0.4,1.8-0.8,2.7-1.2c4.7-2,9.6-3.7,14.5-5.2c0.6-0.2,1.3-0.3,1.8-0.4
			c2.1-0.5,4.2-0.8,6.3-1.1c1.6-0.2,3.1,0.5,3.9,1.9c2.6,4.3,8.5,16.8,18.8,53l-34.2,12.3c-1.1-2.6-3.1-10.4-6.5-20.6
			c-1.5-4.3-3.2-9-5.3-13.9c-2.9-7-6.3-13.8-10.3-20.3C361.5,253.5,364.2,252,367.1,250.7z"/>
		<path class="st18" d="M367.1,250.7c0.9-0.4,1.8-0.8,2.7-1.2c4.7-2,9.6-3.7,14.5-5.2c0.6-0.2,1.3-0.3,1.8-0.4
			c2.1-0.5,4.2-0.8,6.3-1.1c1.6-0.2,3.1,0.5,3.9,1.9c2.6,4.3,8.5,16.8,18.8,53l-34.2,12.3c-1.1-2.6-3.1-10.4-6.5-20.6
			c-1.5-4.3-3.2-9-5.3-13.9c-2.9-7-6.3-13.8-10.3-20.3C361.5,253.5,364.2,252,367.1,250.7z"/>
		<path class="st18" d="M363.9,264.2c1.9,3.7,3.6,7.5,5.2,11.2c0.4,1,0.8,2,1.2,2.9c1.6-5.3,1.6-11,0-16.4L363.9,264.2z"/>
		<path class="st6" d="M402.7,301.8c0,0,0.5,0.2,10.6,38.9l14.5,29.7l23.2-9.2l-35.9-64.5L402.7,301.8z"/>
		<g class="st13">
			<path class="st7" d="M402.7,301.8c0,0,0.5,0.2,10.6,38.9l14.5,29.7l23.2-9.2l-35.9-64.5L402.7,301.8z"/>
		</g>
		<path class="st18" d="M424.3,363.2c-6-11.6-12.8-25.2-18.7-34.5l2.3-3.9C414.8,329.5,421.5,351.3,424.3,363.2z"/>
		<path class="st6" d="M381,309.8l10.5,40.1c4.8,22.1,8.1,28.9,8.1,28.9l24.1-7l-9.8-38.8c-5.3-19.2-8.2-32.2-8.2-32.2L381,309.8z"
			/>
		<g class="st13">
			<path class="st7" d="M381,309.8l10.5,40.1c4.8,22.1,8.1,28.9,8.1,28.9l24.1-7l-9.8-38.8c-5.3-19.2-8.2-32.2-8.2-32.2L381,309.8z"
				/>
		</g>
		<path class="st6" d="M444.4,455.3c0.5-0.1,0.9-0.4,1.1-0.7c0.2-0.3,0.2-0.6,0.1-0.9c-0.1-0.2-0.2-0.3-0.4-0.3
			c-0.8-0.1-2.5,1.8-2.7,2c0,0.1,0,0.1,0,0.2c0,0.1,0.1,0.1,0.1,0.1C443.3,455.6,443.9,455.5,444.4,455.3z M445,453.7
			c0.1,0,0.1,0,0.2,0c0.1,0,0.1,0.1,0.1,0.1c0.1,0.2,0.1,0.4,0,0.6c-0.6,0.6-1.4,0.9-2.3,0.8C443.6,454.7,444.3,454.1,445,453.7
			L445,453.7z"/>
		<path class="st6" d="M442.7,455.6L442.7,455.6c0.6-0.6,1.5-2.4,1.1-3.1c-0.1-0.2-0.4-0.3-0.6-0.2c-0.2,0-0.5,0.2-0.6,0.4
			c-0.3,0.9-0.4,1.9-0.1,2.9C442.5,455.6,442.5,455.6,442.7,455.6L442.7,455.6z M443.2,452.6L443.2,452.6c0.3-0.1,0.3,0,0.3,0.1
			c0.2,0.4-0.3,1.7-0.8,2.5c-0.2-0.8-0.1-1.5,0.1-2.3C442.9,452.8,443.1,452.6,443.2,452.6z"/>
		<path class="st14" d="M359,258.9c-0.5,1.2-0.9,2.4-1.3,3.6c-0.4,1.2-0.8,2.3-1.1,3.5c-0.7,2.4-1.4,4.8-1.9,7.2
			c-1.2,5-1.8,10.1-1.8,15.2c0,0.1,0,0.2,0,0.4v0.5c0,0.3,0.1,0.6,0.1,0.9c0.1,0.5,0.2,1.1,0.4,1.6l0.3,0.7c0.1,0.2,0.2,0.4,0.3,0.6
			l0.3,0.6l0.3,0.5c0.8,1.2,1.8,2.4,2.8,3.5c1.9,1.8,3.9,3.5,6,5c4.1,2.8,8.5,5.3,13,7.3l2.6-4.4c-1.8-1.4-3.6-2.9-5.4-4.4
			c-1.8-1.5-3.5-3-5.2-4.5c-1.6-1.5-3.1-3-4.5-4.7c-0.6-0.7-1.1-1.4-1.5-2.2l-0.1-0.2l-0.1-0.2v-0.2c0,0,0-0.1,0-0.1v-0.2l0,0v-0.1
			c0.2-2.2,0.5-4.3,0.9-6.4c0.4-2.2,0.9-4.4,1.5-6.6c0.6-2.2,1.2-4.4,1.9-6.5c0.3-1.1,0.7-2.2,1.1-3.3l1.1-3.2L359,258.9z"/>
		<path class="st6" d="M370.9,264.2c-1.2,8.3-3.3,17.1-3.3,17.1l-15.7-6.8c0,0,1.1-16.5,6.9-19.5
			C365.8,251.4,372.3,255.1,370.9,264.2z"/>
		<path class="st18" d="M370.9,264.2c-1.2,8.3-3.3,17.1-3.3,17.1l-15.7-6.8c0,0,1.1-16.5,6.9-19.5
			C365.8,251.4,372.3,255.1,370.9,264.2z"/>
		<path class="st14" d="M375.4,309.3c1,3.1,6.9,1.8,6.9,1.8l0.1-8.7l-6.2,2.8L375.4,309.3z"/>
		<polygon class="st14" points="382.4,302.5 382.4,311.1 387.6,311 387.9,303.8 		"/>
	</g>
	<path class="st14" d="M370.4,249.7l0.7,0.5c0.9,0.6,1.8,1.2,2.8,1.8l0,0c3,0.9,6.2,1.5,9.4,1.6c1-0.8,1.9-1.7,2.6-2.7
		c0.1-0.7,0.1-1.4-0.1-2.1c-0.1-0.3-0.3-0.6-0.5-0.9c-1.3-0.2-2.5-0.8-3.3-1.8c-0.1-0.2-0.3-0.4-0.4-0.6c-0.8-1.8-1.1-3.8-0.8-5.7
		l-10.4-6.2C372,237.8,374.2,246.2,370.4,249.7z"/>
	<path class="st18" d="M375,238.7c0.6,2.1,4.3,5.8,5.8,3.8c-0.1-0.9-0.1-1.8,0-2.7l-6.2-3.7C374.6,236.9,374.7,237.8,375,238.7z"/>
	<path class="st12" d="M383,227.1l1.1,2.8c0,0,4.1,0,4.8-0.5c-0.6-0.7-1-1.7-1.2-2.6c0.1-1.2,1.8-1.5,2.1-2.7c0.3-1.2-0.3-5-1.4-5.1
		s-7.4,0.1-7.4,0.1C376.6,221.3,383,227.1,383,227.1z"/>
	<path class="st14" d="M372,220.6c2.4-4.3,7.8-5.9,12.2-3.5c0,0,0,0,0,0c6.1,3.3,5.8,13.1,3.7,18.8c-2.3,6.3-10.7,8.3-15.1,2.7
		c-2.9-3.7-2.3-7.5-2-14.1C371,223.2,371.4,221.8,372,220.6z"/>
	<path class="st12" d="M371.3,236.3l-0.6-3.9l4.4,1.7c0,0-2.1-5-1.7-7.3c0.1-1.2,1.3-1.5,1.6-2.7c0.3-1.2-0.3-5.1-1.4-5.1
		c-1.1,0-6.4,0-6.4,0C362.6,221.3,371.3,236.3,371.3,236.3z"/>
	<path class="st12" d="M381.3,227.1c0.3,0,0.6,0.5,0.5,1c-0.1,0.5-0.4,0.9-0.7,0.9s-0.6-0.5-0.5-1C380.6,227.4,381,227,381.3,227.1z
		"/>
	<path class="st12" d="M386.9,227.5c0.3,0,0.7,0.4,0.7,0.9c0,0.5-0.2,1-0.6,1c-0.3,0-0.7-0.4-0.7-0.9
		C386.3,227.9,386.5,227.5,386.9,227.5z"/>
	<path class="st19" d="M384,233.2c0.8,0.3,1.8,0.3,2.6-0.2c-0.9-1.5-1.6-3.1-2-4.8L384,233.2z"/>
	<path class="st12" d="M379.2,224.9L379.2,224.9c-0.1-0.1-0.1-0.3,0-0.4c0.7-0.7,1.8-1,2.8-0.8l0,0c0.2,0,0.3,0.2,0.2,0.4
		c0,0.2-0.2,0.3-0.4,0.2c-0.8-0.1-1.6,0.1-2.2,0.6c-0.1,0.1-0.2,0.1-0.3,0.1C379.2,225,379.2,225,379.2,224.9z"/>
	<path class="st12" d="M388.5,225.6c-0.4-0.7-1.1-1.1-1.9-1.2l0,0c-0.1,0-0.2-0.1-0.3-0.3c0-0.2,0.1-0.3,0.3-0.3c0,0,0,0,0,0
		c1,0,2,0.6,2.5,1.5l0,0c0.1,0.1,0,0.3-0.1,0.4c0,0,0,0,0,0c0,0-0.1,0-0.1,0C388.7,225.7,388.6,225.7,388.5,225.6z"/>
	<path class="st14" d="M369.7,226.4c1.9,0.3,2.9,3.2,3,5c0.1,2.1-1.2,3.6-3,2.4c-1.3-0.9-2.3-2.3-2.7-3.9
		C366.6,228.1,367.8,226.1,369.7,226.4z"/>
	<path class="st22" d="M384.3,235.5c-0.3,0.8-0.5,1.6-0.7,2.4h-0.4c-2-0.1-2.9-0.9-3.2-1.6c-0.2-0.4-0.3-0.8-0.2-1.2
		c0-0.2,0-0.5,0.1-0.7c1.2,0.6,2.5,1,3.8,1.1L384.3,235.5z"/>
	<path class="st7" d="M383.7,235.5l-0.2,0.7c-1.3,0.1-2.6-0.3-3.7-1.1c0-0.2,0-0.5,0.1-0.7C381,235.1,382.3,235.5,383.7,235.5z"/>
	<path class="st23" d="M383.2,237.9c-2-0.1-2.9-0.9-3.2-1.6c0.8,0.1,1.5,0.3,2.2,0.6C382.6,237.1,383,237.4,383.2,237.9z"/>
	<path class="st12" d="M389.5,221.8c-7.5-1.6-15.3-1.3-22.6,1c-2.5-0.5-4.2-2.8-4-5.4c0.3-2.3,2.2-4.5,4.6-5.9
		c2.6-1.4,5.4-2.3,8.4-2.7c3.1-0.5,6.2,0.5,9,1.4s5.4,2.5,6.5,4.6C392.5,217.3,391.7,220.3,389.5,221.8z"/>
	<path class="st14" d="M421.6,258.7l-23.1,11.9l0.1,4.9c0,0,24.1-4.7,26.8-8.5l0,0c0.9-2.6,0-5.4-2.1-7.1L421.6,258.7z"/>
	<path class="st14" d="M398.5,270.6l-3.6,1.7c-1.1,0.5-2,1.5-2.4,2.6l-1.6,4.4c-0.2,0.5,0,1.1,0.5,1.4l2.8,1.5
		c0.5,0.3,1.1,0.1,1.5-0.3l2.9-4l2.9-4.6C401.4,273.3,399.9,269.9,398.5,270.6z"/>
	<polygon class="st12" points="402.7,274.9 400.7,275.3 398.2,270 400,269.1 	"/>
	<path class="st12" d="M397.8,269.5l2-0.9c0.6-0.3,1.2,0,1.5,0.5l0.1,0.1l0,0l-4,1.9l0,0l-0.1-0.1
		C397,270.4,397.2,269.7,397.8,269.5z"/>
</g>
<g id="freepik--character-2--inject-22">
	<g id="freepik--group--inject-22">
		<polygon class="st14" points="310.1,178.9 305.3,182.5 297,173.2 290.9,166.5 290.9,166.5 290.9,166.5 297.2,162.5 302.7,169.5 		
			"/>
		<path class="st12" d="M309.3,177.4l-4.9,5c-0.2,0.2-0.2,0.5-0.1,0.8l3.9,5.3c0.4,0.5,1.1,0.6,1.6,0.2c0,0,0,0,0,0l0.1-0.1
			c9.5-7.5,11.9-11.2,12.8-12.2c2.6-2.8,0-4.5-1.1-3.8c-5,3.1-7.3,3.9-9.9,4.1C310.9,176.6,310,176.9,309.3,177.4z"/>
		<polygon class="st6" points="296.1,175.4 305.5,168.7 304.1,165.2 293.2,172.4 		"/>
		<polygon class="st20" points="296.1,175.4 305.5,168.7 304.1,165.2 293.2,172.4 		"/>
		<path class="st6" d="M313.9,173.7c-0.4,0-0.9,0.6-1.4,1.2c-0.2,0.3-0.4,0.6-0.6,0.9s-0.3,0.5-0.4,0.7s-0.3,0.5-0.3,0.6
			c0,0.1,0,0.1,0,0.2l0,0c0,0,0.1,0,0.1,0c0.7-0.3,1.4-0.7,2-1.1c0.3-0.2,0.6-0.5,0.8-0.8l0,0c0.1-0.2,0.2-0.4,0.3-0.6
			c0.1-0.3,0-0.6-0.2-0.9C314.2,173.8,314,173.7,313.9,173.7z M314.1,174.1c0.2,0.1,0.2,0.4,0.2,0.6c-0.1,0.2-0.2,0.4-0.3,0.6
			c-0.2,0.2-0.4,0.4-0.7,0.6c-0.4,0.3-0.8,0.5-1.2,0.8l-0.3,0.2c0.3-0.6,0.7-1.2,1.1-1.8c0.2-0.3,0.5-0.6,0.7-0.8
			c0.1-0.1,0.2-0.1,0.3-0.1C314,174,314.1,174,314.1,174.1z"/>
		<path class="st6" d="M310,173.7c-0.2,0.3-0.3,0.6-0.3,1c0,0.1,0,0.2,0,0.3c0.3,0.9,0.9,1.6,1.6,2.2l0,0c0.1,0,0.1,0,0.2,0
			c0,0,0.1,0,0.1,0c0,0,0-0.1,0-0.1c0-0.2,0-0.4,0-0.6c0-0.4,0-0.7-0.1-1.1c-0.1-0.9-0.4-1.7-0.8-1.9
			C310.6,173.4,310.4,173.4,310,173.7z M310.7,173.7c0.3,0.1,0.5,0.8,0.6,1.6c0.1,0.5,0.1,0.9,0.1,1.4c-0.5-0.5-0.9-1-1.2-1.6
			c-0.1-0.1-0.1-0.3-0.1-0.4c0-0.2,0-0.4,0.2-0.6v-0.1C310.5,173.7,310.6,173.8,310.7,173.7L310.7,173.7z"/>
		<path class="st12" d="M301.7,168.2l-1.9,1.2l-1.1,0.7l-3.2,2.1l-0.6,0.4c0,0-13.8-9.6-19.8-16.2c-4.1-4.5-4.3-6.1-4.8-5.8
			c-7.1,4.1-25.1,18.2-44.5,20.3h-1.1c-4.8-0.1-9.4-1.2-13.7-3.3c0.6-4.7,6-15.1,6.4-16.2l49.8-18.2c0.3-0.1,0.5-0.2,0.8-0.2
			s0.7-0.2,1.1-0.3c1.3-0.3,2.7-0.5,4.1-0.4c1.2-0.1,2.3,0.3,3.3,1C280.5,137.4,301.7,168.2,301.7,168.2z"/>
		<g class="st10">
			<path d="M301.7,168.2l-1.9,1.2l-1.1,0.7l-3.2,2.1l-0.6,0.4c0,0-13.8-9.6-19.8-16.2c-4.1-4.5-4.3-6.1-4.8-5.8
				c-7.1,4.1-25.1,18.2-44.5,20.3h-1.1c-4.8-0.1-9.4-1.2-13.7-3.3c0.6-4.7,6-15.1,6.4-16.2l49.8-18.2c0.3-0.1,0.5-0.2,0.8-0.2
				s0.7-0.2,1.1-0.3c1.3-0.3,2.7-0.5,4.1-0.4c1.2-0.1,2.3,0.3,3.3,1C280.5,137.4,301.7,168.2,301.7,168.2z"/>
		</g>
		<path class="st14" d="M207.1,82.9c1,4.6,2,11.4-1.2,14.5c3.9,6.9,8.6,13.4,13.9,19.3c7-12,0.5-19.5,0.5-19.5
			c-5.2-1.1-5.1-3.2-4.3-6.8L207.1,82.9z"/>
		<path class="st6" d="M202.7,98c0.4-1.2,1.2-2.3,2.3-3.1c1-0.8,11.8-0.8,14.6,0.1c1.6,0.5,3,1.6,3.9,3.1L202.7,98z"/>
		<polygon class="st14" points="311.2,179.3 316,175.4 302,157.5 295.1,161.6 		"/>
		<path class="st6" d="M318.8,167.4c-0.6,0.2-1.2,1.5-1.7,2.6c-0.1,0.3-0.2,0.5-0.3,0.7l0,0v0.1c-0.1,0.3-0.1,0.4-0.2,0.5
			c-0.1,0.1-0.1,0.1,0,0.2c0.1,0,0.1,0,0.2,0c0.6-0.4,1.1-0.8,1.6-1.2l0.3-0.3c0.4-0.3,0.7-0.8,0.8-1.2c0.1-0.2,0.1-0.3,0.1-0.5
			c0-0.3-0.1-0.7-0.4-0.9C319.2,167.3,319,167.3,318.8,167.4z M319.1,167.8c0.2,0.1,0.3,0.4,0.3,0.6c-0.1,0.4-0.3,0.8-0.6,1.1
			c-0.3,0.4-0.7,0.7-1.1,1.1l-0.6,0.5c0-0.1,0.1-0.2,0.1-0.2c0-0.1,0-0.1,0.1-0.2c0.3-0.9,0.8-1.8,1.3-2.6c0.1-0.1,0.2-0.2,0.3-0.2
			C319,167.8,319.1,167.8,319.1,167.8z"/>
		<path class="st6" d="M314.8,167.3c-0.2,0.3-0.3,0.7-0.2,1.1c0.4,1,1.2,1.8,2.2,2.4l0,0l0,0c0.1,0,0.1,0,0.2,0l0.1-0.1
			c0,0,0-0.1,0-0.1l0,0c0-0.2,0-0.4,0-0.6c-0.2-1.2-0.8-2.9-1.5-3.1C315.4,166.9,315.1,166.9,314.8,167.3z M316.7,170.3
			c-0.8-0.5-1.4-1.2-1.7-2c-0.1-0.2,0-0.5,0.1-0.7v-0.1c0.2-0.3,0.3-0.2,0.3-0.2C316,167.5,316.6,169.2,316.7,170.3z"/>
		<path class="st12" d="M310.3,167.7l-5.9,6.4c0,0-25.3-21.6-27.7-28.1c-1.6,1.9-24.3,25.5-52.6,29.1c-0.3,0-0.7,0.1-1.1,0.1
			c-4.7,0.5-9.5,0-14-1.5c-9-3.4-11.5-11.3-10.8-18.1l0,0c0.1-3.2,0.7-8.8,0.7-8.8l33,0.3c9.1-6.1,35.9-15.7,38.8-16.4
			c0.7-0.1,1.3-0.3,1.9-0.4c0.7-0.1,1.3-0.2,2-0.2l0,0c4.6-0.4,8.9,2,11.1,6.1L310.3,167.7z"/>
		<polygon class="st6" points="303.3,175.1 312.1,166.4 309.9,162.9 299.7,172.4 		"/>
		<polygon class="st20" points="303.3,175.1 312.1,166.4 309.9,162.9 299.7,172.4 		"/>
		<path class="st12" d="M314.4,172l-4.8,6.4c-0.2,0.2-0.2,0.6,0,0.8l4.8,5.1c0.5,0.5,1.3,0.5,1.8,0c0,0,0,0,0,0c0,0,0.1-0.1,0.1-0.1
			c9.1-9.3,11.1-13.6,11.9-14.8c2.4-3.4-0.6-4.8-1.7-3.9c-4.8,4-6.8,4.6-9.5,5.1C316,170.8,315.1,171.3,314.4,172z"/>
		<polygon class="st6" points="289.1,130.5 269.1,136.2 232.6,135.3 251.4,130.4 		"/>
		<g id="freepik--monitor-screen--inject-22">
			<g id="freepik--PC--inject-22">
				<polygon class="st6" points="288.9,128.7 252.4,128.9 254.3,105.8 290.8,105.6 				"/>
				<path class="st12" d="M288.4,130.5l-35.9,0.2c-0.9,0-1.7-0.7-1.7-1.6c0-0.1,0-0.1,0-0.2l1.9-23c0.1-1,1-1.8,2-1.9l35.9-0.2
					c0.9,0,1.7,0.7,1.7,1.6c0,0.1,0,0.1,0,0.2l-1.9,23C290.3,129.7,289.5,130.5,288.4,130.5z"/>
				<polygon class="st6" points="288.9,128.7 252.4,128.9 254.3,105.8 290.8,105.6 				"/>
				<polygon class="st24" points="288.9,128.7 252.4,128.9 254.3,105.8 290.8,105.6 				"/>
				<polygon class="st21" points="259.7,104 252.7,130.6 255.1,130.6 262,104 				"/>
				<polygon class="st21" points="263.4,103.9 256.4,130.6 261.1,130.6 268,103.9 				"/>
			</g>
		</g>
		<polygon class="st9" points="289.1,130.5 269.1,136.2 232.6,135.3 251.4,130.4 		"/>
		<polygon class="st6" points="232.6,135.3 234.6,137.1 267.9,138 269.1,136.2 		"/>
		<polygon class="st6" points="267.9,138 288.8,132 289.1,130.5 269.1,136.2 		"/>
		<path class="st14" d="M247.5,124h3.9l-2.2,5.3c-1.3,0.4-2.6,0.5-4,0.4c-1.3-0.2-2.2-1.4-2-2.7c0.1-0.4,0.2-0.8,0.5-1.1l0,0
			C244.6,124.8,246,124.1,247.5,124z"/>
		<path class="st14" d="M254.8,127.3l-1,1.8c-0.3,0.6-1,0.9-1.6,0.7l-3-0.6l2.2-5.3l2.8,1.2c0.7,0.3,1.1,1.2,0.7,1.9
			C254.8,127.2,254.8,127.3,254.8,127.3z"/>
		<path class="st14" d="M211.5,121.6c3.1,3.9,7.3,6.7,12.1,8.1c5.8,1.5,17.2,1,22.7-0.3v-4.3c-2.3-0.5-22.7,1.4-30-11.2
			c-1.4-2.3-6.6-11.8-9.5-12.9c-4.6-1.9-6.4,3.1-5.3,5.9C202.7,110.4,209.1,118.7,211.5,121.6z"/>
		<g class="st10">
			<polygon points="252.2,124.4 252.2,124.4 252.2,124.4 			"/>
		</g>
		<path class="st6" d="M232.6,105.7c6.2,13.9-8.4,17.8-1.9,40.6l-31.7,0.5c0.3-12.2,4.6-9.5-1-32.5c-0.9-4.2-0.6-8.6,0.9-12.6
			c0.8-2,2.3-3.6,4.2-4.6c2.3-1.2,12.7-0.2,17.4,0.1C225.5,96.6,231.7,103.9,232.6,105.7z"/>
		<path class="st6" d="M232.6,105.7c6.2,13.9-8.4,17.8-1.9,40.6l-31.7,0.5c0.3-12.2,4.6-9.5-1-32.5c-0.9-4.2-0.6-8.6,0.9-12.6
			c0.8-2,2.3-3.6,4.2-4.6c2.3-1.2,12.7-0.2,17.4,0.1C225.5,96.6,231.7,103.9,232.6,105.7z"/>
		<path class="st12" d="M226.7,78.1c-0.1,0.6,0.1,1.1,0.5,1.2s0.8-0.4,0.8-0.9c0.1-0.6-0.1-1.1-0.5-1.2S226.8,77.5,226.7,78.1z"/>
		<path class="st12" d="M227.4,77.2l1.5-0.2C228.8,77,227.9,78,227.4,77.2z"/>
		<path class="st25" d="M226.8,78.9c0.3,1.4,0.8,2.8,1.5,4c-0.7,0.3-1.5,0.4-2.1,0.1L226.8,78.9z"/>
		<path class="st12" d="M228.8,74.1c0.1,0,0.2-0.2,0.2-0.3c0-0.2-0.1-0.4-0.3-0.4c-1.1-0.2-2.2,0.2-3,0.9c-0.2,0.1-0.2,0.3-0.1,0.5
			c0.1,0.2,0.3,0.2,0.5,0.1c0,0,0.1,0,0.1-0.1l0,0c0.6-0.6,1.5-0.9,2.4-0.7C228.7,74.1,228.8,74.1,228.8,74.1z"/>
		<path class="st14" d="M207.5,73.2c-0.6,7.2-1.1,10.3,2,14.5c4.6,6.4,13.6,5.6,16.4-1.3c2.5-6.2,3.2-17-3.4-20.9
			c-4.8-2.8-10.9-1.2-13.6,3.6C208.1,70.3,207.7,71.7,207.5,73.2L207.5,73.2z"/>
		<path class="st12" d="M226.1,85.9c-0.6-0.5-1-1.1-1.2-1.8c0-0.1,0-0.2,0.1-0.2c0,0,0,0,0,0c0.1,0,0.2,0,0.2,0.1
			c0.2,0.6,0.6,1.1,1,1.5L226.1,85.9z"/>
		<path class="st12" d="M211.1,87.4c-1.2,0.5-1.9,1.7-1.8,3l1.5-2.2L211.1,87.4z"/>
		<path class="st12" d="M211.2,87.4c-0.9,0.9-1.1,2.3-0.6,3.5l0.6-2.6L211.2,87.4z"/>
		<path class="st12" d="M227.2,65.9c-0.3-1.4-2.6-1-3.9-1.3c-0.6-0.2-1.4-0.2-2,0c-0.6,0.4-0.9,1-0.8,1.7c0.1,0.7,0.2,1.3,0.5,1.9
			c0.8,2.4,1.4,4.9,1.9,7.5c0.3,1.8,0.4,3.6,0.2,5.4C224,80.7,229,73.8,227.2,65.9z"/>
		<path class="st12" d="M223.5,64.9c-4.3-2.6-9.4-3.3-14.2-1.9c-4.8,1.6-8.4,5.6-9.4,10.5c-0.4,3.1,0.1,6.3,1.4,9.2
			c1.3,2.8,2.9,5.6,4.8,8.1c-0.2,3-2.8,5.5-4.6,7.9c-2,2.5-3,5.7-3,8.9c0.1,3.2,1.9,6.2,4.9,7.6c1.1,0.5,0.9,2.6,0.2,3.6
			c0.9,0,1.6-0.8,1.6-1.7c-0.3,0.6-0.6,1.6-0.9,2.3c0.2-0.3,0.5-0.5,0.9-0.5c0.3,0,0.7,0,1,0c0.6-0.3,1.2-0.7,1.5-1.4
			c1.2-1.6,2-3.5,2.2-5.5c0-1-0.3-1.9-0.8-2.7c0.5-0.4,1.1-0.2,1.6,0.1c0.5,0.4,0.8,1,1,1.6c0.2,0.8,0.3,1.6,0.3,2.5
			c2.5-3.5,2.6-9.2,0.8-13c-0.6-1.3-1.5-2.7-1-4.1c0.6-1.6,0-3.6,1.2-4.8c2.9-0.2,4.7-2.9,6.1-5.4C222.5,79.7,224,72.3,223.5,64.9z"
			/>
		<path class="st14" d="M216.9,78.2c-0.1,1.7,0.5,3.3,1.6,4.6c1.5,1.6,3.4,0.6,4-1.4c0.5-1.8,0.3-4.9-1.6-5.8
			c-1.4-0.6-3.1,0-3.7,1.5C216.9,77.4,216.9,77.8,216.9,78.2z"/>
		<path class="st7" d="M198.7,144.4l-0.7,2.9c-0.1,0.2,0.2,0.4,0.5,0.4l32.7-0.6c0.3,0,0.5-0.1,0.5-0.3l-0.8-3
			c0-0.2-0.2-0.4-0.5-0.3l-31.1,0.7C199,144.1,198.8,144.2,198.7,144.4z"/>
		<path class="st6" d="M227.7,147.4l-0.9,0.1c-0.2,0-0.3,0-0.3-0.2v-3.7c0-0.1,0.1-0.2,0.3-0.2l0.9-0.1c0.2,0,0.3,0,0.3,0.2v3.7
			C228,147.3,227.9,147.4,227.7,147.4z"/>
		<path class="st6" d="M216,147.5l-0.9,0.1c-0.2,0-0.3,0-0.3-0.2v-3.7c0-0.1,0.1-0.2,0.3-0.2l0.8-0.1c0.2,0,0.3,0,0.3,0.2v3.7
			C216.4,147.4,216.2,147.5,216,147.5z"/>
		<path class="st6" d="M216,147.5l-0.9,0.1c-0.2,0-0.3,0-0.3-0.2v-3.7c0-0.1,0.1-0.2,0.3-0.2l0.8-0.1c0.2,0,0.3,0,0.3,0.2v3.7
			C216.4,147.4,216.2,147.5,216,147.5z"/>
		<path class="st18" d="M218.9,106.3c0,0-1.7,3.5,3.2,12.7l2,3.7l0,0c0.7,1.2,5.2-1.2,6.6-3.6l0,0C230.7,119.2,222,114,218.9,106.3z
			"/>
		<path class="st14" d="M264.8,124.2l3.6,0.2l-2.3,4.8c0,0-5.6,1.4-6.2-2l1.2-1.4C262,124.8,263.4,124.2,264.8,124.2z"/>
		<path class="st14" d="M271.4,127.7l-1,1.7c-0.3,0.5-0.9,0.8-1.5,0.6l-2.8-0.7l2.3-4.8l2.5,1.3c0.7,0.3,1,1.1,0.6,1.8c0,0,0,0,0,0
			L271.4,127.7z"/>
		<path class="st14" d="M232,126.2c2.4,3.3,5.7,6.3,9.7,6.8c3.1,0.4,17.9-1.9,20.1-4v-3.5c0,0-15.5,0.1-17.4-0.1
			c-2.9-0.3-4.7-2.3-7.1-6.5c-1.2-2.1-5.2-10.8-6.6-12.7c-2.4-3.1-9.3-0.9-6.6,6.5C225.1,115.9,230.1,123.5,232,126.2z"/>
		<path class="st6" d="M229.6,101.1c4.9,4.5,7.2,12.5,7.2,12.5l-11.4,6.9c0,0-8.3-11.7-6.7-15.8c1.2-3.2,3.4-5.2,6.2-5.4
			C226.6,99.2,228.3,99.9,229.6,101.1z"/>
		<path class="st6" d="M203.2,147.9h-0.9c-0.2,0-0.3-0.1-0.3-0.2l0.3-3.7c0-0.1,0.2-0.2,0.3-0.2h0.9c0.2,0,0.3,0.1,0.3,0.2l-0.3,3.7
			C203.5,147.8,203.3,147.9,203.2,147.9z"/>
	</g>
</g>
<g id="freepik--character-1--inject-22">
	<path class="st14" d="M244.3,416.4l6.2,4.3l5.1-6.1l-4.8-0.5c-1.2-0.1-2.3-0.3-3.4-0.7l0,0L244.3,416.4z"/>
	<path class="st14" d="M255.5,414.7l-6.2,5.3l3.7,2.9c0.4,0.3,1,0.2,1.3-0.1l4.4-4.1c0.2-0.2,0.2-0.5,0-0.7L255.5,414.7z"/>
	<path class="st14" d="M232.7,382.9l-3.5,14.9l19.3,16.2l-2.1,3.6c0,0-21.4-9.6-24.4-14.9c-3.1-5.3,3.4-25,3.4-25L232.7,382.9z"/>
	<path class="st12" d="M227.7,375c2.7,1.3,8.9,5.9,3.6,21.6l-11.2-1.6C221.5,385.2,223.5,373.7,227.7,375z"/>
	<path class="st15" d="M227.7,375c2.7,1.3,8.9,5.9,3.6,21.6l-11.2-1.6C221.5,385.2,223.5,373.7,227.7,375z"/>
	<path class="st6" d="M192.8,420.7l-1.2,5.1c0,0-12.3-3.7-16.5,6.6s6.6,32.4,39.4,24.8c0,0,8.8,2.4,16.4,0.5
		c11.2-2.8,25.5-9.4,27-19.8c2.6-17.4-32.1-11.2-32.1-11.2l-1.2-3.3L192.8,420.7z"/>
	<path class="st15" d="M197.2,428c0,0,7.8,3.9,10.6,10.5l3.3,1.2C211.1,439.8,209.1,430.8,197.2,428z"/>
	<path class="st6" d="M222.3,444.6c0,0,0.2-11.1,11.3-19.7h8.6l-16.6,21.8L222.3,444.6z"/>
	<path class="st6" d="M174.8,433.3c0,0-3.1,9,8.8,18.9c11.9,10,18.3-3.3,18.3-3.3l0.9-5.1l-8.1-7.3l-10.3-7l-5.7,0.7L174.8,433.3z"
		/>
	<path class="st14" d="M174.7,434.5c1.1,7.9,6.1,14.8,13.3,18.2c10.2,4.9,12.9-8.9,12.9-8.9L182,431.5l-7,0.9L174.7,434.5z"/>
	<path class="st15" d="M174.7,434.5c1.1,7.9,6.1,14.8,13.3,18.2c10.2,4.9,12.9-8.9,12.9-8.9L182,431.5l-7,0.9L174.7,434.5z"/>
	<path class="st12" d="M256.2,467.2c-2.1-3.9-5.5-6.8-9.6-8.4c-0.4-0.2-0.8-0.5-1.1-1c-0.1-0.2-0.2-0.3-0.3-0.5l-2.1-6.9
		c0-0.1,0-0.3,0-0.4c0-0.2,0.1-0.3,0.3-0.4l5.9-3.4c0.5-0.4,1.2-0.3,1.6,0.2c0,0,0,0,0,0l0.1,0.2c1.2,2.9,2.1,5.4,3.7,9
		c1.8,4.2,1.9,2.9,4.1,7.7C260.1,466.4,257,468.4,256.2,467.2z"/>
	<path class="st14" d="M235.3,426.1c0,0,29.6-6.4,34.4,3c4.7,9.4-12.1,15.7-18.1,17.8c-10.4,3.7-46.6,15-46.6,15l2.4-7.4l17.2-9.9
		C224.6,444.7,225.4,434.9,235.3,426.1z"/>
	<path class="st12" d="M207.5,461l2.6-7.8c0.1-0.3,0-0.6-0.3-0.8l-5.8-3.5c-0.5-0.3-1.2-0.1-1.5,0.4c0,0,0,0,0,0
		c0,0.1-0.1,0.1-0.1,0.2c-0.9,2.8-1.6,5.4-2.7,8.9c-1.4,4.1-1.5,2.9-3.2,7.7c-1,2.9,2.1,4.5,2.7,3.3c2.6-5.4,4.5-5.5,7.2-7
		C206.9,462.2,207.3,461.6,207.5,461z"/>
	<path class="st15" d="M248.6,428.9c-0.3-1.1-16.7,9.4-21.8,8.7c-0.7,1.5-1.2,3-1.6,4.6l0,0l-0.2,0.8c0,0,0,0.1,0,0.1
		c0,0.1,0,0.2,0,0.3c0,0,0,0.1,0,0.1c0,0.1,0,0.1,0,0.2c0,0,0,0.1,0,0.1v0.2v0.1c0,0,0,0.1,0,0.1c0,0,0,0.1,0,0.1v0.2l0,0l0,0
		l-16.2,9.2l12.7,2.9c7.6-2.4,16.3-5.2,23-7.4l-16.8-6.3C233.6,439.3,248.8,429.8,248.6,428.9z"/>
	<path class="st14" d="M245.6,457.9c-9.2-1.2-26.6-3.4-32.6-4.7c-10.8-2.3-46.5-11.5-37.4-23.7c9.5-12.7,28.4,6.6,28.4,6.6l39.2,14
		c0,0.1,0,0.3,0,0.4l2.1,6.9C245.4,457.6,245.5,457.8,245.6,457.9z"/>
	<path class="st15" d="M188.9,429c-2.8,1.2,15.1,7.1,15.1,7.1c-2.4-2.3-4.9-4.4-7.6-6.2C193.6,428.8,190.8,428.2,188.9,429z"/>
	<g id="freepik--Character--inject-2--inject-22">
		<path class="st12" d="M219.2,371.4l-7.5-1.8l-9.5-0.1c-3,0-5.6,1.9-6.4,4.8c-1.7,6.8-3,13.6-3.8,20.5c-1.1,7.8,0.2,16.7,0.5,27.2
			l33.8,1.2c-1.8-15.4,1.2-28.9,3.3-37c0.4-5,0-10.9-2.7-12L219.2,371.4z"/>
		<path class="st16" d="M192,394.9c0.7-5.5,1.7-11.6,2.9-16.7c6.2-1.3,9.9,12.4,8.3,19.3c-1.6,6.9-11.7,3.2-11.7,3.2
			C191.6,398.6,191.8,396.7,192,394.9z"/>
		<path class="st6" d="M202.4,365c1.4,1.3,3.4,1.7,5.2,1c-0.8,0.9-1.8,1.6-3,1.8c2,1.2,4.6,1.2,6.6-0.2c-0.7,0.7-1.7,1.5-2.4,2.2
			c6.7,1.7,13.4-2.3,15.2-9c0.3-1.2,0.4-2.5,0.4-3.7c-0.1-1.7-2.6-2.5-4.1-3.1c-1.6-0.6-3.3-0.7-4.9-0.5c-1.3,0.3-2.6,0.7-3.8,1.2
			C211.6,354.7,211.1,363.8,202.4,365z"/>
		<path class="st14" d="M214.1,357.6l3,4.3l4.1,5.8c-0.5,0.5-0.9,1.1-1.1,1.8c-0.6,1.5-1.2,2.6,1.9,4.5c0.7,0.4,1.1,1.2,1,1.9
			c-0.1,0.9-1,1.9-4.3,1.4c-3.2-0.5-6.1-1.9-8.3-4.2c-1.1-1-0.9-1.9,0.1-3C213.3,366.8,214,361.7,214.1,357.6z"/>
		<path class="st18" d="M220.3,366.2l-2.6-4.1l-0.1,0.4c-0.2,0.5-0.3,1.1-0.4,1.6c-0.4,1.9,1.2,4.5,2.9,5.8l0.2-0.4
			c0.3-0.6,0.6-1.2,1-1.7c0,0,0.1-0.1,0.1-0.1L220.3,366.2z"/>
		<path class="st12" d="M225.7,357.8c3.5-5.1,3.3-8.3,6.4-10.9c1.5-0.5,3.7,2.5,1.5,6.9C231.2,358.2,225.7,357.8,225.7,357.8z"/>
		<path class="st14" d="M215.1,350.3c-1.1,6.3-2.1,10,0.3,13.8c3.6,5.8,12,4.7,14.9-1.2c2.7-5.3,4-14.7-1.5-18.5
			c-4.1-2.8-9.6-1.7-12.3,2.4C215.8,347.8,215.3,349,215.1,350.3z"/>
		<path class="st6" d="M213.7,355.9l3.2,2.5l1.1-5.5l3-1.2l4.1-4.7c0,0-7.2-3.1-9.4-3.7c-0.8-0.2-3.7,1.6-4.3,2.4
			c-1.4,2.4-1.3,5.4,0.2,7.7C212.3,354.2,212.9,355.1,213.7,355.9z"/>
		<path class="st14" d="M211.4,354.5c0,1.4,0.5,2.8,1.5,3.9c1.2,1.4,3,0.2,3.4-1.6c0.4-1.8-0.3-4-1.9-4.7
			C212.8,351.4,211.4,352.7,211.4,354.5z"/>
		<path class="st12" d="M224.3,355.1c-0.1,0.5,0,1,0.3,1.1c0.3,0.1,0.7-0.2,0.9-0.7c0.2-0.4,0.1-0.9-0.3-1.1
			C224.8,354.2,224.4,354.5,224.3,355.1z"/>
		<path class="st12" d="M230.1,356.9c-0.1,0.5,0,1,0.3,1.1c0.3,0.1,0.7-0.2,0.9-0.7c0.1-0.5,0-1-0.3-1.1
			C230.6,356.1,230.2,356.4,230.1,356.9z"/>
		<path class="st26" d="M228.1,356.7c0,1.5,0.3,3,0.7,4.4c-0.7,0.2-1.5,0.1-2.2-0.4L228.1,356.7z"/>
		<path class="st12" d="M225.3,363.6c-1.2-0.3-2.2-1.2-2.8-2.3c-0.1-0.1,0-0.2,0-0.2c0.1-0.1,0.2,0,0.2,0c0,0,0,0,0,0.1
			c0.6,1.2,1.8,2,3.2,2.2c0.1,0,0.2,0.1,0.1,0.2c0,0,0,0,0,0c0,0.1-0.1,0.1-0.2,0.1c0,0,0,0,0,0l0,0
			C225.8,363.7,225.5,363.6,225.3,363.6z"/>
		<path class="st12" d="M223.7,352.9c-0.1,0-0.1-0.1-0.1-0.1c-0.1-0.1-0.1-0.3,0.1-0.4c0,0,0,0,0,0c0.8-0.6,1.9-0.7,2.8-0.4
			c0.2,0.1,0.2,0.2,0.2,0.4l0,0c-0.1,0.2-0.3,0.2-0.4,0.2c0,0,0,0,0,0c-0.7-0.2-1.6-0.1-2.2,0.3
			C223.9,352.9,223.8,352.9,223.7,352.9z"/>
		<path class="st12" d="M231,353.6c0,0,0-0.1,0-0.1c0.1-0.2,0.2-0.2,0.4-0.2c0.9,0.3,1.7,1.1,1.9,2.1c0,0.2-0.1,0.3-0.2,0.4
			c-0.2,0-0.3-0.1-0.4-0.2c-0.2-0.8-0.8-1.4-1.5-1.6C231.1,353.8,231,353.7,231,353.6z"/>
	</g>
	<path class="st6" d="M228.7,426.4l-20.7-2c0,0-0.1-0.4,1.7-0.5h0.5c0.3,0,1.8-0.1,3.6-0.2h0.6c5.4-0.2,13.9-0.6,13.9-0.6l0.3,2.8
		L228.7,426.4z"/>
	<path class="st9" d="M228.7,425.8l-15.5-1.6c0,0-0.6-0.4,0.7-0.6h0.6c5.4-0.2,13.9-0.6,13.9-0.6L228.7,425.8z"/>
	<path class="st14" d="M219,417.7l3.1,0.8l-4.1,6.3c0,0-6.6-2.1-5.4-5l1.6-1C215.5,418.1,217.3,417.2,219,417.7z"/>
	<polygon class="st14" points="225,422.6 222,425.8 217.9,424.8 222.1,418.5 	"/>
	<path class="st14" d="M201,391.7c-1.9,5.9-4,6.6-1.7,9.7c2.4,3.1,15.8,13.6,18.3,16.7l-4.2,3.2c-5-2.8-10-5.4-14.9-8.1
		c-3.7-1.9-7.6-4-9.5-7.7c-2.7-5.3-1.2-10.3,1.9-17.1C193.8,388,201,391.7,201,391.7z"/>
	<path class="st12" d="M200.1,369.8c6.6-1.2,10.1,4.3,7.3,13c-1.1,4-2.6,7.8-4.5,11.5l-15.7-3.6C189.5,382,193.3,371.1,200.1,369.8z
		"/>
	<path class="st12" d="M224.3,427.4l37.5-1.5c0.4,0,0.7-0.3,0.7-0.7l0,0c0-0.4-0.2-0.7-0.6-0.7c0,0-0.1,0-0.1,0l-37.5,1.5
		c-0.4,0-0.7,0.3-0.7,0.7l0,0C223.6,427.1,223.9,427.4,224.3,427.4C224.2,427.4,224.2,427.4,224.3,427.4z"/>
	<path class="st6" d="M206.3,425.6l17.7,1.8c0.4,0,0.8-0.2,0.8-0.6l0,0c0.1-0.3-0.1-0.7-0.5-0.8c0,0-0.1,0-0.1,0l-17.7-1.8
		c-0.4,0-0.8,0.2-0.8,0.6l0,0C205.6,425.1,205.8,425.5,206.3,425.6C206.2,425.6,206.2,425.6,206.3,425.6z"/>
	<path class="st17" d="M206.3,425.6l17.7,1.8c0.4,0,0.8-0.2,0.8-0.6l0,0c0.1-0.3-0.1-0.7-0.5-0.8c0,0-0.1,0-0.1,0l-17.7-1.8
		c-0.4,0-0.8,0.2-0.8,0.6l0,0C205.6,425.1,205.8,425.5,206.3,425.6C206.2,425.6,206.2,425.6,206.3,425.6z"/>
	<path class="st6" d="M225.3,426l35-1.4c1.3-0.1,2.3-1.1,2.5-2.3l2.4-17.7c0.2-1-0.5-1.9-1.5-2.1c-0.2,0-0.3,0-0.5,0l-35,1.4
		c-1.3,0.1-2.3,1.1-2.5,2.3l-2.4,17.7c-0.2,1,0.5,1.9,1.5,2.1C225,426,225.2,426,225.3,426z"/>
	<path class="st17" d="M225.3,426l35-1.4c1.3-0.1,2.3-1.1,2.5-2.3l2.4-17.7c0.2-1-0.5-1.9-1.5-2.1c-0.2,0-0.3,0-0.5,0l-35,1.4
		c-1.3,0.1-2.3,1.1-2.5,2.3l-2.4,17.7c-0.2,1,0.5,1.9,1.5,2.1C225,426,225.2,426,225.3,426z"/>
	<path class="st6" d="M226.4,425.8l34.9-1.4c1.3-0.1,2.3-1.1,2.5-2.3l2.4-17.7c0.2-1-0.5-1.9-1.5-2.1c-0.2,0-0.3,0-0.5,0l-34.9,1.4
		c-1.3,0.1-2.3,1.1-2.5,2.3l-2.4,17.7c-0.2,1,0.5,2,1.4,2.1C226.1,425.8,226.2,425.8,226.4,425.8z"/>
	<path class="st20" d="M226.4,425.8l34.9-1.4c1.3-0.1,2.3-1.1,2.5-2.3l2.4-17.7c0.2-1-0.5-1.9-1.5-2.1c-0.2,0-0.3,0-0.5,0l-34.9,1.4
		c-1.3,0.1-2.3,1.1-2.5,2.3l-2.4,17.7c-0.2,1,0.5,2,1.4,2.1C226.1,425.8,226.2,425.8,226.4,425.8z"/>
	<path class="st12" d="M209.8,337.2c-1,1.1-1.4,2.5-1.2,4c0.2,0.8,1.2-1.1,1.5-0.3c0.4,1.7-0.3,3.3-0.7,5c-0.7,3.3,0.1,6.8,2,9.6
		l-0.2-0.2c3.8-2.5,8-4.3,12.4-5.4c1.8-0.5,3.8-1.1,5.6-0.5c4.1,1.4,4.2,4.5,4.2,4.5c2.8-5-0.4-12.4-4.2-16.5
		S210.7,336.1,209.8,337.2z"/>
	<path class="st6" d="M231.7,345.4c0.1,1.1,0.1,2,0.3,3.1c-1.7-1.4-3.9-2.1-6.1-1.8c0.1-0.9,0-1.7-0.4-2.5
		C227.6,343.7,229.9,344.1,231.7,345.4z"/>
</g>
<g id="freepik--speech-bubble--inject-22">
	<g id="freepik--freepik-speech-bubbles-inject-120--inject-22">
		<path class="st7" d="M385.9,121.8l89.5-0.5c2.6-0.1,4.8,1.9,4.9,4.5c0,0,0,0,0,0c0,0.3,0,0.5,0,0.8l-4.4,41.2c-0.4,3-3,5.3-6,5.4
			l-37.2,0.4c-6,7.2-14.4,12.1-23.6,13.8c0,0,8.6-7.9,10.6-13.7h-39.3c-2.6,0.1-4.8-1.9-4.9-4.5c0-0.3,0-0.5,0-0.8l4.4-41.1
			C380.3,124.2,382.9,121.9,385.9,121.8z"/>
		<path class="st6" d="M407.2,188.2l1.5-1.4c0.1-0.1,7.7-7.1,10.1-12.6h-38.4c-1.4,0.1-2.8-0.4-3.8-1.4c-1.3-1.2-1.9-2.9-1.7-4.6
			l4.4-41.1c0.4-3.3,3.2-5.9,6.6-5.9l0,0l89.5-0.5c2.9-0.1,5.4,2.2,5.5,5.1c0,0,0,0,0,0c0,0.3,0,0.6,0,0.9l-4.4,41.2
			c-0.4,3.3-3.2,5.8-6.6,5.9l-37,0.4c-6.1,7.2-14.5,12-23.8,13.8L407.2,188.2z M420.6,172.9l-0.3,0.8c-1.5,4.4-6.6,9.8-9.2,12.5
			c8.3-2,15.7-6.6,21.2-13.1l0.2-0.2l37.5-0.4c2.7-0.1,5-2.1,5.4-4.8l4.4-41.2c0-0.2,0-0.5,0-0.7c-0.1-2.3-2-4-4.2-3.9c0,0,0,0,0,0
			l-89.5,0.5c-2.7,0.1-5,2.1-5.4,4.8l-4.4,41.1c0,0.2,0,0.5,0,0.7c0.1,2.3,2,4,4.3,3.9L420.6,172.9z"/>
	</g>
	<rect x="398.6" y="130.2" class="st6" width="40.4" height="1.2"/>
	<rect x="386.8" y="140.9" class="st6" width="22.1" height="1.2"/>
	<rect x="416.8" y="140.9" class="st6" width="22.5" height="1.2"/>
	<rect x="385.5" y="151.7" class="st6" width="56.2" height="1.2"/>
	<rect x="384.6" y="162.5" class="st6" width="14.6" height="1.2"/>
	<text transform="matrix(0.9856 0 -0.1692 0.9856 437.6929 167.2341)" class="st6 st27 st28">?</text>
</g>
</svg>
