<?xml version="1.0" encoding="utf-8"?>
<!-- Generator: Adobe Illustrator 26.3.0, SVG Export Plug-In . SVG Version: 6.00 Build 0)  -->
<svg version="1.1" id="Layer_1" xmlns="http://www.w3.org/2000/svg" xmlns:xlink="http://www.w3.org/1999/xlink" x="0px" y="0px"
	 viewBox="0 0 750 500" style="enable-background:new 0 0 750 500;" xml:space="preserve">
<style type="text/css">
	.st0{fill:#263238;}
	.st1{fill:#EBEBEB;}
	.st2{fill:#F5F5F5;}
	.st3{fill:#E6E6E6;}
	.st4{fill:#E0E0E0;}
	.st5{fill:#F0F0F0;}
	.st6{fill:#FAFAFA;}
	.st7{fill:#009FE3;}
	.st8{opacity:0.4;fill:#FFFFFF;enable-background:new    ;}
	.st9{opacity:0.8;fill:#FFFFFF;enable-background:new    ;}
	.st10{fill:#FFFFFF;}
	.st11{fill:#B55B52;}
	.st12{opacity:0.1;enable-background:new    ;}
	.st13{opacity:0.9;fill:#FFFFFF;enable-background:new    ;}
	.st14{opacity:0.5;}
	.st15{opacity:0.7;fill:#FFFFFF;enable-background:new    ;}
	.st16{opacity:0.2;enable-background:new    ;}
	.st17{opacity:0.5;enable-background:new    ;}
	.st18{opacity:0.4;}
	.st19{opacity:0.3;enable-background:new    ;}
	.st20{fill:#BA4D3C;}
</style>
<g id="freepik--Floor--inject-29">
	<path class="st0" d="M598,463.9c0,0.1-97.3,0.3-217.2,0.3s-217.2-0.1-217.2-0.3s97.2-0.3,217.2-0.3S598,463.7,598,463.9z"/>
</g>
<g id="freepik--background-complete--inject-17">
	<rect x="520.5" y="431" class="st1" width="44.9" height="0.3"/>
	<rect x="392.8" y="434.7" class="st1" width="11.8" height="0.3"/>
	<rect x="493.2" y="418.4" class="st1" width="26" height="0.3"/>
	<path class="st2" d="M588.8,275H425.9c0,6,4.7,10.9,10.7,11.2c17.5,0.8,44.4,3.6,53,13.2c15.9,18.1,14.4,81.5-4.7,96.1
		c-6,4.6-23.4,13.7-23.4,13.7h91.7c0,0-16.3-9.3-21.9-13.7c-19-14.8-19.5-78.2-3.5-96.1c8.2-9.2,33.4-12.2,50.4-13.1
		C584.1,285.9,588.8,281,588.8,275z"/>
	<path class="st3" d="M446.1,286.7c16.5,1.4,36.3,4.6,43.5,12.6c2.3,2.8,4.2,5.9,5.4,9.3h27.3c1.3-3.4,3.1-6.5,5.4-9.3
		c7.1-8,27.1-11.3,43.4-12.6H446.1z"/>
	<polygon class="st1" points="519.4,275.1 517.2,249.8 549.3,249.8 551.5,275.1 	"/>
	<polygon class="st4" points="519.4,275.1 517.2,249.8 515.5,249.8 517.7,275.1 	"/>
	<polygon class="st5" points="522.5,272.5 520.7,252.3 546.3,252.3 548,272.5 	"/>
	<polygon class="st6" points="524.4,270.8 523,254 544.3,254 545.8,270.8 	"/>
	<polygon class="st3" points="509,275 476.8,275 480.4,234.1 512.6,234.1 	"/>
	<polygon class="st4" points="509,275 510.6,275 514.1,234.1 512.6,234.1 	"/>
	<polygon class="st5" points="506.1,270.8 480.4,270.8 483.3,238.3 508.9,238.3 	"/>
	<polygon class="st6" points="504.2,268.1 482.8,268.1 485.2,240.9 506.6,240.9 	"/>
	<path class="st1" d="M493.4,253.2L493.4,253.2c1.5,1.5,3.8,1.5,5.3,0l0,0l0,0c1.4-1.5,1.4-3.8,0-5.3l0,0c-1.5-1.5-3.8-1.5-5.3,0
		l0,0l0,0C491.9,249.4,491.9,251.7,493.4,253.2z"/>
	<path class="st5" d="M495,257.7L495,257.7c-1.1-1.1-2.8-1.1-3.8,0l0,0l0,0c-1.1,1-1.1,2.8-0.1,3.8c0.5,0.5,1.2,0.8,2,0.8l0,0
		c1.5,0,2.7-1.2,2.8-2.7C495.8,259,495.5,258.3,495,257.7z"/>
	<path class="st2" d="M350.3,401h31.4l-16.5-134.5c-0.8-5.8-5.7-10.2-11.6-10.3h-137L236.7,401H350.3z"/>
	<path class="st5" d="M250.7,401h-31.4l-16.5-134.5c-0.8-4.9,2.6-9.4,7.4-10.2c0.5-0.1,1.1-0.1,1.6-0.1h10.8
		c5.9,0.1,10.7,4.5,11.6,10.3L250.7,401z"/>
	<path class="st3" d="M262.2,400.9l-5.7-65.1c-0.3-2.9-2.5-5.2-5.4-5.6l-2.3-0.3c-3.9-0.5-6.9-3.6-7.2-7.5l-1-11.9
		c-0.4-4.6,3-8.6,7.5-9c0.2,0,0.5,0,0.7,0h-52.4c-4.6,0-8.3,3.7-8.3,8.3c0,0.2,0,0.5,0,0.7l1,11.9c0.4,3.9,3.4,7,7.2,7.5l2.3,0.3
		c2.9,0.3,5.2,2.7,5.4,5.6l5.7,65.1c0.4,4.7,4.4,8.4,9.1,8.4h52.5C266.7,409.3,262.7,405.6,262.2,400.9z"/>
	<path class="st3" d="M406.7,319.6c0.9-10.2,9.5-18,19.7-18h-45.7c-10.3,0-18.8,7.8-19.7,18l-4.5,51.5h45.7L406.7,319.6z"/>
	<path class="st5" d="M446.7,301.6h-20.3c-10.2,0-18.8,7.8-19.7,18l-4.5,51.5H293.3l-4.5-51.5c-0.9-10.2-9.4-18-19.7-18h-20.3
		c-4.6,0-8.3,3.7-8.3,8.3c0,0.2,0,0.5,0,0.7l1,11.9c0.3,3.9,3.3,7,7.2,7.5l2.3,0.3c2.9,0.4,5.2,2.7,5.4,5.6l5.7,65.1
		c0.4,4.7,4.4,8.4,9.1,8.4h152.7c4.8,0,8.7-3.6,9.1-8.4l5.7-65.1c0.3-2.9,2.5-5.2,5.4-5.6l2.3-0.3c3.9-0.5,6.9-3.6,7.2-7.5l1-11.8
		c0.4-4.6-3-8.6-7.6-9C447.2,301.6,446.9,301.6,446.7,301.6z"/>
	<rect x="286.8" y="109.4" class="st3" width="3.8" height="47.1"/>
</g>
<g id="freepik--Shadow--inject-17">
	<ellipse id="freepik--path--inject-17" class="st3" cx="366.4" cy="452.9" rx="262.8" ry="10.2"/>
</g>
<g id="freepik--speech-bubble-2--inject-17">
	<path class="st7" d="M353.7,287.2l-1.8,34.7c-0.1,2.2,1.5,4.1,3.7,4.2c0.1,0,0.2,0,0.3,0h120.4c1.5,0,3,0.6,4.1,1.7l6.1,6.5
		c1,1,2.6,0.9,3.5-0.1c0.4-0.4,0.7-1,0.7-1.6l2.4-45.4c0.2-2.2-1.5-4.1-3.7-4.2c-0.1,0-0.3,0-0.4,0H358.2
		C355.8,283,353.8,284.9,353.7,287.2z"/>
	<path class="st8" d="M353.7,287.2l-1.8,34.7c-0.1,2.2,1.5,4.1,3.7,4.2c0.1,0,0.2,0,0.3,0h120.4c1.5,0,3,0.6,4.1,1.7l6.1,6.5
		c1,1,2.6,0.9,3.5-0.1c0.4-0.4,0.7-1,0.7-1.6l2.4-45.4c0.2-2.2-1.5-4.1-3.7-4.2c-0.1,0-0.3,0-0.4,0H358.2
		C355.8,283,353.8,284.9,353.7,287.2z"/>
	<path class="st7" d="M351.1,284.5l-1.8,34.7c-0.2,2.2,1.5,4.1,3.7,4.2c0.1,0,0.3,0,0.4,0h120.4c1.5,0,3,0.6,4.1,1.7l6.1,6.5
		c1,1,2.6,0.9,3.5-0.1c0.4-0.4,0.7-1,0.7-1.6l2.4-45.4c0.1-2.2-1.5-4.1-3.7-4.2c-0.1,0-0.2,0-0.3,0h-131
		C353.2,280.3,351.3,282.1,351.1,284.5z"/>
	<path class="st9" d="M351.1,284.5l-1.8,34.7c-0.2,2.2,1.5,4.1,3.7,4.2c0.1,0,0.3,0,0.4,0h120.4c1.5,0,3,0.6,4.1,1.7l6.1,6.5
		c1,1,2.6,0.9,3.5-0.1c0.4-0.4,0.7-1,0.7-1.6l2.4-45.4c0.1-2.2-1.5-4.1-3.7-4.2c-0.1,0-0.2,0-0.3,0h-131
		C353.2,280.3,351.3,282.1,351.1,284.5z"/>
	<polygon class="st7" points="421.6,307.9 416.8,302.8 418.4,301.2 421.8,304.8 428.3,298.7 429.7,300.2 	"/>
	<polygon class="st7" points="423.6,302.7 422.2,301.2 420.6,302.8 422,304.2 	"/>
	<polygon class="st7" points="432.1,298.7 425.6,304.8 425.5,304.6 423.8,306.2 425.5,307.9 433.5,300.2 	"/>
	<path class="st0" d="M378.5,296.3l-0.6,11.4H377l0.3-5.4h-6.6l-0.3,5.4h-0.9l0.6-11.4h0.9l-0.3,5.1h6.6l0.3-5.1H378.5z"/>
	<path class="st0" d="M380.9,297c0-0.4,0.3-0.6,0.7-0.6c0.3,0,0.6,0.3,0.6,0.6l0,0c0,0.4-0.3,0.6-0.7,0.7
		C381.2,297.6,380.9,297.4,380.9,297L380.9,297z M381,299.6h0.8l-0.4,8.1h-0.8L381,299.6z"/>
	<path class="st0" d="M383.7,307.2c0-0.4,0.4-0.7,0.8-0.7s0.7,0.3,0.7,0.7l0,0c0,0.4-0.4,0.7-0.8,0.7
		C384,307.9,383.7,307.6,383.7,307.2L383.7,307.2z"/>
	<path class="st0" d="M387.1,307.2c0-0.4,0.4-0.7,0.8-0.7s0.7,0.3,0.7,0.7c0,0,0,0,0,0.1c0,0.4-0.4,0.7-0.8,0.7
		C387.5,307.9,387.2,307.6,387.1,307.2L387.1,307.2z"/>
	<path class="st0" d="M390.6,307.2c0-0.4,0.4-0.7,0.8-0.7s0.7,0.3,0.7,0.7l0,0c0,0.4-0.4,0.7-0.8,0.7
		C390.9,307.9,390.6,307.6,390.6,307.2L390.6,307.2z"/>
	
		<ellipse transform="matrix(0.7163 -0.6978 0.6978 0.7163 -78.742 410.135)" class="st10" cx="465" cy="301.9" rx="17.2" ry="16.3"/>
	<path class="st11" d="M458,313.4c0,0,2.3-2,2.8-6.7h6.6c0,0-0.3,6.7,2.9,6.7H458z"/>
	<path class="st12" d="M460.8,306.7c-0.1,0.9-0.3,1.8-0.6,2.7c1.2,0.5,2.4,0.7,3.6,0.7c1.3,0,2.5-0.3,3.6-0.8
		c-0.1-0.9-0.1-1.7-0.1-2.6L460.8,306.7z"/>
	<path class="st11" d="M474,296.3c-0.4,6.9-4.3,12.4-10.4,12.4s-9.5-5.6-9.1-12.4c0.4-6.9,4.3-12.4,10.4-12.4S474.4,289.4,474,296.3
		z"/>
	<path class="st11" d="M465,296.9c0.2,1.1,0.5,2.2,1,3.3c-0.5,0.3-1.2,0.3-1.7,0L465,296.9z"/>
	<path class="st0" d="M466.9,302.4c-1.9,0-3.8,0.1-5.7,0.5c0.6,1.4,1.6,1.7,3.7,1.4S466.9,302.4,466.9,302.4z"/>
	<path class="st10" d="M466.7,302.4c-0.1,0.4-0.3,0.7-0.6,0.8c-1.2,0.2-2.5,0.3-3.7,0.2c-0.4,0-0.8-0.2-1-0.6
		C463.2,302.5,465,302.4,466.7,302.4z"/>
	<path class="st10" d="M466,303.1c-1.1-0.1-2.3-0.1-3.4,0.2c-0.3,0.1-0.6,0.3-0.8,0.6c0.6,0.6,1.6,0.7,3.1,0.4
		c0.6-0.1,1.1-0.3,1.6-0.7C466.4,303.4,466.2,303.2,466,303.1z"/>
	<path class="st0" d="M460.7,296.9c0,0.4,0.1,0.8,0.4,0.9s0.6-0.3,0.6-0.8c0.1-0.4-0.1-0.8-0.4-0.9
		C461,296.1,460.7,296.4,460.7,296.9z"/>
	<path class="st0" d="M459.1,295.3H459c-0.1-0.1-0.1-0.3,0-0.4c0.6-0.7,1.4-1,2.3-1c0.1,0,0.2,0.2,0.2,0.3c0,0.1-0.2,0.2-0.3,0.2
		l0,0c-0.7,0-1.3,0.2-1.8,0.8C459.3,295.3,459.2,295.3,459.1,295.3z"/>
	<path class="st0" d="M468.8,296.9c0,0.4-0.2,0.8-0.5,0.9s-0.5-0.3-0.5-0.8c0-0.4,0.2-0.8,0.5-0.9
		C468.5,296.1,468.8,296.4,468.8,296.9z"/>
	<path class="st0" d="M470.5,295.3c0.1,0,0.2-0.1,0.2-0.2s0-0.1-0.1-0.2c-0.5-0.7-1.3-1-2.2-1c-0.1,0-0.3,0.2-0.2,0.3
		c0,0.1,0.1,0.2,0.3,0.2l0,0l0,0c0.7,0,1.3,0.2,1.7,0.8C470.3,295.3,470.4,295.3,470.5,295.3z"/>
	<path class="st0" d="M474.2,296.2l-0.1,0.2c-2.7-9.3-8.4-7.7-8.4-7.7l4.1,1.9c-3.6,0.1-7.2-0.8-10.4-2.5c-1.9,7.3-5.1,8.9-5.1,8.9
		v-0.8c0-17.9,7.3-15.7,11.6-14.9c2.4,0.4,8.7,1.2,9.2-2.6C475,278.5,476.7,289,474.2,296.2z"/>
	<path class="st11" d="M455.7,296.9c0.7,1.2,0.5,2.7-0.5,3.6c-0.9,0.6-2.2-0.1-2.9-1.5c-0.7-1.2-0.5-2.7,0.5-3.6
		C453.7,294.8,455,295.5,455.7,296.9z"/>
	<path class="st11" d="M472.4,296.9c-0.8,1.4-0.8,3.1,0.1,3.6s2.2-0.1,3.1-1.5c0.8-1.4,0.7-3.1-0.1-3.6S473.2,295.5,472.4,296.9z"/>
	<path class="st7" d="M464.1,318.6c4.5,0,8.8-1.8,12.1-4.9c-2.2-1.1-4.5-1.6-7-1.6c-1.7,0.9-3.6,1.4-5.6,1.4
		c-1.9,0.1-3.7-0.4-5.3-1.4c-2.1-0.1-4.3,0.3-6.2,1.2C455.2,316.7,459.6,318.6,464.1,318.6z"/>
</g>
<g id="freepik--character-3--inject-17">
	<path class="st7" d="M500.4,253.6H376.5c-4,0-7.3-3.2-7.3-7.2c0-0.2,0-0.4,0-0.6l9.4-179.4c0.3-4.3,3.8-7.7,8.1-7.7h123.9
		c4,0,7.3,3.2,7.3,7.2c0,0.2,0,0.4,0,0.6l-9.4,179.4C508.2,250.2,504.7,253.5,500.4,253.6z"/>
	<path class="st8" d="M500.4,253.6H376.5c-4,0-7.3-3.2-7.3-7.2c0-0.2,0-0.4,0-0.6l9.4-179.4c0.3-4.3,3.8-7.7,8.1-7.7h123.9
		c4,0,7.3,3.2,7.3,7.2c0,0.2,0,0.4,0,0.6l-9.4,179.4C508.2,250.2,504.7,253.5,500.4,253.6z"/>
	<path class="st7" d="M497.6,250.9H373.7c-4,0-7.3-3.2-7.3-7.2c0-0.2,0-0.4,0-0.6l9.4-179.4c0.3-4.3,3.8-7.7,8.1-7.7h123.9
		c4,0,7.3,3.2,7.3,7.2c0,0.2,0,0.4,0,0.6l-9.4,179.4C505.5,247.5,502,250.8,497.6,250.9z"/>
	<path class="st13" d="M497.6,250.9H373.7c-4,0-7.3-3.2-7.3-7.2c0-0.2,0-0.4,0-0.6l9.4-179.4c0.3-4.3,3.8-7.7,8.1-7.7h123.9
		c4,0,7.3,3.2,7.3,7.2c0,0.2,0,0.4,0,0.6l-9.4,179.4C505.5,247.5,502,250.8,497.6,250.9z"/>
	<polygon class="st7" points="500.6,198.8 376.3,198.8 382.6,77.4 506.9,77.4 	"/>
	<path class="st0" d="M399.3,67.5h22.3c0.9,0,1-1.4,0-1.4h-22.2C398.5,66.1,398.4,67.5,399.3,67.5L399.3,67.5z"/>
	<g class="st14">
		<path class="st10" d="M399.3,67.5h22.3c0.9,0,1-1.4,0-1.4h-22.2C398.5,66.1,398.4,67.5,399.3,67.5L399.3,67.5z"/>
	</g>
	<path class="st0" d="M399.1,71.9h16.8c0.9,0,1-1.4,0.1-1.4h-16.8C398.2,70.5,398.2,71.9,399.1,71.9z"/>
	<g class="st14">
		<path class="st10" d="M399.1,71.9h16.8c0.9,0,1-1.4,0.1-1.4h-16.8C398.2,70.5,398.2,71.9,399.1,71.9z"/>
	</g>
	<path class="st7" d="M441.7,224.8h18.5c1.4,0,1.5-2.1,0.1-2.1h-18.5C440.5,222.6,440.3,224.8,441.7,224.8z"/>
	<path class="st0" d="M375.3,217.9h26.1c1.4,0,1.5-2.1,0.1-2.1h-26.1C374,215.8,373.9,217.9,375.3,217.9L375.3,217.9z"/>
	<path class="st0" d="M374.9,224.8H437c1.4,0,1.5-2.1,0.1-2.1H375C373.7,222.6,373.6,224.8,374.9,224.8z"/>
	<path class="st0" d="M374.6,231.7h45c1.4,0,1.5-2.1,0.1-2.1h-45C373.3,229.5,373.2,231.7,374.6,231.7L374.6,231.7z"/>
	<path class="st0" d="M374.2,238.5h17.4c1.4,0,1.5-2.1,0.1-2.1h-17.4C373,236.4,372.8,238.5,374.2,238.5z"/>
	<g class="st14">
		<path class="st10" d="M375.3,217.9h26.1c1.4,0,1.5-2.1,0.1-2.1h-26.1C374,215.8,373.9,217.9,375.3,217.9L375.3,217.9z"/>
	</g>
	<g class="st14">
		<path class="st10" d="M374.9,224.8H437c1.4,0,1.5-2.1,0.1-2.1H375C373.7,222.6,373.6,224.8,374.9,224.8z"/>
	</g>
	<g class="st14">
		<path class="st10" d="M374.6,231.7h45c1.4,0,1.5-2.1,0.1-2.1h-45C373.3,229.5,373.2,231.7,374.6,231.7L374.6,231.7z"/>
	</g>
	<g class="st14">
		<path class="st10" d="M374.2,238.5h17.4c1.4,0,1.5-2.1,0.1-2.1h-17.4C373,236.4,372.8,238.5,374.2,238.5z"/>
	</g>
	<path class="st0" d="M507.3,71c0,0.4-0.4,0.7-0.7,0.7c-0.4,0-0.7-0.3-0.7-0.6c0,0,0,0,0-0.1c0-0.4,0.3-0.7,0.7-0.7
		S507.3,70.6,507.3,71C507.3,70.9,507.3,71,507.3,71z"/>
	<path class="st0" d="M507.4,68.8c0,0.4-0.3,0.7-0.7,0.7c-0.4,0-0.7-0.3-0.7-0.7l0,0c0-0.4,0.4-0.7,0.8-0.7
		C507.1,68,507.4,68.3,507.4,68.8C507.4,68.7,507.4,68.7,507.4,68.8z"/>
	<path class="st0" d="M507.5,66.5c0,0.4-0.4,0.7-0.7,0.7c-0.4,0-0.7-0.3-0.7-0.6c0,0,0,0,0-0.1c0-0.4,0.3-0.7,0.7-0.7
		S507.5,66.1,507.5,66.5L507.5,66.5z"/>
	<g class="st14">
		<path class="st10" d="M507.3,71c0,0.4-0.4,0.7-0.7,0.7c-0.4,0-0.7-0.3-0.7-0.6c0,0,0,0,0-0.1c0-0.4,0.3-0.7,0.7-0.7
			S507.3,70.6,507.3,71C507.3,70.9,507.3,71,507.3,71z"/>
		<path class="st10" d="M507.4,68.8c0,0.4-0.3,0.7-0.7,0.7c-0.4,0-0.7-0.3-0.7-0.7l0,0c0-0.4,0.4-0.7,0.8-0.7
			C507.1,68,507.4,68.3,507.4,68.8C507.4,68.7,507.4,68.7,507.4,68.8z"/>
		<path class="st10" d="M507.5,66.5c0,0.4-0.4,0.7-0.7,0.7c-0.4,0-0.7-0.3-0.7-0.6c0,0,0,0,0-0.1c0-0.4,0.3-0.7,0.7-0.7
			S507.5,66.1,507.5,66.5L507.5,66.5z"/>
	</g>
	<path class="st0" d="M395.9,211c-2.2,0-4.1-1.8-4.1-4.1c0-0.1,0-0.1,0-0.2c0.2-2.4,2.1-4.2,4.5-4.3c2.2,0,4.1,1.8,4.1,4.1
		c0,0.1,0,0.1,0,0.2c0,0.5-0.2,1.1-0.4,1.6l0.3,2.7l-2.6-0.4C397.2,210.9,396.5,211,395.9,211z M396.3,202.9c-2.1,0-3.8,1.7-4,3.8
		c-0.1,2,1.4,3.7,3.3,3.8c0.1,0,0.2,0,0.3,0c0.6,0,1.1-0.1,1.7-0.4h0.1l2.1,0.3l-0.2-2.2l0,0c0.2-0.5,0.3-0.9,0.4-1.5
		c0.1-2-1.4-3.7-3.3-3.8C396.5,203,396.4,203,396.3,202.9L396.3,202.9z"/>
	<path class="st0" d="M433.6,207.9c0,0.6-0.5,1.1-1.1,1.1s-1-0.5-1-1c0,0,0,0,0-0.1c0-0.6,0.5-1.1,1.1-1.1
		C433.2,206.8,433.6,207.3,433.6,207.9C433.6,207.8,433.6,207.9,433.6,207.9z"/>
	<path class="st7" d="M438.1,207.9c0,0.6-0.5,1.1-1.1,1.1s-1-0.4-1-1c0,0,0,0,0-0.1c0-0.6,0.5-1.1,1.1-1.1
		C437.7,206.8,438.1,207.3,438.1,207.9C438.1,207.8,438.1,207.9,438.1,207.9z"/>
	<path class="st0" d="M442.6,207.9c0,0.6-0.5,1.1-1.1,1.1s-1-0.4-1-1v-0.1c0-0.6,0.5-1.1,1.1-1.1
		C442.1,206.8,442.6,207.3,442.6,207.9C442.6,207.8,442.6,207.9,442.6,207.9z"/>
	<path class="st15" d="M433.6,207.9c0,0.6-0.5,1.1-1.1,1.1s-1-0.5-1-1c0,0,0,0,0-0.1c0-0.6,0.5-1.1,1.1-1.1
		C433.2,206.8,433.6,207.3,433.6,207.9C433.6,207.8,433.6,207.9,433.6,207.9z"/>
	<path class="st15" d="M442.6,207.9c0,0.6-0.5,1.1-1.1,1.1s-1-0.4-1-1v-0.1c0-0.6,0.5-1.1,1.1-1.1
		C442.1,206.8,442.6,207.3,442.6,207.9C442.6,207.8,442.6,207.9,442.6,207.9z"/>
	<path class="st7" d="M384.4,203.3c-2.5-0.1-5-0.1-7.5,0c-1.1,1-1.2,2.6-0.3,3.8l0,0l0.1,0.1l0,0l3.6,3.8l4-3.8l0.1-0.1l0,0
		C385.3,206.1,385.4,204.4,384.4,203.3z"/>
	<path class="st0" d="M500.2,211l-3.8-3l-4.1,3l0.4-8.4h8L500.2,211z M493.1,203l-0.4,7l3.7-2.6l3.4,2.6l0.4-7H493.1z"/>
	<path class="st7" d="M395,68.7c-0.2,3.3-2.9,5.9-6.2,5.9c-3.1,0-5.6-2.4-5.6-5.5c0-0.1,0-0.3,0-0.4c0.2-3.3,2.9-5.9,6.2-5.9
		c3.1,0,5.6,2.4,5.6,5.5C395,68.4,395,68.6,395,68.7z"/>
	<path class="st10" d="M388.7,74.6c1.2,0,2.4-0.4,3.4-1.1l-0.2-1.9c-0.1-0.7-0.7-1.2-1.4-1.2h-0.7v-0.8c0.8-0.5,1.4-1.3,1.4-2.3
		c0.1-1.2-0.7-2.3-1.9-2.5h-0.1c-1.3,0.1-2.3,1.2-2.4,2.5c-0.1,0.9,0.4,1.8,1.2,2.3v0.8h-0.7c-0.7,0-1.4,0.5-1.5,1.2l-0.4,1.9
		C386.4,74.3,387.5,74.7,388.7,74.6z"/>
	<path class="st0" d="M407.8,204.8l4.1,2.4l2.2,4.2l3.2-9.4L407.8,204.8z M409,204.9l7.1-2l-4.1,3.8L409,204.9z M414,210.2l-1.6-3.1
		l4.1-3.8L414,210.2z"/>
	<path class="st10" d="M455,198.8c-0.5-4.7-1.4-9.4-2.8-14l-39.7-2.5c0,0-1.1,4.2-3,16.4L455,198.8z"/>
	<path class="st0" d="M432.1,79c0,0-3.6-6.9,7.7-12.5c11.3-5.6,25.2,1.1,23.6,15.7s12.8,26.2,2.4,37.1s-43.9,8.5-43.1-5.3
		c1-16.7,5.7-16.8,7.4-24.7S432.1,79,432.1,79z"/>
	<path class="st11" d="M386.5,142.7c0,0-5.7-8.8-6.3-9.1c-1.8-0.8-4.1-1.8-4.8-3.5c-0.8-1.7-3.3-4-2.5-7s5.4-4.7,7-5.2
		c1.5-0.5,5.2,2,6.1,4.7c0.5,2.6,0.7,5.2,0.4,7.8l6.2,6.3L386.5,142.7z"/>
	<path class="st0" d="M384.7,141.8c2.9,5,7.2,11.2,12.1,12.5c7.5,2,22.7-17,22.7-17s12-28.7,2.3-22.5c-4.9,3.2-9.9,9.3-15.1,17.8
		c-5.1,8.5-6.7,9.2-9,8.7c-1.2-0.2-3.6-3.7-5.8-6L384.7,141.8z"/>
	<path class="st16" d="M384.7,141.8c2.9,5,7.2,11.2,12.1,12.5c7.5,2,22.7-17,22.7-17s12-28.7,2.3-22.5c-4.9,3.2-9.9,9.3-15.1,17.8
		c-5.1,8.5-6.7,9.2-9,8.7c-1.2-0.2-3.6-3.7-5.8-6L384.7,141.8z"/>
	<path class="st17" d="M421.9,131.1l-3.6-1.7l-6,3.6c0,0-2.6,13.2-8.3,19.2c7.3-4.7,15.5-14.9,15.5-14.9S420.5,134.6,421.9,131.1z"
		/>
	<path class="st11" d="M449.5,94.4c-1.6,5.7-3.3,14,0.4,17.9c0,0-0.7,5.8-17.3,11.7c-5.2-8.5-0.5-12.2-0.5-12.2
		c6.5-1.4,6.5-4,5.8-8.4L449.5,94.4z"/>
	<path class="st16" d="M444.7,98.1l-6.8,5.4c0.2,1,0.3,2.1,0.3,3.2c2.5-0.3,6.5-2.3,7.2-4.9C445.5,100.5,445.3,99.2,444.7,98.1z"/>
	<path class="st11" d="M457.7,84.8c-3.3,9.3-4.5,13.3-10.6,17c-9.2,5.6-19.7,0.1-19.2-9.8c0.4-8.9,5.7-22.7,15.9-24.2
		c6.8-1.3,13.3,3.2,14.5,10c0.1,0.3,0.1,0.6,0.1,1C458.7,80.8,458.4,82.9,457.7,84.8z"/>
	<path class="st0" d="M442.1,83.8c-0.2,0.8-0.8,1.4-1.4,1.2c-0.5-0.2-0.7-0.8-0.5-1.6c0.2-0.8,0.8-1.3,1.4-1.2
		C442.1,82.3,442.2,83,442.1,83.8z"/>
	<path class="st0" d="M433.5,81.8c-0.2,0.8-0.8,1.3-1.4,1.2c-0.5-0.1-0.7-0.8-0.5-1.6c0.2-0.8,0.8-1.3,1.4-1.2
		C433.6,80.3,433.7,81,433.5,81.8z"/>
	<path class="st11" d="M435.8,83.8c-1.2,1.6-2.6,3-4.1,4.3c0.6,0.8,1.6,1.2,2.6,1.2L435.8,83.8z"/>
	<path class="st0" d="M437.5,93.2c-0.4,0-0.8-0.1-1.1-0.2c-0.1,0-0.2-0.1-0.2-0.2l0,0l0,0c0-0.1,0.2-0.2,0.3-0.2
		c1.9,0.5,4,0,5.6-1.2c0.1-0.1,0.2-0.1,0.3,0c0.1,0.1,0.1,0.2,0,0.3C441,92.8,439.2,93.3,437.5,93.2z"/>
	<path class="st0" d="M446,82.8c-0.2,0-0.4-0.2-0.4-0.4c-0.5-1.4-1.5-2.6-2.9-3.1c-0.2-0.1-0.3-0.4-0.3-0.6l0,0
		c0.1-0.2,0.4-0.4,0.6-0.3l0,0c1.7,0.7,2.9,2,3.5,3.8c0,0.3-0.1,0.5-0.4,0.6l0,0C446.1,82.8,446.1,82.8,446,82.8z"/>
	<path class="st0" d="M432.1,77.1c-0.2,0-0.3-0.1-0.4-0.3c-0.1-0.2,0-0.5,0.2-0.6c1.3-0.7,2.9-0.7,4.3,0c0.2,0.1,0.3,0.4,0.1,0.6
		l0,0l0,0c-0.1,0.2-0.4,0.3-0.6,0.2l0,0c-1.1-0.5-2.3-0.5-3.4,0C432.3,77.1,432.2,77.1,432.1,77.1z"/>
	<path class="st0" d="M411.3,187c0,0-1.7-58.2,3.4-65.7c5.2-7.5,15.4-12.3,30.1-10.3s21.1,4.8,18.7,16s-9.3,63.4-9.3,63.4
		S427.3,194.2,411.3,187z"/>
	<path class="st16" d="M411.3,187c0,0-1.7-58.2,3.4-65.7c5.2-7.5,15.4-12.3,30.1-10.3s21.1,4.8,18.7,16s-9.3,63.4-9.3,63.4
		S427.3,194.2,411.3,187z"/>
	<path class="st0" d="M432,112.2l1.4-3.3c0.6-1.3,1.9-2.2,3.3-2.1l11.9,0.9c1.6,0.1,2.8,1.6,2.7,3.2l-0.2,3.6L432,112.2z"/>
	<path class="st16" d="M432,112.2l1.4-3.3c0.6-1.3,1.9-2.2,3.3-2.1l11.9,0.9c1.6,0.1,2.8,1.6,2.7,3.2l-0.2,3.6L432,112.2z"/>
	<path class="st17" d="M463.1,129.8l-0.2-0.9l-3.7-2.8l-4.3,2.8l5,22.1C461,142.5,462.2,134.6,463.1,129.8z"/>
	<path class="st11" d="M461.3,176.1l-4.2,5.1c0,0-7,1.4-8.3,3.3c-1.3,1.9-5.9,5.7-2.5,7.8c3.1,2.1,7.3,1.8,10.1-0.8
		c2.8-2.6,4.1-4.4,4.4-5.9l6.2-6.4L461.3,176.1z"/>
	<path class="st0" d="M444.1,66.4c0,0-14.5,0.7-9.8,8.3c0,0,7.3-0.6,11.2,3c0,0,0.5-4.9,4.1-4.9c0,0-5.3,5.1-0.6,11
		c4.7,5.8,0.3,8.5,0.3,8.5s2.3,1.1,4.4-2.6l3.2-0.4l2.3-6.2l0.4-8.1l-2.3-4.1l-3.7-3.2l-5-1.2L444.1,66.4z"/>
	<path class="st11" d="M458.1,92.7c-1.1,1.5-2.7,2.6-4.5,3c-2.4,0.5-3.3-1.7-2.5-3.9c0.8-2,3.1-4.6,5.4-4.2c1.6,0.4,2.6,1.9,2.2,3.5
		c0,0.1,0,0.1-0.1,0.2C458.6,91.9,458.4,92.3,458.1,92.7z"/>
	<path class="st0" d="M457.2,113.7c0,0,10.1,2.8,18,30.7s-10.2,38-10.2,38l-5.4-6c0,0,7.4-10.2,6.9-16.3s-6.3-19.6-6.3-19.6
		S444.7,112.1,457.2,113.7z"/>
	<path class="st16" d="M457.2,113.7c0,0,10.1,2.8,18,30.7s-10.2,38-10.2,38l-5.4-6c0,0,7.4-10.2,6.9-16.3s-6.3-19.6-6.3-19.6
		S444.7,112.1,457.2,113.7z"/>
	<path class="st7" d="M461,47.6h-19.1c-0.9,0-1.1-1.5-0.1-1.5h19.1C461.8,46.1,462,47.6,461,47.6L461,47.6z"/>
	<path class="st7" d="M434.9,47.6h-5.5c-0.9,0-1.1-1.5-0.1-1.5h5.5C435.7,46.1,435.9,47.6,434.9,47.6z"/>
	<g class="st18">
		<path class="st10" d="M461,47.6h-19.1c-0.9,0-1.1-1.5-0.1-1.5h19.1C461.8,46.1,462,47.6,461,47.6L461,47.6z"/>
	</g>
	<g class="st18">
		<path class="st10" d="M434.9,47.6h-5.5c-0.9,0-1.1-1.5-0.1-1.5h5.5C435.7,46.1,435.9,47.6,434.9,47.6z"/>
	</g>
</g>
<g id="freepik--character-2--inject-17">
	<polygon class="st11" points="306.9,434.7 306.6,452.9 316.1,452.3 317.3,435.9 	"/>
	<path class="st0" d="M317.8,451.2l-12.1-0.2c-0.5,0-0.8,0.3-1,0.7l-2.3,9.8c-0.2,0.9,0.3,1.7,1.2,2h0.3c4.3,0,8.2-0.2,13.6-0.1
		c6.4,0.1,4.7,0.9,12.2,1.1c4.5,0.1,5.4-5,3.5-5.3c-8.8-1.3-9.6-3.9-12.9-7.1C319.7,451.5,318.8,451.2,317.8,451.2z"/>
	<polygon class="st16" points="306.8,437.6 306.7,444.4 316.7,444.7 317,439.3 	"/>
	<polygon class="st11" points="264.3,431.6 261.9,449.5 271.5,450.1 274.5,433.9 	"/>
	<path class="st0" d="M273.3,449.1l-12-1.6c-0.4-0.1-0.9,0.2-1,0.6l-3.4,9.5c-0.3,0.8,0.1,1.8,0.9,2.1c0.1,0,0.2,0.1,0.3,0.1
		c4.3,0.5,8.1,0.8,13.6,1.5c6.3,0.8,4.6,1.4,12,2.5c4.5,0.7,6-4.3,4.1-4.8c-8.6-2.2-9.1-5-12.1-8.5
		C275.2,449.7,274.3,449.2,273.3,449.1z"/>
	<polygon class="st16" points="263.9,434.4 263,441.1 272.9,442.6 273.9,437.2 	"/>
	<path class="st0" d="M313.5,113.2c0,0-18.1-5.8-22.2,10.2s-3.2,20.5-10.5,26.3c8.2,5.4,18.2,7.7,28,6.4c0,0,9.2,2.3,15.4-1
		c6.2-3.2,3-24.8,1.1-30.6C323.1,118,318.2,113.3,313.5,113.2z"/>
	<path class="st0" d="M319.9,230c0,0,10.5,85.2,8.4,102s-9.8,109.9-9.8,109.9h-13.3c0,0-4.7-80.3,0-111.8c0,0-12.4-72.4-11-90.6
		S319.1,223.9,319.9,230z"/>
	<path class="st19" d="M303.2,318.1c2.9-28.5-3.2-60.8-3.2-60.8l-4.3,7.5C297.7,282.8,301.1,304.8,303.2,318.1z"/>
	<path class="st0" d="M300.9,269.5c0,25.3-0.2,55.4-2.5,64.5c-4.1,16.5-23.7,105.3-23.7,105.3l-13.2-1.5c0,0,6-77.7,14.2-108.4
		c0,0-1.7-29.1-1.9-56c0,0-7.9-21.7,2.1-48.8c0,0,22.5-6.4,29.6,2.6C305.6,227.3,300.9,258.7,300.9,269.5z"/>
	<path class="st11" d="M336.6,190.2l7,21.5c0,0,11.9,1.6,20.7-1.2c2.3-3.3,6-5.4,10-5.8c6.5-0.3,7,0.7,7,0.7
		c-0.3,0.8-0.9,1.4-1.7,1.6c-1.4,0.4-3.8,0.7-3.8,0.7s0.2,8.8-3.8,10c-2.4,0.7-5,0.7-7.4,0c0,0-19.4,5.3-25.5,3.3
		c-6.1-1.9-11.6-27.6-11.6-27.6L336.6,190.2z"/>
	<path class="st7" d="M328.8,165.7c0,0,5.2,0,7.1,8.8s2.3,11.7,2.3,11.7s2.1,1.2,1.4,4.6c-2.9,3-6.3,5.4-10,7.2
		C324,200.5,324.9,165.8,328.8,165.7z"/>
	<path class="st12" d="M334.2,176.8l-5.5,3.3l-3,4.9c0.2,7.5,1.4,14.2,3.9,13.1c1.6-0.7,3.2-1.6,4.6-2.6V176.8z"/>
	<path class="st7" d="M320.7,235.6c0,0,4.5-21.5,6.8-27.5c1.8-4.7,4-7.9,4.9-19.6c0.4-5.6,5.4-19.8-2.6-22.4
		c-8-2.6-42.9-10-47.6-4.4s-2.9,39.6-4.4,52.7c-0.5,3.9-3.7,15.2-3.7,15.2L320.7,235.6z"/>
	<path class="st11" d="M273.2,177.7l6.8,11c0,0-3.5,11.4-5.9,18.4c0,0,9.8,8.9,19.8,11.6c0,0,7.4-1.1,11.4,1.4s3.6,4.6,3.6,4.6
		s-5.1,5.8-8.6,4.6c-3.6-1.3-5.3-1.2-7.9-3.9c0,0-27.8-7.7-29.4-13.8C260.6,202.6,273.2,177.7,273.2,177.7z"/>
	<path class="st11" d="M302.6,141.5c0.2,5.9-1,15.8-6.4,17.6c0,0,0.6,6.6,15.7,15.6c7.2-7.4,4.7-12.6,4.7-12.6
		c-7.2-2.5-6.5-5.2-4.6-9.4L302.6,141.5z"/>
	<path class="st7" d="M287.9,160.3c0,0-6.4-2.9-15.6,12.4c-1.7,0-3,1.4-3,3.1c0,0.2,0,0.4,0.1,0.7c0,0,5.6,13,12.2,17
		c0,0,3.4-0.6,1.3-4.4C282.9,189.1,288.9,167.2,287.9,160.3z"/>
	<path class="st10" d="M296.4,158.7c0,0,9.1,14.3,14.7,14.1s4.9-11.2,4.9-11.2l4.2,0.9c0,0,0.6,21.7-7.8,13.1c0,0-2.2,3.7-7.6,1.3
		c-5.5-2.4-11.9-18.1-11.9-18.1L296.4,158.7z"/>
	<path class="st12" d="M305.4,148.9c0.9,2.9,2.8,5.4,5.4,6.9c0.3-1.1,0.6-2.1,1.1-3.1l-2.6-3.1L305.4,148.9z"/>
	<path class="st11" d="M296.8,130.5c1,9.8,1.2,13.9,6.4,18.8c7.8,7.3,19.5,3.9,21.5-6c1.7-8.9-0.2-23.4-9.9-26.9
		c-7-2.5-14.7,1.1-17.2,8C296.8,126.3,296.5,128.4,296.8,130.5L296.8,130.5z"/>
	<path class="st0" d="M312.5,135.2c0,0.8,0.5,1.4,1,1.4s0.9-0.7,0.9-1.5s-0.5-1.4-1-1.4C312.9,133.8,312.5,134.4,312.5,135.2z"/>
	<path class="st0" d="M321.5,134.9c0,0.8,0.5,1.4,1,1.4s0.9-0.7,0.9-1.5s-0.5-1.4-1-1.4S321.5,134.1,321.5,134.9z"/>
	<path class="st0" d="M322.2,133.4l1.9-0.6C324.1,132.8,323.1,134.3,322.2,133.4z"/>
	<path class="st11" d="M318.8,136.4c0.8,1.8,1.8,3.5,3.1,5c-0.8,0.6-1.8,0.8-2.8,0.7L318.8,136.4z"/>
	<path class="st0" d="M314.8,145.3c0.4,0,0.8,0,1.2,0c0.1,0,0.2-0.1,0.2-0.2l0,0c0-0.1-0.1-0.2-0.3-0.2c-2,0.1-4-0.7-5.3-2.3
		c-0.1-0.1-0.2-0.1-0.3,0l0,0c-0.1,0.1-0.1,0.2,0,0.3C311.5,144.3,313.1,145.2,314.8,145.3z"/>
	<path class="st0" d="M308.8,133.5c0.2,0,0.4-0.1,0.5-0.3c0.8-1.3,2.1-2.2,3.7-2.5c0.3-0.1,0.4-0.3,0.4-0.6c0-0.2-0.3-0.4-0.5-0.4
		l0,0l0,0c-1.8,0.3-3.4,1.4-4.4,3c-0.1,0.2,0,0.5,0.2,0.6l0,0l0,0C308.7,133.5,308.8,133.5,308.8,133.5z"/>
	<path class="st0" d="M324,130.6c0.2,0,0.3,0,0.4-0.2s0.1-0.5-0.1-0.7c-1.2-1-2.8-1.3-4.2-0.8c-0.2,0.1-0.4,0.3-0.3,0.6l0,0
		c0.1,0.2,0.4,0.4,0.6,0.3l0,0c1.2-0.3,2.4-0.1,3.3,0.7C323.8,130.5,323.9,130.6,324,130.6z"/>
	<path class="st0" d="M313.2,133.8l1.9-0.6C315,133.2,314.1,134.7,313.2,133.8z"/>
	<path class="st0" d="M324.6,126.3c0,0-1.7-6.1-3.7-7.9c-1.9-1.8-6-4.6-15.5-2.9c-9.4,1.7-12.5,23.9-6.7,21.9c5.9-2,9.9-9.5,9.9-9.5
		l-1.1,4.1c4.7-2.5,7-9.3,7.4-10.6c1.4,2.2,2.1,4.7,2.1,7.3c0,0,4.8-2.4,2.3-6.5C321.3,123.2,323.1,124.6,324.6,126.3z"/>
	<path class="st11" d="M294.5,138.1c0.7,1.7,2,3.1,3.7,3.9c2.3,1,3.7-1,3.4-3.3c-0.3-2.1-1.9-5.1-4.4-5.1c-1.8,0-3.1,1.5-3.1,3.3
		l0,0C294.2,137.2,294.3,137.7,294.5,138.1z"/>
</g>
<g id="freepik--speech-bubble-1--inject-17">
	<path class="st7" d="M343.7,54.7l-1.8,34.7c-0.1,2.4-2.1,4.2-4.5,4.2H217c-1.6,0-3.1,0.6-4.3,1.7l-6.8,6.5c-0.9,1-2.4,1-3.3,0.1
		c-0.5-0.5-0.8-1.1-0.8-1.8l2.4-45.4c0.1-2.4,2.1-4.2,4.5-4.2h130.9c2.2,0,4,1.7,4,3.9C343.7,54.5,343.7,54.6,343.7,54.7z"/>
	<path class="st8" d="M343.7,54.7l-1.8,34.7c-0.1,2.4-2.1,4.2-4.5,4.2H217c-1.6,0-3.1,0.6-4.3,1.7l-6.8,6.5c-0.9,1-2.4,1-3.3,0.1
		c-0.5-0.5-0.8-1.1-0.8-1.8l2.4-45.4c0.1-2.4,2.1-4.2,4.5-4.2h130.9c2.2,0,4,1.7,4,3.9C343.7,54.5,343.7,54.6,343.7,54.7z"/>
	<path class="st7" d="M341.1,52l-1.8,34.7c-0.1,2.4-2.1,4.2-4.5,4.2H214.4c-1.6,0-3.1,0.6-4.3,1.7l-6.8,6.5c-0.9,1-2.4,1-3.3,0.1
		c-0.5-0.5-0.8-1.1-0.8-1.8l2.4-45.4c0.1-2.4,2.1-4.2,4.4-4.2h131c2.2-0.1,4,1.7,4.1,3.9C341.1,51.8,341.1,51.9,341.1,52z"/>
	<path class="st9" d="M341.1,52l-1.8,34.7c-0.1,2.4-2.1,4.2-4.5,4.2H214.4c-1.6,0-3.1,0.6-4.3,1.7l-6.8,6.5c-0.9,1-2.4,1-3.3,0.1
		c-0.5-0.5-0.8-1.1-0.8-1.8l2.4-45.4c0.1-2.4,2.1-4.2,4.4-4.2h131c2.2-0.1,4,1.7,4.1,3.9C341.1,51.8,341.1,51.9,341.1,52z"/>
	
		<ellipse transform="matrix(0.7163 -0.6978 0.6978 0.7163 15.5888 176.9265)" class="st10" cx="225.4" cy="69.3" rx="17.2" ry="16.3"/>
	<path class="st0" d="M231.9,82.6l3-1.5c0,0,4.1-16.9-0.7-27l-5.6-1.6h-2l-5.6,0.7c0,0-6.8,1.5-5.6,27.1l2.3,1.9l0.9,0.5
		c2.2,0.6,4.4,1,6.6,1.1c2,0.3,4.1-0.1,5.8-1.1L231.9,82.6z"/>
	<path class="st11" d="M219.9,80.6c1.6-1.7,2.6-4,2.7-6.4h6.3c0,0-0.3,6.4,2.7,6.4H219.9z"/>
	<path class="st12" d="M222.6,74.2c-0.1,0.9-0.3,1.7-0.5,2.5c2.2,0.9,4.7,0.9,6.9,0c-0.1-0.8-0.1-1.6-0.1-2.5H222.6z"/>
	<path class="st11" d="M235.2,64.4c-0.4,6.5-4.1,11.8-9.9,11.8s-9-5.3-8.6-11.8s4.1-11.8,9.9-11.8S235.5,57.8,235.2,64.4z"/>
	<path class="st20" d="M226.6,64.9c0.2,1.1,0.5,2.1,0.9,3.1c-0.5,0.2-1.1,0.2-1.7,0L226.6,64.9z"/>
	<path class="st0" d="M222.5,64.9c0,0.4,0.1,0.8,0.4,0.8c0.3,0,0.5-0.3,0.6-0.7c0.1-0.4-0.1-0.8-0.4-0.8
		C222.8,64.2,222.5,64.5,222.5,64.9z"/>
	<path class="st0" d="M221,63.4h-0.1c-0.1-0.1-0.1-0.3,0-0.4c0.5-0.6,1.3-0.9,2.2-0.9c0.1,0,0.2,0.1,0.2,0.2l0,0
		c0,0.1-0.2,0.2-0.3,0.2l0,0l0,0c-0.7,0-1.3,0.2-1.7,0.7C221.2,63.5,221.1,63.5,221,63.4z"/>
	<path class="st0" d="M230.2,64.9c0,0.4-0.2,0.8-0.5,0.8s-0.5-0.3-0.5-0.7c0-0.4,0.2-0.8,0.5-0.8C230,64.2,230.2,64.5,230.2,64.9z"
		/>
	<path class="st0" d="M231.8,63.4h0.1c0.1-0.1,0.1-0.3,0-0.4c-0.5-0.6-1.3-1-2.1-0.9c-0.1,0-0.2,0.1-0.2,0.3l0,0
		c0,0.1,0.1,0.2,0.3,0.2l0,0l0,0c0.6,0,1.3,0.2,1.6,0.7C231.6,63.5,231.7,63.5,231.8,63.4z"/>
	<path class="st0" d="M226.2,71.5c0.3,0,0.5,0,0.8-0.1c0.1,0,0.1-0.1,0.1-0.1l0,0l0,0c0-0.1-0.1-0.1-0.1-0.1
		c-1.1,0.2-2.3-0.1-3.1-0.9c-0.1-0.1-0.1,0-0.2,0c0,0,0,0.1,0,0.2C224.3,71.1,225.3,71.5,226.2,71.5z"/>
	<path class="st0" d="M231.5,59.2c0,0,1.1,5.6,3.7,6.3l1.1-1.2c0,0,2.1-13.7-8.9-13.7c-13.2,0-11.2,14.9-11.2,14.9s3.9-1.3,4.6-9.6
		c2,2.7,5.4,4.1,8.7,3.7L231.5,59.2z"/>
	<path class="st11" d="M217.8,65c0.7,1.1,0.5,2.6-0.5,3.5c-0.9,0.6-2.1-0.1-2.7-1.4c-0.7-1.1-0.5-2.6,0.5-3.5
		C215.9,63,217.1,63.6,217.8,65z"/>
	<path class="st11" d="M233.6,65c-0.8,1.4-0.7,2.9,0.1,3.5s2.1-0.1,2.9-1.4s0.7-2.9-0.1-3.5S234.4,63.6,233.6,65z"/>
	<path class="st7" d="M224.5,86c4.6,0,9-1.9,12.3-5.2c-2.1-1-4.3-1.5-6.6-1.5c-1.6,0.9-3.5,1.3-5.3,1.3c-1.8,0.1-3.5-0.4-5-1.3
		c-2.4-0.2-4.9,0.5-6.9,1.8C216,84.3,220.2,86.1,224.5,86z"/>
	<polygon class="st7" points="319.8,77.1 315,72 316.6,70.5 320,74 326.4,67.9 327.9,69.4 	"/>
	<polygon class="st7" points="321.8,71.9 320.4,70.5 318.8,72 320.2,73.5 	"/>
	<polygon class="st7" points="330.2,67.9 323.8,74 323.6,73.9 322,75.4 323.6,77.1 331.7,69.4 	"/>
	<path class="st0" d="M260.7,65.6L260.1,77h-0.9l0.3-5.4H253l-0.3,5.4h-0.9l0.6-11.4h0.9l-0.3,5.1h6.6l0.3-5.1H260.7z"/>
	<path class="st0" d="M270.7,72.9v0.4h-7.4c0,1.7,1.4,3.1,3.2,3.1h0.1c1.2,0.1,2.3-0.5,2.9-1.5l0.7,0.4c-0.8,1.2-2.2,1.9-3.6,1.8
		c-2.1,0.1-4-1.5-4.1-3.7c0-0.2,0-0.4,0-0.6c0.1-2.4,2-4.3,4.4-4.2c2.1,0,3.8,1.7,3.8,3.8C270.7,72.6,270.7,72.8,270.7,72.9z
		 M263.3,72.5h6.5c0.1-1.6-1.2-3-2.8-3.1c-0.1,0-0.1,0-0.2,0C265.1,69.4,263.6,70.7,263.3,72.5L263.3,72.5z"/>
	<path class="st0" d="M273,65.1h0.8L273.2,77h-0.8L273,65.1z"/>
	<path class="st0" d="M276.3,65.1h0.8L276.5,77h-0.8L276.3,65.1z"/>
	<path class="st0" d="M278.7,72.9c0.1-2.4,2.1-4.2,4.5-4.2c2.2-0.1,4,1.7,4.1,3.8c0,0.1,0,0.3,0,0.4c-0.1,2.4-2.1,4.2-4.5,4.2
		c-2.2,0.1-4-1.6-4.1-3.8C278.7,73.2,278.7,73,278.7,72.9z M286.4,72.9c0.1-1.8-1.2-3.3-2.9-3.4c-0.1,0-0.2,0-0.3,0
		c-1.9,0-3.5,1.5-3.6,3.5c-0.1,1.8,1.2,3.3,2.9,3.5c0.1,0,0.2,0,0.3,0C284.7,76.3,286.3,74.8,286.4,72.9L286.4,72.9z"/>
	<path class="st0" d="M288.1,76.4c0-0.4,0.4-0.7,0.8-0.7s0.7,0.3,0.7,0.7c0,0,0,0,0,0.1c0,0.4-0.4,0.7-0.8,0.7
		C288.4,77.1,288.1,76.8,288.1,76.4L288.1,76.4z"/>
	<path class="st0" d="M291.6,76.4c0-0.4,0.4-0.7,0.8-0.7s0.7,0.3,0.7,0.7l0,0c0,0.4-0.4,0.7-0.8,0.7
		C291.9,77.1,291.6,76.8,291.6,76.4L291.6,76.4z"/>
	<path class="st0" d="M295,76.4c0-0.4,0.4-0.7,0.8-0.7s0.7,0.3,0.7,0.7c0,0,0,0,0,0.1c0,0.4-0.4,0.7-0.8,0.7
		C295.3,77.1,295,76.8,295,76.4L295,76.4z"/>
</g>
</svg>
