<?xml version="1.0" encoding="utf-8"?>
<!-- Generator: Adobe Illustrator 26.3.0, SVG Export Plug-In . SVG Version: 6.00 Build 0)  -->
<svg version="1.1" id="Layer_1" xmlns="http://www.w3.org/2000/svg" xmlns:xlink="http://www.w3.org/1999/xlink" x="0px" y="0px"
	 viewBox="0 0 750 500" style="enable-background:new 0 0 750 500;" xml:space="preserve">
<style type="text/css">
	.st0{fill:#E6E6E6;}
	.st1{fill:#F5F5F5;}
	.st2{fill:#EBEBEB;}
	.st3{fill:#E0E0E0;}
	.st4{fill:#FAFAFA;}
	.st5{fill:#FFFFFF;}
	.st6{fill:#F0F0F0;}
	.st7{opacity:0.7;fill:#E0E0E0;enable-background:new    ;}
	.st8{fill:#009FE3;}
	.st9{opacity:0.7;fill:#FFFFFF;enable-background:new    ;}
	.st10{opacity:0.2;enable-background:new    ;}
	.st11{opacity:0.4;enable-background:new    ;}
	.st12{opacity:0.8;fill:#FFFFFF;enable-background:new    ;}
	.st13{opacity:0.33;fill:#009FE3;enable-background:new    ;}
	.st14{opacity:0.27;fill:#009FE3;enable-background:new    ;}
	.st15{opacity:0.6;fill:#009FE3;enable-background:new    ;}
	.st16{opacity:0.5;fill:#FFFFFF;enable-background:new    ;}
	.st17{clip-path:url(#SVGID_00000169545989835858233490000000199096816666829462_);}
	.st18{fill:none;}
	.st19{fill:#E4897B;}
	.st20{fill:#CE6F64;}
	.st21{fill:#263238;}
	.st22{fill:#DE5753;}
	.st23{opacity:0.3;enable-background:new    ;}
	.st24{opacity:0.54;}
</style>
<g id="freepik--background-complete--inject-38">
	<rect x="66.1" y="409.5" class="st0" width="626.1" height="0.3"/>
	<rect x="583.9" y="427.1" class="st0" width="13.3" height="0.3"/>
	<rect x="520.7" y="427.2" class="st0" width="54" height="0.3"/>
	<rect x="362.7" y="424.3" class="st0" width="91.2" height="0.3"/>
	<rect x="281.3" y="429.7" class="st0" width="28.9" height="0.3"/>
	<rect x="174" y="424.4" class="st0" width="39.8" height="0.3"/>
	<rect x="220.8" y="424.4" class="st0" width="37.2" height="0.3"/>
	<rect x="147.9" y="418.9" class="st0" width="38" height="0.3"/>
	<path class="st0" d="M510.4,235.7c0,0,0.9,14.7,34.4,14.7c33.5,0,34.4-14.7,34.4-14.7H510.4z"/>
	<rect x="408.4" y="262" class="st0" width="34.2" height="140.9"/>
	<rect x="415" y="402.9" class="st0" width="178.7" height="6.6"/>
	<rect x="442.6" y="262" class="st1" width="157.7" height="140.9"/>
	<rect x="456.1" y="315.2" class="st0" width="130.8" height="34.4"/>
	<rect x="456.1" y="355.9" class="st0" width="130.8" height="34.4"/>
	<path class="st1" d="M541,319h-39.1c-1.3,0-2.4-1.1-2.4-2.4l0,0l0,0c0-1.3,1.1-2.4,2.4-2.4H541c1.3,0,2.4,1.1,2.4,2.4l0,0
		C543.4,317.9,542.3,319,541,319L541,319z"/>
	<rect x="456.1" y="274.5" class="st0" width="130.8" height="34.4"/>
	<path class="st1" d="M541,278.3h-39.1c-1.3,0-2.4-1.1-2.4-2.4l0,0c0-1.3,1.1-2.4,2.4-2.4l0,0H541c1.3,0,2.4,1.1,2.4,2.4l0,0l0,0
		C543.4,277.2,542.3,278.3,541,278.3z"/>
	<path class="st1" d="M541,359.7h-39.1c-1.3,0-2.4-1.1-2.4-2.4l0,0c0-1.3,1.1-2.4,2.4-2.4l0,0H541c1.3,0,2.4,1.1,2.4,2.4l0,0l0,0
		C543.4,358.6,542.3,359.7,541,359.7z"/>
	<rect x="442.6" y="250.4" class="st2" width="162.2" height="11.6"/>
	<rect x="403.6" y="250.4" class="st3" width="39" height="11.6"/>
	<rect x="421.6" y="209.7" class="st0" width="34" height="40.7"/>
	<rect x="455.6" y="209.7" class="st4" width="60.3" height="40.7"/>
	<path class="st5" d="M499.7,231.2c0,2.9-6.3,5.3-13.9,5.3s-13.9-2.4-13.9-5.3s6.3-5.3,13.9-5.3S499.7,228.3,499.7,231.2z"/>
	<rect x="419.7" y="208" class="st0" width="35.9" height="8.1"/>
	<rect x="184.7" y="368.8" class="st3" width="34" height="40.7"/>
	<rect x="218.7" y="368.8" class="st6" width="162.8" height="40.7"/>
	<rect x="184.7" y="374" class="st7" width="197.1" height="2.8"/>
	<rect x="182.8" y="367.1" class="st3" width="35.9" height="8.1"/>
	<rect x="218.7" y="367.1" class="st6" width="164.6" height="8.1"/>
	<rect x="212.8" y="293.5" class="st0" width="44.2" height="73.6"/>
	<rect x="257.1" y="293.5" class="st2" width="110.5" height="73.6"/>
	<rect x="212.8" y="300.2" class="st7" width="155.3" height="3.6"/>
	<rect x="210.4" y="285" class="st0" width="46.7" height="16.7"/>
	<rect x="257.1" y="285" class="st2" width="113" height="16.7"/>
	<circle class="st6" cx="163.6" cy="378.3" r="31.3"/>
	<path class="st7" d="M148.2,359.6c1.9-1.9,2.6-4.2,1.7-5.1c-1-0.9-3.2-0.1-5.1,1.8c-1.9,1.9-2.6,4.2-1.7,5.1
		C144.1,362.4,146.4,361.5,148.2,359.6z"/>
	<path class="st7" d="M161.3,353.7c2.6-0.5,4.6-2,4.3-3.2c-0.3-1.3-2.6-1.9-5.2-1.4c-2.6,0.5-4.6,2-4.3,3.2
		C156.3,353.6,158.6,354.3,161.3,353.7z"/>
	<path class="st7" d="M158.6,364.7c2.5-0.9,4.1-2.9,3.6-4.4c-0.6-1.6-3-2.1-5.6-1.3c-2.5,0.8-4.1,2.9-3.6,4.4
		C153.5,365,156,365.6,158.6,364.7z"/>
</g>
<g id="freepik--Shadow--inject-38">
	<ellipse class="st1" cx="379.2" cy="444.8" rx="242.8" ry="7.1"/>
</g>
<g id="freepik--Character--inject-38">
	<path class="st8" d="M306.7,70.2h144.1c10.1,0,18.3,8.2,18.3,18.3v345c0,10.1-8.2,18.3-18.3,18.3H306.7c-10.1,0-18.3-8.2-18.3-18.3
		v-345C288.4,78.4,296.6,70.2,306.7,70.2z"/>
	<path class="st9" d="M306.7,70.2h144.1c10.1,0,18.3,8.2,18.3,18.3v345c0,10.1-8.2,18.3-18.3,18.3H306.7c-10.1,0-18.3-8.2-18.3-18.3
		v-345C288.4,78.4,296.6,70.2,306.7,70.2z"/>
	<path class="st8" d="M311.6,69.6h144.1c10.1,0,18.3,8.2,18.3,18.3v345c0,10.1-8.2,18.3-18.3,18.3H311.6c-10.1,0-18.3-8.2-18.3-18.3
		v-345C293.3,77.8,301.5,69.6,311.6,69.6z"/>
	<path class="st10" d="M311.6,69.6h144.1c10.1,0,18.3,8.2,18.3,18.3v345c0,10.1-8.2,18.3-18.3,18.3H311.6
		c-10.1,0-18.3-8.2-18.3-18.3v-345C293.3,77.8,301.5,69.6,311.6,69.6z"/>
	<path class="st8" d="M390.7,434.4c0,4.5-3.6,8.2-8.1,8.2c-4.5,0-8.2-3.6-8.2-8.1c0-4.5,3.6-8.2,8.1-8.2c0,0,0,0,0,0
		C387,426.3,390.7,429.9,390.7,434.4z"/>
	<path class="st11" d="M390.7,434.4c0,4.5-3.6,8.2-8.1,8.2c-4.5,0-8.2-3.6-8.2-8.1c0-4.5,3.6-8.2,8.1-8.2c0,0,0,0,0,0
		C387,426.3,390.7,429.9,390.7,434.4z"/>
	<polygon class="st8" points="472.5,422.5 292.7,422.5 292.7,94.5 473.8,94.5 	"/>
	<polygon class="st12" points="474.1,422.3 292.6,422.5 292.6,94.5 474,94.3 	"/>
	<rect x="277.8" y="100" class="st13" width="1.3" height="16.6"/>
	<rect x="277.8" y="121.1" class="st13" width="1.3" height="5.2"/>
	<path class="st5" d="M310.2,108.1h124.7c6.9,0,12.4,5.6,12.4,12.4V195c0,6.9-5.6,12.4-12.4,12.4H310.2c-6.9,0-12.4-5.6-12.4-12.4
		v-74.5C297.7,113.6,303.3,108.1,310.2,108.1z"/>
	<circle class="st14" cx="320.6" cy="131" r="16.6"/>
	<path class="st5" d="M334.3,131c0,2.3-0.6,4.5-1.7,6.5c-3.6,6.6-11.9,9.1-18.5,5.5c-6.6-3.6-9.1-11.9-5.5-18.5
		c3.6-6.6,11.9-9.1,18.5-5.5C331.6,121.4,334.3,126,334.3,131z"/>
	<path class="st14" d="M332.7,137.5c-3.6,6.6-11.9,9.1-18.5,5.5c-2.3-1.3-4.2-3.2-5.5-5.5C315.9,132.7,325.4,132.7,332.7,137.5z"/>
	<circle class="st14" cx="320.6" cy="126.3" r="6.1"/>
	<path class="st5" d="M306.9,216.6h131.3c5.1,0,9.2,4.1,9.2,9.2v16.4c0,5.1-4.1,9.2-9.2,9.2H306.9c-5.1,0-9.2-4.1-9.2-9.2v-16.4
		C297.7,220.7,301.8,216.6,306.9,216.6z"/>
	<path class="st15" d="M472.8,254.7l17.7,48.8c0.9,2.7-0.4,5.6-3.1,6.5l-92.8,33.7c-2.7,1-5.6-0.4-6.5-3.1l-17.7-48.8
		c-1-2.7,0.4-5.6,3.1-6.5l92.8-33.7C468.9,250.7,471.8,252.1,472.8,254.7L472.8,254.7z"/>
	<path class="st8" d="M470,251.8l-26.5,43.7c-5.1,8.3-15.2,12-24.5,8.9l-48.4-16.5c0.6-1.2,1.6-2.1,2.8-2.5l92.8-33.7
		C467.5,251.2,468.8,251.3,470,251.8z"/>
	<path class="st16" d="M470,251.8l-26.5,43.7c-5.1,8.3-15.2,12-24.5,8.9l-48.4-16.5c0.6-1.2,1.6-2.1,2.8-2.5l92.8-33.7
		C467.5,251.2,468.8,251.3,470,251.8z"/>
	<path class="st15" d="M443.7,338.6l-0.9,43.9c-0.1,2.4-2,4.3-4.4,4.2l-83.6-1.6c-2.4,0-4.3-2-4.2-4.4c0,0,0,0,0,0l0.8-43.9
		c0-1.2,0.6-2.3,1.4-3.1c0.8-0.7,1.9-1.1,3-1.1l83.6,1.6C441.8,334.2,443.7,336.2,443.7,338.6L443.7,338.6z"/>
	<path class="st8" d="M442.4,335.4l-34.3,26.4c-6.5,5-15.7,4.9-22.1-0.4l-33.1-27.8c0.8-0.7,1.9-1.1,3-1.1l83.6,1.6
		C440.6,334.2,441.6,334.6,442.4,335.4z"/>
	<path class="st16" d="M442.4,335.4l-34.3,26.4c-6.5,5-15.7,4.9-22.1-0.4l-33.1-27.8c0.8-0.7,1.9-1.1,3-1.1l83.6,1.6
		C440.6,334.2,441.6,334.6,442.4,335.4z"/>
	<path class="st8" d="M359.3,79.9c0-1.6,1.3-2.9,2.9-2.9c1.6,0,2.9,1.3,2.9,2.9c0,1.6-1.3,2.9-2.9,2.9
		C360.6,82.8,359.3,81.5,359.3,79.9C359.3,79.9,359.3,79.9,359.3,79.9z"/>
	<path class="st8" d="M372.1,77h23.9c1.6,0,2.9,1.3,2.9,2.9l0,0c0,1.6-1.3,2.9-2.9,2.9h-23.9c-1.6,0-2.9-1.3-2.9-2.9l0,0
		C369.3,78.3,370.6,77,372.1,77z"/>
	<path class="st11" d="M359.3,79.9c0-1.6,1.3-2.9,2.9-2.9c1.6,0,2.9,1.3,2.9,2.9c0,1.6-1.3,2.9-2.9,2.9
		C360.6,82.8,359.3,81.5,359.3,79.9C359.3,79.9,359.3,79.9,359.3,79.9z"/>
	<path class="st11" d="M372.1,77h23.9c1.6,0,2.9,1.3,2.9,2.9l0,0c0,1.6-1.3,2.9-2.9,2.9h-23.9c-1.6,0-2.9-1.3-2.9-2.9l0,0
		C369.3,78.3,370.6,77,372.1,77z"/>
	<path class="st8" d="M462.3,135h11.9c2.8,0,5,2.2,5,5v36.4c0,2.8-2.2,5-5,5h-11.9c-2.8,0-5-2.2-5-5v-36.4
		C457.3,137.3,459.5,135,462.3,135z"/>
	<path class="st12" d="M462.3,135h11.9c2.8,0,5,2.2,5,5v36.4c0,2.8-2.2,5-5,5h-11.9c-2.8,0-5-2.2-5-5v-36.4
		C457.3,137.3,459.5,135,462.3,135z"/>
	<path class="st8" d="M461.1,194.8h14.4c2.1,0,3.8,1.7,3.8,3.8v18.6c0,2.1-1.7,3.8-3.8,3.8h-14.4c-2.1,0-3.8-1.7-3.8-3.8v-18.6
		C457.3,196.5,459,194.8,461.1,194.8z"/>
	<path class="st12" d="M461.1,194.8h14.4c2.1,0,3.8,1.7,3.8,3.8v18.6c0,2.1-1.7,3.8-3.8,3.8h-14.4c-2.1,0-3.8-1.7-3.8-3.8v-18.6
		C457.3,196.5,459,194.8,461.1,194.8z"/>
	<g>
		<defs>
			<rect id="SVGID_1_" x="288.1" y="93.2" width="180.7" height="328"/>
		</defs>
		<clipPath id="SVGID_00000104669715479710888620000017323255214971608982_">
			<use xlink:href="#SVGID_1_"  style="overflow:visible;"/>
		</clipPath>
		<g style="clip-path:url(#SVGID_00000104669715479710888620000017323255214971608982_);">
			<rect x="288.1" y="93.2" class="st18" width="180.7" height="328"/>
			<polygon class="st19" points="315.3,413.3 324.5,414.2 334.1,392.3 324.9,391.4 			"/>
			<polygon class="st19" points="221.9,346.2 227.1,354.2 247.2,344.6 242,336.6 			"/>
			<polygon class="st20" points="334.1,392.3 329.1,403.6 319.5,403.6 324.9,391.4 			"/>
			<polygon class="st20" points="242,336.6 247.2,344.6 236.8,349.5 231.6,341.6 			"/>
			<path class="st19" d="M418.8,189.2l0.3,0.7l0.4,0.8c0.3,0.5,0.5,1.1,0.8,1.6c0.6,1.1,1.3,2.1,1.9,3.2c1.3,2.1,2.8,4.1,4.3,6
				c1.6,1.9,3.3,3.7,5.1,5.4c0.9,0.8,1.9,1.7,2.8,2.5l1.5,1.2l0.3,0.3l0,0c-0.2,0-0.3-0.1-0.5-0.1c-0.4,0-0.7,0-1.1,0.2
				c-0.2,0.1-0.4,0.2-0.5,0.3c-0.1,0.1,0.1-0.1,0.3-0.4c0.5-0.9,0.9-1.9,1.2-2.9c0.7-2.4,1.2-4.9,1.6-7.4c0.4-2.6,0.8-5.2,1.1-7.9
				s0.6-5.3,0.8-8l4.8-0.1c0.3,2.8,0.4,5.5,0.5,8.3c0.1,2.8,0.1,5.5,0,8.4c-0.1,2.9-0.4,5.8-1,8.6c-0.3,1.6-0.8,3.2-1.5,4.8
				c-0.5,1.1-1.2,2.1-2,2.9c-0.7,0.6-1.4,1.1-2.3,1.4c-1,0.4-2,0.5-3.1,0.4c-0.8-0.1-1.7-0.4-2.4-0.8c-0.3-0.2-0.6-0.3-0.9-0.5
				l-0.5-0.3l-1.8-1.3c-1.3-0.8-2.4-1.7-3.5-2.7c-2.3-1.9-4.4-3.9-6.3-6.1c-1.9-2.2-3.7-4.5-5.3-7c-0.8-1.3-1.5-2.5-2.3-3.8
				c-0.4-0.7-0.7-1.3-1-2l-0.5-1.1c-0.2-0.4-0.3-0.7-0.5-1.2L418.8,189.2z"/>
			<polygon class="st1" points="423,195.6 414.6,207.2 418.1,210.7 427,199.9 			"/>
			<path class="st8" d="M409.8,180.3c9.5,2.5,16,15.8,16,15.8l-10.9,15.3c0,0-13.2-16.6-12.8-21.8
				C402.4,184.2,404.1,178.8,409.8,180.3z"/>
			<path class="st9" d="M409.8,180.3c9.5,2.5,16,15.8,16,15.8l-10.9,15.3c0,0-13.2-16.6-12.8-21.8
				C402.4,184.2,404.1,178.8,409.8,180.3z"/>
			<path class="st8" d="M418,185.2c0,0,3.1,3.7-33,47.4L351.6,213c8.5-13.3,13.4-21.6,23.3-53.3c5.3,1.8,10.4,3.9,15.3,6.4
				c5.2,2.6,10.3,5.6,15.2,8.9C411.5,179.4,418,185.2,418,185.2z"/>
			<path class="st9" d="M418,185.2c0,0,3.1,3.7-33,47.4L351.6,213c8.5-13.3,13.4-21.6,23.3-53.3c5.3,1.8,10.4,3.9,15.3,6.4
				c5.2,2.6,10.3,5.6,15.2,8.9C411.5,179.4,418,185.2,418,185.2z"/>
			<path class="st1" d="M413.7,181.4c-2.4-2-5.4-4.4-8.3-6.5c-4.8-3.3-9.9-6.3-15.2-8.9c-3-1.5-6-2.9-8.6-3.9
				c-0.4,0.7-0.1,2.8,1.2,5.9c4.8,6.2,16,15.3,25.3,17.1C412.4,184.6,413.8,183.2,413.7,181.4z"/>
			<path class="st1" d="M382.8,168c2.8,6.3,6.5,12,11.1,17.2c4.7,0.5,9.5,0.5,14.2,0C398.8,183.4,387.6,174.2,382.8,168z"/>
			<path class="st8" d="M385.1,232.6c0,0,0.5,85.8-14.7,110.6c-15.8,25.8-36.5,57.2-36.5,57.2l-17.9-0.9c0,0,20.8-46.5,28.7-68.1
				c10.8-29.7,15.8-113.2,15.8-113.2L385.1,232.6z"/>
			<path class="st11" d="M385.1,232.6c0,0,0.5,85.8-14.7,110.6c-15.8,25.8-36.5,57.2-36.5,57.2l-17.9-0.9c0,0,20.8-46.5,28.7-68.1
				c10.8-29.7,15.8-113.2,15.8-113.2L385.1,232.6z"/>
			<path class="st10" d="M366.1,235c-2.9,2.5-5.4,5.3-7.4,8.6c-0.6,6.4-1.3,13.6-2,21.1C362.1,257.2,366.4,244.2,366.1,235z"/>
			<path class="st8" d="M376.2,227.4c0,0-37.8,53.7-61.4,82.6c-19,23.4-74.1,40.1-74.1,40.1l-6.7-11.3c0,0,43.8-24.5,56.9-40.3
				c41.8-50.6,41.3-76.8,60.8-85.5L376.2,227.4z"/>
			<path class="st11" d="M376.2,227.4c0,0-37.8,53.7-61.4,82.6c-19,23.4-74.1,40.1-74.1,40.1l-6.7-11.3c0,0,43.8-24.5,56.9-40.3
				c41.8-50.6,41.3-76.8,60.8-85.5L376.2,227.4z"/>
			<path class="st19" d="M439.3,185.8l-2.5-10l9.6,2.8c0,0-0.3,6.7-3.6,8.9L439.3,185.8z"/>
			<polygon class="st19" points="439.8,167.8 446.5,171.2 446.4,178.6 436.8,175.9 			"/>
			<path class="st19" d="M319.8,171.5l-8.8-5.4l8.8-4.7c0,0,4.5,5,3.7,8.9L319.8,171.5z"/>
			<polygon class="st19" points="307.6,158.2 314.7,155.9 319.8,161.4 311,166.1 			"/>
			<path class="st21" d="M229.3,353.3l-3.1-10.2c-0.1-0.4-0.5-0.6-0.9-0.5l-8.5,1.3c-0.8,0.2-1.4,1-1.2,1.8c0,0.1,0,0.1,0,0.2
				c1.2,3.5,1.9,5.2,3.3,9.7c0.8,2.8,2.3,9,3.5,12.9s5,2.9,4.9,1.2c-0.6-7.6,0.6-11.5,1.9-14.5C229.4,354.5,229.5,353.9,229.3,353.3
				z"/>
			<path class="st21" d="M325.7,411.4h-11.3c-0.4,0-0.8,0.3-0.9,0.7l-2.5,9c-0.2,0.7,0.2,1.5,0.9,1.7c0.1,0,0.3,0.1,0.4,0.1
				c4-0.1,5.9-0.3,10.9-0.3c3.1,0,11,0.3,15.2,0.3c4.2,0,5-4.2,3.3-4.6c-7.7-1.7-12.1-4-14.5-6.3
				C326.9,411.6,326.3,411.4,325.7,411.4z"/>
			<path class="st21" d="M352.3,210.8l-3.3,2.1c-0.3,0.2-0.1,0.6,0.3,0.8l35.1,20.5c0.3,0.2,0.6,0.2,0.8,0l2.1-2.8
				c0.1-0.2,0-0.5-0.4-0.7L353,210.8C352.8,210.7,352.5,210.6,352.3,210.8z"/>
			<path class="st19" d="M372.2,174c-2.4,1.9-4.6,3.4-7,5c-2.4,1.6-4.8,3-7.3,4.3c-5,2.8-10.3,5-15.8,6.7c-0.7,0.2-1.4,0.4-2.1,0.6
				c-0.7,0.2-1.4,0.4-2.2,0.6c-1.8,0.4-3.6,0.5-5.5,0.3c-1.9-0.2-3.8-0.9-5.5-1.9c-1.5-1-2.9-2.2-4-3.7c-1.9-2.6-3.2-5.5-3.9-8.6
				c-0.4-1.4-0.6-2.9-0.8-4.3c-0.2-1.5-0.3-2.9-0.3-4.4l4.8-0.4c0.6,2.4,1.4,4.8,2.3,7.2c0.9,2.1,2.1,4.1,3.6,5.7
				c1.1,1.3,2.7,2,4.4,2.1c0.9,0,1.8-0.1,2.6-0.4c1.1-0.4,2.4-0.8,3.5-1.2c4.8-1.8,9.5-4,13.9-6.6c2.3-1.3,4.5-2.7,6.7-4.1
				c2.2-1.4,4.4-3,6.3-4.4L372.2,174z"/>
			<polygon class="st1" points="356.7,170.7 361,183.8 365.1,181.4 361.3,168.4 			"/>
			<path class="st8" d="M230.3,358.7c-0.2,0-0.4-0.1-0.6-0.2c-1-0.6-1.3-2.8-1.4-4.1c0-0.1,0-0.2,0.1-0.2c0.1,0,0.2,0,0.3,0
				c0.3,0.3,2.9,2.5,2.8,3.7c0,0.3-0.2,0.5-0.5,0.6C230.7,358.6,230.5,358.7,230.3,358.7z M228.8,355c0.2,1.7,0.6,2.9,1.1,3.2
				c0.3,0.1,0.6,0.1,0.8,0c0.2-0.1,0.2-0.2,0.2-0.3C231,357.3,229.8,355.9,228.8,355L228.8,355z"/>
			<path class="st8" d="M231.9,356c-1.3-0.1-2.5-0.6-3.5-1.4c0-0.1,0-0.1,0-0.2c0-0.1,0.1-0.1,0.2-0.2c0.1,0,2.7-0.8,3.9-0.1
				c0.3,0.2,0.5,0.5,0.6,0.8c0.1,0.4-0.1,0.7-0.4,0.9C232.4,356,232.1,356,231.9,356z M229,354.5c1,0.7,2.8,1.3,3.3,0.9
				c0.1,0,0.2-0.2,0.2-0.4c0-0.2-0.2-0.4-0.4-0.5C231.1,354.2,230,354.2,229,354.5z"/>
			<path class="st8" d="M330.7,413.2c-1,0-2.1-0.2-3.1-0.4c-0.1,0-0.2-0.1-0.2-0.2c0-0.1,0.1-0.2,0.1-0.2c0.8-0.4,4.6-2.1,5.6-1.4
				c0.2,0.1,0.3,0.4,0.3,0.6c0,0.4-0.2,0.8-0.6,1.1C332.3,413.1,331.5,413.3,330.7,413.2z M328.4,412.5c1.3,0.2,3.4,0.5,4.2-0.2
				c0.2-0.2,0.4-0.5,0.4-0.8c0-0.1,0-0.2-0.1-0.2C332.4,411,330.1,411.8,328.4,412.5z"/>
			<path class="st8" d="M327.7,412.8c0,0-0.1,0-0.1,0c-0.1-0.1-0.1-0.1-0.1-0.2c0-0.2,1-4.3,3.2-4c0.6,0.1,0.7,0.4,0.8,0.6
				C331.6,410.3,329,412.3,327.7,412.8L327.7,412.8z M330.5,409c-1.4,0-2.2,2.2-2.5,3.2c1.3-0.7,3.1-2.3,3-3c0-0.1-0.1-0.2-0.4-0.2
				L330.5,409z"/>
			<path class="st8" d="M354.6,217.2l-0.9-0.5c-0.2-0.1-0.3-0.3-0.2-0.4l2.7-3.6c0.1-0.1,0.3-0.1,0.5,0l0.9,0.5
				c0.2,0.1,0.3,0.3,0.2,0.4l-2.7,3.6C355,217.3,354.8,217.3,354.6,217.2z"/>
			<path class="st8" d="M381.6,233l-0.9-0.5c-0.2-0.1-0.3-0.3-0.2-0.4l2.7-3.6c0.1-0.1,0.3-0.1,0.5,0l0.9,0.5
				c0.2,0.1,0.3,0.3,0.2,0.4l-2.7,3.6C382,233.1,381.8,233.1,381.6,233z"/>
			<path class="st8" d="M368.1,225.1l-0.9-0.5c-0.2-0.1-0.3-0.3-0.2-0.4l2.7-3.6c0.1-0.1,0.3-0.1,0.5,0l0.9,0.5
				c0.2,0.1,0.3,0.3,0.2,0.4l-2.7,3.6C368.5,225.2,368.3,225.2,368.1,225.1z"/>
			<path class="st11" d="M354.6,217.2l-0.9-0.5c-0.2-0.1-0.3-0.3-0.2-0.4l2.7-3.6c0.1-0.1,0.3-0.1,0.5,0l0.9,0.5
				c0.2,0.1,0.3,0.3,0.2,0.4l-2.7,3.6C355,217.3,354.8,217.3,354.6,217.2z"/>
			<path class="st11" d="M381.6,233l-0.9-0.5c-0.2-0.1-0.3-0.3-0.2-0.4l2.7-3.6c0.1-0.1,0.3-0.1,0.5,0l0.9,0.5
				c0.2,0.1,0.3,0.3,0.2,0.4l-2.7,3.6C382,233.1,381.8,233.1,381.6,233z"/>
			<path class="st11" d="M368.1,225.1l-0.9-0.5c-0.2-0.1-0.3-0.3-0.2-0.4l2.7-3.6c0.1-0.1,0.3-0.1,0.5,0l0.9,0.5
				c0.2,0.1,0.3,0.3,0.2,0.4l-2.7,3.6C368.5,225.2,368.3,225.2,368.1,225.1z"/>
			<path class="st21" d="M393.2,168.6c0-7.5-2.5-37.1,9.8-39.6c3.9-4.1,23.2-4.5,26.1,5.9c3.9,13.7-1.9,47.2-1.9,47.2L393.2,168.6"
				/>
			<path class="st21" d="M429.8,182.2L429.8,182.2c-0.2,0-0.3-0.2-0.3-0.3c0,0,0,0,0,0c0-0.3,4.1-33.8-0.4-47.1
				c-1.3-3.6-4.7-6.2-9.9-7.2c-6.7-1.3-14,0.3-16,2.7c-0.1,0.1-0.3,0.1-0.4,0c-0.1-0.1-0.1-0.3,0-0.5c2.4-2.7,10.3-4.1,16.6-2.9
				c5.4,1,9.1,3.8,10.4,7.6c4.5,13.4,0.5,47,0.5,47.3C430.2,182,430.1,182.2,429.8,182.2C429.9,182.2,429.8,182.2,429.8,182.2z"/>
			<path class="st19" d="M401.7,149.9c-1.9,5.4-6.2,14.9-11.5,16.2c0,0-1.6,5.7,7.5,11c10,5.8,7.7-2.2,7.7-2.2
				c-4.7-4.5-2.2-8.4,1-11.7L401.7,149.9z"/>
			<path class="st20" d="M403.6,155.4l2.8,7.9c-0.7,0.7-1.4,1.6-2,2.4c-1.9-1.5-3.9-5.2-2.9-7.5C402,157.1,402.7,156.2,403.6,155.4z
				"/>
			<path class="st19" d="M401.8,139.1c-2.6,9.1-3.9,12.9-1,19c4.3,9.3,16.1,10.5,21.3,2.3c4.7-7.3,8.2-21,0.7-27.5
				c-5.3-4.7-13.5-4.3-18.2,1.1C403.3,135.4,402.3,137.2,401.8,139.1z"/>
			<path class="st21" d="M399.1,144.8c6.5,2.4,21.7-5.6,25.8-10.5c0.6-7.6-17.2-4.6-17.2-4.6S398.2,126.8,399.1,144.8z"/>
			<path class="st19" d="M397.6,146.6c-0.4,1.8-0.1,3.7,0.8,5.2c1.3,2.1,3.6,1.3,4.6-0.8c0.9-1.9,1.3-5.2-0.6-6.5
				c-1.4-0.9-3.4-0.5-4.3,0.9C397.8,145.8,397.7,146.2,397.6,146.6z"/>
			<path class="st21" d="M414.4,146.3c-0.3,0.7-0.1,1.5,0.4,1.6c0.5,0.2,1.1-0.3,1.3-1c0.3-0.7,0.1-1.4-0.4-1.6
				C415.3,145.1,414.7,145.6,414.4,146.3z"/>
			<path class="st21" d="M422.6,149.2c-0.3,0.7-0.1,1.4,0.4,1.6c0.5,0.2,1.1-0.3,1.3-1c0.3-0.7,0.1-1.5-0.4-1.6
				C423.5,148,422.9,148.5,422.6,149.2z"/>
			<path class="st21" d="M423.7,148.2l1.9,0.1C425.6,148.3,424.3,149.3,423.7,148.2z"/>
			<path class="st22" d="M420,149.7c0.1,1.9,0.4,3.7,1,5.5c-0.9,0.3-1.9,0.1-2.8-0.4L420,149.7z"/>
			<path class="st21" d="M414.7,156.8L414.7,156.8c-2.1-0.6-3.6-2.2-4.3-4.2c0-0.1,0.1-0.2,0.2-0.3c0.1,0,0.2,0,0.3,0.2c0,0,0,0,0,0
				c0.6,1.8,2.1,3.3,3.9,3.9c0.1,0,0.2,0.2,0.1,0.3C414.9,156.7,414.8,156.8,414.7,156.8L414.7,156.8z"/>
			<path class="st21" d="M414.1,143.4c-0.2,0-0.5-0.2-0.5-0.4c0-0.2,0.1-0.3,0.2-0.4c1.3-0.7,2.8-0.8,4.1-0.2
				c0.2,0.1,0.3,0.4,0.2,0.6c-0.1,0.2-0.4,0.3-0.6,0.2c0,0-0.1,0-0.1,0c-1.1-0.5-2.3-0.4-3.3,0.2
				C414.2,143.4,414.1,143.4,414.1,143.4z"/>
			<path class="st21" d="M427.8,146.8c-0.2,0-0.4-0.1-0.4-0.3c-0.3-1.1-1-2-2.1-2.5c-0.2-0.1-0.4-0.3-0.3-0.6
				c0.1-0.2,0.3-0.4,0.6-0.3c0,0,0,0,0,0c1.3,0.6,2.3,1.7,2.7,3.1c0.1,0.2-0.1,0.5-0.3,0.6c0,0,0,0,0,0L427.8,146.8z"/>
			<path class="st21" d="M415.5,145.3l1.9,0.1C417.4,145.4,416.1,146.4,415.5,145.3z"/>
			<path class="st8" d="M374.9,159.7c-3.9-0.9-16.1,8.3-16.1,8.3l5.1,16.4c0,0,12.7-7,13.9-12.2C379,166.8,379.4,160.7,374.9,159.7z
				"/>
			<path class="st9" d="M374.9,159.7c-3.9-0.9-16.1,8.3-16.1,8.3l5.1,16.4c0,0,12.7-7,13.9-12.2C379,166.8,379.4,160.7,374.9,159.7z
				"/>
		</g>
	</g>
</g>
<g id="freepik--bubble-speech--inject-38">
	<path class="st8" d="M519.4,55.2h-92.9c-8.3,0-15,6.7-15,15l0,0V99c0,8.3,6.7,15,15,15h7.8v14.8L449,114h70.4c8.3,0,15-6.7,15-15
		V70.2C534.5,61.9,527.7,55.2,519.4,55.2L519.4,55.2z"/>
	<path class="st23" d="M519.4,55.2h-92.9c-8.3,0-15,6.7-15,15l0,0V99c0,8.3,6.7,15,15,15h7.8v14.8L449,114h70.4c8.3,0,15-6.7,15-15
		V70.2C534.5,61.9,527.7,55.2,519.4,55.2L519.4,55.2z"/>
	<g class="st24">
		<path class="st1" d="M428.7,67.2h88.6c1.9,0,3.4,1.5,3.4,3.4l0,0c0,1.9-1.5,3.4-3.4,3.4h-88.6c-1.9,0-3.4-1.5-3.4-3.4l0,0
			C425.2,68.7,426.8,67.2,428.7,67.2z"/>
	</g>
	<g class="st24">
		<path class="st1" d="M517.2,87.7h-56.8c-1.9,0-3.4-1.6-3.5-3.5l0,0c0-1.9,1.6-3.4,3.5-3.4h56.8c1.9,0,3.4,1.5,3.4,3.4l0,0l0,0
			C520.7,86.2,519.1,87.7,517.2,87.7z"/>
	</g>
	<g class="st24">
		<path class="st1" d="M443.6,87.7h-14.9c-1.9,0-3.4-1.6-3.4-3.5l0,0c0-1.9,1.5-3.4,3.4-3.4l0,0h14.9c1.9,0,3.4,1.5,3.4,3.4l0,0l0,0
			C447,86.2,445.5,87.7,443.6,87.7z"/>
	</g>
	<g class="st24">
		<path class="st1" d="M495.1,101.4h-66.5c-1.9,0-3.4-1.5-3.4-3.4l0,0c0-1.9,1.5-3.4,3.4-3.5h66.5c1.9,0,3.4,1.6,3.4,3.5l0,0
			C498.6,99.9,497,101.4,495.1,101.4z"/>
	</g>
</g>
</svg>
