<?xml version="1.0" encoding="utf-8"?>
<!-- Generator: Adobe Illustrator 26.3.0, SVG Export Plug-In . SVG Version: 6.00 Build 0)  -->
<svg version="1.1" id="Layer_1" xmlns="http://www.w3.org/2000/svg" xmlns:xlink="http://www.w3.org/1999/xlink" x="0px" y="0px"
	 viewBox="0 0 750 500" style="enable-background:new 0 0 750 500;" xml:space="preserve">
<style type="text/css">
	.st0{fill:#EBEBEB;}
	.st1{fill:#E0E0E0;}
	.st2{fill:#F0F0F0;}
	.st3{fill:#F5F5F5;}
	.st4{fill:#FFFFFF;}
	.st5{fill:#E6E6E6;}
	.st6{fill:#E2E0E0;}
	.st7{fill:#009FE3;}
	.st8{opacity:5.000000e-02;fill:#009FE3;enable-background:new    ;}
	.st9{fill:#263238;}
	.st10{opacity:0.7;fill:#FFFFFF;enable-background:new    ;}
	.st11{opacity:0.2;fill:#263238;enable-background:new    ;}
	.st12{opacity:0.3;fill:#263238;enable-background:new    ;}
	.st13{opacity:0.3;fill:#009FE3;enable-background:new    ;}
	.st14{fill:#B55B52;}
	.st15{opacity:0.2;enable-background:new    ;}
	.st16{opacity:0.2;}
	.st17{opacity:0.4;enable-background:new    ;}
	.st18{fill:#A02724;}
</style>
<g id="freepik--background-complete--inject-2">
	<rect x="73.5" y="419.8" class="st0" width="602" height="0.3"/>
	<rect x="136.7" y="428" class="st0" width="44.6" height="0.3"/>
	<rect x="277" y="434.5" class="st0" width="85.5" height="0.3"/>
	<rect x="187.8" y="428.2" class="st0" width="61.1" height="0.3"/>
	<rect x="563.3" y="437.2" class="st0" width="58.6" height="0.3"/>
	<rect x="519.4" y="437.2" class="st0" width="38.5" height="0.3"/>
	<rect x="407.3" y="432.1" class="st0" width="74.7" height="0.3"/>
	<rect x="232.9" y="226" class="st1" width="22.4" height="189.4"/>
	<rect x="153.3" y="415.4" class="st2" width="97.6" height="4.4"/>
	<rect x="149" y="226" class="st3" width="83.8" height="189.4"/>
	<rect x="152.2" y="264" class="st4" width="77.5" height="36.4"/>
	<circle class="st3" cx="190.9" cy="273.2" r="5"/>
	<rect x="152.2" y="229.9" class="st2" width="77.5" height="26.9"/>
	<rect x="152.2" y="307.6" class="st2" width="77.5" height="99.1"/>
	<rect x="152.2" y="229.9" class="st1" width="16.4" height="26.9"/>
	<rect x="152.2" y="307.6" class="st1" width="16.4" height="99.1"/>
	<rect x="234.3" y="255.9" class="st3" width="85.1" height="165.5"/>
	<rect x="234.3" y="255.9" class="st2" width="7" height="165.5"/>
	<rect x="312.8" y="260.6" class="st5" width="196" height="26.6"/>
	<rect x="312.8" y="315.3" class="st2" width="196" height="26.6"/>
	<rect x="234.3" y="255.9" class="st2" width="265.1" height="12.4"/>
	<rect x="499.3" y="255.9" class="st3" width="85.1" height="165.5"/>
	<rect x="499.3" y="255.9" class="st2" width="7" height="165.5"/>
	<polygon class="st2" points="403.5,255.9 421.9,255.9 417.4,220.2 399.1,220.2 	"/>
	<polygon class="st3" points="399.5,255.9 417.8,255.9 413.4,220.2 395,220.2 	"/>
	<polygon class="st2" points="397.2,238.1 415.6,238.1 413.4,220.2 395,220.2 	"/>
	<path class="st2" d="M464.7,233.8H334.8c-1,0-1.8-0.8-1.8-1.8c0-0.1,0-0.1,0-0.2l10-80.1c0.1-0.9,0.9-1.6,1.8-1.6h129.9
		c1,0,1.8,0.8,1.8,1.8c0,0.1,0,0.2,0,0.2l-10,80.1C466.4,233.1,465.6,233.8,464.7,233.8z"/>
	<path class="st3" d="M462.8,233.8H332.9c-1,0-1.8-0.8-1.7-1.8c0-0.1,0-0.1,0-0.2l10-80.1c0.1-0.9,0.9-1.6,1.8-1.6h129.8
		c1,0,1.8,0.8,1.8,1.8c0,0.1,0,0.2,0,0.2l-10,80.1C464.5,233.1,463.7,233.8,462.8,233.8z"/>
	<path class="st5" d="M335.3,229.4l9.4-74.9c0-0.3,0.3-0.4,0.5-0.4h124.7c0.3,0,0.5,0.2,0.5,0.5c0,0,0,0,0,0.1l-9.4,74.9
		c0,0.2-0.2,0.4-0.5,0.4H335.8c-0.3,0-0.5-0.2-0.5-0.5C335.3,229.4,335.3,229.4,335.3,229.4z"/>
	<path class="st3" d="M385.7,252.6h23.9c1.6,0,3,1.3,3,3c0,0,0,0,0,0.1v0.4l0,0h-29.9l0,0v-0.4C382.7,254,384,252.6,385.7,252.6
		C385.7,252.6,385.7,252.6,385.7,252.6z"/>
	<path class="st2" d="M412.2,252.6h14.3c1.6,0,3,1.3,3,3l0,0v0.4l0,0h-20.3l0,0v-0.3C409.2,254,410.5,252.6,412.2,252.6
		C412.1,252.6,412.2,252.6,412.2,252.6z"/>
	<polygon class="st3" points="349.7,255.9 442.2,255.9 444.7,250.8 361.7,250.8 	"/>
	<polygon class="st2" points="432,255.9 447.3,255.9 449.3,250.8 434.1,250.8 	"/>
	<path class="st2" d="M326.3,249.7h-13.9c-3.4,0-6.2,2.8-6.2,6.2c0,0,0,0,0,0h26.3C332.5,252.5,329.8,249.7,326.3,249.7z"/>
</g>
<g id="freepik--Shadow--inject-2">
	<ellipse id="freepik--path--inject-2" class="st6" cx="374.5" cy="463.6" rx="249.9" ry="3.3"/>
</g>
<g id="freepik--Smartphone--inject-2">
	<path class="st7" d="M314.3,68.4H464c10.5,0,19,8.5,19,19v353.7c0,10.5-8.5,19-19,19H314.3c-10.5,0-19-8.5-19-19V87.4
		C295.3,76.9,303.8,68.4,314.3,68.4z"/>
	<path class="st7" d="M479.6,135.2h1.7c2.2,0,4,1.8,4,4v58.3c0,2.2-1.8,4-4,4h-1.7c-2.2,0-4-1.8-4-4v-58.3
		C475.7,137,477.4,135.2,479.6,135.2z"/>
	<path class="st7" d="M292.7,148.2h2.9c1.9,0,3.4,1.5,3.4,3.4v19.2c0,1.9-1.5,3.4-3.4,3.4h-2.9c-1.9,0-3.4-1.5-3.4-3.4v-19.2
		C289.3,149.7,290.8,148.2,292.7,148.2z"/>
	<rect x="377" y="64.2" class="st7" width="30.8" height="1.2"/>
	<rect x="413.8" y="64.2" class="st7" width="6.7" height="1.2"/>
	<path class="st7" d="M311.1,68.4h149.7c10.5,0,19,8.5,19,19v353.7c0,10.5-8.5,19-19,19H311.1c-10.5,0-19-8.5-19-19V87.4
		C292.1,76.9,300.6,68.4,311.1,68.4z"/>
	<path class="st4" d="M297.6,90.7h176.8c2,0,3.7,1.7,3.7,3.7v340.3c0,2-1.7,3.7-3.7,3.7H297.6c-2,0-3.7-1.7-3.7-3.7V94.4
		C293.9,92.3,295.5,90.7,297.6,90.7z"/>
	<path class="st8" d="M325,107.8h111.7c10,0,18.1,8.1,18.1,18.1v162.2c0,10-8.1,18.1-18.1,18.1H325c-10,0-18.1-8.1-18.1-18.1V125.8
		C306.9,115.9,315,107.8,325,107.8z"/>
	<path class="st8" d="M402.9,209.9c-6.7,0-12.1,5.4-12.1,12.1v109.1c0,6.7,5.4,12.1,12.1,12.1c0,0,0,0,0,0H478V209.9H402.9z"/>
	<path class="st9" d="M362.2,79.9H248.4c-4.8,0-8.7,3.9-8.7,8.7c0,0,0,0,0,0V147c0,4.8,3.9,8.7,8.7,8.7h0h80.4l17.4,8.9v-8.9h16.1
		c4.8,0,8.7-3.9,8.7-8.7V88.6C370.9,83.8,367,79.9,362.2,79.9L362.2,79.9z"/>
	<path class="st4" d="M355.7,102h-87.5c-2.7,0-5-2.2-5-5c0-2.7,2.2-5,5-5h87.5c2.7,0,5,2.2,5,5C360.7,99.8,358.5,102,355.7,102
		L355.7,102z M268.2,93.2c-2.1,0.1-3.7,1.9-3.6,4c0.1,1.9,1.7,3.5,3.6,3.6h87.5c2.1-0.1,3.7-1.9,3.6-4c-0.1-1.9-1.7-3.5-3.6-3.6
		H268.2z"/>
	<path class="st4" d="M355.7,118.9h-60.2c-2.7-0.1-4.8-2.4-4.6-5.1c0.1-2.5,2.1-4.5,4.6-4.6h60.2c2.7,0.1,4.8,2.4,4.6,5.1
		C360.2,116.7,358.2,118.7,355.7,118.9z M295.5,110.1c-2.2-0.1-4,1.5-4.1,3.7c-0.1,2.2,1.5,4,3.7,4.1c0.1,0,0.3,0,0.4,0h60.2
		c2.2,0.1,4-1.5,4.1-3.7c0.1-2.2-1.5-4-3.7-4.1c-0.1,0-0.3,0-0.4,0L295.5,110.1z"/>
	<path class="st4" d="M355.7,135.7h-73.9c-2.7-0.1-4.8-2.5-4.7-5.2c0.1-2.5,2.2-4.6,4.7-4.7h73.9c2.7,0.1,4.8,2.5,4.7,5.2
		C360.3,133.6,358.3,135.6,355.7,135.7L355.7,135.7z M281.8,126.9c-2.1-0.1-3.9,1.5-4.1,3.6c-0.1,2.1,1.5,3.9,3.6,4.1
		c0.1,0,0.3,0,0.4,0h73.9c2.1,0.1,3.9-1.5,4.1-3.6c0.1-2.1-1.5-3.9-3.6-4.1c-0.1,0-0.3,0-0.4,0H281.8z"/>
	<path class="st7" d="M523.4,134.5H392.9c-4.8,0-8.7,3.9-8.7,8.7v33.5c0,4.8,3.9,8.7,8.7,8.7H409v8.8l17.4-8.9h97
		c4.8,0,8.7-3.9,8.7-8.7v-33.5C532.1,138.4,528.2,134.5,523.4,134.5z"/>
	<path class="st10" d="M523.4,134.5H392.9c-4.8,0-8.7,3.9-8.7,8.7v33.5c0,4.8,3.9,8.7,8.7,8.7H409v8.8l17.4-8.9h97
		c4.8,0,8.7-3.9,8.7-8.7v-33.5C532.1,138.4,528.2,134.5,523.4,134.5z"/>
	<path class="st4" d="M487.1,156.4h-87.5c-2.7,0-5-2.2-5-5c0-2.7,2.2-5,5-5c0,0,0,0,0,0h87.5c2.7,0,5,2.2,5,5
		C492,154.2,489.8,156.4,487.1,156.4L487.1,156.4z M399.6,147.6c-2.1,0-3.8,1.7-3.8,3.8c0,2.1,1.7,3.8,3.8,3.8h87.5
		c2.1,0,3.8-1.7,3.8-3.8c0-2.1-1.7-3.8-3.8-3.8H399.6z"/>
	<path class="st4" d="M459.8,173.3h-60.2c-2.7,0-4.9-2.2-4.9-4.9s2.2-4.9,4.9-4.9l0,0h60.2c2.7,0,4.9,2.2,4.9,4.9
		S462.5,173.3,459.8,173.3z M399.6,164.5c-2.2,0-3.9,1.7-3.9,3.9s1.7,3.9,3.9,3.9c0,0,0,0,0,0h60.2c2.2,0,3.9-1.8,3.9-3.9
		c0-2.2-1.7-3.9-3.9-3.9H399.6z"/>
	<path class="st7" d="M273.3,367.7H478l0,0v21.4l0,0H273.4c-3.9,0-7.1-3.2-7.1-7.1l0,0v-7.2C266.3,370.9,269.4,367.7,273.3,367.7z"
		/>
	<path class="st11" d="M273.3,367.7H478l0,0v21.4l0,0H273.4c-3.9,0-7.1-3.2-7.1-7.1l0,0v-7.2C266.3,370.9,269.4,367.7,273.3,367.7z"
		/>
	<path class="st12" d="M431.8,367.7H478l0,0v21.4l0,0h-46.3c-3.9,0-7.1-3.2-7.1-7.1l0,0v-7.2C424.7,370.9,427.8,367.7,431.8,367.7
		L431.8,367.7z"/>
	<path class="st13" d="M441.7,389.1l27.6,29.9c3.2,3.5,8.7,1,8.7-3.9v-26H441.7z"/>
	<path class="st13" d="M309.7,389.1l27.6,29.9c3.2,3.5,8.7,1,8.7-3.9v-26H309.7z"/>
</g>
<g id="freepik--Character--inject-2">
	<path class="st14" d="M363.2,283.2c-0.2,2.2-0.4,4.3-0.7,6.4c-0.3,2.1-0.6,4.2-1,6.3c-0.7,4.2-1.6,8.4-2.6,12.6
		c-0.5,2.1-1.1,4.2-1.7,6.3c-0.3,1-0.6,2.1-1,3.1c-0.3,1.1-0.7,2.2-1.2,3.3c-0.3,0.6-0.6,1.2-1,1.8c-0.5,0.8-1,1.6-1.6,2.2
		c-0.5,0.6-1.2,1.1-1.8,1.4c-1.1,0.6-2.5,0.9-3.8,0.7c-1.1-0.2-2.1-0.7-2.9-1.4c-0.5-0.4-0.9-0.9-1.2-1.4c-0.7-1.3-1.2-2.7-1.4-4.1
		c-0.2-1.2-0.2-2.4-0.2-3.6l5.7-1.2c0.5,0.8,1,1.7,1.5,2.4s1.1,1.4,1.3,1.5c0,0,0.1-0.1-0.1-0.3c-0.4-0.4-0.9-0.7-1.5-0.7
		c-0.8-0.1-1.6,0-2.3,0.3c-0.4,0.2-0.6,0.4-0.7,0.4c-0.1,0,0-0.1,0-0.4l0.2-1c0.1-0.7,0.4-1.8,0.7-2.7c0.3-1,0.5-1.9,0.7-2.9
		c0.4-2,0.9-3.9,1.2-5.9c0.8-4,1.4-8,2.1-12s1.2-8.1,1.7-12L363.2,283.2z"/>
	<path class="st7" d="M352.8,271.3c-2.7,4.1-5.5,19.8-5.5,19.8l19.2,8.4c0,0,5.4-25.7,1.1-30.4C363.2,264.2,355.9,266.7,352.8,271.3
		z"/>
	<path class="st15" d="M356.6,281.6c-2.6,3-3.8,7.8-4.2,11.7l14.2,6.3c1.2-5.8,2-11.6,2.5-17.5C366,278.7,361.1,276.4,356.6,281.6z"
		/>
	<polygon class="st14" points="264.3,449.3 254.8,442.9 268.1,419.6 277.7,426.1 	"/>
	<polygon class="st14" points="327.4,459 316.4,455.1 320.2,428.6 331.3,432.6 	"/>
	<path class="st9" d="M315.8,453.6l12.9,0.5c0.5,0,0.8,0.4,0.9,0.8l1,9.8c0.1,1-0.7,1.9-1.7,2c-0.1,0-0.1,0-0.2,0
		c-4.5-0.3-6.7-0.2-12.4-0.4c-3.5-0.2-10.6,0.7-15.4,0.5c-4.8-0.2-4.9-5-2.9-5.3c9.1-1.6,12.6-4.9,15.8-7.3
		C314.4,453.8,315.1,453.5,315.8,453.6z"/>
	<path class="st9" d="M256.1,439.4l10.7,7.3c0.4,0.3,0.5,0.8,0.3,1.2l-4.6,9.3c-0.5,0.9-1.6,1.2-2.5,0.8c-0.1,0-0.1-0.1-0.2-0.1
		c-3.6-2.6-4.9-3.6-9.6-6.8c-2.9-2-9.6-6.1-13.6-8.8c-4-2.7-1.3-7,0.6-6.2c8.5,3.5,13,3.3,16.9,2.9
		C254.8,438.9,255.5,439,256.1,439.4z"/>
	<g class="st16">
		<polygon points="268.1,419.6 260.3,433.3 270.4,438.7 277.7,426.1 		"/>
		<polygon points="331.3,432.6 320.2,428.6 317.9,444.7 329.2,447 		"/>
	</g>
	<path class="st7" d="M353.2,276.5c0.1,8.7,1.9,26,8.4,60.8l46.8-1.2c-1.3-19-1.6-30.8,6.5-70.1c-6.6-1.2-13.3-1.9-20-2.1
		c-7.1-0.3-14.2-0.1-21.3,0.5c-4.3,0.5-8.8,1.3-12.4,2C356.5,267.4,353.1,271.6,353.2,276.5z"/>
	<path class="st15" d="M413.7,272.1c-4.1,1.8-7.4,5-9.3,9.1c-2.3,5.2,3.4,15.8,4.8,18.2C410,292,411.5,283.2,413.7,272.1z"/>
	<path class="st9" d="M380.2,214.9c-4.7,5.2-8.9,27.3,5.6,37.3c-0.6,9.2,21.4,3.1,24.1-8.1C412.4,233.7,394.2,199.2,380.2,214.9z"/>
	<path class="st9" d="M398.9,254.1c-0.2,0-0.3-0.1-0.3-0.3c0-0.2,0.1-0.3,0.3-0.3c8.5-0.4,11.3-5,12.1-8.9c2-8.9-4.4-20.7-10.9-24.1
		c-0.2-0.1-0.2-0.3-0.1-0.4c0,0,0,0,0,0c0.1-0.2,0.3-0.2,0.4-0.1c6.8,3.5,13.2,15.7,11.3,24.8C410.7,248.8,407.8,253.7,398.9,254.1
		L398.9,254.1z"/>
	<path class="st9" d="M401,255.6c-1.3,0-2.6-0.1-3.9-0.3c-0.2,0-0.3-0.2-0.3-0.3c0-0.2,0.2-0.3,0.3-0.3c0,0,0.1,0,0.1,0
		c8.6,1.2,14.2-1.6,15.8-8c2.3-9.3-4.6-23.2-12.9-26.3c-0.2,0-0.3-0.2-0.3-0.4c0-0.2,0.2-0.3,0.4-0.3c0,0,0.1,0,0.1,0
		c8.8,3.2,15.7,17.3,13.3,27C412.8,250.3,410,255.6,401,255.6z"/>
	<path class="st14" d="M392.3,242.6c-1.2,6.9-2.2,16.9,2.7,21.3c0,0-9.5,5.2-19.5,21.8c-8.7-13.6-1.7-21.3-1.7-21.3
		c7.6-2,7.3-5.1,5.8-10.4L392.3,242.6z"/>
	<path class="st4" d="M380.3,272.8c-0.4,1.6-1.7,2.7-3.3,2.9c-1.4,0-2.2-1.2-1.8-2.8c0.4-1.6,1.7-2.7,3.3-2.9
		C380,269.9,380.7,271.2,380.3,272.8z"/>
	<path class="st4" d="M379.3,271.3L379.3,271.3c-0.2,0-0.3-0.1-0.3-0.3c0,0,0,0,0,0c0-0.2,0.1-0.3,0.3-0.3l0,0c0.3,0,7.4-0.1,15.5-7
		c0.1-0.1,0.3-0.1,0.4,0c0.1,0.1,0.1,0.3,0,0.4l0,0C387,271.1,380,271.3,379.3,271.3z"/>
	<path class="st4" d="M377.8,271.1L377.8,271.1c0,0-4.3-0.7-4.3-6.7c0-0.2,0.1-0.3,0.3-0.3c0.2,0,0.3,0.1,0.3,0.3
		c0,5.4,3.6,6,3.8,6.1c0.2,0,0.3,0.2,0.2,0.3C378.1,271,378,271.2,377.8,271.1z"/>
	<path class="st15" d="M387.1,247.3l-7.5,6.8c0.4,1.2,0.6,2.5,0.7,3.8c2.9-0.5,7.4-3.1,8-6.3C388.6,250,387.4,248,387.1,247.3z"/>
	<path class="st9" d="M361.5,211.5c-4.7,5.2-10.6,23.5,3.9,33.5c-0.6,9.3,20.8,1.9,24.6-9.1S375.6,195.8,361.5,211.5z"/>
	<path class="st14" d="M393.6,224.8c1.9,11.3,2.9,16-1.4,23c-6.5,10.5-20.7,10.4-26-0.1c-4.7-9.5-7-26.3,2.9-33.3
		c7.1-5,16.8-3.3,21.8,3.8C392.3,220.2,393.2,222.4,393.6,224.8z"/>
	<path class="st9" d="M366.6,213.1c0.7,6,12.5,21.5,27.4,17.9c5.6,5.7,13.2-12.3,8.3-21C397.4,201.2,364.5,195,366.6,213.1z"/>
	<path class="st9" d="M361.6,337.3c-22.8-1.5-69.5,4.3-76.8,26.5c-10.8,33.5-23.5,62.1-23.5,62.1l14.6,7c0,0,28.1-34.1,36.8-56.4
		c16.9,1.9,39.2-3.4,45.9-4.2c24.7-3,34.8-19,37.2-35.9L361.6,337.3z"/>
	<path class="st15" d="M342.8,348.6c-18.3-0.3-40.4,11.3-38,43.7c3.1-5,5.7-10.3,7.9-15.8c5.7,0.5,11.5,0.5,17.2,0
		C335.7,363.7,347.2,348.6,342.8,348.6z"/>
	<polygon class="st7" points="274.9,436.5 258.7,428 260.2,422.3 278.7,431.1 	"/>
	<polygon class="st17" points="274.9,436.5 258.7,428 260.2,422.3 278.7,431.1 	"/>
	<path class="st9" d="M374,337c0,0-57.1,12.9-56.9,30c0.4,36.5-0.3,71.7-0.3,71.7l15.6,3.1c0,0,13-41.3,13.1-63.4
		c24.4-9.1,72.2,11.6,63-42.3L374,337z"/>
	<polygon class="st7" points="333.9,444.3 314.7,440.8 313.8,434.4 336.5,437.5 	"/>
	<polygon class="st17" points="333.9,444.3 314.7,440.8 313.8,434.4 336.5,437.5 	"/>
	<path class="st9" d="M376.5,231.8c0.2,0.9-0.1,1.7-0.7,1.9c-0.6,0.1-1.2-0.5-1.4-1.4c-0.2-0.9,0.1-1.8,0.7-1.9
		C375.6,230.3,376.3,230.9,376.5,231.8z"/>
	<path class="st9" d="M366.3,234.2c0.2,0.9-0.1,1.7-0.7,1.9c-0.6,0.1-1.2-0.5-1.5-1.4c-0.3-0.9,0.1-1.8,0.7-1.9
		C365.4,232.7,366.1,233.3,366.3,234.2z"/>
	<path class="st9" d="M365.1,232.8l-2.3-0.1C362.8,232.7,364.3,234.1,365.1,232.8z"/>
	<path class="st18" d="M369.8,235.1c-0.3,2.3-1,4.4-1.9,6.5c1.1,0.5,2.3,0.4,3.4-0.1L369.8,235.1z"/>
	<path class="st9" d="M377,243.9c-0.4,0.2-0.9,0.3-1.3,0.4c-0.1,0-0.3,0-0.3-0.2c0,0,0,0,0,0c0-0.1,0-0.3,0.2-0.3c0,0,0,0,0,0
		c2.3-0.5,4.2-2,5.2-4.2c0.1-0.1,0.2-0.2,0.4-0.1c0.1,0.1,0.2,0.2,0.2,0.3C380.5,241.7,378.9,243.2,377,243.9z"/>
	<path class="st14" d="M398,233.5c-0.3,2.2-1.5,4.1-3.3,5.5c-2.4,1.7-4.6-0.2-4.8-2.9c-0.2-2.5,0.9-6.4,3.6-7c2-0.4,4,0.9,4.5,2.9
		C398.1,232.4,398.1,233,398,233.5z"/>
	<path class="st9" d="M378,227.9c-0.2,0-0.5,0-0.6-0.2c-1.4-2.1-4.6-2.3-4.7-2.3c-0.3,0-0.5-0.3-0.5-0.6c0-0.3,0.3-0.5,0.6-0.5
		c0.2,0,3.9,0.2,5.5,2.8c0.2,0.2,0.1,0.6-0.1,0.8c0,0,0,0,0,0L378,227.9z"/>
	<path class="st9" d="M360.8,230.1c-0.3,0.1-0.6,0-0.7-0.3c-0.1-0.2-0.1-0.4,0.1-0.6c1-1.4,2.7-2.2,4.5-2.2c0.3,0,0.5,0.3,0.5,0.6
		c0,0,0,0,0,0c0,0.3-0.3,0.5-0.6,0.5c0,0,0,0,0,0c-1.4,0-2.7,0.7-3.5,1.8C361,230,360.9,230.1,360.8,230.1z"/>
	<path class="st9" d="M309.7,454.8C309.6,454.8,309.6,454.7,309.7,454.8c-0.5-0.5-0.6-1-0.5-1.6c0-0.3,0.3-0.6,0.6-0.7
		c1.4-0.6,4.8,1.9,5.2,2.1c0.1,0.1,0.1,0.2,0.1,0.3c0,0.1-0.1,0.2-0.2,0.2C313.3,455.5,310.8,455.7,309.7,454.8z M314,454.7
		c-1.4-0.9-3.4-2-4.1-1.7c-0.1,0.1-0.2,0.2-0.2,0.3c-0.1,0.3,0,0.7,0.2,1C310.5,454.9,312,455,314,454.7L314,454.7z"/>
	<path class="st9" d="M314.3,454.8c-1.1-0.9-2.7-3.1-2.4-4.3c0.1-0.4,0.5-0.7,1-0.7c0.4-0.1,0.9,0.1,1.2,0.4
		c1.2,1.2,1.1,4.5,1.1,4.6c0,0.1-0.1,0.2-0.1,0.2c-0.1,0-0.2,0-0.3,0C314.6,455,314.4,454.9,314.3,454.8z M313.5,450.6
		c-0.2-0.2-0.4-0.2-0.7-0.2c-0.3,0-0.4,0.2-0.5,0.3c-0.2,0.8,1,2.7,2.1,3.6C314.5,453.2,314.3,451.3,313.5,450.6L313.5,450.6z"/>
	<path class="st9" d="M251.4,438.6c-0.9-0.5-1.5-1.3-1.9-2.2c-0.1-0.5,0-1,0.3-1.4c0.2-0.2,0.5-0.4,0.8-0.3c1.6,0.2,4,4.7,4.3,5.2
		c0.1,0.1,0.1,0.2,0,0.3c-0.1,0.1-0.2,0.1-0.3,0.1C253.5,439.9,252.4,439.3,251.4,438.6z M251,435.5c-0.1-0.1-0.3-0.2-0.5-0.2
		c-0.1,0-0.2,0-0.3,0.1c-0.2,0.2-0.3,0.6-0.2,0.9c0.2,0.9,1.7,2.1,4.1,3.2C253.3,438,252.2,436.6,251,435.5L251,435.5z"/>
	<path class="st9" d="M254.5,440.3C254.5,440.3,254.5,440.3,254.5,440.3c-0.9-1.4-1.7-4.9-0.8-5.9c0.2-0.2,0.6-0.4,1.3,0
		c0.5,0.3,0.8,0.7,1,1.2c0.5,1.8-1,4.5-1.1,4.6c-0.1,0.1-0.1,0.1-0.2,0.1C254.6,440.4,254.6,440.3,254.5,440.3z M254.9,434.9
		l-0.1-0.1c-0.4-0.2-0.6-0.1-0.6,0c-0.6,0.6-0.1,3.2,0.5,4.7c0.7-1.1,0.9-2.5,0.8-3.8C255.4,435.4,255.2,435.1,254.9,434.9
		L254.9,434.9z"/>
	<path class="st9" d="M375.3,230.4l-2.3-0.1C373,230.3,374.5,231.7,375.3,230.4z"/>
	<path class="st4" d="M409.1,333.3l1.3,4.2c0.2,0.3-0.2,0.7-0.7,0.7l-48.2,1.2c-0.4,0-0.8-0.2-0.8-0.5l-0.5-4.2
		c0-0.3,0.3-0.5,0.8-0.6l47.4-1.2C408.6,332.9,408.9,333.1,409.1,333.3z"/>
	<path class="st9" d="M402.7,338.8h1.3c0.3,0,0.4-0.1,0.4-0.3l-0.7-5.4c0-0.2-0.2-0.3-0.5-0.3h-1.2c-0.3,0-0.4,0.1-0.4,0.3l0.7,5.4
		C402.2,338.7,402.4,338.8,402.7,338.8z"/>
	<path class="st9" d="M365,339.8h1.3c0.3,0,0.4-0.1,0.4-0.3L366,334c0-0.2-0.3-0.3-0.5-0.3h-1.2c-0.3,0-0.4,0.1-0.4,0.3l0.7,5.4
		C364.6,339.6,364.8,339.8,365,339.8z"/>
	<path class="st9" d="M383.8,339.3h1.3c0.3,0,0.4-0.1,0.4-0.3l-0.7-5.4c0-0.2-0.3-0.3-0.5-0.3H383c-0.3,0-0.4,0.1-0.4,0.3l0.7,5.4
		C383.3,339.2,383.5,339.3,383.8,339.3z"/>
	<path class="st14" d="M378.8,311.4l-11.7-4.4L371,318c0,0,7.3,1.2,10.2-2.6L378.8,311.4z"/>
	<path class="st14" d="M419.7,281.9c0.5,1.7,0.8,3.1,1.1,4.6c0.3,1.6,0.6,3.1,0.8,4.6c0.5,3.1,0.7,6.3,0.7,9.5c0,3.4-0.4,6.8-1.2,10
		c-0.2,0.9-0.5,1.8-0.9,2.6c-0.4,1.1-1,2.2-1.6,3.2c-1.4,1.9-3.4,3.4-5.6,4.3c-1.8,0.7-3.6,1.2-5.5,1.4c-1.7,0.2-3.3,0.3-5,0.3
		c-3.1-0.1-6.3-0.4-9.3-0.9c-6-1-11.8-2.6-17.5-4.7l1.6-5.6c5.6,0.9,11.2,1.5,16.9,1.8c2.7,0.1,5.4,0.1,8.1-0.1
		c2.3-0.1,4.5-0.6,6.6-1.6c0.5-0.2,0.9-0.6,1.2-1c0.2-0.8,0.4-1.5,0.6-2.3c0.4-2.4,0.5-4.9,0.3-7.3c-0.1-2.7-0.4-5.3-0.9-7.9
		c-0.2-1.3-0.4-2.7-0.7-4c-0.3-1.3-0.6-2.7-0.9-3.9L419.7,281.9z"/>
	<path class="st7" d="M414.9,266c4.7,1.3,8.4,20.5,8.4,20.5l-17.9,8.9c0,0-4.5-11.9-2.7-18C404.6,271,409.5,264.5,414.9,266z"/>
	<path class="st9" d="M364,323.7h-10.5c-0.8,0-1.5-0.6-1.7-1.4l-5.5-22.2c-0.2-0.5,0.1-1.1,0.6-1.3c0.1,0,0.3-0.1,0.4-0.1h10.5
		c0.8,0,1.5,0.6,1.7,1.4l5.5,22.2c0.2,0.5-0.1,1.1-0.6,1.3C364.2,323.7,364.1,323.7,364,323.7z"/>
	<path class="st14" d="M341.9,310.9l6.4-2.7l-1.4,12.4c-0.6,0.2-1.2,0.4-1.9,0.5c-2.9,0.5-5.7-1.4-6.3-4.3c-0.2-1-0.1-1.9,0.2-2.8
		l0,0C339.5,312.6,340.6,311.5,341.9,310.9z"/>
	<polygon class="st14" points="354,309.8 352.8,319.3 346.9,320.6 348.3,308.2 	"/>
	<polygon class="st14" points="357.9,309.9 361.7,318.9 371,318 367.1,307 	"/>
</g>
</svg>
