<?xml version="1.0" encoding="utf-8"?>
<!-- Generator: Adobe Illustrator 26.3.0, SVG Export Plug-In . SVG Version: 6.00 Build 0)  -->
<svg version="1.1" id="Layer_1" xmlns="http://www.w3.org/2000/svg" xmlns:xlink="http://www.w3.org/1999/xlink" x="0px" y="0px"
	 viewBox="0 0 750 500" style="enable-background:new 0 0 750 500;" xml:space="preserve">
<style type="text/css">
	.st0{fill:#E0E0E0;}
	.st1{fill:#E6E6E6;}
	.st2{fill:#F0F0F0;}
	.st3{fill:#F5F5F5;}
	.st4{fill:#009FE3;}
	.st5{opacity:0.5;}
	.st6{fill:#FFFFFF;}
	.st7{opacity:0.4;enable-background:new    ;}
	.st8{fill:#FAFAFA;}
	.st9{opacity:0.5;fill:#FFFFFF;enable-background:new    ;}
	.st10{opacity:0.7;fill:#FFFFFF;enable-background:new    ;}
	.st11{opacity:0.3;fill:#FFFFFF;enable-background:new    ;}
	.st12{fill:#B55B52;}
	.st13{opacity:0.4;fill:#FAFAFA;enable-background:new    ;}
	.st14{opacity:0.3;enable-background:new    ;}
	.st15{fill:#263238;}
	.st16{opacity:0.1;enable-background:new    ;}
	.st17{fill:#203048;}
	.st18{fill:#161F33;}
	.st19{opacity:0.2;enable-background:new    ;}
</style>
<g id="freepik--background-complete--inject-30">
	<rect x="99.4" y="422.1" class="st0" width="539.3" height="0.3"/>
	<rect x="471.4" y="432.1" class="st0" width="37.1" height="0.3"/>
	<rect x="531.3" y="431.3" class="st0" width="20.9" height="0.3"/>
	<rect x="338.4" y="431.9" class="st0" width="27.7" height="0.3"/>
	<rect x="367.2" y="435.8" class="st0" width="18.9" height="0.3"/>
	<rect x="198.3" y="429.2" class="st0" width="57.2" height="0.3"/>
	<rect x="455.7" y="101.7" class="st0" width="9.8" height="126.6"/>
	<path class="st0" d="M290.6,205.5c0,0-19.8-34.1,7.7-61.2c0,0,7.2,4.7,7.1,10.9c-0.1,6.3-7.7,7.9-6.1,13.1
		c1.6,5.2,8.8,10.4,4.1,14.7c-4.7,4.3,0.8,8.2,0.4,13.5C303.5,201.8,290.6,205.5,290.6,205.5z"/>
	<path class="st1" d="M293.8,211.1c0,0,8-38.6-26.6-55.7c0,0-5.3,6.7-3.2,12.6c2.1,5.9,9.8,5,9.9,10.5c0.1,5.5-5,12.6,0.8,15.2
		c5.8,2.6,1.9,8,3.8,12.9S293.8,211.1,293.8,211.1z"/>
	<path class="st2" d="M276.1,201.3c0,0,0.3,33.3,13.7,33.3s13.7-33.3,13.7-33.3H276.1z"/>
	<path class="st1" d="M196.1,222.1c0,0,0.7,12.5,29.2,12.5s29.2-12.5,29.2-12.5H196.1z"/>
	<path class="st2" d="M480.9,297.7h15c1.9,0,3.4,1.5,3.4,3.4v24.8c0,1.9-1.5,3.4-3.4,3.4h-15c-1.9,0-3.4-1.5-3.4-3.4V301
		C477.6,299.2,479.1,297.7,480.9,297.7z"/>
	<path class="st1" d="M525.7,308h10.1c1.3,0,2.3,1,2.3,2.3V327c0,1.3-1,2.3-2.3,2.3h-10.1c-1.3,0-2.3-1-2.3-2.3v-16.7
		C523.4,309,524.4,308,525.7,308z"/>
	<path class="st2" d="M524.2,305.9h13.1c0.4,0,0.8,0.3,0.8,0.8v0.9c0,0.4-0.3,0.8-0.8,0.8h-13.1c-0.4,0-0.8-0.3-0.8-0.8v-0.9
		C523.4,306.3,523.7,305.9,524.2,305.9z"/>
	<path class="st1" d="M442.8,311.7c0,0,0.5,17.6,21.1,17.6c20.6,0,21.1-17.6,21.1-17.6H442.8z"/>
	<rect x="391.6" y="282.3" class="st0" width="31.2" height="6.1"/>
	<rect x="422.8" y="282.3" class="st2" width="154.9" height="6.1"/>
	<rect x="391.6" y="329.3" class="st0" width="31.2" height="6.1"/>
	<rect x="422.8" y="329.3" class="st2" width="154.9" height="6.1"/>
	<rect x="397.1" y="288.5" class="st0" width="5.7" height="133.7"/>
	<rect x="422.8" y="288.5" class="st2" width="5.7" height="133.7"/>
	<rect x="552" y="288.5" class="st0" width="5.7" height="133.7"/>
	<rect x="571.9" y="288.5" class="st2" width="5.7" height="133.7"/>
	<rect x="166.6" y="242.4" class="st1" width="29.5" height="171.6"/>
	<rect x="172.3" y="414" class="st1" width="145.3" height="8.1"/>
	<rect x="196.1" y="242.4" class="st2" width="127.2" height="171.6"/>
	<rect x="207.7" y="307.3" class="st1" width="104" height="41.9"/>
	<rect x="207.7" y="356.8" class="st1" width="104" height="41.9"/>
	<path class="st2" d="M271.4,311.9H248c-1.6,0-2.9-1.3-2.9-2.9l0,0c0-1.6,1.3-2.9,2.9-2.9h23.4c1.6,0,2.9,1.3,2.9,2.9l0,0
		C274.2,310.6,272.9,311.9,271.4,311.9z"/>
	<rect x="207.7" y="257.7" class="st1" width="104" height="41.9"/>
	<path class="st2" d="M271.4,262.3H248c-1.6,0-2.9-1.3-2.9-2.9l0,0c0-1.6,1.3-2.9,2.9-2.9h23.4c1.6,0,2.9,1.3,2.9,2.9l0,0
		C274.2,261,272.9,262.3,271.4,262.3z"/>
	<path class="st2" d="M271.4,361.4H248c-1.6,0-2.9-1.3-2.9-2.9l0,0c0-1.6,1.3-2.9,2.9-2.9h23.4c1.6,0,2.9,1.3,2.9,2.9l0,0
		C274.2,360.1,272.9,361.4,271.4,361.4z"/>
	<rect x="196.1" y="234.6" class="st1" width="131.1" height="7.8"/>
	<rect x="162.5" y="234.6" class="st0" width="33.6" height="7.8"/>
</g>
<g id="freepik--Shadow--inject-30">
	<ellipse class="st3" cx="369" cy="458.6" rx="209.1" ry="12.2"/>
</g>
<g id="freepik--speech-bubbles--inject-30">
	<path class="st4" d="M446.3,167h105.8c5.6,0,10.1,4.5,10.1,10.1v28.8c0,5.6-4.5,10.1-10.1,10.1H446.3c-5.6,0-10.1-4.5-10.1-10.1
		v-28.8C436.2,171.5,440.8,167,446.3,167z"/>
	<path class="st4" d="M448.5,175.2h82.6c1,0,1.8,0.8,1.8,1.8v1.9c0,1-0.8,1.8-1.8,1.8h-82.6c-1,0-1.8-0.8-1.8-1.8V177
		C446.7,176,447.5,175.2,448.5,175.2z"/>
	<path class="st4" d="M448.5,188.4H505c1,0,1.8,0.8,1.8,1.8v1.9c0,1-0.8,1.8-1.8,1.8h-56.5c-1,0-1.8-0.8-1.8-1.8v-1.9
		C446.7,189.2,447.5,188.4,448.5,188.4z"/>
	<path class="st4" d="M448.5,201.6h41.3c1,0,1.8,0.8,1.8,1.8v1.9c0,1-0.8,1.8-1.8,1.8h-41.3c-1,0-1.8-0.8-1.8-1.8v-1.9
		C446.7,202.4,447.5,201.6,448.5,201.6z"/>
	<path class="st4" d="M499.7,201.6h41.3c1,0,1.8,0.8,1.8,1.8v1.9c0,1-0.8,1.8-1.8,1.8h-41.3c-1,0-1.8-0.8-1.8-1.8v-1.9
		C498,202.4,498.8,201.6,499.7,201.6z"/>
	<g class="st5">
		<path class="st6" d="M448.5,175.2h82.6c1,0,1.8,0.8,1.8,1.8v1.9c0,1-0.8,1.8-1.8,1.8h-82.6c-1,0-1.8-0.8-1.8-1.8V177
			C446.7,176,447.5,175.2,448.5,175.2z"/>
		<path class="st6" d="M448.5,188.4H505c1,0,1.8,0.8,1.8,1.8v1.9c0,1-0.8,1.8-1.8,1.8h-56.5c-1,0-1.8-0.8-1.8-1.8v-1.9
			C446.7,189.2,447.5,188.4,448.5,188.4z"/>
		<path class="st6" d="M448.5,201.6h41.3c1,0,1.8,0.8,1.8,1.8v1.9c0,1-0.8,1.8-1.8,1.8h-41.3c-1,0-1.8-0.8-1.8-1.8v-1.9
			C446.7,202.4,447.5,201.6,448.5,201.6z"/>
		<path class="st6" d="M499.7,201.6h41.3c1,0,1.8,0.8,1.8,1.8v1.9c0,1-0.8,1.8-1.8,1.8h-41.3c-1,0-1.8-0.8-1.8-1.8v-1.9
			C498,202.4,498.8,201.6,499.7,201.6z"/>
	</g>
	<path class="st4" d="M347.3,155.5h120.1c8.2,0,14.8,6.6,14.8,14.8v42.2c0,8.2-6.6,14.8-14.8,14.8H347.3c-8.2,0-14.8-6.6-14.8-14.8
		v-42.2C332.5,162.2,339.1,155.5,347.3,155.5z"/>
	<path class="st4" d="M350.5,167.6h121.2c1.4,0,2.6,1.2,2.6,2.6v2.8c0,1.4-1.2,2.6-2.6,2.6H350.5c-1.4,0-2.6-1.2-2.6-2.6v-2.8
		C347.9,168.8,349.1,167.6,350.5,167.6z"/>
	<path class="st4" d="M350.5,187h82.8c1.4,0,2.6,1.2,2.6,2.6v2.8c0,1.4-1.2,2.6-2.6,2.6h-82.8c-1.4,0-2.6-1.2-2.6-2.6v-2.8
		C347.9,188.2,349.1,187,350.5,187z"/>
	<path class="st4" d="M350.5,206.4h60.6c1.4,0,2.6,1.2,2.6,2.6v2.8c0,1.4-1.2,2.6-2.6,2.6h-60.6c-1.4,0-2.6-1.2-2.6-2.6V209
		C347.9,207.5,349.1,206.4,350.5,206.4z"/>
	<path class="st4" d="M425.6,206.4h50.5c1.4,0,2.6,1.2,2.6,2.6v2.8c0,1.4-1.2,2.6-2.6,2.6h-50.5c-1.4,0-2.6-1.2-2.6-2.6V209
		C423,207.5,424.2,206.4,425.6,206.4z"/>
	<g class="st5">
		<path class="st6" d="M350.5,167.6h121.2c1.4,0,2.6,1.2,2.6,2.6v2.8c0,1.4-1.2,2.6-2.6,2.6H350.5c-1.4,0-2.6-1.2-2.6-2.6v-2.8
			C347.9,168.8,349.1,167.6,350.5,167.6z"/>
		<path class="st6" d="M350.5,187h82.8c1.4,0,2.6,1.2,2.6,2.6v2.8c0,1.4-1.2,2.6-2.6,2.6h-82.8c-1.4,0-2.6-1.2-2.6-2.6v-2.8
			C347.9,188.2,349.1,187,350.5,187z"/>
		<path class="st6" d="M350.5,206.4h60.6c1.4,0,2.6,1.2,2.6,2.6v2.8c0,1.4-1.2,2.6-2.6,2.6h-60.6c-1.4,0-2.6-1.2-2.6-2.6V209
			C347.9,207.5,349.1,206.4,350.5,206.4z"/>
		<path class="st6" d="M425.6,206.4h50.5c1.4,0,2.6,1.2,2.6,2.6v2.8c0,1.4-1.2,2.6-2.6,2.6h-50.5c-1.4,0-2.6-1.2-2.6-2.6V209
			C423,207.5,424.2,206.4,425.6,206.4z"/>
	</g>
	<path class="st4" d="M334.9,240.4h57.8c3.8,0,6.9,3.1,6.9,6.9V334c0,3.8-3.1,6.9-6.9,6.9h-57.8c-3.8,0-6.9-3.1-6.9-6.9v-86.7
		C328,243.5,331.1,240.4,334.9,240.4z"/>
	<path class="st7" d="M334.9,240.4h57.8c3.8,0,6.9,3.1,6.9,6.9V334c0,3.8-3.1,6.9-6.9,6.9h-57.8c-3.8,0-6.9-3.1-6.9-6.9v-86.7
		C328,243.5,331.1,240.4,334.9,240.4z"/>
	<path class="st8" d="M337.5,250.9h52.5c0.7,0,1.3,0.6,1.3,1.3v1.9c0,0.7-0.6,1.3-1.3,1.3h-52.5c-0.7,0-1.3-0.6-1.3-1.3v-1.9
		C336.3,251.4,336.8,250.9,337.5,250.9z"/>
	<path class="st8" d="M337.5,261.6h35.8c0.7,0,1.3,0.6,1.3,1.3v1.9c0,0.7-0.6,1.3-1.3,1.3h-35.8c-0.7,0-1.3-0.6-1.3-1.3v-1.9
		C336.3,262.2,336.8,261.6,337.5,261.6z"/>
	<path class="st8" d="M337.5,272.3h52.5c0.7,0,1.3,0.6,1.3,1.3v1.9c0,0.7-0.6,1.3-1.3,1.3h-52.5c-0.7,0-1.3-0.6-1.3-1.3v-1.9
		C336.3,272.9,336.8,272.3,337.5,272.3z"/>
	<path class="st8" d="M337.5,283h19.5c0.7,0,1.3,0.6,1.3,1.3v1.9c0,0.7-0.6,1.3-1.3,1.3h-19.5c-0.7,0-1.3-0.6-1.3-1.3v-1.9
		C336.3,283.6,336.8,283,337.5,283z"/>
	<path class="st8" d="M364.9,283h19.5c0.7,0,1.3,0.6,1.3,1.3v1.9c0,0.7-0.6,1.3-1.3,1.3h-19.5c-0.7,0-1.3-0.6-1.3-1.3v-1.9
		C363.6,283.6,364.2,283,364.9,283z"/>
	<path class="st8" d="M337.5,293.8h52.5c0.7,0,1.3,0.6,1.3,1.3v1.9c0,0.7-0.6,1.3-1.3,1.3h-52.5c-0.7,0-1.3-0.6-1.3-1.3V295
		C336.3,294.3,336.8,293.8,337.5,293.8z"/>
	<path class="st8" d="M337.5,304.5h52.5c0.7,0,1.3,0.6,1.3,1.3v1.9c0,0.7-0.6,1.3-1.3,1.3h-52.5c-0.7,0-1.3-0.6-1.3-1.3v-1.9
		C336.3,305.1,336.8,304.5,337.5,304.5z"/>
	<path class="st8" d="M337.5,315.2h43.2c0.7,0,1.3,0.6,1.3,1.3v1.9c0,0.7-0.6,1.3-1.3,1.3h-43.2c-0.7,0-1.3-0.6-1.3-1.3v-1.9
		C336.3,315.8,336.8,315.2,337.5,315.2z"/>
	<path class="st8" d="M337.5,325.9h20.2c0.7,0,1.3,0.6,1.3,1.3v1.9c0,0.7-0.6,1.3-1.3,1.3h-20.2c-0.7,0-1.3-0.6-1.3-1.3v-1.9
		C336.3,326.5,336.8,325.9,337.5,325.9z"/>
	<path class="st4" d="M408.4,239.8h-80.2l35.5,28.2l54.4,20.5v-39.1C418,244.1,413.7,239.8,408.4,239.8z"/>
	<path class="st7" d="M408.4,239.8h-80.2l35.5,28.2l54.4,20.5v-39.1C418,244.1,413.7,239.8,408.4,239.8z"/>
	<path class="st8" d="M346.2,254.3h58.7c0.9,0,1.6,0.7,1.6,1.6v3c0,0.9-0.7,1.6-1.6,1.6h-58.7c-0.9,0-1.6-0.7-1.6-1.6v-3
		C344.6,255,345.3,254.3,346.2,254.3z"/>
	<path class="st4" d="M547.1,259.7v56.4c0,4.3-3.5,7.8-7.8,7.8h-98c-4.3,0-7.8-3.5-7.8-7.8v-56.4c0-4.3,3.5-7.8,7.8-7.8h98
		C543.6,251.9,547.1,255.4,547.1,259.7z"/>
	<path class="st4" d="M565,241.9v56.4c0,4.3-3.5,7.8-7.8,7.8h-98c-4.3,0-7.8-3.5-7.8-7.8v-56.4c0-4.3,3.5-7.8,7.8-7.8h98
		C561.5,234,565,237.5,565,241.9z"/>
	<path class="st9" d="M565,241.9v56.4c0,4.3-3.5,7.8-7.8,7.8h-98c-4.3,0-7.8-3.5-7.8-7.8v-56.4c0-4.3,3.5-7.8,7.8-7.8h98
		C561.5,234,565,237.5,565,241.9z"/>
	<path class="st4" d="M555.1,244.2V279c0,1.9-1.6,3.5-3.5,3.5h-32c-1.9,0-3.5-1.6-3.5-3.5v-34.7c0-1.9,1.6-3.5,3.5-3.5h32
		C553.5,240.7,555.1,242.3,555.1,244.2z"/>
	<path class="st10" d="M555.1,244.2V279c0,1.9-1.6,3.5-3.5,3.5h-32c-1.9,0-3.5-1.6-3.5-3.5v-34.7c0-1.9,1.6-3.5,3.5-3.5h32
		C553.5,240.7,555.1,242.3,555.1,244.2z"/>
	<path class="st4" d="M510,269.1v26.6c0,1.5-1.2,2.7-2.7,2.7h-24.5c-1.5,0-2.7-1.2-2.7-2.7v-26.6c0-1.5,1.2-2.7,2.7-2.7h24.5
		C508.8,266.5,510,267.7,510,269.1z"/>
	<path class="st11" d="M510,269.1v26.6c0,1.5-1.2,2.7-2.7,2.7h-24.5c-1.5,0-2.7-1.2-2.7-2.7v-26.6c0-1.5,1.2-2.7,2.7-2.7h24.5
		C508.8,266.5,510,267.7,510,269.1z"/>
	<path class="st4" d="M495,112.6V127c0,4.4-3.6,8-8,8H223.8c-4.4,0-8-3.6-8-8v-14.4c0-4.4,3.6-8,8-8h263.3
		C491.5,104.6,495,108.2,495,112.6z"/>
	<path class="st9" d="M495,112.6V127c0,4.4-3.6,8-8,8H223.8c-4.4,0-8-3.6-8-8v-14.4c0-4.4,3.6-8,8-8h263.3
		C491.5,104.6,495,108.2,495,112.6z"/>
	<rect x="369.5" y="129.6" class="st4" width="75.8" height="10.4"/>
	<rect x="369.5" y="129.6" class="st9" width="75.8" height="10.4"/>
	<path class="st4" d="M522.2,67.8v14.4c0,4.4-3.6,8-8,8H250.9c-4.4,0-8-3.6-8-8V67.8c0-4.4,3.6-8,8-8h263.3
		C518.6,59.9,522.2,63.5,522.2,67.8z"/>
</g>
<g id="freepik--Character--inject-30">
	<path class="st12" d="M240,219.2c-0.9,2.2-2,4.5-2.9,6.8c-0.9,2.3-1.9,4.6-2.7,6.9c-1.7,4.5-3.1,9.2-4.1,13.9l-0.3,1.7l-0.1,0.6
		c0,0.2,0,0.4-0.1,0.6c0,1.1,0,2.1,0.1,3.1c0.2,2.3,0.6,4.7,1.1,7.2c0.9,4.9,2.1,9.9,3.2,14.9l-5.5,2.2c-2.6-4.7-4.8-9.6-6.6-14.7
		c-0.9-2.6-1.7-5.3-2.3-8.1c-0.3-1.5-0.5-3-0.6-4.6c0-0.4,0-0.8,0-1.3c0-0.5,0-1,0.1-1.3l0.2-2.2c0.3-2.8,0.8-5.5,1.5-8.3
		c0.6-2.7,1.4-5.3,2.2-7.9c0.8-2.6,1.7-5.1,2.8-7.6c0.5-1.3,1.1-2.5,1.6-3.7c0.5-1.2,1.1-2.4,1.8-3.8L240,219.2z"/>
	<path class="st12" d="M233.9,273.6l4.2,4.1l-9.2,4.3c0,0-2.2-3.9-0.7-7.4L233.9,273.6z"/>
	<polygon class="st12" points="241.5,283.8 233.7,287 228.9,282 238.1,277.7 	"/>
	<path class="st13" d="M398.6,279.4c-42.6-4.8-73.3-43.2-68.5-85.8c4.8-42.6,43.2-73.3,85.8-68.5c42.6,4.8,73.3,43.2,68.5,85.8
		C479.7,253.5,441.3,284.2,398.6,279.4C398.6,279.4,398.6,279.4,398.6,279.4z"/>
	<path class="st13" d="M455.1,141L337,235.4c-0.5-1.1-1-2.2-1.4-3.2c-3-7-4.9-14.5-5.6-22.1l0,0l102-81.5
		C440.3,131.4,448.1,135.6,455.1,141z"/>
	<path class="st13" d="M482.3,182.4l-111,88.7c-10.5-5.5-19.7-13.4-26.7-23l121.2-96.9C473.6,160.2,479.3,170.9,482.3,182.4z"/>
	<path class="st4" d="M319.8,172.5l-1-0.3c1.8-5.2,4-10.3,6.7-15.2l0.9,0.5C323.8,162.4,321.6,167.4,319.8,172.5z M332.9,147.4
		l-0.9-0.6c8.9-12,20.5-21.7,33.8-28.3l0.5,1C353.1,126,341.7,135.5,332.9,147.4L332.9,147.4z M451.1,120.9c-3.5-1.9-7.2-3.5-10.9-5
		l0.4-1c3.8,1.4,7.5,3.1,11,5L451.1,120.9z"/>
	<path class="st14" d="M319.8,172.5l-1-0.3c1.8-5.2,4-10.3,6.7-15.2l0.9,0.5C323.8,162.4,321.6,167.4,319.8,172.5z M332.9,147.4
		l-0.9-0.6c8.9-12,20.5-21.7,33.8-28.3l0.5,1C353.1,126,341.7,135.5,332.9,147.4L332.9,147.4z M451.1,120.9c-3.5-1.9-7.2-3.5-10.9-5
		l0.4-1c3.8,1.4,7.5,3.1,11,5L451.1,120.9z"/>
	<path class="st4" d="M487.5,162.6C466,118,412.5,99.3,368,120.8c-41.5,20-61.1,68.3-45.1,111.6c-7.2,2.5-14.3,5.2-21.4,8
		c-10.2,4-20.3,8.3-30.3,12.7c-10,4.4-20,9-29.8,13.7c-5,2.3-9.8,4.8-14.8,7.1c-2.6,1.1-4.9,2.7-6.8,4.7c-1.1,1.1-2,2.3-2.8,3.6
		c-1,1.5-1.7,3.2-2.2,5c-1.7,6.6,1.7,13.4,7.9,16c1.7,0.7,3.4,1.2,5.2,1.4c1.5,0.2,3.1,0.2,4.6,0c2.8-0.3,5.4-1.2,7.9-2.6
		c4.9-2.5,9.8-4.9,14.7-7.4c9.7-5,19.4-10.1,29-15.4c9.6-5.2,19.2-10.7,28.5-16.4c6.5-3.9,13-7.9,19.4-12.1
		c26.5,41.8,81.8,54.2,123.5,27.7C494.5,253.9,508.3,203.7,487.5,162.6L487.5,162.6z M438.5,265.6c-35,17.3-77.4,2.9-94.7-32.1
		c-17.3-35-2.9-77.4,32.1-94.7c35-17.3,77.4-2.9,94.7,32.1C487.9,205.9,473.5,248.3,438.5,265.6
		C438.5,265.6,438.5,265.6,438.5,265.6z"/>
	<path class="st14" d="M487.5,162.6C466,118,412.5,99.3,368,120.8c-41.5,20-61.1,68.3-45.1,111.6c-7.2,2.5-14.3,5.2-21.4,8
		c-10.2,4-20.3,8.3-30.3,12.7c-10,4.4-20,9-29.8,13.7c-5,2.3-9.8,4.8-14.8,7.1c-2.6,1.1-4.9,2.7-6.8,4.7c-1.1,1.1-2,2.3-2.8,3.6
		c-1,1.5-1.7,3.2-2.2,5c-1.7,6.6,1.7,13.4,7.9,16c1.7,0.7,3.4,1.2,5.2,1.4c1.5,0.2,3.1,0.2,4.6,0c2.8-0.3,5.4-1.2,7.9-2.6
		c4.9-2.5,9.8-4.9,14.7-7.4c9.7-5,19.4-10.1,29-15.4c9.6-5.2,19.2-10.7,28.5-16.4c6.5-3.9,13-7.9,19.4-12.1
		c26.5,41.8,81.8,54.2,123.5,27.7C494.5,253.9,508.3,203.7,487.5,162.6L487.5,162.6z M438.5,265.6c-35,17.3-77.4,2.9-94.7-32.1
		c-17.3-35-2.9-77.4,32.1-94.7c35-17.3,77.4-2.9,94.7,32.1C487.9,205.9,473.5,248.3,438.5,265.6
		C438.5,265.6,438.5,265.6,438.5,265.6z"/>
	<path class="st15" d="M269.8,180.7c0,0.6,0.3,1.2,0.8,1.2c0.4,0,0.8-0.5,0.8-1.2c0-0.6-0.3-1.2-0.8-1.2
		C270.1,179.5,269.8,180.1,269.8,180.7z"/>
	<path class="st12" d="M270.1,181.8c0.8,2,1.8,3.8,3.1,5.5c-0.9,0.6-2,0.8-3.1,0.6V181.8z"/>
	<path class="st15" d="M267.6,177.1c-0.1,0-0.2-0.1-0.3-0.2c-0.1-0.2-0.1-0.4,0.1-0.5c1-0.7,2.2-0.9,3.4-0.6
		c0.2,0.1,0.3,0.3,0.3,0.5c-0.1,0.2-0.3,0.3-0.5,0.3c0,0,0,0-0.1,0c-0.9-0.3-1.9-0.1-2.7,0.5C267.7,177.1,267.6,177.1,267.6,177.1z"
		/>
	<path class="st12" d="M248,185.5c1.1,5.8,2.3,16.4-1.8,20.3c0,0,1.6,5.9,12.4,5.9c11.9,0,5.7-5.9,5.7-5.9
		c-6.5-1.6-6.3-6.3-5.2-10.9L248,185.5z"/>
	<path class="st4" d="M241.4,208.8c1.3-2-0.9-6.8-0.9-6.8s19.1-4.8,26.9,2.6c1.6,1.5-0.2,3.8-0.2,3.8L241.4,208.8z"/>
	<path class="st16" d="M241.4,208.8c1.3-2-0.9-6.8-0.9-6.8s19.1-4.8,26.9,2.6c1.6,1.5-0.2,3.8-0.2,3.8L241.4,208.8z"/>
	<path class="st4" d="M209.8,428.9c-1,0-2.6-1.7-3.1-2.3c0-0.1,0-0.1,0-0.2c0-0.1,0.1-0.1,0.2-0.1c0.1,0,2.8,0.2,3.5,1.2
		c0.2,0.2,0.2,0.5,0.2,0.7c0,0.3-0.2,0.6-0.6,0.7L209.8,428.9z M207.3,426.7c0.8,0.9,2,1.9,2.6,1.8c0,0,0.2-0.1,0.3-0.4
		c0-0.1,0-0.3-0.1-0.4C209.3,427.1,208.3,426.8,207.3,426.7L207.3,426.7z"/>
	<path class="st4" d="M207.4,426.7c-0.2,0-0.4,0-0.6,0c-0.1,0-0.1-0.1-0.2-0.1c0-0.1,0-0.1,0-0.2c0.1-0.1,1.7-1.7,2.9-1.7l0,0
		c0.3,0,0.6,0.1,0.8,0.3c0.2,0.2,0.3,0.5,0.2,0.8C210.2,426.4,208.5,426.7,207.4,426.7z M207.3,426.3c1.1,0,2.6-0.3,2.9-0.8
		c0,0,0.1-0.1-0.1-0.3c-0.1-0.1-0.3-0.2-0.5-0.2l0,0C208.7,425.2,207.9,425.7,207.3,426.3z"/>
	<path class="st4" d="M281,453.4c-0.8,0-1.6-0.1-2.4-0.2c-0.1,0-0.1-0.1-0.1-0.2c0-0.1,0-0.2,0.1-0.2c0.1-0.1,2.9-1.7,4.2-1.3
		c0.2,0.1,0.5,0.2,0.6,0.4c0.2,0.2,0.2,0.6,0,0.8C283,453.2,282,453.4,281,453.4z M279.2,452.9c1.5,0.2,3.5,0.2,3.8-0.3
		c0.1-0.1,0.1-0.2,0-0.4c-0.1-0.1-0.2-0.2-0.4-0.3C281.8,451.7,280.1,452.4,279.2,452.9z"/>
	<path class="st4" d="M278.6,453.2c0,0-0.1,0-0.1,0c-0.1,0-0.1-0.1-0.1-0.2c0.1-1.1,0.5-2.2,1.2-3.1c0.3-0.3,0.7-0.4,1.1-0.3
		c0.5,0,0.7,0.3,0.7,0.5c0.1,0.9-1.7,2.6-2.7,3L278.6,453.2z M280.5,449.9c-0.2,0-0.5,0.1-0.6,0.2c-0.6,0.7-1,1.5-1.1,2.4
		c1-0.6,2.3-1.9,2.2-2.5C281,450.1,281,449.9,280.5,449.9L280.5,449.9z"/>
	<polygon class="st12" points="269.9,453 277.8,453 278.6,434.6 270.7,434.6 	"/>
	<polygon class="st12" points="199.3,421.5 205.9,425.8 220.5,413.5 213.9,409.1 	"/>
	<path class="st15" d="M207,425.4l-6.9-5.6c-0.3-0.2-0.6-0.2-0.9,0l-5.7,4.5c-0.5,0.4-0.6,1.1-0.2,1.6c0.1,0.1,0.1,0.1,0.2,0.2
		c2.4,1.9,3.7,2.8,6.8,5.2c1.9,1.5,6.5,6.2,9.1,8.3c2.6,2.1,5-0.2,4.1-1.3c-3.9-4.9-5.4-9.1-5.8-11.7
		C207.6,426.1,207.4,425.7,207,425.4z"/>
	<path class="st15" d="M277.8,452h-8.6c-0.3,0-0.6,0.2-0.7,0.5l-1.6,7c-0.1,0.6,0.2,1.2,0.9,1.4c0.1,0,0.2,0,0.3,0
		c3.1-0.1,7.6-0.2,11.6-0.2c4.6,0,8.6,0.2,13.9,0.2c3.2,0,4.2-3.3,2.8-3.6c-6.2-1.4-11.3-1.5-16.6-4.8
		C279.1,452.3,278.4,452.1,277.8,452z"/>
	<path class="st15" d="M230.6,208.1c-6.9,3.2-10.8,24.9-10.8,24.9l16.8,6.7c2.5-6,4.4-12.2,5.9-18.5
		C244.9,211.3,237.6,204.8,230.6,208.1z"/>
	<path class="st17" d="M239.5,220.4c-4.2,4.2-6.1,12.4-6.9,17.8l4,1.6c2.4-5.8,4.3-11.8,5.8-18C242.1,219.5,241.2,218.6,239.5,220.4
		z"/>
	<path class="st15" d="M276.4,208c0,0,8.4,9.5,0.5,68.5h-42.4c-0.3-6.5,3.8-38.2-2.5-68.9c4.7-0.9,9.4-1.5,14.2-1.8
		c6-0.4,12-0.4,18,0C268.3,206.2,272.4,206.9,276.4,208z"/>
	<path class="st17" d="M280.3,230.9l-7.1-12.3c-1.4,5.7-1.9,11.6-1.7,17.5c0.2,4.2,4.1,19.9,7.5,22.2
		C279.9,249.2,280.4,240,280.3,230.9z"/>
	<path class="st12" d="M281.3,216.4c1.1,5.2,2.2,10.6,3.3,15.9c1.2,5.3,2.4,10.5,3.7,15.6c0.4,1.3,0.7,2.6,1.1,3.8l0.3,0.9l0.1,0.5
		V253c-0.1-0.1-0.2-0.1-0.1,0c0.4,0.5,1,0.8,1.6,1c1,0.4,2.1,0.7,3.1,0.9c5.1,0.8,10.3,1.1,15.4,1l1,5.9c-1.4,0.5-2.8,0.8-4.2,1.1
		c-1.4,0.3-2.8,0.6-4.3,0.8c-3,0.5-6,0.7-9,0.6c-1.7,0-3.3-0.3-5-0.6c-2.1-0.5-4-1.4-5.7-2.6c-1.1-0.9-2-2-2.7-3.2
		c-0.2-0.3-0.3-0.7-0.5-1l-0.2-0.5l-0.4-1.1c-0.6-1.4-1-2.7-1.5-4.1c-1.8-5.4-3.3-10.8-4.7-16.3c-1.3-5.4-2.5-10.9-3.5-16.4
		L281.3,216.4z"/>
	<path class="st15" d="M265.8,213.8c-2.2,7.2,6.8,28.8,6.8,28.8l18-4.5c0,0-0.7-11.2-4.8-20.1C279.7,204.5,268.5,205.1,265.8,213.8z
		"/>
	<path class="st12" d="M309.8,255.9l9-0.2l-4.3,9.3c0,0-3.7,0.5-6.7-4.4l-3.2-3.8l3.6-0.7C308.8,256,309.3,255.9,309.8,255.9z"/>
	<polygon class="st12" points="324.4,257.4 319.3,265.2 314.5,265.1 318.8,255.7 	"/>
	<polygon class="st12" points="278.6,434.6 278.2,444.1 270.3,444.1 270.7,434.6 	"/>
	<polygon class="st12" points="213.9,409.1 220.5,413.5 213,419.8 206.4,415.5 	"/>
	<path class="st12" d="M248.5,179.3c0.5,7.8,0.4,12.5,4.3,16.5c6,6.1,15.6,2.5,17.5-5.4c1.7-7.1,0.6-18.7-7-21.8
		c-5.5-2.2-11.8,0.4-14,6C248.6,176.1,248.4,177.7,248.5,179.3z"/>
	<path class="st15" d="M239.3,177.9c2,7.2,6.5,15.4,12.5,15.9c7.4,0.6,10.7-7,11.7-14.9c4.4-3,2.1-6.4,6.5-6.8
		c5.7-0.5,3.9-11-3.6-12.6c0,0,2.5,4.7-2.8,2.3c-5-2.4-10.6-3.3-16.1-2.8c0,0,6.7,3.4,0.2,4.9s-8.5,5.6-5.5,8
		C242.1,172,238,173.2,239.3,177.9z"/>
	<path class="st12" d="M258.9,180.6c0.1,1.9,0.9,3.8,2.2,5.3c1.7,1.9,3.5,0.7,3.8-1.6c0.3-2.1-0.3-5.6-2.4-6.6
		S258.8,178.3,258.9,180.6z"/>
	<path class="st4" d="M261.9,276.5c0,0,7.7,55.9,1.6,78.3c-9.6,35.5-46.5,65.4-46.5,65.4l-12.5-8.2c0,0,31.4-25.3,35.2-55
		c3.5-26.7-5.2-58.9-5.2-80.6L261.9,276.5z"/>
	<path class="st16" d="M261.9,276.5c0,0,7.7,55.9,1.6,78.3c-9.6,35.5-46.5,65.4-46.5,65.4l-12.5-8.2c0,0,31.4-25.3,35.2-55
		c3.5-26.7-5.2-58.9-5.2-80.6L261.9,276.5z"/>
	<path class="st4" d="M265,308.4c-2.1-2.4-4.3-4.5-6.8-6.5c1.3,18.2,2.4,45,1.2,64.1c1.6-3.7,3-7.4,4-11.3
		C266.5,343.9,266.1,325,265,308.4z"/>
	<path class="st14" d="M265,308.4c-2.1-2.4-4.3-4.5-6.8-6.5c1.3,18.2,2.4,45,1.2,64.1c1.6-3.7,3-7.4,4-11.3
		C266.5,343.9,266.1,325,265,308.4z"/>
	<path class="st4" d="M222,417.5c0.1,0-4.8,3.2-4.8,3.2l-13.7-9l4.3-3.6L222,417.5z"/>
	<path class="st14" d="M222,417.5c0.1,0-4.8,3.2-4.8,3.2l-13.7-9l4.3-3.6L222,417.5z"/>
	<path class="st4" d="M276.9,276.5c0,0,11.9,50.6,12.8,74.8c0.9,27.1-8.5,91-8.5,91h-13.4c0,0-1.7-64.4-2.2-89.1
		c-0.7-26.9-16.4-76.7-16.4-76.7L276.9,276.5z"/>
	<path class="st16" d="M276.9,276.5c0,0,11.9,50.6,12.8,74.8c0.9,27.1-8.5,91-8.5,91h-13.4c0,0-1.7-64.4-2.2-89.1
		c-0.7-26.9-16.4-76.7-16.4-76.7L276.9,276.5z"/>
	<path class="st4" d="M283.7,436.9c0.1,0-0.8,5.6-0.8,5.6h-16.3l-0.4-5L283.7,436.9z"/>
	<path class="st14" d="M283.7,436.9c0.1,0-0.8,5.6-0.8,5.6h-16.3l-0.4-5L283.7,436.9z"/>
</g>
<g id="freepik--character--inject-30">
	<path class="st12" d="M483.3,227.9c0.9,0.9,1.6,1.6,2.4,2.4c0.8,0.8,1.5,1.6,2.2,2.4c1.4,1.7,2.7,3.4,4,5.1
		c2.5,3.5,4.8,7.2,6.8,11.1l0.4,0.8c0.2,0.4,0.4,0.8,0.5,1.2c0.3,0.8,0.4,1.6,0.5,2.4c0.1,1.5-0.1,2.9-0.6,4.3
		c-0.8,2.3-2,4.5-3.5,6.4c-2.7,3.5-5.9,6.6-9.5,9.1l-2.7-3.1c1.3-1.5,2.6-3.1,3.8-4.6c1.2-1.5,2.3-3.2,3.2-4.9
		c0.9-1.5,1.6-3.1,2-4.8c0.1-0.6,0.2-1.2,0.1-1.8c0-0.2-0.1-0.4-0.2-0.6c0-0.1-0.1-0.2-0.1-0.2l-0.3-0.6c-2.1-3.4-4.3-6.7-6.8-9.8
		c-1.2-1.6-2.5-3.1-3.8-4.6c-0.6-0.8-1.3-1.5-2-2.2c-0.7-0.7-1.4-1.5-1.9-2L483.3,227.9z"/>
	<path class="st12" d="M484.8,269.2l-8.1-1.3l4.2,7.1c0,0,5.2-0.2,6.7-3.2L484.8,269.2z"/>
	<polygon class="st12" points="470.8,271.1 474.6,276.8 481,274.9 476.8,267.9 	"/>
	<path class="st4" d="M484.4,453.3c-0.5,0-1.1-0.1-1.5-0.4c-0.3-0.3-0.4-0.6-0.3-1c0-0.2,0.2-0.4,0.4-0.5c0.9-0.4,3.4,1.2,3.7,1.3
		c0.1,0,0.1,0.1,0.1,0.2c0,0.1-0.1,0.1-0.1,0.2C485.9,453.2,485.1,453.3,484.4,453.3z M483.3,451.6c-0.1,0-0.2,0-0.2,0
		c-0.1,0-0.2,0.1-0.2,0.2c-0.1,0.2,0,0.5,0.2,0.7c0.4,0.4,1.5,0.4,2.9,0.1C485.2,452.1,484.3,451.8,483.3,451.6z"/>
	<path class="st4" d="M486.6,453L486.6,453c-0.9-0.4-2.3-2.2-2.2-3.1c0.1-0.3,0.3-0.5,0.6-0.5c0.3,0,0.6,0.1,0.8,0.3
		c0.9,0.8,0.9,3.1,0.9,3.2C486.8,452.9,486.7,453,486.6,453L486.6,453z M485.2,449.7L485.2,449.7c-0.3,0-0.4,0.1-0.4,0.2
		c-0.1,0.6,0.8,1.9,1.6,2.5c0-0.9-0.2-1.8-0.7-2.5C485.5,449.8,485.3,449.7,485.2,449.7L485.2,449.7z"/>
	<path class="st4" d="M447.7,453.3c-0.7,0.1-1.4-0.1-2-0.5c-0.3-0.2-0.4-0.6-0.4-0.9c0-0.2,0.1-0.4,0.3-0.5c1-0.6,4.2,1.1,4.6,1.3
		c0.1,0,0.1,0.1,0.1,0.2c0,0.1-0.1,0.1-0.2,0.2C449.4,453.2,448.5,453.3,447.7,453.3z M446.2,451.6c-0.1,0-0.2,0-0.4,0.1
		c-0.1,0-0.1,0.1-0.1,0.2c0,0.2,0,0.5,0.2,0.6c0.5,0.4,1.8,0.5,3.6,0.2C448.5,452.2,447.4,451.8,446.2,451.6L446.2,451.6z"/>
	<path class="st4" d="M450.2,453L450.2,453c-1-0.4-3-2.2-2.8-3.1c0-0.2,0.2-0.5,0.7-0.5c0.4,0,0.8,0.1,1.1,0.3c1,0.8,1.2,3,1.2,3.1
		c0,0.1,0,0.1-0.1,0.2C450.3,453,450.2,453,450.2,453z M448.2,449.7h-0.1c-0.3,0-0.4,0.2-0.4,0.2c-0.1,0.6,1.2,1.9,2.2,2.5
		c-0.1-0.9-0.5-1.8-1.1-2.5C448.7,449.8,448.5,449.7,448.2,449.7z"/>
	<path class="st12" d="M462.9,203.1c-0.3,4.9-1.2,14.8,2.6,17.5c0,0-0.7,5-9.5,6.2c-9.7,1.3-5.3-4.2-5.3-4.2c5.1-2,4.5-5.9,3.1-9.5
		L462.9,203.1z"/>
	<path class="st15" d="M442.8,194.5c-0.1,0-0.2,0-0.3-0.1c-0.6-0.7-1.6-1.1-2.5-1.1c-0.2,0-0.4-0.1-0.4-0.3c0,0,0,0,0,0
		c0-0.2,0.1-0.4,0.3-0.4c1.2-0.1,2.4,0.4,3.2,1.4c0.1,0.2,0.1,0.4-0.1,0.5C443,194.4,442.9,194.5,442.8,194.5L442.8,194.5z"/>
	<path class="st12" d="M441.1,199.2c-0.4,1.5-1,3-1.8,4.4c0.7,0.4,1.6,0.4,2.4,0.1L441.1,199.2z"/>
	<path class="st15" d="M441.6,198c0.1,0.6-0.2,1.2-0.6,1.3s-0.8-0.4-0.9-1.1s0.2-1.2,0.6-1.3C441.1,196.9,441.5,197.4,441.6,198z"/>
	<path class="st15" d="M440.9,197l-1.6-0.2C439.3,196.7,440.2,197.8,440.9,197z"/>
	<polygon class="st12" points="459.1,452.8 451,452.8 450.4,434.1 458.5,434.1 	"/>
	<polygon class="st12" points="495.8,452.8 487.7,452.8 485.1,434.1 493.2,434.1 	"/>
	<path class="st15" d="M487.2,451.9h9.1c0.3,0,0.6,0.2,0.6,0.6l1.1,7.2c0.1,0.7-0.4,1.3-1.1,1.4c0,0-0.1,0-0.1,0
		c-3.2-0.1-4.7-0.2-8.7-0.2c-2.5,0-6.1,0.2-9.4,0.2c-3.4,0-3.6-3.4-2.2-3.7c6.3-1.4,7.3-3.2,9.5-5
		C486.3,452.1,486.7,451.9,487.2,451.9z"/>
	<path class="st15" d="M450.7,451.9h9.1c0.3,0,0.6,0.2,0.6,0.6l1.1,7.2c0.1,0.7-0.4,1.3-1.1,1.4c0,0-0.1,0-0.1,0
		c-3.2-0.1-4.7-0.2-8.7-0.2c-2.5,0-7.5,0.2-10.9,0.2c-3.4,0-3.6-3.4-2.2-3.7c6.3-1.4,8.8-3.2,11-5
		C449.8,452.1,450.2,451.9,450.7,451.9z"/>
	<polygon class="st12" points="450.4,434.1 450.7,443.7 458.8,443.7 458.5,434.1 	"/>
	<polygon class="st12" points="493.2,434.1 485.1,434.1 486.4,443.7 494.5,443.7 	"/>
	<path class="st12" d="M463,193c0.6,8,0.9,11.4-2.5,16c-5.2,6.9-15.2,5.8-18.1-1.8c-2.6-6.9-3.1-18.8,4.3-23
		c5.2-3,11.9-1.2,14.9,4.1C462.4,189.6,462.9,191.3,463,193z"/>
	<path class="st15" d="M467.7,200.4c4.5,2.5,7.8-3.7,7.8-3.7s-8,0.9-7.3-3.9c0.9-6.4-3.6-14.1-15-13.1c-0.6,0.1-1.2,0.1-1.8,0.2
		c-2.5-1.2-5.4-0.5-7.1,1.6c-3.2,0.3-7.6,4.1-4.6,9.2c0.2-0.6,0.5-1.1,0.9-1.6c0.2,3,2.9,7.7,6.1,8c0.7,4.1-2,8.8-1.1,13.1
		c1.4,6.2,11.8,7.5,11.8,7.5c-0.7-1.6-0.5-3.4,0.6-4.8c7.1,3.2,11.7,0.1,11.7,0.1c-4.8-1.8-3.4-5-3.4-5c3.5,1.5,7.5,0.1,9.2-3.3
		C472.2,205.1,469.2,203.3,467.7,200.4z"/>
	<path class="st12" d="M449.5,198.5c0,1.6-0.5,3.1-1.6,4.2c-1.4,1.5-3.2,0.4-3.6-1.4c-0.4-1.7-0.2-4.5,1.7-5.3
		c1.4-0.5,2.9,0.1,3.4,1.5C449.4,197.8,449.5,198.2,449.5,198.5z"/>
	<path class="st15" d="M456.2,273.1c0,0,2,53.2,6.9,84.5c3.9,25.3,21.4,84.3,21.4,84.3h11c0,0-9.1-57-11.1-82
		c-5-63.2,8.1-76.8-4.3-89.9L456.2,273.1z"/>
	<path class="st18" d="M465.4,289.9c0,0-5-0.9-7.9,8.6c1.1,18,2.9,41.8,5.6,59c0.6,3.8,1.5,8.4,2.6,13.5
		C463.6,340.7,465.4,289.9,465.4,289.9z"/>
	<path class="st15" d="M447.6,274.2c0,0-9.1,58.9-8.6,83.5c0.6,25.6,9.9,84.1,9.9,84.1h10.9c0,0-1.7-57-0.8-82.1
		c1.1-27.4,12.3-88.6,12.3-88.6L447.6,274.2z"/>
	<polygon class="st4" points="497.1,442.4 482.5,442.4 481.3,437.5 497,437.6 	"/>
	<polygon class="st19" points="497.1,442.4 482.5,442.4 481.3,437.5 497,437.6 	"/>
	<path class="st4" d="M479.6,220.6c4.2,0.4,10.6,12.4,10.6,12.4l-10.6,8.2c0,0-8.8-7.7-7.8-12.1
		C472.9,224.6,475.5,220.2,479.6,220.6z"/>
	<path class="st16" d="M479.6,220.6c4.2,0.4,10.6,12.4,10.6,12.4l-10.6,8.2c0,0-8.8-7.7-7.8-12.1
		C472.9,224.6,475.5,220.2,479.6,220.6z"/>
	<path class="st4" d="M476.4,225.7c-1.1-0.3-2.2-0.4-3.3-0.4c-0.6,1.2-1,2.4-1.3,3.7c-1.1,4.3,7.8,12.1,7.8,12.1l0.8-0.6
		L476.4,225.7z"/>
	<path class="st14" d="M476.4,225.7c-1.1-0.3-2.2-0.4-3.3-0.4c-0.6,1.2-1,2.4-1.3,3.7c-1.1,4.3,7.8,12.1,7.8,12.1l0.8-0.6
		L476.4,225.7z"/>
	<path class="st12" d="M444,237.3c-3.1,7.8-6.3,15.7-8.9,23.5c-0.2,0.5-0.3,1-0.5,1.5l-0.4,1.2c-0.1,0.4-0.1,0.7,0,1.1
		c0.6,1.3,1.6,2.5,2.8,3.3c3.2,2.3,6.7,4.2,10.5,5.6l-1,4c-4.6-0.6-9-2-13-4.2c-2.5-1.3-4.5-3.4-5.8-5.9c-0.7-1.6-1-3.4-0.7-5.1
		c0-0.2,0.1-0.4,0.1-0.6l0.1-0.5l0.2-0.8c0.1-0.6,0.3-1.1,0.4-1.6c1.1-4.3,2.5-8.4,3.9-12.5c1.5-4.1,3-8.1,4.7-12.1L444,237.3z"/>
	<path class="st4" d="M437.4,226.3c0,0-3.6,1.8,10.2,47.9l32.6-4.2c-2.3-13.2-3.4-21.3-0.6-49.4c-4.7-0.3-9.4-0.3-14,0
		c-5,0.3-9.9,0.9-14.8,1.9C444.5,223.9,437.4,226.3,437.4,226.3z"/>
	<path class="st16" d="M437.4,226.3c0,0-3.6,1.8,10.2,47.9l32.6-4.2c-2.3-13.2-3.4-21.3-0.6-49.4c-4.7-0.3-9.4-0.3-14,0
		c-5,0.3-9.9,0.9-14.8,1.9C444.5,223.9,437.4,226.3,437.4,226.3z"/>
	<path class="st4" d="M480.4,268l1.9,2.7c0.1,0.2-0.1,0.5-0.5,0.5l-34.1,4.5c-0.3,0-0.6-0.1-0.6-0.3l-0.7-2.9
		c-0.1-0.2,0.2-0.4,0.5-0.4l33-4.3C480.1,267.8,480.3,267.8,480.4,268z"/>
	<path class="st19" d="M480.4,268l1.9,2.7c0.1,0.2-0.1,0.5-0.5,0.5l-34.1,4.5c-0.3,0-0.6-0.1-0.6-0.3l-0.7-2.9
		c-0.1-0.2,0.2-0.4,0.5-0.4l33-4.3C480.1,267.8,480.3,267.8,480.4,268z"/>
	<path class="st15" d="M476.5,272.2l0.9-0.1c0.2,0,0.3-0.1,0.3-0.2l-0.9-3.7c-0.1-0.1-0.2-0.2-0.4-0.2l-0.9,0.1
		c-0.2,0-0.3,0.1-0.3,0.2l0.9,3.7C476.1,272.2,476.3,272.3,476.5,272.2z"/>
	<path class="st15" d="M455.1,275l0.9-0.1c0.2,0,0.3-0.1,0.3-0.2l-0.9-3.7c-0.1-0.1-0.2-0.2-0.4-0.2l-0.9,0.1
		c-0.2,0-0.3,0.1-0.3,0.2l0.9,3.7C454.7,275,454.9,275.1,455.1,275z"/>
	<path class="st4" d="M439,242c0.9,4.2,2.2,9.4,4,16.1l0.4-16.9L439,242z"/>
	<path class="st14" d="M439,242c0.9,4.2,2.2,9.4,4,16.1l0.4-16.9L439,242z"/>
	<path class="st4" d="M437.4,226.3c-4,1.6-7.5,15.5-7.5,15.5l13.9,6.8c0,0,6.7-16.9,3.7-20.2C444.5,225.1,442.1,224.5,437.4,226.3z"
		/>
	<path class="st16" d="M437.4,226.3c-4,1.6-7.5,15.5-7.5,15.5l13.9,6.8c0,0,6.7-16.9,3.7-20.2C444.5,225.1,442.1,224.5,437.4,226.3z
		"/>
	<polygon class="st4" points="461.8,442.4 447.1,442.4 446,437.5 462.3,437.6 	"/>
	<polygon class="st19" points="461.8,442.4 447.1,442.4 446,437.5 462.3,437.6 	"/>
	<path class="st12" d="M447.7,272.1l-1.2-0.5c-0.9-0.4-1.9,0.1-2.3,1c-0.1,0.3-0.2,0.6-0.1,0.9l0.9,5.6c0.2,1,1.1,1.8,2.2,1.6
		c0.1,0,0.2,0,0.4-0.1c0.4-0.2,0.8-0.4,1.2-0.7c0.8-0.7,1.2-1.6,1.2-2.7l-0.1-2.3C449.7,273.7,448.9,272.5,447.7,272.1z"/>
</g>
</svg>
