<?xml version="1.0" encoding="utf-8"?>
<!-- Generator: Adobe Illustrator 26.3.0, SVG Export Plug-In . SVG Version: 6.00 Build 0)  -->
<svg version="1.1" id="Calque_1" xmlns="http://www.w3.org/2000/svg" xmlns:xlink="http://www.w3.org/1999/xlink" x="0px" y="0px"
	 viewBox="0 0 155 87.9" style="enable-background:new 0 0 155 87.9;" xml:space="preserve">
<style type="text/css">
	.st0{display:none;}
	.st1{display:inline;}
	.st2{fill:#009FE3;}
	.st3{fill:#FFFFFF;}
	.st4{enable-background:new    ;}
</style>
<g class="st0">
	<g class="st1">
		<rect x="30.3" y="0" class="st2" width="88.1" height="88.1"/>
	</g>
</g>
<g>
	<g>
		<path class="st3" d="M69,62.5c-3.7,2.8-7.7,4.8-12,6.1c-12.8,3.7-27.8-1.3-35.9-11.9c-9.2-12.1-9.9-27.2-1.8-40.1
			c6.9-11,21.1-17.3,33.8-15.1c12.2,2.1,20.9,8.8,26.2,20c2.1,4.4,3,9.2,3,14c0,9.7,0,19.5,0,29.2c0,2.1-0.7,3.8-2.8,4.6
			c-2,0.8-3.6,0.1-5.1-1.4C72.7,66.2,70.9,64.4,69,62.5z M73.3,55c0.1-0.1,0.3-0.2,0.4-0.2c0-6.7,0.2-13.5,0-20.2
			C73,16,53.5,4.3,36.7,12.4C26,17.6,20.1,29.9,22.9,41.2c3,12.2,13.6,20.4,25.8,19.9c6.8-0.2,12.5-2.8,17.4-7.5
			c1.8-1.7,4.1-1.7,6-0.1C72.6,54,72.9,54.5,73.3,55z"/>
		<g>
			<path class="st3" d="M87.2,65.8V39.3c0-2.2,1.8-4,4-4l0,0c2.2,0,4,1.8,4,4v26.5c0,2.2-1.8,4-4,4l0,0C89,69.8,87.2,68,87.2,65.8z"
				/>
			<path class="st3" d="M99.8,65.8V39.3c0-2.2,1.8-4,4-4l0,0c2.2,0,4,1.8,4,4v26.5c0,2.2-1.8,4-4,4l0,0
				C101.6,69.8,99.8,68,99.8,65.8z"/>
			<path class="st3" d="M123.9,51.7c-3.4,0-6.1,2.7-6.1,6.1s2.7,6.1,6.1,6.1s6.1-2.7,6.1-6.1S127.2,51.7,123.9,51.7z"/>
			<path class="st3" d="M135.9,57.8c0,6.6-5.4,12-12,12s-12-5.4-12-12s5.4-12,12-12C130.5,45.8,135.9,51.1,135.9,57.8z"/>
		</g>
		<path class="st3" d="M64.5,50.8c0.1-0.1,0.2-0.3,0.3-0.4c0-0.2,0-0.3,0.1-0.6c0.4-0.7,0.7-1.4,1-2.1c0.2-0.6,0.1-1.1-0.3-1.6
			c-1.5-1.5-3-3-4.5-4.5C60.5,41,60,41,59.3,41.5c-0.2,0.1-0.3,0.3-0.5,0.4c-0.9,0.8-1.7,1.7-2.6,2.5c-1.1,1-2,1-3-0.1
			c-2.1-2.1-4.3-4.2-6.4-6.4c-1.7-1.7-3.4-3.4-5.1-5.1c-0.8-0.8-0.8-1.6-0.2-2.5c0.2-0.2,0.4-0.4,0.5-0.6c0.9-0.9,1.8-1.8,2.7-2.7
			c0.6-0.7,0.6-1.2,0-1.8c-1.4-1.5-2.9-2.9-4.4-4.4c-0.4-0.4-0.9-0.6-1.5-0.4c-2.4,0.8-4.6,1.9-5.3,4.7c-0.3,1.1-0.4,2.2-0.4,3.3
			c0.1,2.7,1.1,5.1,2.4,7.3c2.4,4.2,5.7,7.7,9.3,10.9c2.5,2.2,5.2,4.1,8.3,5.3c3.2,1.3,6.5,1.8,9.7-0.1c0.1,0,0.1,0,0.2,0
			c0.3-0.3,0.5-0.5,0.8-0.7C64.2,51.1,64.4,51,64.5,50.8z"/>
		<g>
			<g>
				<g>
					<path class="st3" d="M87.3,73.3h3.3l2.3,7.3l2.3-7.3h3.2l-3.8,10.2h-3.4L87.3,73.3z"/>
				</g>
			</g>
			<g>
				<g>
					<path class="st3" d="M104.9,81.8h-3.6l-0.5,1.7h-3.2l3.8-10.2h3.4l3.8,10.2h-3.3L104.9,81.8z M104.2,79.6l-1.1-3.7l-1.1,3.7
						H104.2z"/>
				</g>
			</g>
			<g>
				<g>
					<path class="st3" d="M109.7,73.3h3.2v3.6h3.4v-3.6h3.2v10.2h-3.2v-4.1h-3.4v4.1h-3.2V73.3z"/>
				</g>
			</g>
		</g>
	</g>
</g>
<path class="st2" d="M118.8,56.7c-0.5-2.4,0.9-4.2,2.2-4.7c1.6-0.6,3.4,0.2,4.2,2.2c1.1-0.5,2.1-0.4,3,0.5c0.9,0.9,1.1,2,0.8,3.3
	c0.1,0,0.2,0.1,0.4,0.1c1,0.3,1.7,1.5,1.6,2.6c-0.1,1.2-1,2.2-2.1,2.2c-3.3,0-6.6,0-9.8,0c-1.4,0-2.6-1.3-2.7-2.9
	c-0.1-1.7,0.9-3.1,2.3-3.3C118.7,56.8,118.7,56.8,118.8,56.7z"/>
<g>
	<g class="st4">
		<path class="st3" d="M133.9,78.4c0,1.7-0.6,3.2-1.8,4.4s-2.7,1.8-4.5,1.8s-3.3-0.6-4.5-1.8s-1.8-2.6-1.8-4.4s0.6-3.2,1.8-4.4
			c1.2-1.2,2.7-1.8,4.5-1.8s3.3,0.6,4.5,1.8C133.3,75.2,133.9,76.7,133.9,78.4z M124.6,78.4c0,1,0.3,1.8,0.8,2.4s1.3,0.9,2.1,0.9
			c0.8,0,1.6-0.3,2.1-0.9s0.8-1.4,0.8-2.4s-0.3-1.8-0.8-2.4c-0.6-0.6-1.3-0.9-2.1-0.9s-1.6,0.3-2.1,0.9
			C124.9,76.6,124.6,77.4,124.6,78.4z"/>
	</g>
</g>
</svg>
